<svg width="116" height="36" viewBox="0 0 116 36" fill="none" xmlns="http://www.w3.org/2000/svg">
<path d="M40.6276 24.9221V11.6904L51.7987 11.6548C53.2696 11.6548 54.3614 11.9626 55.0742 12.5717C55.7837 13.184 56.1401 14.1041 56.1401 15.3256C56.1401 16.5502 55.7319 17.4477 54.9154 18.0147C55.4597 18.3127 55.8615 18.7048 56.1206 19.194C56.3798 19.6832 56.5094 20.3117 56.5094 21.0763C56.5094 22.3269 56.153 23.2762 55.4435 23.9242C54.7307 24.5722 53.6389 24.8994 52.168 24.8994L40.6276 24.9221ZM51.4455 14.0296H43.5953V16.9973H51.4455C52.5697 16.9973 53.1335 16.4887 53.1335 15.4746C53.1335 14.5123 52.5697 14.0296 51.4455 14.0296ZM51.8148 19.3754H43.5953V22.531H51.8148C52.9391 22.531 53.5028 21.9997 53.5028 20.937C53.5061 19.8938 52.9423 19.3754 51.8148 19.3754Z" fill="#050404"/>
<path d="M58.5506 24.9221V11.6548H61.5572L70.9463 21.193V11.6548H73.914V24.9221H70.9074L61.5183 15.3644V24.9221H58.5506Z" fill="#050404"/>
<path d="M75.4011 24.9221L81.3755 11.6548H85.9599L91.9342 24.9221H88.704L87.4437 22.1196H79.8916L78.6313 24.9221H75.4011ZM80.9672 19.7091H86.3681L83.7892 13.9745H83.5494L80.9672 19.7091Z" fill="#050404"/>
<path d="M95.2551 24.9221L104.236 14.1041H92.7668V11.6904H107.797V14.1203L98.8351 24.9188H95.2551V24.9221Z" fill="#050404"/>
<path d="M113.123 24.9221V14.1041H109.19V11.6904H116V24.9221H113.123Z" fill="#050404"/>
<path d="M28.4748 14.2268C31.0699 12.9859 32.6218 10.4459 32.7255 7.76002C32.7773 6.45759 32.489 5.12277 31.8119 3.88513C29.9587 0.483268 25.6917 -0.94228 22.1635 0.651738C20.3686 1.46171 19.0597 2.88725 18.3534 4.56227C17.6374 6.2632 16.2799 7.61099 14.6178 8.408C12.9688 9.19528 11.0994 9.37996 9.33038 8.92313C7.61649 8.47927 5.73411 8.63802 4.0267 9.52575C1.58383 10.7925 0.106461 13.2937 0.0060251 15.918C-0.0360932 16.958 0.142094 18.0142 0.556798 19.0218C2.21237 23.0198 6.85187 24.7629 10.7041 22.9194C12.324 22.1451 13.5357 20.8621 14.242 19.3523C15.0228 17.6838 16.2993 16.2938 17.9614 15.4968L18.3955 15.2895C20.0187 14.5119 21.8525 14.3758 23.6085 14.7743C25.1928 15.1307 26.9002 14.9785 28.4748 14.2268Z" fill="url(#paint0_linear_1208_4441)"/>
<path d="M18.3567 4.56195C17.6407 6.26289 16.2832 7.61067 14.6211 8.40768C12.972 9.19497 11.1026 9.37964 9.33363 8.92282C7.61974 8.47896 5.73737 8.63771 4.02996 9.52543C1.58709 10.7922 0.109711 13.2934 0.00927538 15.9177C0.00279564 16.1218 0.0027988 16.3292 0.0125184 16.5333C0.116194 15.7039 0.355945 14.8842 0.751209 14.1066C2.71457 10.2512 7.47719 8.87423 11.1739 11.0125C12.729 11.91 13.8338 13.2837 14.4202 14.8421C14.7377 15.6812 15.1751 16.4653 15.7259 17.1521C16.3609 16.4717 17.1093 15.908 17.9647 15.4998L18.3988 15.2924C20.022 14.5148 21.8557 14.3788 23.6118 14.7773C25.1928 15.1337 26.9002 14.9814 28.4748 14.2297C31.0699 12.9889 32.6218 10.4488 32.7255 7.76295C32.7774 6.46052 32.489 5.12569 31.8119 3.88806C29.9587 0.486189 25.6917 -0.939349 22.1635 0.654669C20.3719 1.46464 19.063 2.88694 18.3567 4.56195Z" fill="url(#paint1_linear_1208_4441)"/>
<path d="M11.1739 11.0127C7.47721 8.87442 2.7146 10.2514 0.751233 14.1068C0.355969 14.8844 0.112979 15.7041 0.0125427 16.5335C0.0481813 17.3726 0.226375 18.215 0.560082 19.0217C2.21566 23.0197 6.85516 24.7628 10.7074 22.9193C12.3273 22.1449 13.539 20.8619 14.2453 19.3522C14.6244 18.539 15.1266 17.7938 15.7259 17.1491C15.1751 16.459 14.7378 15.6782 14.4203 14.839C13.8338 13.2839 12.729 11.9102 11.1739 11.0127Z" fill="url(#paint2_linear_1208_4441)"/>
<path opacity="0.5" d="M18.0683 7.10887C17.929 9.06251 18.551 10.8801 19.672 12.2894C20.7898 13.6955 21.3049 15.4839 21.2337 17.2788C21.1624 19.1223 20.4593 20.901 19.1828 22.2326C17.9257 23.5415 17.1352 25.3105 17.0996 27.2771C17.0315 31.1487 20.0317 34.502 23.8871 34.8584C28.1929 35.2536 31.8961 31.9619 32.0613 27.6983C32.1294 25.952 31.5948 24.3256 30.6423 23.0166C29.5828 21.5619 28.9834 19.8221 29.0515 18.024L29.0709 17.5413C29.1422 15.6978 29.9133 13.9774 31.138 12.6004C32.2428 11.3563 32.9426 9.73641 33.0106 7.94152C33.1758 3.67461 29.7383 0.104266 25.4131 0.165823C21.5739 0.217661 18.3405 3.2761 18.0683 7.10887Z" fill="url(#paint3_linear_1208_4441)"/>
<path d="M11.3391 24.2416C10.9374 24.436 10.5227 24.5948 10.1047 24.7244C11.4428 24.7276 12.7679 25.1099 13.9407 25.7871C15.538 26.7104 16.7854 28.1619 17.3653 29.9114C17.9355 31.635 19.131 33.1578 20.8579 34.107C24.25 35.9732 28.6174 34.8846 30.7298 31.6383C33.0884 28.0128 31.9026 23.2049 28.2091 21.0666C26.6961 20.1918 25.0082 19.9067 23.4044 20.14C21.6225 20.3959 19.8049 20.1205 18.2465 19.2166L17.8286 18.9769C17.4398 18.7533 17.0802 18.4941 16.7432 18.209C16.2799 18.7144 15.8814 19.3073 15.5704 19.978C14.6989 21.8409 13.1956 23.3539 11.3391 24.2416Z" fill="url(#paint4_linear_1208_4441)"/>
<defs>
<linearGradient id="paint0_linear_1208_4441" x1="15.8924" y1="23.9894" x2="16.8441" y2="-0.332538" gradientUnits="userSpaceOnUse">
<stop stop-color="#80EDDB"/>
<stop offset="1" stop-color="#538498"/>
</linearGradient>
<linearGradient id="paint1_linear_1208_4441" x1="16.1592" y1="17.1701" x2="16.8441" y2="-0.332848" gradientUnits="userSpaceOnUse">
<stop stop-color="#80EDDB"/>
<stop offset="1" stop-color="#538498"/>
</linearGradient>
<linearGradient id="paint2_linear_1208_4441" x1="7.60242" y1="23.6649" x2="8.13606" y2="10.0279" gradientUnits="userSpaceOnUse">
<stop stop-color="#80EDDB"/>
<stop offset="0.1372" stop-color="#7DE8DA"/>
<stop offset="0.2991" stop-color="#74DAD5"/>
<stop offset="0.4736" stop-color="#66C2CE"/>
<stop offset="0.6568" stop-color="#51A1C4"/>
<stop offset="0.8449" stop-color="#3877B8"/>
<stop offset="1" stop-color="#1F4EAC"/>
</linearGradient>
<linearGradient id="paint3_linear_1208_4441" x1="24.378" y1="34.8869" x2="25.7367" y2="0.163678" gradientUnits="userSpaceOnUse">
<stop stop-color="#80EDDB"/>
<stop offset="0.1372" stop-color="#7DE8DA"/>
<stop offset="0.2991" stop-color="#74DAD5"/>
<stop offset="0.4736" stop-color="#66C2CE"/>
<stop offset="0.6568" stop-color="#51A1C4"/>
<stop offset="0.8449" stop-color="#3877B8"/>
<stop offset="1" stop-color="#1F4EAC"/>
</linearGradient>
<linearGradient id="paint4_linear_1208_4441" x1="20.6883" y1="34.877" x2="21.3335" y2="18.3884" gradientUnits="userSpaceOnUse">
<stop stop-color="#80EDDB"/>
<stop offset="0.1372" stop-color="#7DE8DA"/>
<stop offset="0.2991" stop-color="#74DAD5"/>
<stop offset="0.4736" stop-color="#66C2CE"/>
<stop offset="0.6568" stop-color="#51A1C4"/>
<stop offset="0.8449" stop-color="#3877B8"/>
<stop offset="1" stop-color="#1F4EAC"/>
</linearGradient>
</defs>
</svg>
