<svg width="94" height="31" viewBox="0 0 94 31" fill="none" xmlns="http://www.w3.org/2000/svg">
<path fill-rule="evenodd" clip-rule="evenodd" d="M5.92136 4.41995C4.75551 4.41995 3.67497 4.8037 2.8077 5.44329V2.0606C2.8077 1.47787 2.3243 0.994629 1.74137 0.994629C1.15845 0.994629 0.675049 1.47787 0.675049 2.0606V9.66454C0.675049 12.564 3.02096 14.9091 5.92136 14.9091C8.82176 14.9091 11.1677 12.564 11.1677 9.66454C11.1677 6.76509 8.82176 4.41995 5.92136 4.41995ZM5.92136 12.8056C4.18681 12.8056 2.77926 11.3985 2.77926 9.66454C2.77926 7.93056 4.18681 6.52348 5.92136 6.52348C7.65591 6.52348 9.06346 7.93056 9.06346 9.66454C9.06346 11.3985 7.65591 12.8056 5.92136 12.8056Z" fill="#8C8CA2"/>
<path fill-rule="evenodd" clip-rule="evenodd" d="M86.6776 3.26871C83.0947 3.26871 80.1801 6.18237 80.1801 9.76404C80.1801 13.3457 83.0947 16.2594 86.6776 16.2594C90.2604 16.2594 93.175 13.3457 93.175 9.76404C93.175 6.16816 90.2604 3.26871 86.6776 3.26871ZM90.0614 10.8158H87.7439V13.1325C87.7439 13.7152 87.2605 14.1985 86.6776 14.1985C86.0947 14.1985 85.6113 13.7152 85.6113 13.1325V10.8158H83.2938C82.7109 10.8158 82.2275 10.3326 82.2275 9.74982C82.2275 9.16709 82.7109 8.68385 83.2938 8.68385H85.6113V6.36713C85.6113 5.7844 86.0947 5.30116 86.6776 5.30116C87.2605 5.30116 87.7439 5.7844 87.7439 6.36713V8.68385H90.0614C90.6443 8.68385 91.1277 9.16709 91.1277 9.74982C91.1277 10.3326 90.6443 10.8158 90.0614 10.8158Z" fill="#8C8CA2"/>
<path d="M24.0346 7.53265C24.0346 5.54283 25.7407 4.39159 27.1909 4.39159H31.243C31.8259 4.39159 32.2951 4.8464 32.2951 5.44335C32.2951 6.13978 31.6979 6.4951 31.243 6.4951H27.2051C26.5227 6.4951 26.153 7.04941 26.153 7.53265C26.153 8.0301 26.5085 8.59862 27.2051 8.59862H29.6648C31.57 8.59862 32.8211 10.1905 32.8211 11.7397C32.8211 13.3458 31.6268 14.9234 29.6648 14.9234H25.6412C24.973 14.9234 24.5749 14.3691 24.5749 13.8574C24.5749 13.3031 25.0014 12.7915 25.627 12.7915H29.6221C30.3188 12.7915 30.66 12.1519 30.66 11.7539C30.66 11.3702 30.3472 10.7306 29.6221 10.7306H27.1909C26.0962 10.7164 24.0346 9.84937 24.0346 7.53265Z" fill="#8C8CA2"/>
<path d="M59.6498 7.53265C59.6498 5.54283 61.3559 4.39159 62.8061 4.39159H66.8439C67.4268 4.39159 67.896 4.8464 67.896 5.44335C67.896 6.13978 67.2989 6.4951 66.8439 6.4951H62.8061C62.1237 6.4951 61.754 7.04941 61.754 7.53265C61.754 8.0301 62.1095 8.59862 62.8061 8.59862H65.2658C67.1709 8.59862 68.4221 10.1905 68.4221 11.7397C68.4221 13.3458 67.2278 14.9234 65.2658 14.9234H61.2422C60.5597 14.9234 60.1759 14.3691 60.1759 13.8574C60.1759 13.3031 60.6024 12.7915 61.228 12.7915H65.2231C65.9198 12.7915 66.261 12.1519 66.261 11.7539C66.261 11.3702 65.9482 10.7306 65.2231 10.7306H62.8061C61.6971 10.7164 59.6498 9.84937 59.6498 7.53265Z" fill="#8C8CA2"/>
<path d="M71.9907 4.39159C70.5405 4.39159 68.8344 5.54283 68.8344 7.53265C68.8344 9.84937 70.8818 10.7164 71.9907 10.7306H74.422C75.147 10.7306 75.4598 11.3702 75.4598 11.7539C75.4598 12.1519 75.1186 12.7915 74.422 12.7915H70.4268C69.8012 12.7915 69.3747 13.3031 69.3747 13.8574C69.3747 14.3691 69.7586 14.9234 70.441 14.9234H74.4646C76.4266 14.9234 77.6209 13.3458 77.6209 11.7397C77.6209 10.1905 76.3698 8.59862 74.4646 8.59862H71.9907C71.2941 8.59862 70.9386 8.0301 70.9386 7.53265C70.9386 7.04941 71.3083 6.4951 71.9907 6.4951H76.0285C76.4835 6.4951 77.0806 6.13978 77.0806 5.44335C77.0806 4.8464 76.6115 4.39159 76.0285 4.39159H71.9907Z" fill="#8C8CA2"/>
<path d="M34.058 5.45756C34.058 4.87483 34.5414 4.39159 35.1244 4.39159C35.7073 4.39159 36.1907 4.87483 36.1907 5.45756V13.8432C36.1907 14.4259 35.7073 14.9092 35.1244 14.9092C34.5414 14.9092 34.058 14.4259 34.058 13.8432V5.45756Z" fill="#8C8CA2"/>
<path fill-rule="evenodd" clip-rule="evenodd" d="M34.2998 21.5181C35.167 20.8785 36.2476 20.4948 37.4134 20.4948C40.3138 20.4948 42.6597 22.8399 42.6597 25.7394C42.6597 28.6388 40.3138 30.984 37.4134 30.984C34.513 30.984 32.1671 28.6388 32.1671 25.7394V18.1354C32.1671 17.5527 32.6505 17.0695 33.2334 17.0695C33.8164 17.0695 34.2998 17.5527 34.2998 18.1354V21.5181ZM34.2713 25.7394C34.2713 27.4733 35.6789 28.8804 37.4134 28.8804C39.148 28.8804 40.5413 27.4733 40.5555 25.7394C40.5555 24.0054 39.148 22.5983 37.4134 22.5983C35.6789 22.5983 34.2713 24.0054 34.2713 25.7394Z" fill="#8C8CA2"/>
<path d="M21.7883 4.39159C21.2054 4.39159 20.722 4.87483 20.722 5.45756L20.7362 9.73566C20.6935 11.427 19.3144 12.7772 17.6083 12.7772C15.9022 12.7772 14.5231 11.427 14.4804 9.73566L14.4946 5.45756C14.4946 4.87483 14.0112 4.39159 13.4283 4.39159C12.8454 4.39159 12.362 4.87483 12.362 5.45756V9.73566C12.4046 12.5925 14.7363 14.9092 17.6083 14.9092C20.4803 14.9092 22.8119 12.6067 22.8546 9.73566V5.45756C22.8546 4.87483 22.3712 4.39159 21.7883 4.39159Z" fill="#8C8CA2"/>
<path d="M17.395 21.5324C17.395 20.9497 17.8784 20.4664 18.4613 20.4664C19.0442 20.4664 19.5276 20.9497 19.5276 21.5324V25.8105C19.485 28.6815 17.1533 30.984 14.2813 30.984C12.5752 30.984 11.0539 30.1739 10.1013 28.9089C9.14876 30.1739 7.62747 30.984 5.92136 30.984C3.04939 30.984 0.717702 28.6815 0.675049 25.8105V21.5324C0.675049 20.9497 1.15845 20.4664 1.74137 20.4664C2.3243 20.4664 2.8077 20.9497 2.8077 21.5324L2.79348 25.8105C2.83613 27.5018 4.21524 28.8521 5.92136 28.8521C7.59904 28.8521 8.96393 27.5302 9.03502 25.8815V21.5324C9.03502 20.9497 9.51842 20.4664 10.1013 20.4664C10.6843 20.4664 11.1677 20.9497 11.1677 21.5324V25.8815C11.2388 27.5302 12.6036 28.8521 14.2813 28.8521C15.9874 28.8521 17.3666 27.5018 17.4092 25.8105L17.395 21.5324Z" fill="#8C8CA2"/>
<path d="M38.5082 14.9092C39.0911 14.9092 39.5745 14.4259 39.5745 13.8432L39.5603 9.56511C39.603 7.87376 40.9821 6.52353 42.6882 6.52353C44.3943 6.52353 45.7734 7.87376 45.8161 9.56511L45.8019 13.8432C45.8019 14.4259 46.2853 14.9092 46.8682 14.9092C47.4511 14.9092 47.9345 14.4259 47.9345 13.8432V9.56511C47.8919 6.7083 45.5602 4.39159 42.6882 4.39159C39.8162 4.39159 37.4845 6.69409 37.4419 9.56511V13.8432C37.4419 14.4259 37.9111 14.9092 38.5082 14.9092Z" fill="#8C8CA2"/>
<path d="M36.1907 2.16012C36.1907 2.74884 35.7133 3.22609 35.1244 3.22609C34.5354 3.22609 34.058 2.74884 34.058 2.16012C34.058 1.5714 34.5354 1.09415 35.1244 1.09415C35.7133 1.09415 36.1907 1.5714 36.1907 2.16012Z" fill="#8C8CA2"/>
<path fill-rule="evenodd" clip-rule="evenodd" d="M58.7541 10.7305C58.2707 10.4036 57.6025 10.5315 57.2755 11.0148C57.2748 11.0154 57.2718 11.0195 57.2664 11.0267C57.1504 11.1811 55.9515 12.7772 54.3893 12.7772C53.9201 12.7772 53.4651 12.6635 53.0528 12.4787L58.0859 7.46153C58.4982 7.04935 58.4982 6.36713 58.0859 5.95496L58.07 5.93904C57.7581 5.62654 56.54 4.40574 54.3751 4.40574C51.4747 4.40574 49.1287 6.75088 49.1287 9.65034C49.1287 12.5498 51.4747 14.8949 54.3751 14.8949C57.2433 14.8949 58.888 12.4207 59.0341 12.201L59.0384 12.1945C59.3797 11.7254 59.2517 11.0574 58.7541 10.7305ZM51.2614 9.66454C51.2614 7.94478 52.6547 6.53769 54.3893 6.53769C54.8585 6.53769 55.3134 6.63718 55.7115 6.83616L51.56 10.9721C51.3751 10.5742 51.2614 10.1336 51.2614 9.66454Z" fill="#8C8CA2"/>
<path fill-rule="evenodd" clip-rule="evenodd" d="M28.9966 27.0896C29.3236 26.6064 29.9918 26.4784 30.4752 26.8053C30.9728 27.1322 31.1008 27.8002 30.7596 28.2693L30.7552 28.2758C30.6091 28.4957 28.9644 30.9697 26.0962 30.9697C23.1958 30.9697 20.8499 28.6246 20.8499 25.7252C20.8499 22.8257 23.1958 20.4806 26.0962 20.4806C28.2611 20.4806 29.4793 21.7014 29.7911 22.0139L29.807 22.0298C30.2193 22.442 30.2193 23.1242 29.807 23.5364L24.7739 28.5535C25.1862 28.7383 25.6412 28.852 26.1104 28.852C27.6727 28.852 28.8716 27.2558 28.9875 27.1015L28.9937 27.0932C28.9953 27.0911 28.9963 27.0899 28.9966 27.0896ZM26.1104 22.6125C24.3758 22.6125 22.9825 24.0196 22.9825 25.7394C22.9825 26.2084 23.0963 26.649 23.2811 27.047L27.4326 22.911C27.0345 22.712 26.5796 22.6125 26.1104 22.6125Z" fill="#8C8CA2"/>
<path d="M50.6358 23.9344C50.4937 24.1334 50.2946 24.304 50.0529 24.4319C49.8112 24.5598 49.5269 24.6167 49.1998 24.6167C48.9155 24.6167 48.6454 24.574 48.4037 24.4745C48.162 24.375 47.9487 24.2471 47.7781 24.0623C47.6075 23.8918 47.4653 23.6786 47.3658 23.437C47.2662 23.1954 47.2236 22.9253 47.2236 22.6411C47.2236 22.3426 47.2805 22.0725 47.38 21.8309C47.4795 21.5893 47.6217 21.3761 47.8065 21.2055C47.9913 21.035 48.2046 20.8928 48.4463 20.8076C48.688 20.7081 48.9581 20.6654 49.2425 20.6654C49.3705 20.6654 49.4984 20.6797 49.6264 20.7081C49.7543 20.7365 49.8823 20.7649 50.0103 20.8218C50.124 20.8644 50.2377 20.9355 50.3373 21.0066C50.4368 21.0776 50.5221 21.1629 50.5932 21.2624L50.1809 21.5751C50.0956 21.4472 49.9534 21.3477 49.7828 21.2624C49.6122 21.1771 49.4273 21.1345 49.2425 21.1345C49.0292 21.1345 48.8302 21.1771 48.6454 21.2482C48.4747 21.3334 48.3184 21.4329 48.1904 21.5751C48.0624 21.7172 47.9771 21.8735 47.906 22.0583C47.835 22.2431 47.8065 22.4421 47.8065 22.6411C47.8065 22.8542 47.835 23.0532 47.906 23.238C47.9771 23.4228 48.0624 23.5791 48.1904 23.7212C48.3184 23.8634 48.4605 23.9628 48.6311 24.0481C48.8018 24.1334 49.0008 24.1618 49.2141 24.1618C49.4273 24.1618 49.6264 24.1192 49.797 24.0339C49.9676 23.9486 50.1098 23.8207 50.2235 23.6644L50.6358 23.9344Z" fill="#8C8CA2"/>
<path fill-rule="evenodd" clip-rule="evenodd" d="M53.5362 23.7922C53.6073 23.6217 53.6358 23.4511 53.6358 23.2521C53.6358 23.0531 53.5931 22.8684 53.5362 22.712C53.4651 22.5557 53.3798 22.4136 53.2519 22.2998C53.1239 22.1862 52.9817 22.1009 52.8111 22.0298C52.6405 21.9587 52.4557 21.9303 52.2709 21.9303C52.0718 21.9303 51.9012 21.9587 51.7306 22.0298C51.5742 22.0867 51.4178 22.1862 51.3041 22.2998C51.1903 22.4136 51.0908 22.5557 51.0197 22.712C50.9486 22.8826 50.9202 23.0531 50.9202 23.2521C50.9202 23.4511 50.9486 23.6359 51.0197 23.7922C51.0908 23.9628 51.1903 24.1049 51.3041 24.2186C51.4178 24.3323 51.56 24.4176 51.7306 24.4887C51.9012 24.5597 52.086 24.5881 52.2709 24.5881C52.4699 24.5881 52.6405 24.5597 52.8111 24.4887C52.9817 24.4318 53.1239 24.3323 53.2519 24.2186C53.3656 24.0907 53.4651 23.9486 53.5362 23.7922ZM53.0528 22.911C53.0955 23.0105 53.1097 23.1384 53.1097 23.2521C53.1097 23.3658 53.0955 23.4795 53.0528 23.5932C53.0244 23.7069 52.9675 23.8064 52.8964 23.8917C52.8253 23.977 52.7258 24.0481 52.6263 24.0907C52.5268 24.1333 52.413 24.1617 52.2709 24.1617C52.1429 24.1617 52.0149 24.1333 51.9154 24.0907C51.8017 24.0481 51.7164 23.977 51.6453 23.8917C51.5742 23.8064 51.5315 23.7069 51.4889 23.5932C51.4462 23.4937 51.432 23.3658 51.432 23.2521C51.432 23.1384 51.4462 23.0247 51.4889 22.911C51.5173 22.8115 51.5742 22.712 51.6453 22.6268C51.7164 22.5415 51.8159 22.4704 51.9154 22.4278C52.0149 22.3851 52.1287 22.3567 52.2709 22.3567C52.3988 22.3567 52.5268 22.3851 52.6263 22.4278C52.74 22.4704 52.8253 22.5415 52.8964 22.6268C52.9675 22.712 53.0102 22.7973 53.0528 22.911Z" fill="#8C8CA2"/>
<path d="M55.1144 22.0583C55.2565 21.9588 55.4272 21.9162 55.612 21.9162C55.7826 21.9162 55.939 21.9588 56.067 22.0299C56.1949 22.1009 56.3087 22.2431 56.394 22.4136C56.4793 22.2573 56.593 22.1294 56.7494 22.0441C56.9058 21.9588 57.0622 21.9162 57.247 21.9162C57.4034 21.9162 57.5456 21.9446 57.6735 22.0014C57.7873 22.0583 57.8868 22.1294 57.9721 22.2288C58.0432 22.3283 58.1143 22.4278 58.1427 22.5557C58.1854 22.6837 58.1996 22.8116 58.1996 22.9537V24.5171H57.702V23.1243C57.702 23.0248 57.6878 22.9253 57.6735 22.8258C57.6593 22.7405 57.6309 22.6552 57.5882 22.5842C57.5456 22.5131 57.4887 22.4563 57.4176 22.4136C57.3465 22.371 57.2612 22.3568 57.1475 22.3568C57.0338 22.3568 56.9342 22.3852 56.8489 22.4278C56.7636 22.4705 56.7067 22.5415 56.6499 22.6126C56.593 22.6837 56.5646 22.7689 56.5361 22.8684C56.5077 22.9679 56.5077 23.0674 56.5077 23.1669V24.5313H56.0101V23.0248C56.0101 22.9253 55.9959 22.84 55.9817 22.7547C55.9674 22.6695 55.939 22.5984 55.8963 22.5415C55.8537 22.4847 55.7968 22.442 55.7257 22.3994C55.6546 22.371 55.5693 22.3425 55.4698 22.3425C55.285 22.3425 55.1286 22.4136 55.0149 22.57C54.8869 22.7263 54.83 22.9253 54.83 23.1669V24.5029H54.3324V22.2715C54.3324 22.2198 54.3286 22.1682 54.3249 22.1185C54.3242 22.1092 54.3235 22.1 54.3229 22.0908C54.3214 22.0711 54.3202 22.0517 54.3193 22.0328C54.3186 22.0172 54.3182 22.002 54.3182 21.9872H54.7874C54.7874 21.9944 54.7876 22.002 54.788 22.01C54.7884 22.0183 54.789 22.0271 54.7897 22.0361C54.7909 22.0509 54.7924 22.0664 54.7939 22.0823C54.7976 22.1214 54.8016 22.1629 54.8016 22.2004V22.3994H54.8158C54.8727 22.2715 54.9864 22.1578 55.1144 22.0583Z" fill="#8C8CA2"/>
<path fill-rule="evenodd" clip-rule="evenodd" d="M59.0527 25.7963H59.5361V24.1618H59.5503C59.6498 24.304 59.7778 24.4177 59.9342 24.4887C60.0906 24.5598 60.2612 24.6024 60.446 24.6024C60.6451 24.6024 60.8157 24.574 60.9721 24.5029C61.1285 24.4319 61.2564 24.3324 61.3702 24.2187C61.4839 24.0908 61.5692 23.9486 61.6261 23.7923C61.683 23.6217 61.7114 23.4512 61.7114 23.2664C61.7114 23.0959 61.683 22.9111 61.6261 22.7547C61.5692 22.5842 61.4839 22.4421 61.3702 22.3284C61.2564 22.2005 61.1285 22.1152 60.9721 22.0441C60.8157 21.973 60.6451 21.9446 60.4603 21.9446C60.247 21.9446 60.0621 21.9873 59.9058 22.0725C59.7494 22.1578 59.6356 22.2715 59.5503 22.3994H59.5361V22.0015H59.0527V25.7963ZM61.1427 22.9111C61.1853 23.0248 61.1996 23.1385 61.1996 23.2522C61.1996 23.3659 61.1853 23.4796 61.1427 23.5791C61.1143 23.6928 61.0574 23.7923 60.9863 23.8776C60.9152 23.9628 60.8157 24.0197 60.7162 24.0766C60.6024 24.1192 60.4887 24.1476 60.3465 24.1476C60.2185 24.1476 60.0906 24.1192 59.9911 24.0766C59.8915 24.0339 59.792 23.9628 59.7209 23.8776C59.6498 23.8065 59.593 23.707 59.5503 23.5933C59.5077 23.4938 59.4934 23.3659 59.4934 23.2522C59.4934 23.1385 59.5077 23.0248 59.5503 22.9111C59.593 22.7974 59.6498 22.6979 59.7209 22.6126C59.792 22.5273 59.8915 22.4563 59.9911 22.4136C60.1048 22.371 60.2185 22.3426 60.3465 22.3426C60.4887 22.3426 60.6166 22.371 60.7162 22.4136C60.8299 22.4563 60.9152 22.5273 60.9863 22.6126C61.0574 22.6979 61.1 22.7974 61.1427 22.9111Z" fill="#8C8CA2"/>
<path d="M62.4054 22.1892C62.404 22.1653 62.4023 22.1417 62.4005 22.1185C62.3971 22.0725 62.3938 22.0282 62.3938 21.9872H62.863C62.863 22.0128 62.8659 22.0441 62.8691 22.0785C62.8711 22.1002 62.8732 22.1232 62.8747 22.1468L62.8752 22.1546L62.8757 22.1633C62.8767 22.1802 62.8773 22.1974 62.8773 22.2146V22.4136H62.8915C62.9626 22.2715 63.0621 22.1436 63.2042 22.0583C63.3464 21.973 63.4886 21.9162 63.6592 21.9162C63.7303 21.9162 63.8014 21.9304 63.8583 21.9446L63.8298 22.4136C63.7587 22.3994 63.6876 22.3852 63.6023 22.3852C63.4886 22.3852 63.3749 22.4136 63.2896 22.4563C63.2043 22.4989 63.1332 22.5557 63.0621 22.641C63.0052 22.7121 62.9626 22.7974 62.9341 22.8969C62.9057 22.9963 62.8915 23.0958 62.8915 23.2095V24.5313H62.3938V22.5557C62.4223 22.4705 62.4223 22.3852 62.4081 22.2715C62.4081 22.2566 62.4077 22.2416 62.4072 22.2268C62.4067 22.2142 62.4061 22.2017 62.4054 22.1892Z" fill="#8C8CA2"/>
<path fill-rule="evenodd" clip-rule="evenodd" d="M66.7018 23.7922C66.7729 23.6217 66.8013 23.4511 66.8013 23.2521C66.8013 23.0531 66.7729 22.8684 66.7018 22.712C66.6307 22.5557 66.5454 22.4136 66.4174 22.2998C66.3037 22.1862 66.1615 22.1009 65.9909 22.0298C65.8203 21.9587 65.6355 21.9303 65.4506 21.9303C65.2516 21.9303 65.081 21.9587 64.9104 22.0298C64.754 22.0867 64.5976 22.1862 64.4838 22.2998C64.3701 22.4136 64.2706 22.5557 64.1995 22.712C64.1284 22.8826 64.1 23.0531 64.1 23.2521C64.1 23.4511 64.1284 23.6359 64.1995 23.7922C64.2706 23.9628 64.3701 24.1049 64.4838 24.2186C64.5976 24.3323 64.7398 24.4176 64.9104 24.4887C65.081 24.5597 65.2658 24.5881 65.4506 24.5881C65.6497 24.5881 65.8203 24.5597 65.9909 24.4887C66.1473 24.4318 66.2895 24.3323 66.4174 24.2186C66.5312 24.0907 66.6307 23.9486 66.7018 23.7922ZM66.2184 22.911C66.261 23.0105 66.2753 23.1384 66.2753 23.2521C66.2753 23.3658 66.261 23.4795 66.2184 23.5932C66.19 23.7069 66.1331 23.8064 66.062 23.8917C65.9909 23.977 65.8914 24.0481 65.7919 24.0907C65.6923 24.1333 65.5786 24.1617 65.4364 24.1617C65.3085 24.1617 65.1805 24.1333 65.081 24.0907C64.9672 24.0481 64.8819 23.977 64.8108 23.8917C64.7489 23.8174 64.7086 23.7215 64.671 23.6323L64.663 23.6134C64.6601 23.6066 64.6573 23.5999 64.6545 23.5932C64.6118 23.4937 64.5976 23.3658 64.5976 23.2521C64.5976 23.1384 64.6118 23.0247 64.6545 22.911C64.6829 22.8115 64.7398 22.712 64.8108 22.6268C64.8819 22.5415 64.9815 22.4704 65.081 22.4278C65.1805 22.3851 65.2943 22.3567 65.4364 22.3567C65.5644 22.3567 65.6923 22.3851 65.7919 22.4278C65.9056 22.4704 65.9909 22.5415 66.062 22.6268C66.1331 22.712 66.1757 22.7973 66.2184 22.911Z" fill="#8C8CA2"/>
<path d="M68.2941 22.0583C68.4363 21.9588 68.6069 21.9162 68.7918 21.9162C68.9624 21.9162 69.1188 21.9588 69.2467 22.0299C69.3889 22.1009 69.4884 22.2431 69.5737 22.4136C69.659 22.2573 69.7728 22.1294 69.9292 22.0441C70.0856 21.9588 70.242 21.9162 70.4268 21.9162C70.5832 21.9162 70.7254 21.9446 70.8533 22.0014C70.9671 22.0583 71.0666 22.1294 71.1519 22.2288C71.223 22.3283 71.2941 22.4278 71.3225 22.5557C71.3652 22.6837 71.3794 22.8116 71.3794 22.9537V24.5171H70.8818V23.1243C70.8818 23.0248 70.8675 22.9253 70.8533 22.8258C70.8391 22.7405 70.8107 22.6552 70.768 22.5842C70.7254 22.5131 70.6685 22.4563 70.5974 22.4136C70.5263 22.371 70.441 22.3568 70.3273 22.3568C70.2135 22.3568 70.114 22.3852 70.0287 22.4278C69.9434 22.4705 69.8865 22.5415 69.8296 22.6126C69.7728 22.6837 69.7443 22.7689 69.7159 22.8684C69.6875 22.9679 69.6875 23.0674 69.6875 23.1669V24.5313H69.1898V23.0248C69.1898 22.9253 69.1756 22.84 69.1614 22.7547C69.1472 22.6695 69.1188 22.5984 69.0761 22.5415C69.0335 22.4847 68.9766 22.442 68.9055 22.3994C68.8344 22.371 68.7491 22.3425 68.6496 22.3425C68.4648 22.3425 68.3084 22.4136 68.1946 22.57C68.0667 22.7263 68.0098 22.9253 68.0098 23.1669V24.5029H67.4979V22.2715C67.4979 22.2198 67.4941 22.1682 67.4904 22.1185C67.487 22.0725 67.4837 22.0282 67.4837 21.9872H67.9529C67.9529 22.0141 67.9561 22.0473 67.9594 22.0823L67.9595 22.0824C67.9632 22.1215 67.9671 22.163 67.9671 22.2004V22.3994H67.9814C68.0524 22.2715 68.152 22.1578 68.2941 22.0583Z" fill="#8C8CA2"/>
<path fill-rule="evenodd" clip-rule="evenodd" d="M74.5783 23.2379C74.5783 23.0247 74.5499 22.8542 74.5072 22.6836C74.4504 22.5273 74.3651 22.3851 74.2655 22.2714C74.166 22.1577 74.0381 22.0724 73.8817 22.0156C73.7395 21.9587 73.5689 21.9303 73.384 21.9303C73.1992 21.9303 73.0286 21.9587 72.8722 22.0298C72.7158 22.0867 72.5736 22.1862 72.4599 22.2998C72.3462 22.4136 72.2608 22.5557 72.1898 22.7262C72.1187 22.8968 72.0902 23.0674 72.0902 23.2663C72.0902 23.4653 72.1187 23.6501 72.1898 23.8064C72.2466 23.9628 72.3462 24.1049 72.4599 24.2186C72.5879 24.3323 72.73 24.4318 72.8864 24.4887C73.0428 24.5597 73.2276 24.5881 73.4125 24.5881C73.64 24.5881 73.839 24.5455 74.0238 24.4602C74.1945 24.3749 74.3651 24.247 74.493 24.0623L74.1376 23.778C74.0665 23.8775 73.967 23.977 73.839 24.0481C73.711 24.1191 73.5689 24.1617 73.3983 24.1617C73.2845 24.1617 73.185 24.1475 73.0855 24.1049C72.9859 24.0765 72.9006 24.0196 72.8296 23.9486C72.7443 23.8775 72.6874 23.8064 72.6447 23.7069C72.6021 23.6075 72.5736 23.508 72.5736 23.4085H74.5783V23.2379ZM74.0096 22.7404C74.0523 22.8257 74.0665 22.9252 74.0665 23.0247H72.5736C72.5736 22.9252 72.6021 22.8257 72.6447 22.7404C72.6874 22.6552 72.7442 22.5841 72.8153 22.513C72.8864 22.442 72.9575 22.3994 73.057 22.3567C73.1423 22.3141 73.2561 22.2998 73.3556 22.2998C73.4836 22.2998 73.5831 22.3141 73.6684 22.3567C73.7537 22.3994 73.8248 22.4562 73.8817 22.513C73.9385 22.5841 73.967 22.6552 74.0096 22.7404Z" fill="#8C8CA2"/>
<path d="M76.4978 22.3993H75.8295V23.7069C75.8295 23.8633 75.858 23.9627 75.9148 24.0338C75.9717 24.1049 76.057 24.1333 76.185 24.1333C76.2276 24.1333 76.2845 24.1333 76.3271 24.1191C76.384 24.1049 76.4267 24.0907 76.4693 24.0765L76.4835 24.4886C76.4267 24.5171 76.3556 24.5313 76.2845 24.5455C76.2134 24.5597 76.1423 24.5597 76.057 24.5597C75.8153 24.5597 75.6305 24.4886 75.5167 24.3607C75.3888 24.2328 75.3319 24.0338 75.3319 23.7638V22.3993H74.8485V21.9871H75.3319V21.2623H75.8295V21.9871H76.4978V22.3993Z" fill="#8C8CA2"/>
<path d="M77.5072 21.305C77.5783 21.2482 77.6067 21.1771 77.6067 21.0776C77.6067 20.9923 77.564 20.9213 77.5072 20.836C77.4361 20.7649 77.3508 20.7365 77.2655 20.7365C77.1802 20.7365 77.0949 20.7791 77.038 20.836C76.9669 20.8929 76.9385 20.9781 76.9385 21.0634C76.9385 21.1487 76.9811 21.2198 77.038 21.2908C77.0949 21.3619 77.1802 21.3903 77.2655 21.3903C77.365 21.3903 77.4361 21.3619 77.5072 21.305Z" fill="#8C8CA2"/>
<path d="M77.0238 24.5172H77.5214V22.0015H77.0238V24.5172Z" fill="#8C8CA2"/>
<path fill-rule="evenodd" clip-rule="evenodd" d="M80.4076 24.1192C80.3081 24.2755 80.1801 24.3892 80.0095 24.4745C79.8389 24.5598 79.6683 24.5882 79.4977 24.5882C79.2986 24.5882 79.128 24.5598 78.9716 24.4887C78.8152 24.4176 78.6872 24.3182 78.5735 24.2044C78.4598 24.0907 78.3745 23.9486 78.3176 23.7781C78.2607 23.6217 78.2323 23.4369 78.2323 23.2522C78.2323 23.0674 78.2607 22.8969 78.3176 22.7405C78.3745 22.5842 78.4598 22.442 78.5735 22.3141C78.6872 22.2004 78.8152 22.1009 78.9716 22.0299C79.128 21.9588 79.2986 21.9304 79.4834 21.9304C79.6825 21.9304 79.8673 21.973 80.0237 22.0583C80.1801 22.1436 80.2938 22.2573 80.3791 22.371H80.3934V20.4949H80.891V24.5171H80.4076V24.1192ZM78.7441 23.2522C78.7441 23.3659 78.7583 23.4796 78.801 23.5933C78.8294 23.707 78.8863 23.8065 78.9574 23.8918C79.0285 23.977 79.1138 24.0481 79.2133 24.0907C79.3128 24.1476 79.4408 24.1618 79.5687 24.1618C79.6967 24.1618 79.8104 24.1334 79.9242 24.0907C80.0237 24.0481 80.1232 23.977 80.1943 23.8918C80.2654 23.8065 80.3223 23.707 80.3649 23.6075C80.4076 23.4938 80.4218 23.3801 80.4218 23.2664C80.4218 23.1527 80.4076 23.0248 80.3649 22.9253C80.3223 22.8116 80.2654 22.7121 80.1943 22.6268C80.1232 22.5415 80.0237 22.4705 79.9242 22.4278C79.8247 22.3852 79.6967 22.3568 79.5687 22.3568C79.4266 22.3568 79.3128 22.3852 79.2133 22.4278C79.1138 22.4705 79.0285 22.5415 78.9574 22.6268C78.8863 22.7121 78.8294 22.8116 78.801 22.9253C78.7583 23.0248 78.7441 23.1385 78.7441 23.2522Z" fill="#8C8CA2"/>
<path fill-rule="evenodd" clip-rule="evenodd" d="M84.2321 23.7922C84.3032 23.6217 84.3316 23.4511 84.3316 23.2521C84.3316 23.0531 84.289 22.8684 84.2321 22.712C84.161 22.5557 84.0757 22.4136 83.9478 22.2998C83.834 22.1862 83.6918 22.1009 83.5212 22.0298C83.3506 21.9587 83.1658 21.9303 82.981 21.9303C82.7819 21.9303 82.6113 21.9587 82.4407 22.0298C82.2843 22.0867 82.1279 22.1862 82.0142 22.2998C81.9004 22.4136 81.8009 22.5557 81.7298 22.712C81.6587 22.8826 81.6303 23.0531 81.6303 23.2521C81.6303 23.4511 81.6587 23.6359 81.7298 23.7922C81.8009 23.9628 81.9004 24.1049 82.0142 24.2186C82.1279 24.3323 82.2701 24.4176 82.4407 24.4887C82.6113 24.5597 82.7961 24.5881 82.981 24.5881C83.18 24.5881 83.3506 24.5597 83.5212 24.4887C83.6776 24.4318 83.8198 24.3323 83.9478 24.2186C84.0615 24.0907 84.161 23.9486 84.2321 23.7922ZM83.7487 22.911C83.7914 23.0105 83.8056 23.1384 83.8056 23.2521C83.8056 23.3658 83.7914 23.4795 83.7487 23.5932C83.7203 23.7069 83.6634 23.8064 83.5923 23.8917C83.5212 23.977 83.4217 24.0481 83.3222 24.0907C83.2227 24.1333 83.1089 24.1617 82.9667 24.1617C82.8388 24.1617 82.7108 24.1333 82.6113 24.0907C82.4976 24.0481 82.4123 23.977 82.3412 23.8917C82.2701 23.8064 82.2274 23.7069 82.1848 23.5932C82.1421 23.4937 82.1279 23.3658 82.1279 23.2521C82.1279 23.1384 82.1421 23.0247 82.1848 22.911C82.2132 22.8115 82.2701 22.712 82.3412 22.6268C82.4123 22.5415 82.5118 22.4704 82.6113 22.4278C82.7108 22.3851 82.8246 22.3567 82.9667 22.3567C83.0947 22.3567 83.2227 22.3851 83.3222 22.4278C83.4359 22.4704 83.5212 22.5415 83.5923 22.6268C83.6634 22.712 83.7061 22.7973 83.7487 22.911Z" fill="#8C8CA2"/>
<path d="M86.379 22.6268C86.3221 22.5415 86.2368 22.4562 86.1373 22.3994C86.0378 22.3425 85.9241 22.3141 85.7961 22.3141C85.7392 22.3141 85.6824 22.3141 85.6255 22.3283C85.5686 22.3425 85.5117 22.3567 85.4691 22.3852C85.4264 22.4136 85.3838 22.442 85.3696 22.4846C85.3411 22.5273 85.3269 22.5699 85.3269 22.641C85.3269 22.7405 85.3696 22.8258 85.4691 22.8826C85.5686 22.9395 85.7108 22.9821 85.8956 23.0247C86.0094 23.0532 86.1231 23.0816 86.2368 23.1242C86.3364 23.1669 86.4359 23.2095 86.507 23.2664C86.5781 23.3232 86.6492 23.3943 86.6918 23.4796C86.7345 23.5648 86.7487 23.6501 86.7487 23.7638C86.7487 23.9059 86.7202 24.0339 86.6634 24.1476C86.6065 24.2471 86.5354 24.3323 86.4359 24.4034C86.3364 24.4745 86.2369 24.5171 86.1089 24.5455C85.9951 24.574 85.8672 24.5882 85.7392 24.5882C85.5544 24.5882 85.3554 24.5455 85.1847 24.4745C84.9999 24.4034 84.8435 24.2897 84.7298 24.1334L85.0852 23.8349C85.1563 23.9344 85.2416 24.0197 85.3696 24.0907C85.4833 24.1618 85.6255 24.1902 85.7677 24.1902C85.8245 24.1902 85.8956 24.1902 85.9525 24.176C86.0094 24.1618 86.0662 24.1476 86.1089 24.1191C86.1515 24.0907 86.1942 24.0481 86.2226 24.0054C86.2511 23.9628 86.2653 23.9059 86.2653 23.8349C86.2653 23.7212 86.2084 23.6359 86.0947 23.5791C85.9809 23.5222 85.8245 23.4653 85.597 23.4227C85.5544 23.4085 85.5117 23.3978 85.469 23.3872C85.4264 23.3765 85.3838 23.3659 85.3411 23.3516C85.2558 23.3232 85.1705 23.2806 85.0994 23.2237C85.0283 23.1669 84.9715 23.11 84.9288 23.0247C84.8862 22.9395 84.8577 22.84 84.8577 22.7263C84.8577 22.5984 84.8862 22.4704 84.943 22.3852C84.9999 22.2857 85.071 22.2146 85.1563 22.1435C85.2416 22.0867 85.3411 22.0298 85.4549 22.0014C85.5686 21.973 85.6824 21.9588 85.8103 21.9588C85.9951 21.9588 86.1658 22.0014 86.3364 22.0583C86.507 22.1293 86.6349 22.2288 86.7345 22.3709L86.379 22.6268Z" fill="#8C8CA2"/>
<path d="M48.9013 27.6297C49.015 27.6724 49.0861 27.7434 49.143 27.8287L49.5126 27.4876C49.4131 27.3455 49.2709 27.246 49.1003 27.1749C48.9297 27.1181 48.7449 27.0754 48.5743 27.0754C48.3752 27.0754 48.2046 27.1181 48.034 27.1749C47.8776 27.2318 47.7212 27.3313 47.6075 27.445C47.4795 27.5729 47.3942 27.715 47.3231 27.8714C47.252 28.0277 47.2236 28.2125 47.2236 28.4115C47.2236 28.6247 47.252 28.8094 47.3231 28.9658C47.3942 29.1221 47.4937 29.2642 47.6075 29.3779C47.7212 29.4916 47.8634 29.5911 48.034 29.648C48.2046 29.7191 48.3752 29.7475 48.5743 29.7475C48.7733 29.7475 48.9581 29.7191 49.1145 29.648C49.2709 29.5911 49.4131 29.4916 49.5126 29.3637L49.1714 29.0653C49.1003 29.1505 49.015 29.2216 48.9155 29.2642C48.8018 29.3069 48.688 29.3353 48.5601 29.3353C48.4179 29.3353 48.3041 29.3069 48.2046 29.2642C48.1051 29.2216 48.0198 29.1505 47.9487 29.0653C47.8776 28.9942 47.835 28.8947 47.7923 28.781C47.7496 28.6815 47.7354 28.5536 47.7354 28.4399C47.7354 28.3262 47.7496 28.2125 47.7923 28.0988C47.8207 27.9993 47.8776 27.8998 47.9487 27.8145C48.0198 27.7292 48.1051 27.6582 48.2046 27.6155C48.3184 27.5729 48.4321 27.5445 48.5601 27.5445C48.688 27.5445 48.8018 27.5729 48.9013 27.6297Z" fill="#8C8CA2"/>
<path fill-rule="evenodd" clip-rule="evenodd" d="M52.5552 28.4399C52.5552 28.6388 52.5268 28.8094 52.4557 28.9799C52.3846 29.1363 52.2851 29.2784 52.1713 29.4063C52.0434 29.52 51.9012 29.6195 51.7306 29.6764C51.56 29.7475 51.3894 29.7759 51.1903 29.7759C51.0055 29.7759 50.8206 29.7475 50.65 29.6764C50.4794 29.6053 50.3372 29.52 50.2235 29.4063C50.1098 29.2926 50.0102 29.1505 49.9392 28.9799C49.8681 28.8236 49.8396 28.6388 49.8396 28.4399C49.8396 28.2409 49.8681 28.0703 49.9392 27.8998C50.0102 27.7434 50.1098 27.6013 50.2235 27.4876C50.3372 27.3739 50.4936 27.2744 50.65 27.2175C50.8206 27.1465 50.9913 27.1181 51.1903 27.1181C51.3751 27.1181 51.56 27.1465 51.7306 27.2175C51.9012 27.2886 52.0434 27.3739 52.1713 27.4876C52.2993 27.6013 52.3846 27.7434 52.4557 27.8998C52.5268 28.0703 52.5552 28.2409 52.5552 28.4399ZM52.0434 28.4399C52.0434 28.3262 52.0291 28.1982 51.9865 28.0988C51.9438 27.985 51.9012 27.8998 51.8301 27.8145C51.759 27.7292 51.6737 27.6582 51.56 27.6155C51.4604 27.5729 51.3325 27.5444 51.2045 27.5444C51.0623 27.5444 50.9486 27.5729 50.8491 27.6155C50.7496 27.6582 50.65 27.7292 50.5789 27.8145C50.5079 27.8998 50.451 27.9992 50.4226 28.0988C50.3799 28.2124 50.3657 28.3262 50.3657 28.4399C50.3657 28.5536 50.3799 28.6815 50.4226 28.781C50.4652 28.8947 50.5079 28.9942 50.5789 29.0794C50.65 29.1647 50.7353 29.2358 50.8491 29.2784C50.9486 29.3211 51.0766 29.3495 51.2045 29.3495C51.3467 29.3495 51.4604 29.3211 51.56 29.2784C51.6595 29.2358 51.759 29.1647 51.8301 29.0794C51.9012 28.9942 51.9581 28.8947 51.9865 28.781C52.0149 28.6815 52.0434 28.5678 52.0434 28.4399Z" fill="#8C8CA2"/>
<path d="M53.7133 27.2842C53.71 27.2491 53.7068 27.216 53.7068 27.1891V27.2175H53.2519C53.2519 27.2585 53.2551 27.3028 53.2586 27.3488C53.2622 27.3985 53.2661 27.4501 53.2661 27.5018V29.7332H53.7637V28.3972C53.7637 28.1414 53.8206 27.9424 53.9485 27.7861C54.0765 27.6297 54.2329 27.5587 54.4319 27.5587C54.5457 27.5587 54.6452 27.5729 54.7163 27.6155C54.7874 27.6582 54.8442 27.715 54.8869 27.7861C54.9295 27.8571 54.958 27.9424 54.9722 28.0277C54.9864 28.1272 55.0006 28.2267 55.0006 28.3262V29.719H55.4983V28.1556C55.4983 28.0135 55.484 27.8856 55.4414 27.7576C55.4129 27.6297 55.3419 27.516 55.2708 27.4307C55.1855 27.3312 55.0859 27.2602 54.9722 27.2033C54.8442 27.1465 54.7021 27.1181 54.5457 27.1181C54.4461 27.1181 54.3608 27.1323 54.2755 27.1607C54.1902 27.1749 54.1191 27.2175 54.048 27.2602C53.977 27.3028 53.9201 27.3597 53.8632 27.4165C53.8064 27.4734 53.7637 27.5302 53.7353 27.6013H53.721V27.4023C53.721 27.3962 53.7209 27.3899 53.7207 27.3836C53.7206 27.378 53.7203 27.3724 53.72 27.3668C53.7186 27.3395 53.7159 27.3113 53.7133 27.2842Z" fill="#8C8CA2"/>
<path d="M58.9105 27.6013H58.2423V28.9089C58.2423 29.0653 58.2707 29.1648 58.3276 29.2358C58.3845 29.3069 58.4698 29.3353 58.5977 29.3353C58.6404 29.3353 58.6972 29.3353 58.7399 29.3211C58.7614 29.3157 58.7809 29.3104 58.7991 29.305C58.829 29.2961 58.8555 29.2873 58.8821 29.2785L58.8963 29.6906C58.8394 29.7191 58.7683 29.7333 58.6972 29.7475C58.6262 29.7617 58.5551 29.7617 58.4698 29.7617C58.2281 29.7617 58.0432 29.6906 57.9295 29.5627C57.8015 29.4348 57.7447 29.2358 57.7447 28.9658V27.6013H57.2613V27.1892H57.7447V26.4643H58.2423V27.1892H58.9105V27.6013Z" fill="#8C8CA2"/>
<path d="M61.1931 29.6105C61.1948 29.6285 61.1965 29.6461 61.1977 29.6625C61.1984 29.6725 61.199 29.682 61.1993 29.6911L61.1994 29.6959L61.1995 29.7002L61.1996 29.7049V29.6906H61.6403C61.6403 29.6497 61.637 29.6054 61.6336 29.5594C61.6299 29.5097 61.6261 29.4581 61.6261 29.4064V27.175H61.1285V28.511C61.1285 28.7526 61.0716 28.9516 60.9436 29.1079C60.8299 29.2643 60.6593 29.3353 60.4602 29.3353C60.3465 29.3353 60.247 29.3211 60.1759 29.2785C60.1048 29.2358 60.0479 29.179 60.0053 29.1079C59.9626 29.0369 59.9342 28.9658 59.92 28.8663L59.9199 28.8661C59.9057 28.7667 59.8915 28.6673 59.8915 28.5678V27.175H59.3939V28.7384C59.3939 28.8805 59.4081 29.0084 59.4508 29.1364C59.4934 29.2643 59.5503 29.3638 59.6214 29.4632C59.7067 29.5627 59.8062 29.6338 59.92 29.6906C60.0479 29.7475 60.1901 29.7759 60.3465 29.7759C60.5313 29.7759 60.6877 29.7333 60.8441 29.6338C61.0005 29.5485 61.1142 29.4206 61.1711 29.2927H61.1853V29.4917C61.1853 29.5291 61.1893 29.5706 61.193 29.6097L61.193 29.6098L61.1931 29.6105Z" fill="#8C8CA2"/>
<path d="M64.3132 27.1891C64.3132 27.2013 64.3139 27.2147 64.3149 27.229C64.3161 27.2464 64.3179 27.265 64.3197 27.2842C64.3214 27.3022 64.3232 27.3208 64.3246 27.3392C64.3263 27.3607 64.3274 27.3821 64.3274 27.4023V27.6013H64.3416C64.3701 27.5302 64.4127 27.4734 64.4696 27.4165C64.5265 27.3597 64.5833 27.3028 64.6544 27.2602C64.7255 27.2175 64.7966 27.1749 64.8819 27.1607C64.9672 27.1323 65.0525 27.1181 65.152 27.1181C65.3084 27.1181 65.4506 27.1465 65.5786 27.2033C65.6923 27.2602 65.7918 27.3312 65.8771 27.4307C65.9482 27.516 66.0193 27.6297 66.0478 27.7576C66.0904 27.8856 66.1046 28.0135 66.1046 28.1556V29.719H65.607V28.3262C65.607 28.2267 65.5928 28.1272 65.5786 28.0277C65.5644 27.9424 65.5359 27.8571 65.4933 27.7861C65.4506 27.715 65.3937 27.6582 65.3227 27.6155C65.2516 27.5729 65.152 27.5587 65.0383 27.5587C64.8393 27.5587 64.6829 27.6297 64.5549 27.7861C64.4269 27.9424 64.3701 28.1414 64.3701 28.3972V29.7332H63.8725V27.5018C63.8725 27.4501 63.8686 27.3985 63.8649 27.3488C63.8615 27.3028 63.8582 27.2585 63.8582 27.2175H64.3132V27.1891Z" fill="#8C8CA2"/>
<path fill-rule="evenodd" clip-rule="evenodd" d="M69.3036 28.4256C69.3036 28.2267 69.2752 28.0419 69.2183 27.8713C69.1614 27.715 69.0761 27.5729 68.9766 27.4592C68.8771 27.3455 68.7491 27.2602 68.5927 27.2033C68.4506 27.1465 68.28 27.1181 68.0951 27.1181C67.9103 27.1181 67.7397 27.1465 67.5833 27.2175C67.4269 27.2744 67.2847 27.3739 67.171 27.4876C67.0572 27.6013 66.9719 27.7434 66.9008 27.914C66.8297 28.0845 66.8013 28.2551 66.8013 28.4541C66.8013 28.6531 66.8297 28.8378 66.9008 28.9942C66.9577 29.1505 67.0572 29.2926 67.171 29.4063C67.2989 29.52 67.4411 29.6195 67.5975 29.6764C67.7539 29.7475 67.9387 29.7759 68.1236 29.7759C68.351 29.7759 68.5501 29.7332 68.7349 29.648C68.9197 29.5627 69.0904 29.4348 69.2183 29.25L68.8629 28.9657C68.7918 29.0652 68.6923 29.1647 68.5643 29.2358C68.4363 29.3069 68.2942 29.3495 68.1236 29.3495C68.0098 29.3495 67.9103 29.3353 67.8108 29.2926C67.7113 29.2642 67.6259 29.2074 67.5548 29.1363C67.4695 29.0652 67.4127 28.9942 67.37 28.8947C67.3274 28.7952 67.2989 28.6957 67.2989 28.5962H69.3036V28.4256ZM68.7349 27.9424C68.7776 28.0277 68.7918 28.1272 68.7918 28.2267H67.2989C67.2989 28.1272 67.3274 28.0277 67.37 27.9424C67.4127 27.8571 67.4695 27.7718 67.5406 27.715C67.6117 27.6439 67.6828 27.6013 67.7823 27.5587C67.8676 27.516 67.9814 27.5018 68.0809 27.5018C68.2089 27.5018 68.3084 27.516 68.3937 27.5587C68.479 27.6013 68.5501 27.6582 68.6069 27.715C68.6638 27.7861 68.7065 27.8571 68.7349 27.9424Z" fill="#8C8CA2"/>
<path fill-rule="evenodd" clip-rule="evenodd" d="M70.1993 30.1312C70.313 30.2591 70.441 30.3586 70.6116 30.4297C70.7822 30.5007 70.9528 30.5434 71.1234 30.5434C71.2941 30.5434 71.4362 30.515 71.55 30.4723C71.6637 30.4297 71.749 30.3586 71.8201 30.2733C71.8912 30.1881 71.9339 30.0886 71.9623 29.9749C71.9907 29.8612 72.005 29.7332 72.005 29.6053V29.2784H71.9907C71.9054 29.4205 71.7775 29.5343 71.6068 29.6053C71.4505 29.6764 71.2798 29.719 71.095 29.719C70.9102 29.719 70.7254 29.6906 70.569 29.6195C70.4126 29.5485 70.2704 29.4632 70.1709 29.3495C70.0571 29.2358 69.9718 29.0937 69.9149 28.9373C69.8581 28.781 69.8296 28.6104 69.8296 28.4256C69.8296 28.2409 69.8581 28.0703 69.9149 27.914C69.9718 27.7576 70.0571 27.6155 70.1709 27.5018C70.2846 27.3881 70.4126 27.2886 70.569 27.2175C70.7254 27.1465 70.896 27.1181 71.095 27.1181C71.2798 27.1181 71.4505 27.1607 71.6068 27.2318C71.7775 27.3028 71.9054 27.4307 72.005 27.5871H72.0192V27.1891H72.5026V29.5769C72.5026 29.7617 72.4741 29.9322 72.4315 30.1028C72.3888 30.2733 72.3035 30.4155 72.204 30.5434C72.0903 30.6713 71.9481 30.7708 71.7775 30.8561C71.6068 30.9271 71.3794 30.9698 71.1234 30.9698C70.9102 30.9698 70.6827 30.9271 70.4552 30.8561C70.2277 30.7708 70.0429 30.6571 69.8865 30.515L70.1993 30.1312ZM70.3415 28.4256C70.3415 28.5393 70.3557 28.6531 70.3984 28.7668C70.441 28.8805 70.4837 28.9657 70.569 29.051C70.6401 29.1363 70.7254 29.1931 70.8391 29.25C70.9386 29.2926 71.0666 29.3211 71.1945 29.3211C71.3225 29.3211 71.4362 29.2926 71.55 29.25C71.6637 29.2074 71.749 29.1363 71.8201 29.0652C71.8912 28.9799 71.9481 28.8947 71.9907 28.781C72.0334 28.6673 72.0476 28.5536 72.0476 28.4256C72.0476 28.3119 72.0334 28.1982 71.9907 28.0845C71.9481 27.985 71.8912 27.8856 71.8201 27.8003C71.749 27.715 71.6495 27.6582 71.55 27.6013C71.4505 27.5587 71.3225 27.5302 71.1945 27.5302C71.0666 27.5302 70.9386 27.5587 70.8391 27.6013C70.7396 27.6439 70.6543 27.715 70.569 27.7861C70.4979 27.8713 70.441 27.9566 70.3984 28.0703C70.3699 28.184 70.3415 28.2977 70.3415 28.4256Z" fill="#8C8CA2"/>
<path fill-rule="evenodd" clip-rule="evenodd" d="M75.8153 28.9799C75.8864 28.8094 75.9148 28.6388 75.9148 28.4399C75.9148 28.2409 75.8864 28.0703 75.8153 27.8998C75.7442 27.7434 75.6589 27.6013 75.531 27.4876C75.4172 27.3739 75.275 27.2886 75.1044 27.2175C74.9338 27.1465 74.749 27.1181 74.5642 27.1181C74.3651 27.1181 74.1945 27.1465 74.0239 27.2175C73.8675 27.2744 73.7111 27.3739 73.5974 27.4876C73.4836 27.6013 73.3841 27.7434 73.313 27.8998C73.2419 28.0703 73.2135 28.2409 73.2135 28.4399C73.2135 28.6388 73.2419 28.8236 73.313 28.9799C73.3841 29.1505 73.4836 29.2926 73.5974 29.4063C73.7111 29.52 73.8533 29.6053 74.0239 29.6764C74.1945 29.7475 74.3793 29.7759 74.5642 29.7759C74.7632 29.7759 74.9338 29.7475 75.1044 29.6764C75.2608 29.6195 75.403 29.52 75.531 29.4063C75.6447 29.2784 75.7442 29.1363 75.8153 28.9799ZM75.3461 28.0988C75.3888 28.1982 75.403 28.3262 75.403 28.4399C75.403 28.5678 75.3746 28.6815 75.3461 28.781C75.3177 28.8947 75.2608 28.9942 75.1897 29.0794C75.1186 29.1647 75.0191 29.2358 74.9196 29.2784C74.8201 29.3211 74.7063 29.3495 74.5642 29.3495C74.4362 29.3495 74.3082 29.3211 74.2087 29.2784C74.095 29.2358 74.0097 29.1647 73.9386 29.0794C73.8675 28.9942 73.8248 28.8947 73.7822 28.781C73.7395 28.6815 73.7253 28.5536 73.7253 28.4399C73.7253 28.3262 73.7395 28.2124 73.7822 28.0988C73.8106 27.9992 73.8675 27.8998 73.9386 27.8145C74.0097 27.7292 74.1092 27.6582 74.2087 27.6155C74.3082 27.5729 74.422 27.5444 74.5642 27.5444C74.6921 27.5444 74.8201 27.5729 74.9196 27.6155C75.0333 27.6582 75.1186 27.7292 75.1897 27.8145C75.2608 27.8998 75.3035 27.985 75.3461 28.0988Z" fill="#8C8CA2"/>
<path d="M78.3745 27.8287C78.3176 27.7434 78.2465 27.6724 78.1328 27.6297C78.0332 27.5729 77.9195 27.5445 77.7915 27.5445C77.6636 27.5445 77.5498 27.5729 77.4361 27.6155C77.3366 27.6582 77.2513 27.7292 77.1802 27.8145C77.1091 27.8998 77.0522 27.9993 77.0238 28.0988C76.9811 28.2125 76.9669 28.3262 76.9669 28.4399C76.9669 28.5536 76.9811 28.6815 77.0238 28.781C77.0664 28.8947 77.1091 28.9942 77.1802 29.0653C77.2513 29.1505 77.3366 29.2216 77.4361 29.2642C77.5356 29.3069 77.6494 29.3353 77.7915 29.3353C77.9195 29.3353 78.0332 29.3069 78.147 29.2642C78.2465 29.2216 78.3318 29.1505 78.4029 29.0653L78.7441 29.3637C78.6446 29.4916 78.5024 29.5911 78.346 29.648C78.1896 29.7191 78.0048 29.7475 77.8058 29.7475C77.6067 29.7475 77.4361 29.7191 77.2655 29.648C77.0949 29.5911 76.9527 29.4916 76.839 29.3779C76.7252 29.2642 76.6257 29.1221 76.5546 28.9658C76.4835 28.8094 76.4551 28.6247 76.4551 28.4115C76.4551 28.2125 76.4835 28.0277 76.5546 27.8714C76.6257 27.715 76.711 27.5729 76.839 27.445C76.9527 27.3313 77.1091 27.2318 77.2655 27.1749C77.4361 27.1181 77.6067 27.0754 77.8058 27.0754C77.9764 27.0754 78.1612 27.1181 78.3318 27.1749C78.5024 27.246 78.6446 27.3455 78.7441 27.4876L78.3745 27.8287Z" fill="#8C8CA2"/>
<path d="M79.7251 26.5069C79.7962 26.4501 79.8247 26.379 79.8247 26.2795C79.8247 26.18 79.7962 26.109 79.7251 26.0379C79.6541 25.9668 79.5687 25.9384 79.4834 25.9384C79.3981 25.9384 79.3128 25.981 79.256 26.0379C79.1849 26.0947 79.1564 26.18 79.1564 26.2653C79.1564 26.3506 79.1991 26.4216 79.256 26.4927C79.3128 26.5638 79.3981 26.5922 79.4834 26.5922C79.583 26.5922 79.6541 26.5638 79.7251 26.5069Z" fill="#8C8CA2"/>
<path d="M79.2417 29.7048H79.7393V27.1892H79.2417V29.7048Z" fill="#8C8CA2"/>
<path fill-rule="evenodd" clip-rule="evenodd" d="M83.1658 28.4399C83.1658 28.6388 83.1374 28.8094 83.0663 28.9799C82.9952 29.1363 82.8957 29.2784 82.782 29.4063C82.654 29.52 82.5118 29.6195 82.3554 29.6764C82.1848 29.7475 82.0142 29.7759 81.8152 29.7759C81.6303 29.7759 81.4455 29.7475 81.2749 29.6764C81.1043 29.6053 80.9621 29.52 80.8484 29.4063C80.7346 29.2926 80.6351 29.1505 80.564 28.9799C80.4929 28.8236 80.4645 28.6388 80.4645 28.4399C80.4645 28.2409 80.4929 28.0703 80.564 27.8998C80.6351 27.7434 80.7346 27.6013 80.8484 27.4876C80.9621 27.3739 81.1185 27.2744 81.2749 27.2175C81.4455 27.1465 81.6161 27.1181 81.8152 27.1181C82 27.1181 82.1848 27.1465 82.3554 27.2175C82.526 27.2886 82.6682 27.3739 82.782 27.4876C82.9099 27.6013 82.9952 27.7434 83.0663 27.8998C83.1374 28.0703 83.1658 28.2409 83.1658 28.4399ZM82.654 28.4399C82.654 28.3262 82.6398 28.1982 82.5971 28.0988C82.5545 27.985 82.5118 27.8998 82.4407 27.8145C82.3696 27.7292 82.2843 27.6582 82.1706 27.6155C82.0711 27.5729 81.9431 27.5444 81.8152 27.5444C81.673 27.5444 81.5592 27.5729 81.4597 27.6155C81.3602 27.6582 81.2607 27.7292 81.1896 27.8145C81.1185 27.8998 81.0616 27.9992 81.0332 28.0988C80.9905 28.2124 80.9763 28.3262 80.9763 28.4399C80.9763 28.5536 80.9905 28.6815 81.0332 28.781C81.0758 28.8947 81.1185 28.9942 81.1896 29.0794C81.2607 29.1647 81.346 29.2358 81.4597 29.2784C81.5592 29.3211 81.6872 29.3495 81.8152 29.3495C81.9573 29.3495 82.0711 29.3211 82.1706 29.2784C82.2701 29.2358 82.3696 29.1647 82.4407 29.0794C82.5118 28.9942 82.5687 28.8947 82.5971 28.781C82.6256 28.6815 82.654 28.5678 82.654 28.4399Z" fill="#8C8CA2"/>
<path d="M84.3174 29.6338C84.3885 29.5628 84.417 29.4917 84.417 29.3922C84.417 29.2927 84.3885 29.2074 84.3174 29.1506C84.2463 29.0795 84.161 29.0511 84.0615 29.0511C83.962 29.0511 83.8767 29.0795 83.8056 29.1506C83.7345 29.2074 83.7061 29.2927 83.7061 29.3922C83.7061 29.4775 83.7345 29.5628 83.8056 29.6338C83.8767 29.7049 83.962 29.7333 84.0615 29.7333C84.161 29.7333 84.2463 29.7049 84.3174 29.6338Z" fill="#8C8CA2"/>
</svg>
