<svg width="52" height="52" viewBox="0 0 52 52" fill="none" xmlns="http://www.w3.org/2000/svg">
<path d="M26 0L50.7275 17.9656L41.2824 47.0344H10.7176L1.27253 17.9656L26 0Z" fill="#552D83"/>
<path d="M16.7218 27.7385C18.7337 27.7385 20.37 26.1018 20.37 24.0899C20.37 22.0781 18.7333 20.4417 16.7218 20.4417C14.7102 20.4417 13.0732 22.0781 13.0732 24.0899C13.0732 26.1018 14.7099 27.7385 16.7218 27.7385ZM16.7218 21.9768C17.8872 21.9768 18.835 22.9246 18.835 24.0899C18.835 25.2553 17.8872 26.2031 16.7218 26.2031C15.5564 26.2031 14.6086 25.255 14.6086 24.0899C14.6086 22.9249 15.5564 21.9768 16.7218 21.9768Z" fill="white"/>
<path d="M12.5354 33.1074C12.5354 31.5398 13.8105 30.2646 15.3781 30.2646H18.0655C18.146 30.2646 18.2258 30.2679 18.3046 30.2747C18.527 30.2939 18.7479 30.2194 18.9094 30.0708C19.0667 29.9259 19.1537 29.7279 19.1537 29.5132C19.1537 29.1217 18.854 28.7859 18.471 28.7491C18.3375 28.7364 18.2023 28.7296 18.0655 28.7296H15.3781C12.964 28.7293 11 30.6933 11 33.1074V33.423H12.5354V33.1074Z" fill="white"/>
<path d="M19.4258 33.4226H20.9612V31.5326C20.9612 29.7608 22.4027 28.3192 24.1749 28.3192H27.1385C28.9103 28.3192 30.3522 29.7608 30.3522 31.5326V33.4226H31.8876V31.5326C31.8876 29.9298 31.0827 28.4449 29.7347 27.5609C28.9595 27.0525 28.0618 26.7838 27.1388 26.7838H24.1752C22.7086 26.7838 21.3455 27.4515 20.4355 28.6156C19.7753 29.4601 19.4264 30.4688 19.4264 31.5326V33.4226H19.4258Z" fill="white"/>
<path d="M35.935 28.7292H33.2476C33.1724 28.7292 33.0978 28.7315 33.0235 28.7354C32.6096 28.7582 32.2852 29.096 32.2852 29.5048C32.2852 29.7158 32.3728 29.9194 32.5259 30.0637C32.6799 30.2086 32.8815 30.2812 33.0913 30.2692C33.1431 30.2659 33.1952 30.2646 33.2476 30.2646H35.935C37.5026 30.2646 38.7778 31.5398 38.7778 33.1074V33.423H40.3131V33.1074C40.3131 30.6932 38.3491 28.7292 35.935 28.7292Z" fill="white"/>
<path d="M34.5914 27.7385C36.6033 27.7385 38.24 26.1018 38.24 24.0899C38.24 22.0781 36.6033 20.4417 34.5914 20.4417C32.5795 20.4417 30.9429 22.0781 30.9429 24.0899C30.9429 26.1018 32.5799 27.7385 34.5914 27.7385ZM34.5914 21.9768C35.7568 21.9768 36.7046 22.9246 36.7046 24.0899C36.7046 25.2553 35.7565 26.2031 34.5914 26.2031C33.4264 26.2031 32.4782 25.255 32.4782 24.0899C32.4782 22.9249 33.4264 21.9768 34.5914 21.9768Z" fill="white"/>
<path d="M25.6569 26.179C28.1873 26.179 30.2464 24.1202 30.2464 21.5895C30.2464 19.0588 28.1876 17 25.6569 17C23.1262 17 21.0674 19.0588 21.0674 21.5895C21.0674 24.1199 23.1262 26.179 25.6569 26.179ZM25.6569 18.535C27.3408 18.535 28.711 19.9053 28.711 21.5895C28.711 23.2734 27.3408 24.6436 25.6569 24.6436C23.9727 24.6436 22.6024 23.2734 22.6024 21.5895C22.6024 19.9053 23.9727 18.535 25.6569 18.535Z" fill="white"/>
</svg>
