<svg width="18" height="18" viewBox="0 0 18 18" fill="none" xmlns="http://www.w3.org/2000/svg">
<path d="M1.00045 -2.09808e-05C1.19705 -0.00226784 1.38941 0.0571861 1.55045 0.169979L8.45045 4.72998C8.61373 4.83751 8.80495 4.89481 9.00045 4.89481C9.19596 4.89481 9.38718 4.83751 9.55045 4.72998L16.4505 0.169979C16.6341 0.0516396 16.8514 -0.00332069 17.0692 0.0134983C17.287 0.0303173 17.4933 0.117992 17.6566 0.263121C17.8198 0.408249 17.9311 0.602846 17.9733 0.817171C18.0156 1.0315 17.9865 1.25376 17.8905 1.44998L9.89045 17.45C9.80654 17.6138 9.67904 17.7512 9.52201 17.8472C9.36498 17.9432 9.1845 17.994 9.00045 17.994C8.81641 17.994 8.63593 17.9432 8.4789 17.8472C8.32187 17.7512 8.19437 17.6138 8.11045 17.45L0.110455 1.44998C0.0337448 1.29775 -0.0027771 1.12844 0.00435638 0.958122C0.0114899 0.787807 0.0620441 0.622143 0.151217 0.476862C0.240389 0.331581 0.365219 0.211506 0.513853 0.128042C0.662487 0.0445786 0.82999 0.000494003 1.00045 -2.09808e-05Z" fill="#260D43"/>
</svg>
