<svg width="35" height="12" viewBox="0 0 35 12" fill="#000" xmlns="http://www.w3.org/2000/svg">
<path d="M7.434 5.834H4.76V3.146H3.64V5.834H0.966V6.954H3.64V9.642H4.76V6.954H7.434V5.834ZM14.6385 5.666C15.4225 5.246 15.8985 4.504 15.8985 3.566C15.8985 1.984 14.5685 0.976 12.6505 0.976C10.7325 0.976 9.40253 1.984 9.40253 3.566C9.40253 4.518 9.87853 5.232 10.6625 5.666C9.65453 6.1 8.99653 7.122 8.99653 8.214C8.99653 9.908 10.4245 11.14 12.6365 11.14C14.8765 11.14 16.2905 9.894 16.2905 8.2C16.2905 7.094 15.6325 6.1 14.6385 5.666ZM12.6505 1.928C13.9245 1.928 14.7365 2.558 14.7365 3.58C14.7365 4.602 13.9245 5.26 12.6505 5.26C11.3765 5.26 10.5505 4.602 10.5505 3.58C10.5505 2.558 11.3765 1.928 12.6505 1.928ZM12.6505 10.104C11.1525 10.104 10.2005 9.362 10.2005 8.186C10.2005 6.982 11.1525 6.226 12.6505 6.226C14.1485 6.226 15.1005 6.982 15.1005 8.186C15.1005 9.362 14.1485 10.104 12.6505 10.104ZM23.1424 5.666C23.9264 5.246 24.4024 4.504 24.4024 3.566C24.4024 1.984 23.0724 0.976 21.1544 0.976C19.2364 0.976 17.9064 1.984 17.9064 3.566C17.9064 4.518 18.3824 5.232 19.1664 5.666C18.1584 6.1 17.5004 7.122 17.5004 8.214C17.5004 9.908 18.9284 11.14 21.1404 11.14C23.3804 11.14 24.7944 9.894 24.7944 8.2C24.7944 7.094 24.1364 6.1 23.1424 5.666ZM21.1544 1.928C22.4284 1.928 23.2404 2.558 23.2404 3.58C23.2404 4.602 22.4284 5.26 21.1544 5.26C19.8804 5.26 19.0544 4.602 19.0544 3.58C19.0544 2.558 19.8804 1.928 21.1544 1.928ZM21.1544 10.104C19.6564 10.104 18.7044 9.362 18.7044 8.186C18.7044 6.982 19.6564 6.226 21.1544 6.226C22.6524 6.226 23.6044 6.982 23.6044 8.186C23.6044 9.362 22.6524 10.104 21.1544 10.104ZM30.0363 0.976C32.6123 0.976 34.0403 2.992 34.0403 6.058C34.0403 9.124 32.6123 11.14 30.0363 11.14C27.4743 11.14 26.0603 9.124 26.0603 6.058C26.0603 2.992 27.4743 0.976 30.0363 0.976ZM32.8363 6.058C32.8363 3.608 31.8843 2.026 30.0363 2.026C28.1883 2.026 27.2643 3.608 27.2643 6.058C27.2643 8.508 28.1883 10.09 30.0363 10.09C31.8843 10.09 32.8363 8.508 32.8363 6.058Z" fill="#333333"/>
</svg>
