<svg width="129" height="26" viewBox="0 0 129 26" fill="none" xmlns="http://www.w3.org/2000/svg">
<path d="M11.7607 5.50435C11.846 3.96694 11.9314 2.48079 12.0167 0.994629H0.666748V2.61744C0.736773 2.62545 0.806563 2.63346 0.876228 2.64146L1.11146 2.66855C1.55668 2.71985 2.00187 2.77113 2.47592 2.82243V17.7523C1.92975 17.8377 1.41772 17.9231 0.871561 18.0256V19.6655H12.2727C12.2386 18.8798 12.2087 18.1025 12.1789 17.3253C12.149 16.548 12.1191 15.7708 12.085 14.985C11.691 14.9682 11.3094 14.9555 10.93 14.943C10.5369 14.9299 10.1462 14.917 9.74672 14.8996C9.71183 15.2089 9.67693 15.5124 9.64246 15.8122C9.55891 16.5389 9.47786 17.2438 9.40537 17.9573H5.92357V10.9023H7.40845C7.52793 11.4148 7.66447 11.9273 7.80101 12.3885H9.32003V7.81045H7.76688C7.6474 8.32292 7.52793 8.80122 7.40845 9.27952H5.90651V2.63452H9.37123C9.39683 3.10428 9.42243 3.5655 9.44804 4.02673C9.47364 4.48795 9.49924 4.94917 9.52484 5.41893C9.90144 5.43568 10.2657 5.44833 10.6278 5.46089C11.0041 5.47395 11.378 5.48693 11.7607 5.50435Z" fill="#8C8CA2"/>
<path fill-rule="evenodd" clip-rule="evenodd" d="M52.4205 25.3895V25.3897C52.4089 25.5812 52.397 25.7783 52.3816 25.9859H58.031C58.0475 25.7713 58.06 25.5647 58.0724 25.3603C58.0856 25.1416 58.0987 24.9255 58.1164 24.7047C57.6385 24.6022 57.2288 24.5168 56.8192 24.4314V19.4263C56.9046 19.4434 56.9558 19.4605 57.007 19.4776C57.7921 19.8363 58.6113 19.9046 59.4647 19.8363C61.1203 19.6996 62.315 18.8797 62.9806 17.3423C63.1854 16.8298 63.3391 16.3003 63.4415 15.7536C63.7316 14.2846 63.7145 12.7984 63.5951 11.3293C63.5439 10.6119 63.3903 9.87734 63.1854 9.19405C62.7075 7.65665 61.7688 6.58047 60.0621 6.40965C58.6967 6.27299 57.5019 6.6488 56.5803 7.7079C56.5715 7.71663 56.5628 7.72487 56.5541 7.73278C56.5503 7.73624 56.5465 7.73963 56.5427 7.74298L56.5368 7.74808C56.5257 7.75768 56.5146 7.76694 56.5035 7.7762C56.4779 7.79756 56.4523 7.81893 56.4267 7.84455C56.329 7.50245 56.2401 7.17782 56.1474 6.83942L56.1465 6.83632C56.1099 6.70259 56.0727 6.56671 56.0341 6.42673C54.737 6.61464 53.491 6.78546 52.2451 6.95628V8.2887C52.6669 8.36148 53.0763 8.42187 53.4733 8.48041C53.5422 8.49057 53.6107 8.50066 53.6788 8.51077V24.4314C53.2692 24.5339 52.8766 24.6193 52.467 24.7047C52.4482 24.9295 52.4347 25.1543 52.4206 25.3875L52.4205 25.3885L52.4205 25.3895ZM59.789 17.7693C58.782 18.111 57.8091 18.0939 56.8021 17.6669V9.8261C56.8021 9.14281 57.2288 8.63034 57.9115 8.49369C57.9798 8.49369 58.031 8.4766 58.0822 8.45952C59.2087 8.27161 59.9426 8.69867 60.2839 9.77486C60.4376 10.2702 60.54 10.7998 60.5741 11.3123C60.6765 12.8497 60.7106 14.3871 60.4888 15.9074C60.44 16.2612 60.3477 16.6149 60.2554 16.9687L60.2554 16.969L60.2335 17.0529L60.2173 17.1155L60.2126 17.1337L60.2005 17.1807L60.1917 17.215C60.1766 17.2745 60.1618 17.334 60.1474 17.3935C60.0962 17.5814 59.9938 17.701 59.789 17.7693Z" fill="#8C8CA2"/>
<path d="M94.6069 18.0427C95.0848 18.1452 95.5115 18.2306 95.9382 18.316C95.9297 18.5466 95.9169 18.7687 95.9041 18.9907C95.8913 19.2128 95.8784 19.4349 95.8699 19.6655H91.5177C91.5177 19.6142 91.5134 19.5673 91.5091 19.5203C91.5049 19.4733 91.5006 19.4263 91.5006 19.3751C91.5006 18.4128 91.5025 17.4505 91.5044 16.4882C91.5082 14.5636 91.512 12.639 91.5006 10.7144C91.5006 10.3215 91.4153 9.9286 91.2958 9.55279C91.1593 9.10865 90.7838 8.85242 90.3229 8.74993C89.8792 8.64743 89.4354 8.6816 89.0258 8.85242C88.6674 9.00616 88.3772 9.29655 88.3772 9.72361V17.9231C88.3772 17.9418 88.3824 17.9554 88.3898 17.9752C88.396 17.9914 88.4037 18.0118 88.4114 18.0427C88.8039 18.1281 89.2135 18.2135 89.6914 18.2989C89.6734 18.534 89.6601 18.7691 89.6465 19.0093L89.6465 19.0101L89.6464 19.0113C89.6344 19.2242 89.6221 19.4411 89.6061 19.6655H84.0079V18.316C84.4346 18.2306 84.8272 18.1452 85.2539 18.0427V8.64743L85.1004 8.63039L85.0994 8.6303L85.099 8.63024L85.0984 8.63018C84.6858 8.58449 84.2597 8.5373 83.8202 8.47661V7.09295C85.032 6.92213 86.2438 6.75131 87.5068 6.56341C87.585 6.83166 87.6558 7.09992 87.7242 7.3586L87.7248 7.36082L87.7256 7.36407C87.7612 7.49884 87.7962 7.63099 87.8311 7.75916C87.9197 7.69264 88.0101 7.62072 88.1029 7.54691L88.1031 7.54675C88.2962 7.39316 88.4996 7.23138 88.7186 7.09295C89.9304 6.32425 91.2446 6.18759 92.5929 6.66589C93.7194 7.07587 94.3168 7.96414 94.5045 9.12573C94.5557 9.4503 94.5728 9.77487 94.5728 10.0994V17.5302C94.6069 17.7181 94.6069 17.8719 94.6069 18.0427Z" fill="#8C8CA2"/>
<path d="M18.6086 18.2135C18.328 18.1566 18.0473 18.0996 17.7515 18.0427C17.7504 18.0331 17.7494 18.0236 17.7485 18.0142L17.7476 18.0054L17.7461 17.9889L17.7451 17.9785C17.7426 17.9496 17.7404 17.9212 17.7382 17.8927C17.7306 17.794 17.723 17.6953 17.7003 17.5815V16.0441C17.7003 15.35 17.7021 14.6579 17.704 13.9663L17.7041 13.9626V13.9588C17.7078 12.5764 17.7116 11.1965 17.7003 9.80904C17.7003 9.55281 17.7856 9.3649 17.9392 9.15991C18.3488 8.66453 18.9121 8.64744 19.4582 8.6987C20.2263 8.76702 20.67 9.22824 20.7895 9.97987C20.8407 10.3044 20.8748 10.629 20.8748 10.9535V19.6484H25.2441V18.948C25.2441 18.726 25.2612 18.5039 25.2783 18.2818C25.0479 18.2391 24.8302 18.1964 24.6126 18.1537C24.395 18.111 24.1774 18.0683 23.947 18.0256V10.0482C23.947 9.70654 23.9299 9.34782 23.8617 9.02325C23.6057 7.74208 22.8717 6.85381 21.5746 6.54633C20.0897 6.1876 18.7243 6.478 17.5467 7.48585C17.4891 7.53519 17.4316 7.5885 17.376 7.64003L17.3758 7.64025C17.316 7.69569 17.2583 7.74909 17.2053 7.79333C17.1837 7.71601 17.1626 7.63981 17.1419 7.56443C17.1187 7.48009 17.096 7.39677 17.0734 7.31406L17.0731 7.313C17.0046 7.06164 16.9375 6.81576 16.8639 6.56342C15.5839 6.75132 14.3721 6.92214 13.1603 7.09296V8.47662C13.6382 8.52787 14.1161 8.57912 14.5769 8.63036C14.6793 9.10866 14.6452 17.7352 14.5598 18.0427L14.5595 18.0427C14.167 18.1281 13.7746 18.2135 13.3651 18.2989C13.3561 18.5505 13.3424 18.7878 13.329 19.0209C13.3168 19.2311 13.3049 19.4378 13.2968 19.6484H18.9462C18.9633 19.4178 18.9761 19.1956 18.9889 18.9735L18.9889 18.9733L18.9891 18.9707C19.0018 18.7496 19.0145 18.5285 19.0315 18.2989C18.8897 18.2705 18.7497 18.2421 18.6098 18.2138L18.6086 18.2135Z" fill="#8C8CA2"/>
<path d="M114.593 8.30577C114.342 8.27883 114.095 8.25662 113.846 8.23416L113.846 8.2341C113.621 8.21385 113.394 8.19339 113.159 8.16911V6.95626C113.787 6.88732 114.415 6.81494 115.045 6.74219L115.047 6.74204L115.05 6.74172L115.053 6.74132L115.062 6.74025C115.832 6.65145 116.607 6.56213 117.392 6.47796C117.416 6.55171 117.44 6.62446 117.464 6.69654C117.611 7.14206 117.751 7.56194 117.751 8.03244C117.739 10.1492 117.743 12.2659 117.747 14.3775V14.3858C117.749 15.4411 117.751 16.4951 117.751 17.5473V18.0597C118.211 18.1451 118.621 18.2306 119.065 18.333C119.039 18.5637 119.018 18.7857 118.996 19.0078C118.975 19.2299 118.954 19.4519 118.928 19.6825H115.293C115.242 19.5204 115.186 19.354 115.129 19.1812L115.129 19.1807C115.071 19.0077 115.011 18.8284 114.951 18.6405C114.832 18.7259 114.747 18.7943 114.661 18.8626C113.176 20.2121 111.179 20.0754 109.916 19.4605C108.927 18.9822 108.397 18.1622 108.227 17.1031C108.159 16.7615 108.141 16.4027 108.141 16.044V8.33993C107.812 8.30579 107.497 8.27165 107.183 8.23752C107.025 8.22041 106.867 8.2033 106.708 8.18619V6.97335C107.724 6.86036 108.74 6.73815 109.776 6.61348C110.15 6.56852 110.526 6.52324 110.906 6.47796C110.943 6.62501 110.988 6.76714 111.032 6.90795L111.033 6.90836L111.033 6.91098C111.133 7.22722 111.231 7.53668 111.231 7.87871V15.3949C111.231 15.7365 111.248 16.0782 111.299 16.4198C111.418 17.3423 112.016 17.8889 112.937 17.906C113.262 17.906 113.586 17.8547 113.91 17.7693C114.252 17.6839 114.695 17.086 114.695 16.7444V8.4595C114.644 8.40825 114.627 8.37409 114.593 8.30577Z" fill="#8C8CA2"/>
<path fill-rule="evenodd" clip-rule="evenodd" d="M46.0836 16.7957C45.5204 15.9586 45.3497 15.0191 45.3497 13.96C47.5173 13.9258 49.6166 13.9088 51.7671 13.8917C51.7991 13.7903 51.8395 13.6889 51.8798 13.5874C51.9685 13.3643 52.0573 13.1411 52.0573 12.918C52.0573 11.9443 51.9549 10.9706 51.6818 10.014C51.4087 9.0745 51.0162 8.22039 50.3164 7.5371C49.1217 6.39258 47.688 6.20467 46.1519 6.52924C44.5305 6.87088 43.4723 7.87874 42.7896 9.34781C42.3629 10.2532 42.1581 11.1927 42.0727 12.1835C41.9362 13.7892 42.0898 15.3608 42.7896 16.8469C43.4211 18.1964 44.3769 19.2043 45.8447 19.6313C47.6026 20.1438 49.2582 19.8534 50.8284 18.9993C50.9926 18.9226 51.1357 18.8178 51.2803 18.7119C51.3612 18.6527 51.4425 18.5932 51.5282 18.5381C51.3405 18.111 51.1698 17.7181 50.9991 17.3252L50.9986 17.3253L50.9972 17.3258C50.8446 17.3768 50.7427 17.4108 50.6407 17.4619C49.8556 17.7864 49.0534 17.9573 48.2 17.9402C47.2954 17.9231 46.5957 17.5302 46.0836 16.7957ZM49.2052 11.8128C49.2159 11.9564 49.2271 12.1068 49.2411 12.2689C47.9099 12.3372 46.6298 12.3884 45.3497 12.4397C45.3464 12.4198 45.3424 12.4012 45.3382 12.3834C45.3356 12.3724 45.3329 12.3617 45.3301 12.3513C45.3281 12.3436 45.326 12.3361 45.324 12.3287C45.3106 12.2792 45.2985 12.2343 45.2985 12.1835C45.3497 11.056 45.5545 9.96277 45.9812 8.90368C46.1178 8.59619 46.3226 8.40829 46.6469 8.3058C47.4661 8.04956 48.0976 8.27163 48.5243 9.02324C48.9169 9.70653 49.0705 10.4582 49.1558 11.2269C49.1758 11.4175 49.19 11.6081 49.2052 11.8126V11.8128Z" fill="#8C8CA2"/>
<path fill-rule="evenodd" clip-rule="evenodd" d="M102.963 13.9166L102.96 13.9166C101.875 13.9296 100.797 13.9426 99.7101 13.96C99.6589 14.4212 99.7271 14.8483 99.8125 15.2754C99.932 15.9245 100.171 16.5224 100.615 17.0348C101.11 17.6156 101.724 17.906 102.475 17.9231C103.294 17.9573 104.079 17.8035 104.847 17.496C105.001 17.4277 105.155 17.3765 105.359 17.3081L105.36 17.3102L105.361 17.3111C105.531 17.703 105.701 18.095 105.889 18.5381C105.876 18.5478 105.863 18.5569 105.85 18.5657C105.839 18.5731 105.828 18.5802 105.816 18.5873C105.806 18.5937 105.796 18.6001 105.786 18.6064C105.768 18.6176 105.75 18.6289 105.732 18.6407C105.716 18.6514 105.7 18.6626 105.684 18.6747C104.318 19.6313 102.782 20.0071 101.161 19.8192C99.1468 19.5972 97.7985 18.4185 97.0646 16.5736C96.1259 14.1992 96.16 11.7906 97.1329 9.41614C97.7644 7.89582 98.8567 6.85381 100.512 6.49507C101.809 6.22176 103.055 6.30717 104.182 7.07587C104.984 7.62251 105.479 8.42536 105.82 9.31364C106.264 10.4582 106.435 11.6539 106.401 12.8667C106.388 13.1106 106.307 13.3458 106.224 13.5847L106.223 13.5855C106.209 13.6255 106.196 13.6655 106.182 13.7056C106.174 13.7283 106.167 13.7511 106.159 13.7739C106.154 13.79 106.149 13.8062 106.144 13.8223C106.138 13.8397 106.133 13.8571 106.128 13.8746C105.057 13.8913 104.007 13.904 102.963 13.9166ZM103.567 12.2689C103.533 11.3806 103.431 10.5436 103.175 9.7407C103.038 9.33073 102.851 8.972 102.577 8.63035C102.065 7.98123 100.512 8.10081 100.273 9.00616C100.218 9.21749 100.157 9.42882 100.095 9.64102C99.9481 10.1492 99.7994 10.6625 99.7271 11.1927C99.7185 11.2618 99.7089 11.3304 99.6993 11.399C99.652 11.7371 99.605 12.0733 99.6759 12.4568C100.359 12.4208 101.033 12.3895 101.713 12.358C102.323 12.3297 102.938 12.3012 103.567 12.2689Z" fill="#8C8CA2"/>
<path fill-rule="evenodd" clip-rule="evenodd" d="M80.1088 13.9169C81.1626 13.9043 82.2205 13.8915 83.291 13.8747C83.322 13.7764 83.3609 13.6765 83.4 13.576C83.4899 13.3448 83.5812 13.1101 83.5812 12.8839C83.5812 11.5857 83.4105 10.3216 82.8985 9.12582C82.5059 8.20337 81.9427 7.41759 81.0381 6.9222C79.6727 6.17059 78.239 6.23891 76.8395 6.78555C75.6447 7.26385 74.8596 8.18629 74.3305 9.3308C73.8697 10.3045 73.6649 11.3465 73.5966 12.4227C73.4771 14.0113 73.682 15.5658 74.4159 17.0178C75.1327 18.4356 76.2421 19.4264 77.8294 19.7339C79.5191 20.0755 81.1405 19.751 82.6083 18.8285C82.6851 18.7773 82.7576 18.7218 82.8301 18.6663L82.8303 18.6661C82.9028 18.6106 82.9753 18.5552 83.0521 18.504C82.9396 18.2481 82.8332 18.0045 82.7293 17.7658C82.6598 17.6061 82.5914 17.4486 82.523 17.2911C82.4202 17.3379 82.3275 17.3745 82.2396 17.4092L82.2392 17.4093C82.1667 17.4379 82.0974 17.4653 82.028 17.4961C81.2429 17.8207 80.4407 17.9573 79.6044 17.9232C78.8705 17.9061 78.2561 17.5986 77.7952 17.0349C77.0613 16.1637 76.8907 15.1217 76.8736 13.9601C77.9534 13.9428 79.0289 13.9299 80.1088 13.9169ZM80.722 11.9184C80.73 12.0319 80.7383 12.1484 80.7479 12.269C80.0468 12.3049 79.3599 12.3362 78.6673 12.3677L78.6636 12.3678C78.0423 12.3961 77.4162 12.4246 76.7712 12.4569C76.7849 12.2992 76.7958 12.1552 76.8062 12.0184L76.8063 12.0173C76.8218 11.8137 76.8361 11.6258 76.8565 11.4319C76.976 10.5266 77.1637 9.63828 77.5392 8.80125C77.6416 8.57918 77.7953 8.44253 78.0171 8.35711C78.8876 8.01547 79.5873 8.23754 80.0482 9.05748C80.4066 9.68953 80.5602 10.3899 80.6455 11.0903C80.6823 11.36 80.7015 11.6297 80.722 11.9184Z" fill="#8C8CA2"/>
<path d="M36.9013 6.56351C36.9525 6.76003 36.9995 6.95228 37.0464 7.14453C37.0934 7.33663 37.1403 7.52873 37.1915 7.7251C37.2683 7.68239 37.3451 7.63541 37.4219 7.58844L37.4221 7.58832C37.4988 7.54139 37.5756 7.49445 37.6523 7.45179C38.5569 6.92224 39.5297 6.68309 40.5709 6.56351C41.0658 6.51227 41.4242 6.66601 41.7144 7.09307C41.6225 7.96055 41.5204 8.84827 41.4161 9.75621L41.4159 9.75765C41.3847 10.0292 41.3533 10.3026 41.3218 10.5778C40.9644 10.5608 40.6197 10.548 40.275 10.5352L40.2693 10.535H40.2687C39.9242 10.5223 39.5798 10.5095 39.2225 10.4924C39.1372 9.86038 39.0689 9.24542 39.0006 8.63047C38.4886 8.66462 38.0619 8.81837 37.6694 9.09168V18.0599C37.9651 18.1309 38.2526 18.1937 38.5547 18.2597C38.6885 18.289 38.8251 18.3188 38.9665 18.3503C38.9582 18.5666 38.9458 18.7748 38.9334 18.9848C38.9202 19.2059 38.907 19.429 38.8982 19.6656H33.3171V18.3673C33.7097 18.2649 34.1022 18.1623 34.4777 18.0769V8.66462C34.3294 8.64813 34.1846 8.63164 34.041 8.61514C33.9616 8.60601 33.8826 8.59689 33.8036 8.58776C33.6437 8.5693 33.4839 8.55083 33.3208 8.53238L33.1294 8.51089V7.12722C34.0997 6.96537 35.0807 6.82481 36.0891 6.68032L36.1037 6.67823C36.3676 6.64042 36.6334 6.60233 36.9013 6.56351Z" fill="#8C8CA2"/>
<path d="M119.901 18.3502C119.867 18.7772 119.85 19.2043 119.833 19.6655C121.727 19.6655 123.571 19.6655 125.482 19.6143C125.499 19.3921 125.512 19.1741 125.525 18.9562C125.538 18.7385 125.55 18.5209 125.567 18.2989C125.396 18.2608 125.229 18.2227 125.066 18.1854C124.791 18.1225 124.528 18.0622 124.27 18.0085V8.97203C124.697 8.81828 125.124 8.66455 125.585 8.51081C125.616 8.76392 125.645 9.00766 125.674 9.24636L125.674 9.24813C125.723 9.65318 125.77 10.0438 125.824 10.4411C126.173 10.4582 126.519 10.471 126.865 10.4838C127.21 10.4966 127.556 10.5094 127.906 10.5265C127.941 10.2164 127.977 9.90868 128.012 9.6035C128.112 8.73179 128.21 7.88124 128.298 7.05882C127.991 6.59759 127.599 6.44386 127.104 6.54635C126.936 6.58094 126.768 6.61124 126.601 6.64139L126.6 6.64149C126.19 6.71552 125.785 6.78866 125.397 6.92216C125.022 7.04737 124.661 7.22567 124.306 7.40147L124.306 7.40172C124.128 7.48967 123.952 7.57699 123.775 7.65669C123.733 7.49692 123.691 7.32474 123.647 7.14422C123.602 6.958 123.554 6.76292 123.502 6.56343C122.239 6.75134 120.993 6.92216 119.696 7.09298V8.47664C120.114 8.53428 120.495 8.57977 120.86 8.62335C120.928 8.63143 120.995 8.63944 121.062 8.64746V18.0598C120.923 18.0945 120.79 18.1273 120.659 18.1595C120.405 18.2222 120.16 18.2824 119.901 18.3502Z" fill="#8C8CA2"/>
<path d="M69.6801 8.84705L69.6782 8.84774C69.4998 8.91355 69.328 8.97695 69.1591 9.04035V18.0598C69.3795 18.1107 69.5956 18.1574 69.8118 18.204L69.8206 18.2059C70.0368 18.2526 70.2529 18.2993 70.4733 18.3502C70.4644 18.4653 70.4556 18.5793 70.4467 18.6928C70.4354 18.8377 70.4241 18.9818 70.4128 19.1262C70.3988 19.3047 70.3849 19.4837 70.3709 19.6655H64.7898V18.3673L65.9674 18.0598V8.64746C65.8328 8.63249 65.6997 8.61752 65.5671 8.60256C65.4728 8.5919 65.3788 8.58125 65.2847 8.57059L65.2704 8.56896C65.049 8.54389 64.8276 8.5188 64.602 8.49372V7.11006C65.848 6.93924 67.0768 6.76842 68.391 6.5805C68.4422 6.76835 68.4977 6.9562 68.5531 7.14405C68.6086 7.33201 68.6641 7.51998 68.7153 7.70794C68.8666 7.63223 69.0123 7.55376 69.157 7.47585L69.1573 7.47573C69.3716 7.36032 69.5835 7.24618 69.8077 7.14423C70.4904 6.81966 71.2413 6.70008 71.9923 6.5805C72.4873 6.51218 72.8798 6.63176 73.2041 7.09297C73.1645 7.4608 73.1231 7.83425 73.081 8.21332L73.0802 8.22057L73.0801 8.22135C72.9954 8.98405 72.9082 9.76953 72.8286 10.5778C72.4847 10.5694 72.145 10.5568 71.8033 10.5443C71.4496 10.5312 71.0939 10.5181 70.7293 10.5094C70.674 10.0773 70.6258 9.67387 70.5755 9.25259C70.5482 9.02445 70.5203 8.79098 70.4904 8.54496C70.2002 8.6551 69.9336 8.75349 69.6801 8.84705Z" fill="#8C8CA2"/>
<path d="M29.75 6.7342V4.08645C29.3107 4.10689 28.8899 4.12734 28.469 4.14779C28.1867 4.16151 27.9043 4.17523 27.6165 4.18894C27.4761 4.68067 27.3299 5.1724 27.1846 5.66068C27.0826 6.00354 26.9812 6.34471 26.8826 6.68295C26.6074 6.69915 26.3438 6.71151 26.0844 6.72367C25.7967 6.73716 25.5142 6.7504 25.227 6.76836C25.218 7.07745 25.204 7.36719 25.1904 7.65045C25.1785 7.89945 25.1668 8.14344 25.1588 8.39118C25.381 8.42824 25.5936 8.4621 25.8035 8.49552C26.0772 8.53911 26.3464 8.58198 26.6266 8.63032C26.6437 8.78407 26.6607 8.93781 26.6607 9.09154V16.7786C26.6607 17.0348 26.6607 17.291 26.6949 17.5473C26.8314 18.7772 27.6336 19.5971 28.8454 19.8021C29.6476 19.9388 30.4327 19.8875 31.2178 19.7338C31.5762 19.6654 31.9346 19.5971 32.276 19.3751C32.2477 19.1299 32.2246 18.8847 32.201 18.6337C32.1819 18.4301 32.1624 18.2227 32.1394 18.0085C31.9761 18.0085 31.8188 18.0105 31.6655 18.0124C31.37 18.0162 31.0891 18.0197 30.8082 18.0085C30.2791 17.9914 29.9036 17.6498 29.8353 17.1202C29.8182 16.9494 29.8182 16.7786 29.8182 16.6077C29.8012 14.0625 29.8012 11.5172 29.8012 8.97197C29.8012 8.86583 29.8146 8.77314 29.8296 8.67001L29.8353 8.63032C30.2123 8.58431 30.5794 8.54325 30.9499 8.50182C31.2671 8.46634 31.5869 8.43058 31.9175 8.39118C31.9304 8.25428 31.9432 8.11845 31.956 7.98262C31.9944 7.57609 32.0328 7.16954 32.0712 6.7342H29.75Z" fill="#8C8CA2"/>
</svg>
