<svg width="24" height="24" viewBox="0 0 24 24" fill="none" xmlns="http://www.w3.org/2000/svg">
<path d="M13.5418 13.5418C13.3421 13.7562 13.1012 13.9281 12.8336 14.0474C12.5659 14.1666 12.277 14.2308 11.9841 14.2359C11.6911 14.2411 11.4001 14.1872 11.1284 14.0775C10.8568 13.9677 10.61 13.8044 10.4028 13.5972C10.1956 13.39 10.0323 13.1432 9.92255 12.8716C9.81282 12.5999 9.75893 12.3089 9.7641 12.016C9.76927 11.723 9.83339 11.4341 9.95264 11.1665C10.0719 10.8988 10.2438 10.6579 10.4582 10.4582M16.32 16.32C15.0768 17.2677 13.563 17.7926 12 17.8182C6.90909 17.8182 4 12 4 12C4.90465 10.3141 6.15937 8.84119 7.68 7.68002L16.32 16.32ZM10.4727 6.35638C10.9733 6.2392 11.4859 6.18063 12 6.18184C17.0909 6.18184 20 12 20 12C19.5585 12.8259 19.032 13.6035 18.4291 14.32L10.4727 6.35638Z" stroke="#333333" stroke-width="1.5" stroke-linecap="round" stroke-linejoin="round"/>
<path d="M4 4L20 20" stroke="#333333" stroke-width="1.5" stroke-linecap="round" stroke-linejoin="round"/>
</svg>
