<svg width="159" height="25" viewBox="0 0 159 25" fill="none" xmlns="http://www.w3.org/2000/svg">
<path d="M14.8901 0.606445V10.5387L9.93862 15.4781V5.56365H0L4.96931 0.606445H14.8901Z" fill="white"/>
<path d="M8.27622 7.22168V12.7317L5.52344 15.4777V9.96776H0L2.77066 7.22168H8.27622Z" fill="white"/>
<path d="M4.14705 11.3232V14.105L2.77066 15.478V12.7141H0L1.37639 11.3411L1.39427 11.3232H4.14705Z" fill="white"/>
<path d="M27.2954 5.47425C27.2954 4.47568 27.0809 3.61976 26.6519 2.88866C26.2229 2.15756 25.5794 1.60478 24.7572 1.19466C23.9349 0.802359 22.916 0.588379 21.7184 0.588379H17.3211V15.0677H20.1811V10.4849H22.2368C23.1841 10.4849 23.9885 10.3423 24.632 10.0392C25.2755 9.73602 25.7939 9.36156 26.1872 8.86227C26.5804 8.38081 26.8664 7.82803 27.0273 7.23959C27.2061 6.65114 27.2954 6.0627 27.2954 5.47425ZM24.3282 6.18752C24.2567 6.43716 24.1315 6.66897 23.9707 6.90079C23.8098 7.1326 23.5774 7.32875 23.2914 7.4714C23.0054 7.61405 22.6479 7.70321 22.201 7.70321H20.1632V3.35229H22.2189C22.7194 3.35229 23.1126 3.44144 23.4165 3.60193C23.7204 3.78025 23.9349 3.97639 24.0779 4.22604C24.2209 4.47568 24.3103 4.72532 24.3639 4.95714C24.4175 5.20678 24.4354 5.3851 24.4354 5.54558C24.4354 5.7239 24.3997 5.95571 24.3282 6.18752Z" fill="white"/>
<path d="M33.2836 0.0180664L26.7413 15.068H29.5656L30.7453 12.2328H35.5538L36.6799 15.068H39.9868L33.4445 0.0180664H33.2836ZM31.7464 9.84332L33.2121 6.31265L34.6064 9.84332H31.7464Z" fill="white"/>
<path d="M51.0516 8.84468C51.4449 8.36322 51.7488 7.82827 51.9275 7.23983C52.1063 6.65138 52.1956 6.06294 52.1956 5.47449C52.1956 4.72556 52.0705 4.04796 51.8203 3.45951C51.57 2.87107 51.2125 2.35395 50.7299 1.92599C50.2472 1.49803 49.6574 1.17706 48.9423 0.945247C48.2273 0.713435 47.423 0.606445 46.5113 0.606445H42.114V15.0858H44.9741V10.4674H46.8867L49.9434 15.0679H53.2682L49.8897 9.80759C50.3545 9.54011 50.7299 9.21914 51.0516 8.84468ZM44.9562 3.35252H47.0118C47.5123 3.35252 47.9056 3.44168 48.2095 3.60217C48.5133 3.78048 48.7278 3.97663 48.8708 4.22627C49.0139 4.47592 49.1032 4.72556 49.1569 4.95737C49.2105 5.20702 49.2284 5.40316 49.2284 5.56365C49.2284 5.77763 49.1926 5.99161 49.1211 6.24125C49.0496 6.4909 48.9245 6.72271 48.7636 6.93669C48.6027 7.1685 48.3703 7.34682 48.0843 7.48947C47.7983 7.63212 47.4408 7.70345 46.994 7.70345H44.9562V3.35252Z" fill="white"/>
<path d="M63.5821 12.0899C63.028 12.3395 62.3666 12.4643 61.598 12.4643C60.9187 12.4643 60.3288 12.3574 59.7926 12.1255C59.2563 11.9116 58.8094 11.5906 58.4162 11.1626C58.0408 10.7525 57.7369 10.2532 57.5403 9.68261C57.3437 9.11199 57.2364 8.47005 57.2364 7.77462C57.2364 7.11485 57.3437 6.50857 57.5761 5.95579C57.7906 5.40301 58.1123 4.90372 58.4877 4.49359C58.8809 4.06563 59.3278 3.74466 59.8283 3.51285C60.3288 3.28104 60.8651 3.17405 61.4192 3.17405C62.1342 3.17405 62.7599 3.3167 63.2961 3.58417C63.8502 3.85165 64.2792 4.11913 64.601 4.36877L65.7271 1.67619C65.2624 1.37305 64.6367 1.08774 63.886 0.838098C63.1352 0.570622 62.2772 0.445801 61.2941 0.445801C60.2395 0.445801 59.2742 0.624117 58.4162 0.998583C57.5403 1.37305 56.8074 1.89017 56.1818 2.54994C55.5562 3.22754 55.0735 4.01214 54.7339 4.92155C54.3943 5.83097 54.2334 6.84737 54.2334 7.95293C54.2334 8.93368 54.3943 9.86092 54.7339 10.7347C55.0557 11.6084 55.5383 12.3752 56.1639 13.035C56.7896 13.7126 57.5582 14.2297 58.4519 14.622C59.3457 15.0143 60.3825 15.2104 61.5265 15.2461C62.2772 15.2639 62.9565 15.1748 63.5821 15.0143C64.2077 14.836 64.7261 14.6398 65.1551 14.4258C65.5841 14.2119 65.8701 14.0335 66.031 13.8909L64.8513 11.341C64.5474 11.5906 64.1362 11.8402 63.5821 12.0899Z" fill="white"/>
<path d="M71.7332 9.18324H77.9717V6.43716H71.7332V3.35229H78.7761V0.588379H68.8911V15.0677H79.062V12.3216H71.7332V9.18324Z" fill="white"/>
<path d="M84.8715 0.588379H82.0114V15.0677H91.6998V12.3216H84.8715V0.588379Z" fill="white"/>
<path d="M102.032 10.4137L94.6671 0H94.6493V15.0678H97.4199V8.59486L101.978 14.8716H102.014L106.751 8.1669V15.0678H109.593V0H109.557L102.032 10.4137Z" fill="white"/>
<path d="M118.262 0.0180664L111.72 15.068H114.544L115.724 12.2328H120.533L121.659 15.068H124.966L118.423 0.0180664H118.262ZM116.707 9.84332L118.173 6.31265L119.567 9.84332H116.707Z" fill="white"/>
<path d="M132.849 10.2532H135.351V12.0007C135.119 12.1256 134.833 12.2326 134.475 12.286C134.136 12.3395 133.76 12.3752 133.349 12.3752C132.634 12.3752 131.991 12.2682 131.401 12.0721C130.811 11.8759 130.31 11.5906 129.881 11.1983C129.452 10.8239 129.131 10.3602 128.88 9.80745C128.648 9.25466 128.523 8.64839 128.523 7.97078C128.523 7.20402 128.63 6.52642 128.845 5.93797C129.059 5.34953 129.363 4.86807 129.774 4.47578C130.185 4.08348 130.704 3.78034 131.293 3.58419C131.901 3.38805 132.598 3.28106 133.385 3.28106C133.707 3.28106 134.064 3.31672 134.475 3.40588C134.886 3.49504 135.28 3.60203 135.673 3.72685C136.066 3.85167 136.388 3.99432 136.62 4.11914L137.55 1.46222C137.013 1.15909 136.352 0.909443 135.583 0.713295C134.815 0.517146 133.957 0.410156 133.027 0.410156C132.044 0.410156 131.097 0.570641 130.203 0.87378C129.309 1.19475 128.505 1.6762 127.826 2.31814C127.128 2.96008 126.592 3.78034 126.181 4.76108C125.788 5.74183 125.573 6.88305 125.573 8.22043C125.573 9.23683 125.752 10.1641 126.11 11.02C126.467 11.8759 126.985 12.607 127.647 13.2311C128.326 13.8552 129.131 14.3367 130.078 14.6933C131.025 15.0321 132.098 15.2104 133.278 15.2104C133.724 15.2104 134.189 15.1569 134.69 15.0678C135.19 14.9608 135.673 14.836 136.155 14.6755C136.638 14.515 137.067 14.3367 137.425 14.1584C137.8 13.9622 138.068 13.7839 138.229 13.6056V7.48933H132.831V10.2532H132.849Z" fill="white"/>
<path d="M144.36 0.588379H141.5V15.0677H144.36V0.588379Z" fill="white"/>
<path d="M157.82 11.3053C157.534 11.5728 157.105 11.8402 156.551 12.0899C155.997 12.3395 155.336 12.4643 154.567 12.4643C153.888 12.4643 153.298 12.3574 152.762 12.1255C152.225 11.9116 151.778 11.5906 151.385 11.1626C151.01 10.7525 150.706 10.2532 150.509 9.68261C150.313 9.11199 150.205 8.47005 150.205 7.77462C150.205 7.11485 150.313 6.50857 150.545 5.95579C150.76 5.40301 151.081 4.90372 151.457 4.49359C151.85 4.06563 152.297 3.74466 152.797 3.51285C153.298 3.28104 153.834 3.17405 154.388 3.17405C155.103 3.17405 155.729 3.3167 156.265 3.58417C156.819 3.85165 157.248 4.11913 157.57 4.36877L158.696 1.67619C158.231 1.37305 157.606 1.08774 156.855 0.838098C156.104 0.570622 155.246 0.445801 154.263 0.445801C153.208 0.445801 152.243 0.624117 151.385 0.998583C150.509 1.37305 149.776 1.89017 149.151 2.54994C148.525 3.22754 148.042 4.01214 147.703 4.92155C147.363 5.83097 147.202 6.84737 147.202 7.95293C147.202 8.93368 147.363 9.86092 147.703 10.7347C148.025 11.6084 148.507 12.3752 149.133 13.035C149.758 13.7126 150.527 14.2297 151.421 14.622C152.315 15.0143 153.351 15.2104 154.495 15.2461C155.246 15.2639 155.925 15.1748 156.551 15.0143C157.177 14.836 157.695 14.6398 158.124 14.4258C158.553 14.2119 158.839 14.0335 159 13.8909L157.82 11.3053Z" fill="white"/>
<path d="M72.3231 24.5008C72.2516 24.5543 72.1622 24.6078 72.0192 24.6613C71.8941 24.7326 71.7332 24.7861 71.5545 24.8217C71.3757 24.8752 71.1791 24.8931 70.9646 24.8752C70.6071 24.8752 70.3032 24.8039 70.0172 24.6969C69.7312 24.5721 69.4988 24.4116 69.3022 24.1976C69.1056 23.9837 68.9626 23.7518 68.8553 23.4844C68.7481 23.2169 68.6944 22.9316 68.6944 22.6106C68.6944 22.2718 68.7481 21.9508 68.8553 21.6834C68.9626 21.3981 69.1234 21.1484 69.3201 20.9344C69.5167 20.7205 69.7669 20.56 70.0351 20.4352C70.3032 20.3103 70.6071 20.2568 70.9288 20.2568C71.2148 20.2568 71.4651 20.2925 71.6796 20.3638C71.912 20.4352 72.0907 20.5243 72.2516 20.6313L71.9835 21.2554C71.8583 21.1663 71.7153 21.0949 71.5366 21.0236C71.3578 20.9523 71.1612 20.9166 70.9467 20.9166C70.7322 20.9166 70.5356 20.9523 70.3389 21.0414C70.1423 21.1306 69.9814 21.2376 69.8384 21.3981C69.6954 21.5407 69.5882 21.719 69.4988 21.933C69.4094 22.1292 69.3737 22.361 69.3737 22.5928C69.3737 22.8246 69.4094 23.0564 69.4809 23.2526C69.5524 23.4487 69.6597 23.627 69.8027 23.7875C69.9457 23.948 70.1066 24.055 70.3032 24.1441C70.4998 24.2333 70.7143 24.269 70.9646 24.269C71.197 24.269 71.3936 24.2333 71.5723 24.162C71.7511 24.0906 71.8941 24.0193 72.0013 23.9123L72.3231 24.5008Z" fill="white"/>
<path d="M73.5386 22.5928C73.5386 22.2896 73.5922 21.9865 73.7174 21.7012C73.8425 21.4159 74.0034 21.1841 74.2179 20.9701C74.4324 20.7561 74.6826 20.5778 74.9507 20.4708C75.2367 20.346 75.5228 20.2925 75.8445 20.2925C76.1663 20.2925 76.4523 20.346 76.7383 20.4708C77.0243 20.5956 77.2566 20.7561 77.4712 20.9701C77.6857 21.1841 77.8465 21.4337 77.9717 21.7012C78.0968 21.9865 78.1504 22.2718 78.1504 22.5928C78.1504 22.9137 78.0968 23.2169 77.9717 23.4844C77.8465 23.7518 77.6857 24.0015 77.4712 24.2155C77.2566 24.4294 77.0064 24.5899 76.7383 24.7147C76.4523 24.8396 76.1663 24.8931 75.8445 24.8931C75.5228 24.8931 75.2189 24.8396 74.9507 24.7147C74.6647 24.5899 74.4324 24.4294 74.2179 24.2333C74.0034 24.0193 73.8425 23.7875 73.7174 23.5022C73.5922 23.2169 73.5386 22.9137 73.5386 22.5928ZM74.2179 22.5928C74.2179 22.8246 74.2536 23.0386 74.343 23.2347C74.4324 23.4309 74.5396 23.6092 74.7005 23.7697C74.8435 23.9123 75.0222 24.0371 75.2189 24.1263C75.4155 24.2155 75.63 24.2511 75.8624 24.2511C76.0948 24.2511 76.2914 24.2155 76.488 24.1263C76.6846 24.0371 76.8634 23.9301 77.0064 23.7697C77.1494 23.627 77.2745 23.4487 77.346 23.2347C77.4354 23.0386 77.4712 22.8246 77.4712 22.5928C77.4712 22.361 77.4354 22.147 77.346 21.9508C77.2567 21.7547 77.1494 21.5764 76.9885 21.4159C76.8455 21.2554 76.6668 21.1484 76.4701 21.0592C76.2735 20.9701 76.059 20.9344 75.8445 20.9344C75.6121 20.9344 75.3976 20.9701 75.201 21.0592C75.0044 21.1484 74.8256 21.2732 74.6826 21.4159C74.5396 21.5764 74.4145 21.7547 74.343 21.9508C74.2536 22.147 74.2179 22.361 74.2179 22.5928Z" fill="white"/>
<path d="M83.5845 25.0004L80.0988 21.541L80.2954 21.5945L80.3133 24.822H79.6341V20.168H79.6698L83.1019 23.6273L82.941 23.5917L82.9231 20.3285H83.5845V25.0004Z" fill="white"/>
<path d="M89.3403 25.0004L85.8546 21.541L86.0513 21.5945L86.0691 24.822H85.3899V20.168H85.4256L88.8577 23.6273L88.6968 23.5917L88.6789 20.3285H89.3403V25.0004Z" fill="white"/>
<path d="M91.1278 20.3281H94.0951V20.9701H91.7892V22.2539H93.8448V22.8959H91.7892V24.1976H94.1845V24.8395H91.1278V20.3281Z" fill="white"/>
<path d="M99.0465 24.5008C98.975 24.5543 98.8857 24.6078 98.7427 24.6613C98.6175 24.7326 98.4567 24.7861 98.2779 24.8217C98.0992 24.8752 97.9025 24.8931 97.688 24.8752C97.3305 24.8752 97.0266 24.8039 96.7406 24.6969C96.4546 24.5721 96.2223 24.4116 96.0256 24.1976C95.829 23.9837 95.686 23.7518 95.5788 23.4844C95.4715 23.2169 95.4179 22.9316 95.4179 22.6106C95.4179 22.2718 95.4715 21.9508 95.5788 21.6834C95.686 21.3981 95.8469 21.1484 96.0435 20.9344C96.2401 20.7205 96.4904 20.56 96.7585 20.4352C97.0266 20.3103 97.3305 20.2568 97.6523 20.2568C97.9383 20.2568 98.1885 20.2925 98.403 20.3638C98.6354 20.4352 98.8142 20.5243 98.975 20.6313L98.7069 21.2554C98.5818 21.1663 98.4388 21.0949 98.26 21.0236C98.0813 20.9523 97.8847 20.9166 97.6702 20.9166C97.4557 20.9166 97.259 20.9523 97.0624 21.0414C96.8658 21.1306 96.7049 21.2376 96.5619 21.3981C96.4189 21.5407 96.3116 21.719 96.2223 21.933C96.1329 22.1292 96.0971 22.361 96.0971 22.5928C96.0971 22.8246 96.1329 23.0564 96.2044 23.2526C96.2759 23.4487 96.3831 23.627 96.5261 23.7875C96.6691 23.948 96.83 24.055 97.0266 24.1441C97.2233 24.2333 97.4378 24.269 97.688 24.269C97.9204 24.269 98.117 24.2333 98.2958 24.162C98.4745 24.0906 98.6175 24.0193 98.7248 23.9123L99.0465 24.5008Z" fill="white"/>
<path d="M100.208 20.3281H103.229V20.9701H102.032V24.8395H101.37V20.9701H100.208V20.3281Z" fill="white"/>
<path d="M104.659 20.3281H105.321V24.8395H104.659V20.3281Z" fill="white"/>
<path d="M111.041 25.0004L107.555 21.541L107.752 21.5945L107.77 24.822H107.09V20.168H107.126L110.558 23.6273L110.397 23.5917L110.379 20.3285H111.041V25.0004Z" fill="white"/>
<path d="M116.421 24.4473C116.368 24.5008 116.278 24.5543 116.153 24.6077C116.046 24.6612 115.921 24.7147 115.778 24.7504C115.635 24.7861 115.492 24.8217 115.349 24.8574C115.206 24.8931 115.063 24.8931 114.938 24.8931C114.58 24.8931 114.24 24.8396 113.954 24.7326C113.668 24.6256 113.418 24.4651 113.204 24.2689C112.989 24.0728 112.828 23.841 112.721 23.5735C112.614 23.306 112.56 23.0207 112.56 22.6998C112.56 22.3075 112.614 21.9687 112.739 21.6655C112.864 21.3624 113.025 21.1127 113.239 20.9166C113.454 20.7026 113.704 20.56 113.972 20.453C114.258 20.346 114.544 20.2925 114.848 20.2925C115.116 20.2925 115.367 20.3281 115.599 20.3816C115.831 20.4351 116.028 20.5243 116.189 20.6313L115.974 21.2376C115.885 21.1841 115.796 21.1484 115.67 21.0949C115.545 21.0592 115.42 21.0236 115.295 20.9879C115.17 20.9701 115.045 20.9523 114.938 20.9523C114.669 20.9523 114.437 20.9879 114.223 21.0592C114.008 21.1306 113.829 21.2554 113.686 21.398C113.543 21.5407 113.418 21.719 113.347 21.933C113.257 22.147 113.222 22.3788 113.222 22.6284C113.222 22.8602 113.257 23.0742 113.347 23.2704C113.436 23.4665 113.543 23.6448 113.704 23.7875C113.847 23.9301 114.026 24.0371 114.24 24.1085C114.455 24.1798 114.687 24.2155 114.938 24.2155C115.081 24.2155 115.224 24.1976 115.367 24.1798C115.51 24.1441 115.635 24.1085 115.724 24.055V23.2347H114.848V22.5928H116.385V24.4473H116.421Z" fill="white"/>
<path d="M124.143 20.3281V24.8395H123.482V22.8959H121.194V24.8395H120.533V20.3281H121.194V22.2539H123.482V20.3281H124.143Z" fill="white"/>
<path d="M125.448 24.8396L127.45 20.1499H127.486L129.47 24.8396H128.702L127.254 21.1841L127.736 20.8632L126.11 24.8396H125.448ZM126.664 23.1635H128.273L128.505 23.7341H126.467L126.664 23.1635Z" fill="white"/>
<path d="M132.026 20.3281C132.366 20.3281 132.652 20.3816 132.884 20.5064C133.117 20.6134 133.313 20.7917 133.438 20.9879C133.564 21.2019 133.635 21.4515 133.635 21.7547C133.635 21.933 133.599 22.1113 133.546 22.2896C133.492 22.4679 133.403 22.6284 133.295 22.7711C133.17 22.9137 133.027 23.0207 132.831 23.1099C132.634 23.199 132.402 23.2347 132.116 23.2347H131.454V24.8395H130.793V20.3281H132.026ZM132.098 22.5927C132.259 22.5927 132.402 22.5571 132.509 22.5036C132.616 22.4501 132.706 22.3788 132.777 22.2896C132.849 22.2004 132.884 22.1113 132.92 22.0221C132.956 21.933 132.956 21.8438 132.956 21.7725C132.956 21.6833 132.938 21.5942 132.92 21.505C132.902 21.4159 132.849 21.3267 132.795 21.2375C132.741 21.1484 132.652 21.0949 132.545 21.0414C132.437 20.9879 132.294 20.9701 132.134 20.9701H131.454V22.5927H132.098Z" fill="white"/>
<path d="M136.281 20.3281C136.62 20.3281 136.906 20.3816 137.139 20.5064C137.371 20.6134 137.568 20.7917 137.693 20.9879C137.818 21.2019 137.889 21.4515 137.889 21.7547C137.889 21.933 137.854 22.1113 137.8 22.2896C137.746 22.4679 137.657 22.6284 137.55 22.7711C137.425 22.9137 137.282 23.0207 137.085 23.1099C136.888 23.199 136.656 23.2347 136.37 23.2347H135.709V24.8395H135.047V20.3281H136.281ZM136.37 22.5927C136.531 22.5927 136.674 22.5571 136.781 22.5036C136.888 22.4501 136.978 22.3788 137.049 22.2896C137.121 22.2004 137.156 22.1113 137.192 22.0221C137.228 21.933 137.228 21.8438 137.228 21.7725C137.228 21.6833 137.21 21.5942 137.192 21.505C137.174 21.4159 137.121 21.3267 137.067 21.2375C137.013 21.1484 136.924 21.0949 136.817 21.0414C136.71 20.9879 136.567 20.9701 136.406 20.9701H135.726V22.5927H136.37Z" fill="white"/>
<path d="M139.284 20.3281H139.945V24.8395H139.284V20.3281Z" fill="white"/>
<path d="M145.683 25.0004L142.197 21.541L142.394 21.5945L142.412 24.822H141.733V20.168H141.768L145.2 23.6273L145.039 23.5917L145.022 20.3285H145.683V25.0004Z" fill="white"/>
<path d="M147.47 20.3281H150.438V20.9701H148.132V22.2539H150.188V22.8959H148.132V24.1976H150.527V24.8395H147.47V20.3281Z" fill="white"/>
<path d="M154.406 21.2019C154.245 21.1127 154.084 21.0414 153.888 20.9879C153.709 20.9344 153.53 20.8987 153.351 20.8987C153.119 20.8987 152.94 20.9522 152.797 21.0592C152.654 21.1662 152.601 21.3089 152.601 21.4872C152.601 21.612 152.654 21.719 152.744 21.826C152.833 21.9151 152.958 22.0043 153.101 22.0756C153.244 22.147 153.405 22.2183 153.566 22.2718C153.709 22.3253 153.834 22.3788 153.977 22.4501C154.12 22.5214 154.227 22.6106 154.352 22.6997C154.46 22.8067 154.549 22.9137 154.621 23.0742C154.692 23.2169 154.71 23.3952 154.71 23.6091C154.71 23.841 154.656 24.0728 154.531 24.2689C154.406 24.4651 154.245 24.6256 154.013 24.7325C153.798 24.8395 153.53 24.9109 153.208 24.9109C153.012 24.9109 152.833 24.893 152.654 24.8395C152.476 24.8039 152.297 24.7325 152.136 24.6612C151.975 24.5899 151.832 24.5007 151.707 24.4294L152.011 23.9123C152.118 23.9836 152.225 24.0549 152.35 24.1084C152.476 24.1798 152.619 24.2154 152.744 24.2689C152.887 24.3046 153.012 24.3224 153.137 24.3224C153.28 24.3224 153.405 24.3046 153.548 24.2511C153.673 24.1976 153.798 24.1263 153.87 24.0193C153.959 23.9123 153.995 23.7875 153.995 23.627C153.995 23.4843 153.959 23.3595 153.888 23.2703C153.816 23.1812 153.709 23.092 153.584 23.0207C153.459 22.9494 153.316 22.8959 153.173 22.8424C153.03 22.7889 152.887 22.7354 152.744 22.6641C152.601 22.5927 152.458 22.5214 152.333 22.4323C152.207 22.3431 152.1 22.2183 152.029 22.0756C151.957 21.933 151.921 21.7725 151.921 21.5585C151.921 21.3267 151.975 21.1127 152.1 20.9344C152.207 20.7561 152.368 20.6134 152.583 20.5064C152.779 20.3995 153.03 20.346 153.28 20.3281C153.584 20.3281 153.852 20.3638 154.066 20.4351C154.299 20.5064 154.495 20.5956 154.656 20.7026L154.406 21.2019Z" fill="white"/>
<path d="M158.535 21.2019C158.374 21.1127 158.213 21.0414 158.017 20.9879C157.838 20.9344 157.659 20.8987 157.481 20.8987C157.248 20.8987 157.069 20.9522 156.926 21.0592C156.783 21.1662 156.73 21.3089 156.73 21.4872C156.73 21.612 156.783 21.719 156.873 21.826C156.962 21.9151 157.087 22.0043 157.23 22.0756C157.373 22.147 157.534 22.2183 157.695 22.2718C157.838 22.3253 157.963 22.3788 158.106 22.4501C158.249 22.5214 158.356 22.6106 158.482 22.6997C158.589 22.8067 158.678 22.9137 158.75 23.0742C158.821 23.2169 158.839 23.3952 158.839 23.6091C158.839 23.841 158.785 24.0728 158.66 24.2689C158.535 24.4651 158.374 24.6256 158.142 24.7325C157.927 24.8395 157.659 24.9109 157.338 24.9109C157.141 24.9109 156.962 24.893 156.783 24.8395C156.605 24.8039 156.426 24.7325 156.265 24.6612C156.104 24.5899 155.961 24.5007 155.836 24.4294L156.14 23.9123C156.247 23.9836 156.354 24.0549 156.48 24.1084C156.605 24.1798 156.748 24.2154 156.873 24.2689C157.016 24.3046 157.141 24.3224 157.266 24.3224C157.409 24.3224 157.534 24.3046 157.677 24.2511C157.802 24.1976 157.927 24.1263 157.999 24.0193C158.088 23.9123 158.124 23.7875 158.124 23.627C158.124 23.4843 158.088 23.3595 158.017 23.2703C157.945 23.1812 157.838 23.092 157.713 23.0207C157.588 22.9494 157.445 22.8959 157.302 22.8424C157.159 22.7889 157.016 22.7354 156.873 22.6641C156.73 22.5927 156.587 22.5214 156.462 22.4323C156.337 22.3431 156.229 22.2183 156.158 22.0756C156.086 21.933 156.051 21.7725 156.051 21.5585C156.051 21.3267 156.104 21.1127 156.229 20.9344C156.337 20.7561 156.497 20.6134 156.712 20.5064C156.909 20.3995 157.159 20.346 157.409 20.3281C157.713 20.3281 157.981 20.3638 158.196 20.4351C158.428 20.5064 158.625 20.5956 158.785 20.7026L158.535 21.2019Z" fill="white"/>
</svg>
