<svg width="281" height="56" viewBox="0 0 281 56" fill="none" xmlns="http://www.w3.org/2000/svg">
<rect width="281" height="56" rx="4" fill="#FAFCFE"/>
<path d="M233 29H247" stroke="#552D83" stroke-width="2" stroke-linecap="round" stroke-linejoin="round"/>
<path d="M240 22L247 29L240 36" stroke="#552D83" stroke-width="2" stroke-linecap="round" stroke-linejoin="round"/>
<path d="M38.712 31.672C38.712 29.864 37.72 28.728 35.592 28.312L33.768 27.976C32.536 27.736 32.072 27.32 32.072 26.568C32.072 25.736 32.84 25.192 34.056 25.192C35.32 25.192 36.264 25.672 36.264 26.824H38.52C38.52 24.28 36.344 23.32 34.088 23.32C31.336 23.32 29.72 24.824 29.72 26.776C29.72 28.504 30.856 29.608 32.92 29.992L34.728 30.344C35.848 30.552 36.328 30.936 36.328 31.736C36.328 32.648 35.464 33.224 34.184 33.224C32.568 33.224 31.784 32.552 31.784 31.608H29.464C29.464 33.736 31.256 35.144 34.184 35.144C36.728 35.144 38.712 33.896 38.712 31.672ZM45.7383 25.496H49.3223V23.48H39.8823V25.496H43.4663V35H45.7383V25.496ZM57.372 35H59.884L55.532 23.48H53.292L48.924 35H51.26L52.156 32.584H56.492L57.372 35ZM52.796 30.84L54.348 26.632L55.868 30.84H52.796ZM61.742 35H64.014V31.128H66.19L68.11 35H70.686L68.558 30.824C69.982 30.392 70.894 29.032 70.894 27.24C70.894 24.92 69.198 23.48 66.926 23.48H61.742V35ZM64.014 29.192V25.496H66.558C67.822 25.496 68.494 26.12 68.494 27.32C68.494 28.52 67.822 29.192 66.558 29.192H64.014ZM78.1583 25.496H81.7423V23.48H72.3023V25.496H75.8863V35H78.1583V25.496ZM89.6844 32.984V30.2H93.9084V28.232H89.6844V25.496H95.2524V23.48H87.3964V35H95.4444V32.984H89.6844ZM105.197 35H107.709L103.357 23.48H101.117L96.749 35H99.085L99.981 32.584H104.317L105.197 35ZM100.621 30.84L102.173 26.632L103.693 30.84H100.621ZM109.567 35H111.839V31.128H114.015L115.935 35H118.511L116.383 30.824C117.807 30.392 118.719 29.032 118.719 27.24C118.719 24.92 117.023 23.48 114.751 23.48H109.567V35ZM111.839 29.192V25.496H114.383C115.647 25.496 116.319 26.12 116.319 27.32C116.319 28.52 115.647 29.192 114.383 29.192H111.839ZM121.051 35H123.323V27.368L128.171 35H130.459V23.48H128.203V31.288L123.355 23.48H121.051V35ZM135.526 23.48H133.238V35H135.526V23.48ZM138.3 35H140.572V27.368L145.42 35H147.708V23.48H145.452V31.288L140.604 23.48H138.3V35ZM155.334 28.392V30.264H158.886V30.456L158.742 30.44C158.63 32.392 156.918 33.08 155.622 33.08C153.67 33.08 152.374 31.64 152.374 29.256C152.374 26.856 153.686 25.416 155.686 25.416C156.918 25.416 157.974 25.96 158.422 27.192H160.966C160.47 24.824 158.47 23.32 155.718 23.32C152.262 23.32 149.99 25.832 149.99 29.464C149.99 33 152.246 35.16 155.318 35.16C156.902 35.16 158.134 34.6 158.918 33.608L159.11 35H161.03V28.392H155.334ZM167.266 35H169.538V27.368L174.386 35H176.674V23.48H174.418V31.288L169.57 23.48H167.266V35ZM184.573 35.16C187.917 35.16 190.173 32.728 190.173 29.256C190.173 25.768 187.917 23.32 184.573 23.32C181.229 23.32 178.957 25.768 178.957 29.256C178.957 32.728 181.229 35.16 184.573 35.16ZM184.573 33C182.557 33 181.389 31.56 181.389 29.256C181.389 26.952 182.557 25.48 184.573 25.48C186.573 25.48 187.725 26.952 187.725 29.256C187.725 31.544 186.573 33 184.573 33ZM194.333 35H196.909L199.325 26.504L201.645 35H204.221L207.373 23.48H205.037L202.893 32.12L200.653 23.48H198.125L195.725 32.104L193.661 23.48H191.261L194.333 35Z" fill="#552D83"/>
</svg>
