<svg width="121" height="21" viewBox="0 0 121 21" fill="none" xmlns="http://www.w3.org/2000/svg">
<path fill-rule="evenodd" clip-rule="evenodd" d="M14.6477 5.37675V1.54239L14.5792 1.47392H0.538066V1.61086C1.01752 1.67933 2.25039 2.63792 2.25039 4.14428V17.5645C2.25039 20.0979 0.949025 20.3718 0.40108 20.6457C0.264093 20.6457 0.264093 20.7826 0.40108 20.7826H7.45587C7.52437 20.7826 7.52437 20.6457 7.45587 20.6457C6.29149 20.0294 5.33259 19.6871 5.33259 17.496V11.1283H10.1956C11.36 11.1283 12.5929 12.4292 13.0723 13.4563H13.2093V7.36239H13.0723C12.8668 8.52639 11.4285 9.69039 10.1956 9.69039H5.40108V2.98028H10.949C12.5929 2.98028 14.0997 4.28122 14.5107 5.44522C14.5107 5.51369 14.6477 5.51369 14.6477 5.37675ZM50.0586 18.3177L46.1545 11.6076C46.7025 11.4706 47.3189 11.1967 48.0038 10.8544C51.4285 8.80027 50.812 4.48663 49.0312 3.04875C47.7298 2.02169 46.9764 1.54239 44.4422 1.47392H34.8531V1.54239C36.2915 2.02169 36.8394 2.63792 36.9079 4.0758V17.5645C36.9079 20.0979 35.7435 20.0294 34.9216 20.6457V20.8511H41.7709V20.7142C40.3326 20.0294 39.9216 19.6186 39.9216 17.5645V11.9499H43.1408L47.8668 20.8511H52.5244V20.5087C51.7024 20.3718 51.223 20.2349 50.0586 18.3177ZM43.2778 10.512H39.8531V2.84333H43.6888C48.0723 2.84333 48.4833 10.512 43.2778 10.512ZM99.3737 1.61086C100.744 2.29557 101.223 2.70639 101.223 4.76051V14.6887L90.6066 1.47392H86.223V1.61086C87.5929 2.29557 88.0723 2.70639 88.0723 4.76051H88.0038V16.7429C88.0038 19.2763 87.0449 20.0294 86.223 20.6457V20.8511H91.7024V20.7142C90.2641 20.0294 89.6477 19.4132 89.6477 17.2222V5.65063L101.976 20.8511H102.798V4.76051C102.798 2.2271 103.826 2.2271 104.648 1.67933V1.47392H99.5107V1.61086H99.3737ZM80.0586 1.61086C81.4285 2.29557 81.9079 2.70639 81.9079 4.76051V15.5789C81.9079 17.633 80.6066 19.5502 77.3189 19.5502C73.6888 19.5502 72.3874 17.2222 72.3874 15.5104V4.76051C72.3874 2.2271 73.3463 2.2271 74.1682 1.67933V1.47392H67.3874V1.61086C68.7572 2.29557 69.2367 2.70639 69.2367 4.76051V14.9626C69.2367 17.0167 70.3326 20.988 77.3189 20.988C82.4559 20.988 83.7572 17.5645 83.7572 14.8942L83.6888 4.69204C83.6888 2.15863 84.7162 2.15863 85.5381 1.61086V1.47392H80.1271V1.61086H80.0586ZM120.538 15.9897C119.853 18.1807 117.661 19.4132 114.511 19.4132C110.949 19.4132 110.401 18.3177 110.264 17.496V11.2652H114.648C117.182 11.2652 117.456 12.2923 118.072 13.1139H118.209V8.0471H118.072C117.387 9.34804 116.771 9.82733 114.922 9.8958H110.333V2.77486H115.47C116.839 2.77486 119.237 4.21275 119.511 5.44522H119.579V1.47392H105.264V1.61086C106.565 2.2271 107.045 2.63792 107.113 4.0758V17.9753C107.045 19.4817 106.565 20.0294 105.264 20.6457V20.8511H119.785L120.675 15.9897H120.538ZM65.6066 1.47392H53.2778C52.8668 1.40545 52.4559 1.33698 52.3874 1.0631L51.497 5.78757L51.5655 5.85604C53.1408 3.25416 53.5518 2.77486 57.8668 2.77486V17.4276C57.8668 19.961 56.5655 20.0294 55.812 20.7142V20.8511H63.1408V20.7142C62.3189 20.0979 61.086 20.0294 61.086 17.4276V2.77486C65.4011 2.77486 65.7435 3.25416 67.4559 5.85604V5.78757L66.497 1.13157C66.36 1.33698 66.0175 1.40545 65.6066 1.47392ZM25.0586 0.994629C19.2367 0.994629 14.5792 5.44522 14.5792 10.9913C14.5792 16.5374 19.2367 20.988 25.0586 20.988C30.8805 20.988 35.5381 16.5374 35.5381 10.9913C35.6066 5.44522 30.8805 0.994629 25.0586 0.994629ZM25.0586 19.7556C21.2915 19.7556 18.2093 15.7843 18.2093 10.9913C18.2093 6.19839 21.2915 2.36404 25.0586 2.36404C28.8942 2.36404 31.9079 6.26686 31.9079 10.9913C31.9079 15.7843 28.8942 19.7556 25.0586 19.7556Z" fill="#8C8CA2"/>
</svg>
