<svg width="18" height="18" viewBox="0 0 18 18" fill="none" xmlns="http://www.w3.org/2000/svg">
<path fill-rule="evenodd" clip-rule="evenodd" d="M3.10505 0.47254C3.67683 0.25006 4.33155 0.0981401 5.28969 0.0545001C6.24985 0.0101501 6.55687 0 9.0011 0C11.4453 0 11.7521 0.0108701 12.7117 0.0545001C13.6692 0.0974201 14.3235 0.25006 14.8964 0.47254C15.4875 0.70229 15.9899 1.00973 16.49 1.51063C16.9902 2.01154 17.2978 2.51316 17.5282 3.10493C17.7507 3.67668 17.9026 4.3313 17.9462 5.28948C17.9898 6.2491 18 6.55589 18 9C18 11.4441 17.9898 11.7502 17.9462 12.7105C17.9033 13.6686 17.7507 14.323 17.5282 14.8951C17.2978 15.4868 16.991 15.9893 16.49 16.4894C15.9891 16.9895 15.4875 17.2971 14.8957 17.5275C14.3235 17.7499 13.6692 17.9019 12.711 17.9455C11.7514 17.9898 11.4446 18 9.0004 18C6.55615 18 6.24985 17.9891 5.28969 17.9455C4.33155 17.9019 3.67791 17.7499 3.10505 17.5275C2.5129 17.2971 2.01154 16.9893 1.51069 16.4894C1.00984 15.9895 0.70232 15.4868 0.47255 14.8951C0.25007 14.323 0.0981401 13.6687 0.0545101 12.7105C0.0101501 11.7509 0 11.4441 0 9C0 6.55589 0.0101501 6.2491 0.0545101 5.28948C0.0981401 4.33138 0.25007 3.67704 0.47255 3.10493C0.70232 2.5128 1.00977 2.01074 1.51069 1.51063C2.01162 1.01052 2.5129 0.70229 3.10505 0.47254ZM8.9995 6C7.3429 6 6 7.3432 6 9C6 10.6568 7.3429 12 8.9995 12C10.6565 12 12 10.6565 12 9C12 7.3435 10.6565 6 8.9995 6ZM4 9C4 6.23904 6.23789 4 8.9995 4C11.7608 4 14 6.23872 14 9C14 11.7613 11.7608 14 8.9995 14C6.23789 14 4 11.761 4 9ZM15 4C15.5523 4 16 3.55228 16 3C16 2.44772 15.5523 2 15 2C14.4477 2 14 2.44772 14 3C14 3.55228 14.4477 4 15 4Z" fill="white"/>
</svg>
