<?xml version="1.0" encoding="utf-8"?>
<!-- Generator: Adobe Illustrator 24.0.0, SVG Export Plug-In . SVG Version: 6.00 Build 0)  -->
<svg version="1.1" id="Layer_1" xmlns="http://www.w3.org/2000/svg" xmlns:xlink="http://www.w3.org/1999/xlink" x="0px" y="0px"
	 viewBox="0 0 115 40" style="enable-background:new 0 0 115 40;" xml:space="preserve">
<style type="text/css">
	.st0{fill:#4164A9;}
	.st1{fill:#5BC4D6;}
	.st2{fill:#161616;}
</style>
<path class="st0" d="M15.4,15.5c1.2,0,2.3,0.5,3.3,1.4c4.9,4.6,9.6,9.3,14.2,14.1c1.9,2,1.9,4.9-0.1,7c-1,1-2.3,1.6-3.7,1.6
	c-1.2,0-2.3-0.4-3.2-1.3c-4.6-4.4-9.1-8.9-13.8-13.6l-0.4-0.4c-1-1-1.5-2.3-1.5-3.7c0-1.3,0.6-2.6,1.6-3.5l0,0l0,0
	C12.9,16,14.2,15.5,15.4,15.5z"/>
<path class="st1" d="M5.1,5.4c1.4,0,2.7,0.5,3.6,1.5c1.9,2,1.9,5.3-0.1,7.2c-1,0.9-2.2,1.4-3.5,1.4c-1.4,0-2.7-0.5-3.7-1.5
	c-1-1-1.5-2.2-1.5-3.6C0,9,0.6,7.7,1.5,6.8C2.5,5.9,3.8,5.4,5.1,5.4z"/>
<path class="st1" d="M28.7,0c1.3,1.2,2.5,2.4,3.5,3.6c1.9,2.1,1.9,4.5,0.1,6.5c-4.6,4.8-9.4,9.5-14.2,14.1c-0.9,0.9-2.1,1.3-3.2,1.3
	c-1.2,0-2.5-0.5-3.4-1.4c-1.9-1.9-2.1-4.7-0.3-6.5c4.4-4.6,8.9-9,13.7-13.7C26.1,2.6,27.4,1.3,28.7,0z"/>
<path class="st2" d="M41.9,9.5h2.6v5.8h0.1l5-5.8h3.1v0.1l-5,5.6l5.5,7.7v0.1h-3.1l-4.1-5.8l-1.6,1.8v4h-2.6V9.5z"/>
<path class="st2" d="M54.7,9.5h2.6v11.2h5.8v2.4h-8.4V9.5z"/>
<path class="st2" d="M71.2,23.5c-1,0-2-0.2-2.9-0.6c-0.9-0.4-1.6-0.9-2.3-1.5c-0.6-0.6-1.1-1.4-1.5-2.3c-0.4-0.9-0.5-1.8-0.5-2.8
	c0-1,0.2-1.9,0.5-2.8c0.4-0.9,0.9-1.6,1.5-2.3c0.6-0.6,1.4-1.2,2.3-1.5c0.9-0.4,1.8-0.6,2.9-0.6c1,0,2,0.2,2.9,0.6
	c0.9,0.4,1.6,0.9,2.3,1.5c0.6,0.6,1.1,1.4,1.5,2.3c0.4,0.9,0.5,1.8,0.5,2.8c0,1-0.2,1.9-0.5,2.8c-0.4,0.9-0.9,1.6-1.5,2.3
	c-0.6,0.6-1.4,1.2-2.3,1.5C73.1,23.3,72.2,23.5,71.2,23.5z M71.2,21c0.6,0,1.2-0.1,1.8-0.3c0.6-0.2,1-0.5,1.5-1
	c0.4-0.4,0.7-0.9,1-1.5c0.2-0.6,0.4-1.2,0.4-1.9c0-0.7-0.1-1.3-0.4-1.9c-0.2-0.6-0.6-1.1-1-1.5c-0.4-0.4-0.9-0.7-1.5-1
	c-0.6-0.2-1.2-0.3-1.8-0.3c-0.6,0-1.2,0.1-1.8,0.3c-0.6,0.2-1,0.5-1.5,1c-0.4,0.4-0.7,0.9-1,1.5c-0.2,0.6-0.4,1.2-0.4,1.9
	c0,0.7,0.1,1.3,0.4,1.9c0.2,0.6,0.6,1.1,1,1.5c0.4,0.4,0.9,0.7,1.5,1C69.9,20.9,70.5,21,71.2,21z"/>
<path class="st2" d="M78.7,9.5h2.8l2.8,8.2l0.5,1.7H85l0.5-1.7l2.9-8.2h2.8l-5,13.6h-2.7L78.7,9.5z"/>
<path class="st2" d="M95.4,12v3.2h5.5v2.4h-5.5v3.2h6.1v2.4h-8.7V9.5h8.7V12H95.4z"/>
<path class="st2" d="M103.9,9.5h5c0.7,0,1.3,0.1,1.9,0.3c0.6,0.2,1,0.5,1.4,0.9c0.4,0.4,0.7,0.8,0.9,1.3c0.2,0.5,0.3,1.1,0.3,1.7
	c0,0.4-0.1,0.9-0.2,1.3c-0.1,0.4-0.4,0.8-0.6,1.1c-0.3,0.3-0.6,0.6-0.9,0.9c-0.4,0.3-0.7,0.4-1.1,0.6l0,0.1l3.7,5.2v0.1h-3l-3.5-5.1
	h-1.2v5.1h-2.6V9.5z M108.9,15.7c0.6,0,1.1-0.2,1.4-0.5c0.4-0.4,0.6-0.8,0.6-1.3c0-0.3,0-0.5-0.1-0.7c-0.1-0.2-0.2-0.4-0.4-0.6
	c-0.2-0.2-0.4-0.3-0.6-0.4c-0.3-0.1-0.5-0.2-0.8-0.2h-2.4v3.8H108.9z"/>
<path class="st2" d="M47.3,32.9c-0.3,0.3-0.6,0.6-1,0.8c-0.4,0.2-0.8,0.3-1.3,0.3c-0.4,0-0.8-0.1-1.2-0.2c-0.4-0.2-0.7-0.4-1-0.6
	c-0.3-0.3-0.5-0.6-0.6-1c-0.2-0.4-0.2-0.8-0.2-1.2s0.1-0.8,0.2-1.2c0.2-0.4,0.4-0.7,0.6-1c0.3-0.3,0.6-0.5,1-0.6
	c0.4-0.2,0.8-0.2,1.2-0.2c0.5,0,0.9,0.1,1.2,0.3c0.3,0.2,0.6,0.4,0.9,0.7l-0.8,0.7c-0.2-0.2-0.4-0.4-0.6-0.5
	c-0.2-0.1-0.5-0.2-0.8-0.2c-0.3,0-0.5,0.1-0.8,0.1c-0.2,0.1-0.5,0.2-0.6,0.4c-0.2,0.2-0.3,0.4-0.4,0.6C43,30.5,43,30.7,43,31
	c0,0.3,0.1,0.6,0.1,0.8c0.1,0.3,0.2,0.4,0.4,0.6c0.2,0.2,0.4,0.3,0.6,0.4c0.2,0.1,0.5,0.1,0.8,0.1c0.3,0,0.6-0.1,0.8-0.2
	c0.3-0.1,0.5-0.3,0.6-0.6L47.3,32.9z"/>
<path class="st2" d="M59.4,28.1h1.1v4.7h2.4v1h-3.5L59.4,28.1L59.4,28.1z"/>
<path class="st2" d="M77.5,34c-0.4,0-0.8-0.1-1.2-0.2c-0.4-0.2-0.7-0.4-1-0.6c-0.3-0.3-0.5-0.6-0.6-1c-0.1-0.4-0.2-0.8-0.2-1.2
	c0-0.4,0.1-0.8,0.2-1.2c0.1-0.4,0.4-0.7,0.6-1c0.3-0.3,0.6-0.5,1-0.6c0.4-0.2,0.8-0.2,1.2-0.2s0.8,0.1,1.2,0.2
	c0.4,0.1,0.7,0.4,1,0.6c0.3,0.3,0.5,0.6,0.6,1c0.1,0.4,0.2,0.8,0.2,1.2c0,0.4-0.1,0.8-0.2,1.2c-0.1,0.4-0.4,0.7-0.6,1
	c-0.3,0.3-0.6,0.5-1,0.6C78.4,33.9,78,34,77.5,34z M77.5,32.9c0.3,0,0.5-0.1,0.8-0.1c0.2-0.1,0.4-0.2,0.6-0.4
	c0.2-0.2,0.3-0.4,0.4-0.6c0.1-0.3,0.1-0.5,0.1-0.8c0-0.3-0.1-0.6-0.1-0.8c-0.1-0.3-0.2-0.4-0.4-0.6c-0.2-0.2-0.4-0.3-0.6-0.4
	c-0.2-0.1-0.5-0.1-0.8-0.1s-0.5,0.1-0.8,0.1c-0.2,0.1-0.4,0.2-0.6,0.4c-0.2,0.2-0.3,0.4-0.4,0.6c-0.1,0.3-0.1,0.5-0.1,0.8
	c0,0.3,0.1,0.6,0.1,0.8c0.1,0.3,0.2,0.4,0.4,0.6c0.2,0.2,0.4,0.3,0.6,0.4C77,32.9,77.3,32.9,77.5,32.9z"/>
<path class="st2" d="M94.8,34c-0.3,0-0.6-0.1-0.9-0.2c-0.3-0.1-0.5-0.3-0.7-0.5c-0.2-0.2-0.3-0.4-0.5-0.8c-0.1-0.3-0.2-0.6-0.2-1
	v-3.5h1.1v3.5c0,0.2,0,0.4,0.1,0.5c0.1,0.2,0.1,0.3,0.2,0.4c0.1,0.1,0.2,0.2,0.4,0.3c0.1,0.1,0.3,0.1,0.5,0.1c0.2,0,0.4,0,0.5-0.1
	c0.1-0.1,0.3-0.2,0.4-0.3c0.1-0.1,0.2-0.3,0.2-0.4C96,32,96,31.8,96,31.6v-3.5h1.1v3.5c0,0.4-0.1,0.7-0.2,1
	c-0.1,0.3-0.3,0.6-0.5,0.8c-0.2,0.2-0.4,0.4-0.7,0.5C95.4,33.9,95.1,34,94.8,34z"/>
<path class="st2" d="M109.3,28.1h1.9c0.5,0,0.9,0.1,1.2,0.2c0.4,0.1,0.7,0.3,0.9,0.6c0.3,0.3,0.5,0.6,0.6,0.9
	c0.1,0.4,0.2,0.7,0.2,1.2c0,0.4-0.1,0.8-0.2,1.2c-0.1,0.4-0.3,0.6-0.6,0.9c-0.3,0.3-0.6,0.4-0.9,0.6c-0.4,0.1-0.8,0.2-1.2,0.2h-1.9
	V28.1z M111.2,32.8c0.3,0,0.6-0.1,0.8-0.1c0.3-0.1,0.5-0.2,0.6-0.4c0.2-0.2,0.3-0.4,0.4-0.6c0.1-0.2,0.1-0.5,0.1-0.8
	c0-0.3,0-0.5-0.1-0.8s-0.2-0.4-0.4-0.6c-0.2-0.2-0.4-0.3-0.6-0.4c-0.3-0.1-0.5-0.1-0.8-0.1h-0.8v3.7L111.2,32.8L111.2,32.8z"/>
</svg>
