<svg width="470" height="328" viewBox="0 0 470 328" fill="none" xmlns="http://www.w3.org/2000/svg">
<path d="M22.6194 134.486C18.7816 132.085 14.4456 130.593 9.94291 130.125C7.86857 129.912 5.60808 129.974 3.94152 131.233C3.75157 131.343 3.59469 131.503 3.48713 131.695C3.37958 131.886 3.32528 132.103 3.32986 132.323C3.42647 132.637 3.63454 132.905 3.91493 133.077C9.07417 137.013 16.8751 137.509 22.6194 134.486Z" fill="#E0E0E0"/>
<path d="M22.2824 134.132C19.3489 131.974 16.6109 129.562 14.1003 126.925C11.573 124.274 9.80083 120.996 8.96767 117.43C8.80148 116.904 8.75109 116.348 8.81994 115.8C8.88879 115.252 9.07527 114.726 9.36659 114.257C15.8999 119.354 21.0236 125.976 22.2824 134.132Z" fill="#E0E0E0"/>
<path d="M22.5398 134.442C21.9361 130.878 21.9902 127.233 22.6994 123.689C23.4264 120.119 25.4709 116.954 28.4259 114.824C29.5518 117.484 29.0642 120.498 28.2664 123.255C27.0454 127.518 25.1382 131.554 22.6196 135.204" fill="#E0E0E0"/>
<path d="M28.9401 145.904C25.0573 146.383 21.671 148.421 18.7723 151.054C15.8583 153.708 13.8286 157.192 12.957 161.036C16.7688 160.796 20.0045 158.111 22.3447 155.097C24.685 152.083 26.3161 148.785 28.8869 145.966" fill="#E0E0E0"/>
<path d="M30.332 147.739C28.8063 143.854 28.2748 139.649 28.7856 135.507C29.2965 131.364 30.8336 127.415 33.2574 124.017C35.4647 131.889 34.658 140.78 30.3586 147.739" fill="#E0E0E0"/>
<path d="M38.7889 157.809C35.2382 157.588 31.7008 158.416 28.6176 160.191C25.5343 161.966 23.0415 164.609 21.4496 167.791C21.2368 168.216 21.0418 168.766 21.3343 169.147C21.4827 169.293 21.6646 169.4 21.864 169.458C22.0635 169.517 22.2743 169.526 22.4779 169.484C25.8997 169.262 28.9225 167.206 31.4224 164.865C33.9222 162.525 36.1029 159.821 38.8598 157.774" fill="#E0E0E0"/>
<path d="M38.5136 157.26C36.6941 151.399 36.5834 145.141 38.1945 139.22C38.8328 136.897 39.8965 134.451 42.0418 133.369C42.1281 133.311 42.2254 133.272 42.3276 133.254C42.4298 133.236 42.5347 133.239 42.6357 133.263C42.8077 133.359 42.9397 133.513 43.008 133.697C43.7216 135.321 44.026 137.096 43.8945 138.865C43.7693 140.631 43.4965 142.384 43.0789 144.104C42.4052 147.313 42.0506 150.753 40.2954 153.51C39.88 154.174 39.507 154.864 39.1785 155.575C38.8416 156.276 38.8416 156.524 38.5314 157.082" fill="#E0E0E0"/>
<path d="M60.8975 160.593C59.2398 154.29 60.995 146.64 64.9752 141.471C65.2677 141.09 65.6489 140.683 66.1276 140.727C66.8634 140.789 67.0141 141.773 67.0141 142.5C66.7119 148.986 64.5891 155.257 60.8886 160.593" fill="#E0E0E0"/>
<path d="M62.9097 161.975C66.8241 162.897 70.8919 162.959 74.8326 162.157C78.7733 161.355 82.4933 159.709 85.7362 157.33C81.9172 155.408 77.5492 154.873 73.3789 155.815C69.2568 156.754 65.4804 158.607 62.9097 161.975Z" fill="#E0E0E0"/>
<path d="M64.6113 157.774C68.9018 150.779 77.1371 146.205 85.3281 145.797C84.3884 149.131 81.6492 151.719 78.5555 153.288C75.4617 154.857 72.0133 155.531 68.6093 156.196C67.2885 156.453 65.4712 156.736 64.6113 157.774Z" fill="#E0E0E0"/>
<path d="M61.3229 137.394C62.6244 133.454 63.5156 129.39 63.9823 125.267C64.3014 121.127 63.7075 116.81 61.5623 113.264C57.5554 121.021 57.1299 130.107 61.2077 137.81" fill="#E0E0E0"/>
<path d="M74.8145 130.577C79.5039 122.058 89.0689 115.25 98.7491 114.292C95.0171 123.591 84.8315 130.772 74.8145 130.577Z" fill="#E0E0E0"/>
<path d="M71.8716 132.243C78.857 133.307 84.814 137.775 91.3739 140.479C92.75 141.149 94.2802 141.44 95.8062 141.321C96.5107 141.31 97.195 141.084 97.7672 140.673C98.3393 140.262 98.7718 139.686 99.0064 139.021C99.2411 138.357 99.2666 137.637 99.0796 136.957C98.8926 136.278 98.502 135.672 97.9603 135.222C97.0364 134.371 95.9513 133.714 94.7691 133.289C87.6773 130.32 80.0182 130.249 72.5187 132.048" fill="#E0E0E0"/>
<path d="M67.8291 137.146C69.4159 137.598 69.9566 138.422 71.2065 139.486C75.4816 143.12 80.5391 145.717 85.984 147.074C86.5424 147.216 87.2871 147.269 87.5619 146.764C87.8367 146.258 87.4998 145.78 87.1807 145.381C84.8098 142.594 81.7279 140.502 78.2628 139.326C74.8499 138.059 71.898 136.525 67.8291 136.853" fill="#E0E0E0"/>
<path d="M63.255 107.537C66.1215 110.175 69.5069 112.186 73.1947 113.441C76.8826 114.695 80.7917 115.167 84.6721 114.824C85.028 114.829 85.3739 114.707 85.6472 114.479C86.188 113.885 85.5408 112.98 84.9114 112.493C78.6087 107.582 70.9762 105.543 63.2373 107.537" fill="#E0E0E0"/>
<path d="M68.7158 105.587C72.5084 102.792 76.9084 100.933 81.5565 100.163C86.2046 99.3924 90.969 99.7324 95.4606 101.155C91.9627 104.402 87.471 106.373 82.7132 106.749C78.0154 107.188 73.277 106.795 68.7158 105.587Z" fill="#E0E0E0"/>
<path d="M66.5172 91.9445C65.8967 85.6506 66.3044 80.6864 65.8612 74.3658C65.8612 73.8606 65.7194 73.2578 65.2495 73.0716C64.5936 72.8234 64.0439 73.6301 63.8312 74.3038C62.9106 77.2302 62.6717 80.3285 63.1326 83.3615C63.5936 86.3945 64.7422 89.2818 66.4906 91.8027" fill="#E0E0E0"/>
<path d="M66.0564 92.636C70.1655 89.9937 73.709 86.5617 76.4812 82.5391C78.5467 79.7201 80.2753 76.3338 79.8144 72.8943C78.3613 72.9232 76.9322 73.2699 75.6274 73.91C74.3226 74.5502 73.1738 75.4682 72.2617 76.5997C70.4646 78.8774 69.1605 81.5037 68.4321 84.312C67.5456 87.0778 67.0138 89.9234 66.0298 92.636" fill="#E0E0E0"/>
<path d="M76.3039 89.7904C85.6822 86.3211 94.3644 81.2024 101.941 74.6761C98.8822 73.4439 95.3718 74.1797 92.3135 75.4119C85.3634 78.0502 79.6207 83.1433 76.1709 89.7283" fill="#E0E0E0"/>
<path d="M68.9464 96.0755C73.6801 96.5985 78.4848 96.9619 83.183 96.1464C87.8813 95.3308 92.163 93.549 96.4801 91.714C96.8514 91.6071 97.1682 91.3631 97.3665 91.0315C97.4343 90.8308 97.44 90.6145 97.3831 90.4105C97.3262 90.2066 97.2092 90.0245 97.0474 89.8879C96.7139 89.6296 96.3258 89.4507 95.9127 89.3649C91.2233 88.0529 86.1616 88.6646 81.5431 90.2514C77.1499 91.7561 72.9253 93.7139 68.9375 96.0932" fill="#E0E0E0"/>
<path d="M41.9178 107.75C38.6911 101.226 38.895 93.6199 41.6874 86.9005C43.6464 89.8968 43.8947 93.7086 43.5312 97.2722C43.1677 100.836 42.1217 104.497 42.0153 108.069" fill="#E0E0E0"/>
<path d="M29.0197 101.244C24.9766 101.188 20.9665 101.978 17.2463 103.563C13.5262 105.147 10.1781 107.491 7.4165 110.445C11.49 110.928 15.6141 110.161 19.242 108.247C22.8428 106.331 26.2406 104.056 29.3832 101.456" fill="#E0E0E0"/>
<path d="M20.3412 98.3448C16.3964 98.0168 12.6023 97.5293 8.81713 98.6905C6.90319 99.2291 5.1278 100.174 3.61184 101.46C2.09588 102.747 0.874966 104.345 0.0322266 106.146C3.75196 106.448 7.48458 105.744 10.8383 104.107C14.1753 102.475 17.3588 100.547 20.3501 98.3448" fill="#E0E0E0"/>
<path d="M33.1861 98.4955C29.6402 96.1641 25.9968 93.7972 21.857 92.8398C17.7172 91.8824 12.9391 92.5828 10.0581 95.6943C13.409 97.6622 17.4601 97.8927 21.3428 97.8927C25.2256 97.8927 29.9682 97.8395 33.6293 99.1338" fill="#E0E0E0"/>
<path d="M33.204 98.6639C27.1405 92.7069 24.8357 82.0072 27.2824 73.8428C32.0779 81.1782 34.1715 89.9537 33.204 98.6639Z" fill="#E0E0E0"/>
<path d="M49.8872 81.7856C51.0308 79.1262 51.8374 76.3338 52.8657 73.6212C53.7966 70.8729 55.2338 68.3233 57.1031 66.104C58.9994 63.8685 61.7002 62.4703 64.6203 62.2124C63.6842 66.3141 61.9042 70.176 59.3936 73.552C56.8829 76.928 53.6967 79.7441 50.0379 81.8211" fill="#E0E0E0"/>
<path d="M46.8643 85.296C44.9761 82.6898 42.7866 79.1528 40.2158 77.2114C37.645 75.27 34.3119 74.091 31.1738 74.8357C32.7954 77.6795 35.058 80.1058 37.7819 81.9217C40.5057 83.7375 43.6156 84.8929 46.8643 85.296Z" fill="#E0E0E0"/>
<path d="M47.441 81.9983C46.082 78.8912 45.0769 75.6411 44.4447 72.3092C43.8208 68.9465 44.3552 65.4716 45.9606 62.4517C49.2937 68.7456 50.3929 75.5094 47.6094 82.0693" fill="#E0E0E0"/>
<path d="M49.9137 62.4517C51.8018 56.2464 57.5195 51.6191 63.6894 49.5093C64.4521 49.1959 65.2793 49.0712 66.1006 49.1458C66.5091 49.1942 66.8946 49.3609 67.2096 49.6255C67.5246 49.8901 67.7554 50.241 67.8735 50.6351C68.0951 51.6989 67.2175 52.6474 66.3931 53.3477C61.5725 57.4709 55.9623 60.5686 49.9048 62.4517" fill="#E0E0E0"/>
<path d="M49.9845 57.3545C50.2238 53.33 50.472 49.2433 51.7574 45.4315C53.0428 41.6197 55.5869 38.0472 59.2569 36.3807C59.8774 40.4407 58.0868 44.483 55.9238 47.9757C53.7608 51.4684 51.1546 54.7749 49.8604 58.6754" fill="#E0E0E0"/>
<path d="M49.887 60.1203C48.3268 55.5727 48.1672 49.7929 45.4546 45.8304C43.5487 43.0647 40.4993 41.1765 38.8593 38.2423C37.8663 41.0555 38.0029 44.1442 39.2405 46.8587C40.4806 49.5441 42.1885 51.9875 44.2845 54.0746C46.2968 56.2287 48.0254 57.8421 49.8958 60.1203" fill="#E0E0E0"/>
<path d="M49.9137 194.048C49.7985 194.048 49.6921 163.704 49.6832 126.295C49.6744 88.8862 49.763 58.5335 49.8871 58.5335C50.0112 58.5335 50.1087 88.8685 50.1176 126.295C50.1265 163.722 50.0378 194.048 49.9137 194.048Z" fill="#E0E0E0"/>
<path d="M76.4282 103.167C76.064 103.353 75.6805 103.499 75.2847 103.602L72.1466 104.701C69.4872 105.587 65.8615 106.908 61.9167 108.53C57.9719 110.153 54.3285 111.562 52.2276 113.379C51.3921 114.082 50.7255 114.964 50.2774 115.959C49.9848 116.668 49.9228 117.102 49.8873 117.102C49.8519 117.102 49.8873 116.987 49.8873 116.783C49.934 116.481 50.0112 116.184 50.1178 115.897C50.5089 114.836 51.1614 113.891 52.0149 113.149C53.2819 112.079 54.6972 111.198 56.2167 110.534C57.901 109.754 59.7626 108.938 61.7483 108.123C65.7019 106.5 69.363 105.233 72.0402 104.408C73.3787 103.992 74.4691 103.681 75.2315 103.477C75.6206 103.339 76.021 103.236 76.4282 103.167Z" fill="#E0E0E0"/>
<path d="M85.1153 81.821C85.1153 81.821 85.0178 81.954 84.7962 82.1668L83.8211 83.0532L80.1866 86.3598L68.0951 97.1569C63.3703 101.359 59.2925 105.374 56.4647 108.397C55.0463 109.904 53.9294 111.154 53.1759 112.032L52.2894 113.034C52.0944 113.264 51.9792 113.379 51.9614 113.37C52.0305 113.228 52.1201 113.097 52.2274 112.98C52.4047 112.732 52.6795 112.369 53.0429 111.917C53.761 111.03 54.8159 109.727 56.2342 108.185C59.8742 104.2 63.7208 100.41 67.7583 96.8289C72.492 92.6359 76.8091 88.8507 79.9384 86.147L83.6704 82.9557L84.6987 82.0693C84.8271 81.9701 84.967 81.8868 85.1153 81.821Z" fill="#E0E0E0"/>
<path d="M62.9977 101.43C62.8736 101.368 63.8842 99.0894 64.8415 96.2173C65.7989 93.3451 66.3042 90.8985 66.4283 90.8985C66.3233 92.7568 65.9285 94.5873 65.2582 96.3237C64.8373 97.568 64.346 98.7874 63.7866 99.9759C63.5934 100.495 63.3278 100.985 62.9977 101.43Z" fill="#E0E0E0"/>
<path d="M49.9405 119.771C49.673 119.497 49.4298 119.2 49.2136 118.884C48.726 118.246 48.0966 117.448 47.352 116.491C45.7918 114.47 43.62 111.677 41.1999 108.619C38.7798 105.561 36.5371 102.813 34.9237 100.836L33.0178 98.4778C32.7703 98.2048 32.5505 97.9078 32.3618 97.5913C32.6499 97.8279 32.9142 98.0921 33.1508 98.3803C33.6383 98.9121 34.3209 99.6834 35.1631 100.65C36.8385 102.582 39.1078 105.304 41.5368 108.362C43.9657 111.42 46.1021 114.248 47.6002 116.34C48.3537 117.377 48.9476 118.219 49.3731 118.813C49.5952 119.112 49.7854 119.433 49.9405 119.771Z" fill="#E0E0E0"/>
<path d="M44.134 112.324C42.9613 111.028 42.1243 109.463 41.6962 107.768C41.2346 106.281 41.0484 104.721 41.1466 103.167H41.3416C41.2529 103.522 41.1909 103.708 41.1554 103.699C41.12 103.69 41.1554 103.495 41.1554 103.141H41.3504C41.4501 104.641 41.7087 106.127 42.1217 107.573C42.6706 109.206 43.3433 110.794 44.134 112.324Z" fill="#E0E0E0"/>
<path d="M36.6257 102.928C36.1035 102.527 35.5313 102.196 34.9236 101.944C33.3962 101.485 31.7889 101.355 30.2076 101.563C28.6055 101.691 27.0165 101.949 25.4562 102.334C24.8156 102.539 24.1608 102.696 23.4971 102.804C24.0795 102.457 24.7097 102.197 25.3675 102.033C26.9315 101.561 28.5428 101.264 30.1722 101.146C31.8158 100.93 33.4873 101.109 35.0477 101.669C35.7035 101.894 36.2611 102.338 36.6257 102.928Z" fill="#E0E0E0"/>
<path d="M34.8528 100.596C34.8528 100.667 33.8599 100.198 32.2465 99.6479C30.1432 98.9386 27.9611 98.4891 25.7487 98.3093C23.533 98.1474 21.3058 98.2606 19.1179 98.6462C17.4337 98.9476 16.4585 99.2667 16.3965 99.187C16.6137 99.0606 16.846 98.9623 17.0879 98.8944C17.7312 98.6683 18.3886 98.4847 19.0559 98.3448C23.5 97.3795 28.1296 97.7402 32.3706 99.382C33.0089 99.6388 33.6306 99.9349 34.2322 100.268C34.4526 100.35 34.6613 100.46 34.8528 100.596Z" fill="#E0E0E0"/>
<path d="M49.8873 90.9251C49.1166 88.7628 48.483 86.554 47.9903 84.312C47.3689 82.1141 46.8892 79.8786 46.5542 77.6192C47.3309 79.7743 47.9675 81.9773 48.4601 84.2145C49.0773 86.4189 49.554 88.6603 49.8873 90.9251Z" fill="#E0E0E0"/>
<path d="M50.0113 90.9251C49.3984 89.5609 48.6935 88.24 47.9015 86.9714C47.006 85.7784 45.9635 84.7032 44.7988 83.7713C45.2416 83.8796 45.6519 84.0924 45.9956 84.3918C46.8784 85.0351 47.6457 85.8234 48.2649 86.7232C49.2067 87.9457 49.8091 89.3952 50.0113 90.9251Z" fill="#E0E0E0"/>
<path d="M49.9141 177.87C49.8698 177.87 49.7811 177.143 49.4354 175.858C48.943 174.045 48.275 172.284 47.4408 170.601C45.3399 166.319 41.5281 160.85 36.6791 155.451C34.2768 152.703 31.9542 150.132 29.9774 147.641C28.1975 145.463 26.591 143.148 25.1728 140.718C24.2227 139.078 23.4132 137.361 22.7527 135.585C22.5311 134.956 22.3715 134.46 22.2829 134.114C22.2246 133.943 22.1802 133.768 22.1499 133.591C22.1942 133.591 22.4158 134.291 22.9123 135.523C23.6308 137.265 24.4782 138.951 25.4476 140.567C26.8959 142.952 28.5134 145.231 30.2877 147.384C32.2734 149.84 34.6048 152.411 37.016 155.159C41.8738 160.61 45.6768 166.115 47.7156 170.468C48.5435 172.167 49.1855 173.95 49.6304 175.787C49.7501 176.289 49.8389 176.798 49.8964 177.311C49.9262 177.496 49.9321 177.684 49.9141 177.87Z" fill="#E0E0E0"/>
<path d="M73.8748 150.797C73.4696 151.056 73.0492 151.289 72.616 151.497C71.4812 152.136 70.3939 152.856 69.3627 153.652C67.8379 154.84 66.4065 156.144 65.081 157.552C63.5829 159.139 62.0405 160.983 60.4625 162.951C57.3067 166.913 54.3548 170.415 52.5818 173.216C51.6954 174.599 51.0394 175.769 50.605 176.593C50.4087 177.031 50.1774 177.452 49.9136 177.852C49.9382 177.73 49.9769 177.611 50.0288 177.498C50.1263 177.276 50.2504 176.93 50.4543 176.514C51.0075 175.322 51.6321 174.164 52.3248 173.047C54.0357 170.184 56.9699 166.629 60.1168 162.685C61.6947 160.708 63.2638 158.855 64.7885 157.277C66.1534 155.863 67.6362 154.567 69.2208 153.403C70.2793 152.622 71.4034 151.934 72.5806 151.347C72.9972 151.143 73.3341 151.01 73.5645 150.912C73.795 150.815 73.8659 150.797 73.8748 150.797Z" fill="#E0E0E0"/>
<path d="M74.3449 159.591C73.4684 159.782 72.5798 159.912 71.6855 159.981C69.5538 160.195 67.4467 160.608 65.3915 161.213C63.3629 161.878 61.4601 162.879 59.7625 164.174C58.4594 165.176 57.8477 166.009 57.7856 165.947C57.8834 165.725 58.0183 165.521 58.1846 165.344C58.5968 164.826 59.0601 164.351 59.5674 163.926C61.2454 162.524 63.1777 161.459 65.2586 160.788C67.3421 160.169 69.4895 159.792 71.6589 159.662C72.5502 159.557 73.4492 159.533 74.3449 159.591Z" fill="#E0E0E0"/>
<path d="M58.5657 164.981C58.4239 164.901 59.6206 163.075 60.5514 160.619C61.4822 158.164 61.624 155.965 61.7747 155.983C61.8581 156.455 61.8581 156.938 61.7747 157.41C61.6489 158.553 61.3901 159.678 61.0035 160.761C60.6019 161.842 60.0848 162.876 59.461 163.846C59.2248 164.269 58.9225 164.652 58.5657 164.981Z" fill="#E0E0E0"/>
<path d="M81.6316 127.244C81.5024 127.342 81.3589 127.42 81.2061 127.474L79.9562 128.041C79.4155 128.272 78.7506 128.573 78.006 128.928C77.2613 129.283 76.3749 129.717 75.4707 130.258L74.0169 131.082C73.5204 131.375 73.024 131.72 72.4921 132.048C71.4284 132.695 70.3558 133.493 69.2122 134.309C66.7889 136.141 64.5044 138.15 62.3775 140.319C60.2782 142.523 58.3434 144.879 56.5889 147.367C55.8177 148.537 55.0553 149.636 54.4437 150.717C54.1334 151.258 53.8054 151.772 53.5572 152.278C53.309 152.783 53.0253 153.288 52.786 153.758C52.2629 154.689 51.8995 155.575 51.536 156.338C51.1726 157.1 50.8978 157.765 50.6496 158.323L50.1 159.662C50.0503 159.813 49.9786 159.957 49.8872 160.087C49.9195 159.93 49.964 159.776 50.0202 159.626L50.4634 158.332C50.6948 157.645 50.961 156.971 51.2612 156.311C51.5981 155.531 51.9527 154.627 52.4491 153.652C52.6884 153.173 52.9455 152.676 53.2026 152.153C53.4597 151.63 53.7877 151.116 54.0891 150.576C54.6919 149.467 55.4454 148.359 56.2166 147.171C59.6779 142.098 63.9764 137.649 68.9285 134.016C70.0898 133.21 71.1713 132.412 72.2528 131.774C72.7935 131.446 73.2988 131.109 73.8041 130.825L75.2757 130.027C76.1621 129.495 77.0486 129.141 77.8553 128.742C78.662 128.343 79.2913 128.095 79.8498 127.855L81.1263 127.368C81.2893 127.307 81.4589 127.265 81.6316 127.244Z" fill="#E0E0E0"/>
<path d="M62.6704 139.947C62.8532 139.333 63.2179 138.789 63.7164 138.387C64.8861 137.375 66.3724 136.805 67.9183 136.773C69.4398 136.773 70.9462 137.074 72.3506 137.66C72.9442 137.849 73.5083 138.12 74.0261 138.466C73.4206 138.35 72.8272 138.177 72.2531 137.952C70.8655 137.481 69.4104 137.238 67.9449 137.234C66.4938 137.268 65.091 137.762 63.9381 138.644C63.487 139.049 63.0635 139.485 62.6704 139.947Z" fill="#E0E0E0"/>
<path d="M59.8511 142.872C61.105 140.424 61.4203 137.602 60.7375 134.938C60.9864 135.274 61.1561 135.662 61.234 136.073C61.4858 137.042 61.5549 138.049 61.4379 139.043C61.3278 140.039 61.0268 141.005 60.5514 141.888C60.2057 142.562 59.8511 142.908 59.8511 142.872Z" fill="#E0E0E0"/>
<path d="M28.9668 182.222C29.6139 193.809 33.1155 205.607 38.4875 217.522H61.8548C66.9786 205.723 70.2319 193.95 70.8081 182.222H28.9668Z" fill="#E0E0E0"/>
<path d="M67.0227 200.98C67.0227 201.104 59.3281 201.202 49.8429 201.202C40.3577 201.202 32.6543 201.104 32.6543 200.98C32.6543 200.856 40.3488 200.758 49.8429 200.758C59.337 200.758 67.0227 200.856 67.0227 200.98Z" fill="#FAFAFA"/>
<path d="M66.4999 205.182C66.4999 205.297 59.284 205.395 50.3928 205.395C41.5015 205.395 34.2856 205.297 34.2856 205.182C34.2856 205.067 41.4926 204.96 50.3928 204.96C59.2929 204.96 66.4999 205.058 66.4999 205.182Z" fill="#FAFAFA"/>
<path d="M38.8597 189.802C39.1552 193.386 39.1552 196.988 38.8597 200.572C38.576 196.988 38.576 193.386 38.8597 189.802Z" fill="#FAFAFA"/>
<path d="M51.3857 189.802C51.6693 193.514 51.6693 197.242 51.3857 200.953C51.0902 197.242 51.0902 193.513 51.3857 189.802Z" fill="#FAFAFA"/>
<path d="M63.1401 189.74C63.4237 193.523 63.4237 197.321 63.1401 201.104C62.8446 197.322 62.8446 193.522 63.1401 189.74Z" fill="#FAFAFA"/>
<path d="M70.0631 189.802C70.0631 189.926 61.0388 190.023 49.9137 190.023C38.7885 190.023 29.7554 189.926 29.7554 189.802C29.7554 189.678 38.7796 189.589 49.9137 189.589C61.0477 189.589 70.0631 189.713 70.0631 189.802Z" fill="#FAFAFA"/>
<path d="M366.507 291.418V319.457H407.515H452.743V291.418H366.507Z" fill="#F5F5F5"/>
<path d="M362.89 283.581V291.418H455.757V283.581H407.515H362.89Z" fill="#E0E0E0"/>
<path d="M409.324 319.457H452.743V291.418H455.757V283.581H407.515V290.691L409.324 319.457Z" fill="#E0E0E0"/>
<path d="M396.062 295.939H378.572V300.158H396.062V295.939Z" fill="#E0E0E0"/>
<path d="M398.775 305.441H376.32V314.35H398.775V305.441Z" fill="white"/>
<path d="M379.777 255.578V283.617H420.785H466.013V255.578H379.777Z" fill="#F5F5F5"/>
<path d="M376.161 247.732V255.578H469.027V247.732H420.785H376.161Z" fill="#EBEBEB"/>
<path d="M422.594 283.617H466.013V255.578H469.027V247.732H420.786V254.851L422.594 283.617Z" fill="#EBEBEB"/>
<path d="M409.332 260.099H391.842V264.318H409.332V260.099Z" fill="#E0E0E0"/>
<path d="M412.045 269.593H389.591V278.502H412.045V269.593Z" fill="white"/>
<path d="M463.655 218.204C463.655 218.376 361.056 218.658 234.512 218.829C107.969 219 5.35107 219 5.35107 218.829C5.35107 218.658 107.932 218.376 234.512 218.204C361.093 218.033 463.655 218.021 463.655 218.204Z" fill="#263238"/>
<path d="M429.296 319.625C429.296 319.749 336.554 319.953 222.173 320.068C107.792 320.183 15.0317 320.174 15.0317 320.068C15.0317 319.962 107.756 319.74 222.173 319.625C336.589 319.51 429.296 319.492 429.296 319.625Z" fill="#263238"/>
<path d="M398.825 0.167542H134.24C129.102 0.167542 124.936 4.33302 124.936 9.47139V178.137C124.936 183.276 129.102 187.441 134.24 187.441H398.825C403.963 187.441 408.129 183.276 408.129 178.137V9.47139C408.129 4.33302 403.963 0.167542 398.825 0.167542Z" fill="#C6C6C8"/>
<path d="M398.825 187.441L399.424 187.401C399.673 187.398 399.921 187.371 400.166 187.322C400.508 187.279 400.847 187.21 401.179 187.114C402.13 186.873 403.033 186.473 403.852 185.933C405.681 184.736 407.036 182.939 407.682 180.85C407.937 179.985 408.071 179.088 408.081 178.185V171.954C408.081 167.453 408.081 162.251 408.081 156.402C408.081 132.999 408.081 99.1346 408.025 57.2913C408.025 46.8331 408.025 35.8855 408.025 24.4485C408.025 21.5919 408.025 18.7088 408.025 15.799V11.4104C408.119 9.94697 408.006 8.47768 407.69 7.04571C407.297 5.61675 406.564 4.30451 405.552 3.22178C404.54 2.13905 403.28 1.31823 401.881 0.829846C401.532 0.703087 401.175 0.599138 400.812 0.518655C400.445 0.446841 400.07 0.390987 399.703 0.35109C398.961 0.295235 398.195 0.303211 397.437 0.303211H392.841H314.285H134.264C132.294 0.302433 130.376 0.937051 128.794 2.11286C127.213 3.28867 126.053 4.943 125.487 6.83026C125.217 7.76877 125.088 8.74227 125.104 9.71877V42.1386C125.104 57.6822 125.104 72.9892 125.104 88.0594C125.104 118.173 125.104 147.218 125.104 174.882V177.475C125.083 178.325 125.148 179.175 125.295 180.013C125.658 181.666 126.47 183.187 127.641 184.409C128.213 185.033 128.871 185.57 129.596 186.005C129.956 186.223 130.329 186.417 130.713 186.588C131.099 186.744 131.493 186.878 131.894 186.987C133.49 187.449 135.214 187.274 136.897 187.306H194.97H263.417L362.527 187.362H389.473H396.479H398.873C398.873 187.362 398.075 187.362 396.479 187.362H389.473H362.527L263.377 187.601H194.931H134.288C133.426 187.601 132.568 187.488 131.735 187.266C131.32 187.154 130.912 187.018 130.514 186.859C130.12 186.68 129.737 186.48 129.365 186.26C127.865 185.369 126.642 184.079 125.83 182.534C125.428 181.757 125.13 180.931 124.944 180.076C124.787 179.221 124.72 178.352 124.745 177.483V174.89C124.745 147.226 124.745 118.181 124.745 88.0673C124.745 73.0184 124.745 57.7115 124.745 42.1466V9.75068C124.73 8.74436 124.865 7.74142 125.144 6.77441C125.73 4.81748 126.932 3.1017 128.571 1.88145C130.209 0.661196 132.197 0.00144186 134.24 0H314.229H392.785H397.381C398.139 0 398.897 -1.947e-06 399.671 0.0478737C400.054 0.0862647 400.435 0.144862 400.812 0.223419C401.186 0.305476 401.554 0.412099 401.913 0.542591C403.352 1.04329 404.647 1.8858 405.688 2.9977C406.729 4.10961 407.485 5.45767 407.89 6.92602L408.033 7.46861C408.073 7.65213 408.089 7.84363 408.121 8.02716C408.184 8.39639 408.218 8.76981 408.225 9.14426C408.225 9.89431 408.225 10.6204 408.225 11.3625V24.4006C408.225 35.8217 408.225 46.7692 408.225 57.2434C408.225 99.0867 408.225 132.951 408.169 156.354C408.169 162.203 408.169 167.405 408.169 171.906C408.169 174.156 408.169 176.238 408.169 178.137C408.154 179.049 408.014 179.953 407.754 180.827C407.51 181.611 407.164 182.359 406.725 183.053C406.002 184.209 405.032 185.19 403.884 185.925C403.056 186.462 402.144 186.858 401.187 187.098C400.855 187.192 400.516 187.258 400.174 187.298C399.929 187.345 399.681 187.369 399.432 187.37L398.825 187.441Z" fill="#263238"/>
<path d="M409.31 191.734H125.248C122.235 191.732 119.346 190.534 117.216 188.404C115.085 186.273 113.887 183.385 113.885 180.372V175.345H420.689V180.372C420.688 181.865 420.392 183.343 419.82 184.722C419.248 186.102 418.409 187.354 417.353 188.409C416.296 189.465 415.042 190.301 413.662 190.872C412.282 191.442 410.803 191.735 409.31 191.734Z" fill="#E0E0E0"/>
<path d="M409.31 191.734H409.685C409.924 191.734 410.291 191.734 410.778 191.638L411.576 191.511L412.542 191.255C412.893 191.16 413.252 191 413.651 190.864C414.05 190.729 414.449 190.505 414.864 190.266C415.793 189.728 416.646 189.067 417.401 188.303C419.396 186.249 420.537 183.514 420.593 180.651C420.593 179.007 420.593 177.244 420.593 175.369L420.656 175.432L125.247 175.512H113.869L114.037 175.345V179.334C113.97 180.647 114.099 181.962 114.42 183.236C115.092 185.779 116.641 188.003 118.792 189.516C120.942 190.997 123.527 191.717 126.133 191.558H222.347H319.854L385.364 191.614H403.134H407.746H409.342H407.746H403.134H385.364L319.854 191.662L222.347 191.702H126.133C123.458 191.858 120.807 191.117 118.601 189.596C116.386 188.039 114.792 185.75 114.1 183.132C113.773 181.829 113.639 180.485 113.701 179.143V174.986H125.247L420.688 175.089H420.744V175.145C420.744 177.02 420.744 178.776 420.744 180.427C420.67 183.315 419.507 186.068 417.489 188.135C416.725 188.903 415.861 189.563 414.919 190.098C414.504 190.33 414.121 190.513 413.707 190.689C413.292 190.864 412.909 190.984 412.589 191.08L411.616 191.327L410.818 191.447C410.455 191.493 410.09 191.52 409.725 191.527L409.31 191.734Z" fill="#263238"/>
<path d="M238.617 175.345L242.423 181.401H295.996L299.531 175.345H238.617Z" fill="#263238"/>
<path d="M143.456 12.9663H389.361C390.798 12.9663 392.176 13.5371 393.192 14.5532C394.209 15.5693 394.779 16.9473 394.779 18.3843V159.841C394.779 160.552 394.639 161.257 394.367 161.914C394.095 162.572 393.696 163.169 393.192 163.672C392.689 164.175 392.092 164.574 391.435 164.847C390.777 165.119 390.073 165.259 389.361 165.259H143.456C142.021 165.259 140.645 164.689 139.63 163.674C138.616 162.66 138.046 161.284 138.046 159.849V18.3763C138.046 16.9415 138.616 15.5654 139.63 14.5509C140.645 13.5363 142.021 12.9663 143.456 12.9663Z" fill="white"/>
<path d="M389.25 165.259C389.948 165.252 390.638 165.114 391.285 164.852C392.231 164.469 393.053 163.832 393.66 163.011C394.267 162.19 394.635 161.217 394.724 160.2C394.724 154.822 394.724 146.875 394.724 136.645C394.724 116.186 394.724 86.5832 394.668 50.0062C394.668 40.8566 394.668 31.2815 394.668 21.2808V19.3977C394.695 18.7792 394.666 18.1596 394.58 17.5465C394.362 16.3095 393.719 15.1875 392.762 14.3745C391.805 13.5615 390.594 13.1085 389.338 13.094H369.605H300.935H143.592C142.743 13.0936 141.906 13.2936 141.149 13.6777C140.392 14.0617 139.736 14.619 139.235 15.3043C138.732 15.9862 138.404 16.7805 138.278 17.6183C138.201 18.4725 138.177 19.3305 138.206 20.1876V91.2431C138.206 104.404 138.206 117.319 138.206 129.991V158.078C138.206 158.876 138.206 159.626 138.206 160.352C138.286 161.092 138.523 161.808 138.9 162.45C139.273 163.088 139.773 163.643 140.369 164.08C140.964 164.518 141.643 164.83 142.363 164.996C143.095 165.126 143.839 165.171 144.581 165.131H210.993H270.837L357.476 165.179H381.031H387.159H389.242C389.242 165.179 388.532 165.179 387.159 165.179H381.031H357.476L270.837 165.235H210.993H144.605C143.839 165.278 143.07 165.23 142.315 165.091C141.554 164.918 140.837 164.59 140.208 164.127C139.579 163.664 139.053 163.077 138.661 162.402C138.263 161.725 138.013 160.972 137.926 160.192C137.855 159.394 137.926 158.652 137.926 157.878V148.814C137.926 142.622 137.926 136.361 137.926 130.03V20.2275C137.895 19.3518 137.919 18.475 137.998 17.6023C138.134 16.7123 138.484 15.8687 139.02 15.1447C139.546 14.4227 140.235 13.8343 141.031 13.4269C141.826 13.0195 142.706 12.8043 143.6 12.7988H300.943H389.362C390.677 12.816 391.945 13.2917 392.947 14.1438C393.95 14.996 394.623 16.1712 394.851 17.4667C394.94 18.0956 394.969 18.7314 394.939 19.3657V21.2489C394.939 31.2336 394.939 40.8087 394.939 49.9743C394.939 86.5513 394.899 116.154 394.883 136.613C394.883 146.843 394.883 154.782 394.827 160.168C394.722 161.356 394.232 162.476 393.431 163.36C392.5 164.402 391.208 165.052 389.816 165.179L389.25 165.259Z" fill="#263238"/>
<path d="M272.178 6.62282C272.18 7.18183 272.015 7.72873 271.706 8.19429C271.397 8.65985 270.956 9.02314 270.44 9.23815C269.924 9.45317 269.356 9.51025 268.807 9.40216C268.259 9.29407 267.755 9.02568 267.359 8.63096C266.963 8.23625 266.693 7.73295 266.584 7.1848C266.474 6.63666 266.529 6.0683 266.743 5.5517C266.957 5.03509 267.319 4.59347 267.783 4.28274C268.248 3.97201 268.794 3.80614 269.353 3.80614C270.101 3.80613 270.818 4.10264 271.348 4.63064C271.877 5.15864 272.176 5.87506 272.178 6.62282Z" fill="#263238"/>
<path d="M375.797 22.1666V19.4616C375.793 19.3886 375.803 19.3155 375.827 19.2466C375.851 19.1776 375.889 19.1142 375.938 19.06C375.987 19.0057 376.046 18.9618 376.113 18.9308C376.179 18.8997 376.25 18.8822 376.323 18.8791H380.393C380.54 18.8874 380.677 18.9531 380.776 19.0622C380.874 19.1712 380.926 19.3147 380.92 19.4616V22.1666C380.926 22.3134 380.874 22.4569 380.776 22.566C380.677 22.675 380.54 22.7408 380.393 22.7491H376.323C376.25 22.746 376.179 22.7284 376.113 22.6974C376.046 22.6663 375.987 22.6224 375.938 22.5682C375.889 22.514 375.851 22.4505 375.827 22.3816C375.803 22.3126 375.793 22.2395 375.797 22.1666Z" fill="#263238"/>
<path d="M383.465 23.6666H375.438C375.247 23.6666 375.065 23.5909 374.93 23.4563C374.795 23.3216 374.72 23.1389 374.72 22.9485V18.52C374.72 18.3295 374.795 18.1468 374.93 18.0122C375.065 17.8775 375.247 17.8018 375.438 17.8018H383.353C383.527 17.8018 383.693 17.8708 383.816 17.9935C383.939 18.1162 384.008 18.2826 384.008 18.4561V19.254C384.007 19.2683 384.008 19.2827 384.013 19.2962C384.018 19.3097 384.025 19.3221 384.035 19.3326C384.045 19.3431 384.057 19.3515 384.07 19.3572C384.083 19.3629 384.097 19.3658 384.111 19.3658H384.981C385.094 19.3657 385.202 19.41 385.283 19.4891C385.364 19.5682 385.41 19.6758 385.412 19.7887V21.2249C385.412 21.3667 385.356 21.5027 385.255 21.603C385.155 21.7032 385.019 21.7595 384.877 21.7595H384.223C384.196 21.7595 384.169 21.7705 384.15 21.7899C384.13 21.8094 384.119 21.8358 384.119 21.8633V22.9963C384.121 23.0836 384.106 23.1704 384.074 23.2516C384.042 23.3329 383.994 23.4069 383.933 23.4693C383.872 23.5318 383.8 23.5814 383.719 23.6153C383.639 23.6492 383.552 23.6666 383.465 23.6666ZM375.438 18.0811C375.332 18.0811 375.231 18.1231 375.156 18.198C375.081 18.2728 375.039 18.3743 375.039 18.4801V22.9086C375.039 23.0144 375.081 23.1159 375.156 23.1907C375.231 23.2655 375.332 23.3075 375.438 23.3075H383.465C383.509 23.3075 383.553 23.2989 383.593 23.282C383.634 23.2652 383.671 23.2405 383.702 23.2094C383.733 23.1782 383.758 23.1413 383.775 23.1006C383.791 23.06 383.8 23.0164 383.8 22.9724V21.8393C383.8 21.7272 383.845 21.6196 383.924 21.5403C384.003 21.461 384.111 21.4164 384.223 21.4164H384.877C384.935 21.4164 384.989 21.3937 385.03 21.3533C385.07 21.3129 385.093 21.2581 385.093 21.201V19.7647C385.091 19.7365 385.078 19.7101 385.057 19.6908C385.037 19.6716 385.009 19.6609 384.981 19.661H384.111C383.998 19.6589 383.891 19.6126 383.812 19.532C383.733 19.4514 383.688 19.343 383.688 19.2301V18.4322C383.688 18.3433 383.653 18.2581 383.59 18.1952C383.527 18.1324 383.442 18.0971 383.353 18.0971L375.438 18.0811Z" fill="#263238"/>
<path opacity="0.6" d="M208.766 149.476L348.93 149.811V31.247L208.766 31.255V149.476Z" fill="#F4F1F1"/>
<path d="M324.538 89.7111H233.183C231.374 89.7111 229.638 88.9924 228.359 87.7129C227.08 86.4335 226.361 84.6982 226.361 82.8889C226.361 81.0795 227.08 79.3442 228.359 78.0648C229.638 76.7853 231.374 76.0666 233.183 76.0666H324.538C326.347 76.0666 328.083 76.7853 329.362 78.0648C330.641 79.3442 331.36 81.0795 331.36 82.8889C331.36 84.6982 330.641 86.4335 329.362 87.7129C328.083 88.9924 326.347 89.7111 324.538 89.7111Z" fill="#E5E5EA"/>
<path d="M324.538 114.319H233.183C232.288 114.32 231.401 114.145 230.573 113.803C229.745 113.461 228.993 112.959 228.36 112.326C227.726 111.693 227.223 110.942 226.88 110.115C226.537 109.287 226.361 108.401 226.361 107.505C226.361 106.609 226.537 105.722 226.88 104.894C227.223 104.067 227.726 103.314 228.359 102.681C228.993 102.047 229.745 101.545 230.572 101.202C231.4 100.859 232.287 100.683 233.183 100.683H324.538C325.434 100.683 326.321 100.859 327.149 101.202C327.976 101.545 328.729 102.047 329.362 102.681C329.996 103.314 330.498 104.067 330.841 104.894C331.184 105.722 331.36 106.609 331.36 107.505C331.36 108.401 331.184 109.287 330.841 110.115C330.498 110.942 329.995 111.693 329.362 112.326C328.728 112.959 327.976 113.461 327.148 113.803C326.32 114.145 325.433 114.32 324.538 114.319Z" fill="#E5E5EA"/>
<path d="M325.392 125.291H232.329C229.033 125.291 226.361 127.963 226.361 131.259V132.967C226.361 136.263 229.033 138.935 232.329 138.935H325.392C328.688 138.935 331.36 136.263 331.36 132.967V131.259C331.36 127.963 328.688 125.291 325.392 125.291Z" fill="#542683"/>
<path d="M270.016 130.302H270.47V133.964H272.729V134.331H270.048L270.016 130.302Z" fill="white"/>
<path d="M274.005 134.14C273.676 133.973 273.4 133.719 273.207 133.406C273.029 133.085 272.936 132.723 272.936 132.356C272.936 131.989 273.029 131.628 273.207 131.307C273.398 130.991 273.675 130.737 274.005 130.573C274.338 130.392 274.711 130.299 275.09 130.302C275.467 130.299 275.838 130.392 276.168 130.573C276.484 130.742 276.747 130.996 276.926 131.307C277.104 131.628 277.197 131.989 277.197 132.356C277.197 132.723 277.104 133.085 276.926 133.406C276.744 133.715 276.482 133.968 276.168 134.14C275.837 134.318 275.466 134.409 275.09 134.403C274.712 134.409 274.339 134.318 274.005 134.14ZM275.952 133.805C276.204 133.665 276.411 133.458 276.551 133.206C276.704 132.948 276.781 132.652 276.774 132.352C276.779 132.053 276.701 131.757 276.551 131.498C276.411 131.247 276.204 131.04 275.952 130.9C275.685 130.759 275.388 130.685 275.086 130.685C274.785 130.685 274.487 130.759 274.221 130.9C273.968 131.041 273.758 131.248 273.614 131.498C273.463 131.757 273.386 132.053 273.391 132.352C273.383 132.652 273.461 132.948 273.614 133.206C273.758 133.457 273.968 133.664 274.221 133.805C274.487 133.946 274.785 134.019 275.086 134.019C275.388 134.019 275.685 133.946 275.952 133.805Z" fill="white"/>
<path d="M280.996 132.313H281.402V133.853C281.206 134.02 280.978 134.148 280.732 134.228C280.476 134.32 280.206 134.366 279.934 134.363C279.556 134.368 279.183 134.277 278.849 134.1C278.52 133.935 278.243 133.68 278.051 133.366C277.869 133.046 277.772 132.685 277.772 132.317C277.772 131.948 277.869 131.587 278.051 131.267C278.241 130.951 278.518 130.696 278.849 130.533C279.185 130.352 279.561 130.259 279.942 130.262C280.231 130.261 280.518 130.312 280.788 130.413C281.037 130.503 281.261 130.651 281.442 130.844L281.179 131.116C281.018 130.959 280.826 130.837 280.616 130.756C280.407 130.675 280.183 130.637 279.958 130.645C279.652 130.64 279.35 130.714 279.08 130.86C278.822 130.999 278.607 131.206 278.458 131.459C278.307 131.718 278.23 132.013 278.235 132.313C278.226 132.609 278.3 132.901 278.448 133.158C278.595 133.414 278.812 133.624 279.073 133.765C279.375 133.92 279.714 133.994 280.054 133.979C280.394 133.963 280.724 133.859 281.011 133.677L280.996 132.313Z" fill="white"/>
<path d="M282.607 130.302H283.03V134.331H282.607V130.302Z" fill="white"/>
<path d="M287.706 130.302V134.331H287.355L284.769 131.06V134.331H284.338V130.302H284.689L287.291 133.573V130.302H287.706Z" fill="white"/>
<path d="M302.619 81.3649H231.284V84.2853H302.619V81.3649Z" fill="white"/>
<path d="M233.742 110.266C235.099 110.266 236.199 109.165 236.199 107.808C236.199 106.451 235.099 105.35 233.742 105.35C232.384 105.35 231.284 106.451 231.284 107.808C231.284 109.165 232.384 110.266 233.742 110.266Z" fill="white"/>
<path d="M242.04 110.266C243.397 110.266 244.498 109.165 244.498 107.808C244.498 106.451 243.397 105.35 242.04 105.35C240.683 105.35 239.583 106.451 239.583 107.808C239.583 109.165 240.683 110.266 242.04 110.266Z" fill="white"/>
<path d="M250.347 110.266C251.704 110.266 252.804 109.165 252.804 107.808C252.804 106.451 251.704 105.35 250.347 105.35C248.989 105.35 247.889 106.451 247.889 107.808C247.889 109.165 248.989 110.266 250.347 110.266Z" fill="white"/>
<path d="M258.645 110.266C260.002 110.266 261.103 109.165 261.103 107.808C261.103 106.451 260.002 105.35 258.645 105.35C257.288 105.35 256.188 106.451 256.188 107.808C256.188 109.165 257.288 110.266 258.645 110.266Z" fill="white"/>
<path d="M266.952 110.266C268.309 110.266 269.409 109.165 269.409 107.808C269.409 106.451 268.309 105.35 266.952 105.35C265.594 105.35 264.494 106.451 264.494 107.808C264.494 109.165 265.594 110.266 266.952 110.266Z" fill="white"/>
<path d="M275.25 110.266C276.607 110.266 277.707 109.165 277.707 107.808C277.707 106.451 276.607 105.35 275.25 105.35C273.892 105.35 272.792 106.451 272.792 107.808C272.792 109.165 273.892 110.266 275.25 110.266Z" fill="white"/>
<path d="M283.548 110.266C284.906 110.266 286.006 109.165 286.006 107.808C286.006 106.451 284.906 105.35 283.548 105.35C282.191 105.35 281.091 106.451 281.091 107.808C281.091 109.165 282.191 110.266 283.548 110.266Z" fill="white"/>
<path d="M291.855 110.266C293.212 110.266 294.313 109.165 294.313 107.808C294.313 106.451 293.212 105.35 291.855 105.35C290.498 105.35 289.397 106.451 289.397 107.808C289.397 109.165 290.498 110.266 291.855 110.266Z" fill="white"/>
<path d="M300.153 110.266C301.51 110.266 302.611 109.165 302.611 107.808C302.611 106.451 301.51 105.35 300.153 105.35C298.796 105.35 297.695 106.451 297.695 107.808C297.695 109.165 298.796 110.266 300.153 110.266Z" fill="white"/>
<path d="M278.785 68.6059C287.36 68.6059 294.312 61.6539 294.312 53.0782C294.312 44.5025 287.36 37.5506 278.785 37.5506C270.209 37.5506 263.257 44.5025 263.257 53.0782C263.257 61.6539 270.209 68.6059 278.785 68.6059Z" fill="#E5E5EA"/>
<path d="M282.288 57.6423C283.786 56.8587 284.977 55.5955 285.673 54.0548C286.368 52.5141 286.526 50.7847 286.123 49.1433C285.72 47.5018 284.777 46.043 283.447 45.0001C282.117 43.9572 280.475 43.3905 278.785 43.3905C277.095 43.3905 275.453 43.9572 274.123 45.0001C272.793 46.043 271.85 47.5018 271.447 49.1433C271.044 50.7847 271.202 52.5141 271.897 54.0548C272.593 55.5955 273.784 56.8587 275.282 57.6423C273.66 58.1302 272.156 58.9494 270.866 60.0482C269.577 61.147 268.529 62.5013 267.79 64.0257C269.232 65.4723 270.946 66.62 272.833 67.4032C274.719 68.1863 276.742 68.5894 278.785 68.5894C280.828 68.5894 282.851 68.1863 284.737 67.4032C286.624 66.62 288.338 65.4723 289.78 64.0257C289.041 62.5013 287.993 61.147 286.704 60.0482C285.414 58.9494 283.91 58.1302 282.288 57.6423Z" fill="white"/>
<path d="M122.871 89.9055C122.392 88.4784 121.492 87.23 120.289 86.3247C119.087 85.4195 117.638 84.9001 116.134 84.8349C116.905 82.6454 115.416 80.1189 113.288 79.197C112.197 78.8022 111.035 78.6416 109.877 78.7256C108.719 78.8096 107.592 79.1363 106.569 79.6846C105.08 80.3849 103.706 81.3688 102.137 81.7234C100.036 82.2021 97.8639 81.5373 95.7187 81.4664C93.5158 81.4238 91.3436 81.9876 89.4394 83.096C87.5353 84.2044 85.9724 85.8149 84.9215 87.7514C84.2123 89.1077 83.7602 90.6058 82.9713 91.9267C82.3419 92.9816 81.4997 93.9035 80.8792 94.9673C79.9981 96.5239 79.597 98.3062 79.7264 100.09C79.8557 101.874 80.5097 103.58 81.6061 104.993L111.852 98.0344C113.094 98.8935 114.574 99.3433 116.084 99.3212C117.594 99.299 119.059 98.8059 120.275 97.9108C121.492 97.0157 122.398 95.7631 122.868 94.328C123.338 92.8929 123.349 91.3468 122.898 89.9055H122.871Z" fill="#263238"/>
<path d="M192.485 201.175L163.347 198.285L161.663 213.417L194.559 212.274L192.485 201.175Z" fill="#FFBF9D"/>
<path d="M214.612 210.04C214.43 210.304 214.173 210.508 213.874 210.625C213.576 210.742 213.249 210.766 212.936 210.696C212.801 210.661 212.67 210.61 212.546 210.545C211.66 210.111 212.059 208.258 212.059 208.258L207.786 206.857C207.786 206.857 201.51 209.632 199.098 211.742C196.687 213.851 191.821 211.068 191.821 211.068L191.51 201.441L200.73 195.422C200.73 195.422 200.162 195.785 200.933 194.535C201.705 193.285 204.16 194.172 204.16 194.172C204.657 193.56 206.35 193.578 206.35 193.578L213.3 195.51C214.006 195.709 214.659 196.062 215.212 196.545C215.764 197.028 216.201 197.629 216.491 198.303L218.734 203.506C218.734 203.506 219.78 207.168 219.399 207.939C219.234 208.246 218.964 208.483 218.638 208.607C218.312 208.731 217.953 208.733 217.626 208.612C217.626 208.612 216.925 210.793 216.323 210.784C215.723 210.656 215.152 210.419 214.638 210.084L214.612 210.04Z" fill="#FFBF9D"/>
<path d="M200.88 210.483C201.044 210.41 201.201 210.325 201.35 210.226L202.689 209.463C204.359 208.539 206.081 207.713 207.848 206.99H207.742L211.997 208.426L211.881 208.214C211.807 208.572 211.777 208.938 211.793 209.304C211.789 209.703 211.903 210.095 212.121 210.43C212.262 210.601 212.45 210.727 212.662 210.793C212.855 210.878 213.062 210.923 213.273 210.926C213.709 210.932 214.132 210.778 214.461 210.492C214.544 210.422 214.622 210.345 214.692 210.261L214.736 210.199L214.461 210.252L214.585 210.332C214.762 210.439 214.94 210.536 215.126 210.625C215.311 210.72 215.504 210.801 215.702 210.864C215.805 210.904 215.912 210.934 216.021 210.953C216.157 210.992 216.302 210.992 216.438 210.953C216.653 210.829 216.833 210.652 216.961 210.439C217.076 210.256 217.18 210.067 217.271 209.871C217.454 209.482 217.614 209.083 217.75 208.675L217.466 208.807C217.752 208.92 218.064 208.953 218.367 208.901C218.67 208.85 218.953 208.716 219.186 208.515C219.427 208.299 219.581 208.003 219.62 207.682C219.652 207.387 219.652 207.09 219.62 206.795C219.464 205.666 219.227 204.549 218.911 203.453L217.714 200.679C217.457 200.085 217.209 199.5 216.952 198.906C216.724 198.297 216.426 197.717 216.066 197.177C215.686 196.648 215.2 196.204 214.638 195.874C214.085 195.565 213.487 195.344 212.865 195.218L206.314 193.445H206.261C205.851 193.45 205.441 193.491 205.038 193.569C204.613 193.626 204.218 193.819 203.912 194.119H204.169C203.834 193.897 203.45 193.759 203.05 193.719C202.65 193.679 202.246 193.737 201.873 193.888C201.216 194.225 200.714 194.803 200.473 195.502L200.535 195.413L194.188 199.535L192.477 200.679C192.272 200.806 192.076 200.948 191.892 201.104C192.115 201.01 192.329 200.894 192.53 200.758L194.303 199.695L200.73 195.706V195.643C200.951 195.039 201.391 194.54 201.962 194.243C202.279 194.124 202.619 194.082 202.955 194.121C203.291 194.159 203.613 194.277 203.894 194.464L204.036 194.553L204.346 194.234C204.595 194.014 204.904 193.872 205.233 193.826C205.607 193.755 205.987 193.719 206.368 193.72H206.314L212.857 195.564C213.429 195.685 213.979 195.894 214.488 196.184C214.994 196.483 215.432 196.884 215.773 197.363C216.103 197.879 216.376 198.429 216.589 199.003C216.837 199.588 217.094 200.173 217.351 200.776L218.548 203.551C218.854 204.624 219.088 205.717 219.248 206.822C219.274 207.078 219.274 207.337 219.248 207.593C219.214 207.812 219.104 208.013 218.938 208.16C218.766 208.305 218.559 208.401 218.337 208.438C218.116 208.476 217.889 208.453 217.679 208.373L217.466 208.302L217.395 208.506C217.268 208.896 217.117 209.278 216.943 209.65C216.819 209.991 216.612 210.296 216.34 210.536C216.279 210.549 216.216 210.549 216.154 210.536L215.897 210.465C215.715 210.404 215.537 210.33 215.365 210.244C215.188 210.164 215.02 210.066 214.86 209.978L214.736 209.898L214.461 209.951V210.004C214.403 210.068 214.341 210.127 214.275 210.182C214.029 210.397 213.715 210.52 213.388 210.527C213.227 210.526 213.067 210.492 212.919 210.43C212.772 210.392 212.639 210.312 212.537 210.199C212.253 209.606 212.187 208.931 212.351 208.293V208.125L212.201 208.081L207.928 206.698H207.866H207.821C206.014 207.443 204.26 208.314 202.574 209.304C201.997 209.65 201.563 209.933 201.27 210.137C201.128 210.238 200.997 210.354 200.88 210.483Z" fill="#FF9A6C"/>
<path d="M204.967 196.831C205.637 197.272 206.365 197.618 207.13 197.86C208.986 198.559 210.926 199.012 212.901 199.207L212.688 199.012C212.75 199.384 212.821 199.766 212.91 200.156C213.419 202.354 214.343 204.436 215.631 206.29C216.019 206.848 216.446 207.378 216.908 207.877C217.063 208.071 217.248 208.239 217.457 208.373C217.519 208.32 216.81 207.531 215.906 206.104C214.73 204.241 213.873 202.194 213.37 200.049C213.282 199.677 213.22 199.296 213.149 198.941V198.764H212.972C211.032 198.574 209.119 198.179 207.263 197.585C205.827 197.124 204.993 196.769 204.967 196.831Z" fill="#FF9A6C"/>
<path d="M211.03 202.008C211.219 204.986 212.568 207.771 214.789 209.765C214.895 209.667 213.61 208.196 212.573 206.051C211.536 203.905 211.172 201.982 211.03 202.008Z" fill="#FF9A6C"/>
<path d="M190.881 208.001C190.881 208.001 190.943 208.072 191.085 208.169C191.294 208.311 191.514 208.439 191.741 208.55C192.596 208.971 193.522 209.23 194.471 209.313C195.935 209.445 197.407 209.163 198.717 208.497C200.379 207.635 201.696 206.231 202.449 204.517L202.157 204.65C203.795 205.238 205.508 205.59 207.245 205.696C207.889 205.731 208.534 205.731 209.178 205.696C209.823 205.697 210.463 205.592 211.075 205.386C211.414 205.271 211.698 205.034 211.872 204.721C211.951 204.561 211.996 204.386 212.005 204.208C212.014 204.029 211.987 203.851 211.926 203.684C211.8 203.353 211.548 203.085 211.225 202.939L210.445 202.611C208.371 201.725 206.474 201.069 204.869 200.546C203.265 200.023 201.935 199.659 201.013 199.429C200.546 199.28 200.065 199.182 199.577 199.136C200.03 199.323 200.495 199.479 200.969 199.606C201.855 199.89 203.167 200.306 204.754 200.865C206.341 201.423 208.229 202.132 210.268 203.01L211.048 203.347C211.256 203.445 211.418 203.619 211.5 203.834C211.545 203.943 211.568 204.059 211.568 204.176C211.568 204.293 211.545 204.409 211.5 204.517C211.374 204.731 211.171 204.889 210.933 204.96C210.36 205.146 209.761 205.236 209.16 205.226C208.548 205.226 207.919 205.226 207.281 205.226C205.59 205.122 203.922 204.782 202.325 204.216L202.121 204.145L202.041 204.34C201.336 205.968 200.102 207.31 198.54 208.152C197.301 208.808 195.907 209.115 194.507 209.038C193.592 208.98 192.693 208.77 191.847 208.417C191.2 208.16 190.899 207.974 190.881 208.001Z" fill="#FF9A6C"/>
<path d="M97.9701 163.731C94.5133 163.654 91.2244 162.225 88.8096 159.751C86.3947 157.276 85.0464 153.953 85.0542 150.496L84.4958 106.615C83.9905 94.8254 90.2312 84.6931 101.693 84.4981H102.757C113.395 84.9502 121.984 93.7528 122.401 104.736C122.791 114.957 123.208 124.832 122.924 130.284C122.33 141.595 111.152 142.695 111.152 142.695C111.152 142.695 111.152 146.905 111.152 150.23C111.19 151.986 110.877 153.732 110.232 155.367C109.587 157.001 108.622 158.49 107.395 159.747C106.167 161.004 104.702 162.004 103.084 162.688C101.465 163.372 99.7269 163.726 97.9701 163.731Z" fill="#FFBF9D"/>
<path d="M111.143 142.819C106.031 142.593 101.098 140.866 96.96 137.855C96.96 137.855 100.063 146.507 111.081 145.957L111.143 142.819Z" fill="#FF9A6C"/>
<path d="M118.359 114.833C118.35 115.249 118.179 115.646 117.883 115.939C117.587 116.231 117.188 116.398 116.772 116.402C116.569 116.406 116.368 116.369 116.179 116.294C115.991 116.219 115.819 116.107 115.674 115.966C115.528 115.824 115.413 115.654 115.334 115.468C115.254 115.281 115.213 115.08 115.212 114.877C115.219 114.462 115.388 114.065 115.682 113.772C115.977 113.479 116.374 113.313 116.79 113.308C116.993 113.304 117.196 113.339 117.386 113.414C117.575 113.488 117.748 113.6 117.894 113.742C118.04 113.884 118.156 114.053 118.236 114.241C118.316 114.428 118.358 114.629 118.359 114.833Z" fill="#263238"/>
<path d="M119.857 109.674C119.653 109.878 118.501 108.92 116.807 108.858C115.114 108.796 113.847 109.603 113.669 109.381C113.492 109.16 113.794 108.911 114.352 108.495C115.102 108.008 115.986 107.769 116.878 107.812C117.757 107.837 118.604 108.148 119.29 108.699C119.795 109.195 119.954 109.585 119.857 109.674Z" fill="#263238"/>
<path d="M102.996 114.833C102.992 115.249 102.824 115.647 102.529 115.94C102.233 116.234 101.835 116.4 101.419 116.402C101.215 116.407 101.013 116.371 100.824 116.296C100.635 116.222 100.463 116.11 100.317 115.968C100.172 115.826 100.057 115.656 99.9778 115.469C99.8989 115.282 99.8583 115.081 99.8584 114.877C99.863 114.461 100.031 114.063 100.326 113.77C100.621 113.476 101.02 113.311 101.436 113.308C101.64 113.304 101.842 113.34 102.031 113.414C102.22 113.489 102.392 113.6 102.537 113.742C102.683 113.884 102.798 114.054 102.877 114.241C102.956 114.429 102.997 114.63 102.996 114.833Z" fill="#263238"/>
<path d="M103.289 109.372C103.085 109.576 101.933 108.619 100.249 108.557C98.5642 108.495 97.2788 109.301 97.1104 109.08C96.942 108.858 97.2345 108.61 97.793 108.193C98.5417 107.712 99.4211 107.473 100.311 107.511C101.192 107.538 102.041 107.848 102.731 108.397C103.209 108.894 103.378 109.284 103.289 109.372Z" fill="#263238"/>
<path d="M108.803 122.989C109.704 122.742 110.634 122.61 111.569 122.598C111.994 122.598 112.411 122.501 112.455 122.2C112.503 121.743 112.42 121.281 112.216 120.87L111.072 117.439C109.494 112.546 108.368 108.575 108.563 108.477C108.758 108.38 110.195 112.324 111.772 117.209C112.154 118.414 112.508 119.558 112.854 120.657C113.106 121.213 113.162 121.838 113.014 122.43C112.944 122.581 112.843 122.716 112.715 122.823C112.588 122.93 112.439 123.008 112.278 123.051C112.033 123.102 111.783 123.126 111.533 123.121C110.621 123.191 109.704 123.147 108.803 122.989Z" fill="#263238"/>
<path d="M104.043 103.965C103.795 104.399 102.172 103.859 100.178 103.734C98.1832 103.61 96.5078 103.85 96.3216 103.38C96.2418 103.158 96.5964 102.777 97.3144 102.493C98.2603 102.102 99.285 101.938 100.306 102.015C101.327 102.092 102.315 102.407 103.192 102.937C103.857 103.318 104.176 103.752 104.043 103.965Z" fill="#263238"/>
<path d="M120.132 104.568C119.768 104.958 118.403 104.506 116.745 104.444C115.088 104.382 113.678 104.63 113.368 104.204C113.235 104 113.465 103.61 114.086 103.256C114.937 102.812 115.894 102.613 116.852 102.68C117.803 102.722 118.724 103.029 119.511 103.566C120.132 103.965 120.3 104.382 120.132 104.568Z" fill="#263238"/>
<path d="M85.0545 115.028C84.8684 114.931 77.5905 112.369 77.5195 120.143C77.4486 127.917 85.0191 126.348 85.0368 126.144C85.0545 125.94 85.0545 115.028 85.0545 115.028Z" fill="#FFBF9D"/>
<path d="M82.7583 123.184C82.7583 123.184 82.6342 123.281 82.4037 123.379C82.2495 123.444 82.0837 123.478 81.9162 123.478C81.7486 123.478 81.5828 123.444 81.4286 123.379C80.6308 123.068 79.9748 121.765 79.9571 120.365C79.9389 119.703 80.0692 119.046 80.3382 118.441C80.4071 118.201 80.5336 117.983 80.7067 117.803C80.8798 117.624 81.0942 117.49 81.3311 117.413C81.484 117.374 81.6454 117.392 81.7867 117.462C81.9279 117.531 82.0398 117.649 82.1023 117.794C82.1998 118.007 82.1555 118.166 82.191 118.175C82.2264 118.184 82.3594 118.051 82.2973 117.732C82.2607 117.54 82.157 117.367 82.0048 117.244C81.9071 117.16 81.7923 117.098 81.6683 117.063C81.5443 117.028 81.4141 117.02 81.2868 117.04C80.9744 117.101 80.6831 117.242 80.4408 117.449C80.1986 117.655 80.0137 117.921 79.9039 118.219C79.5797 118.891 79.4158 119.628 79.4252 120.373C79.4252 121.934 80.223 123.405 81.3134 123.742C81.5146 123.802 81.7268 123.815 81.9341 123.782C82.1413 123.748 82.3383 123.668 82.5101 123.547C82.7494 123.379 82.7849 123.201 82.7583 123.184Z" fill="#FF9A6C"/>
<path d="M90.4442 95.6942C90.6236 94.7044 91.069 93.7821 91.7327 93.0262C92.3964 92.2703 93.2534 91.7094 94.2117 91.4037C95.863 90.848 97.654 90.8699 99.2912 91.4657C103.529 93.0082 110.771 95.3219 112.659 93.8414C115.381 91.7139 116.037 90.2956 116.037 90.2956L117.535 91.9267C118.749 91.2352 115.097 87.1752 112.101 85.7746C107.58 83.6648 100.665 82.3617 96.4988 83.5761C91.4725 85.0388 87.2973 87.6007 84.7708 92.3079C82.3349 97.1125 81.1864 102.467 81.4377 107.848C81.4821 109.488 81.1807 114.186 82.7674 114.549C83.9908 114.824 85.5687 115.374 85.48 117.732C85.4185 118.593 85.6988 119.443 86.2601 120.099C87.6341 121.606 89.3184 120.196 90.0985 118.769C91.7473 115.737 91.9335 112.12 92.0842 108.645C92.3199 106.181 92.1613 103.694 91.6144 101.279C91.0425 99.7426 90.6354 98.1498 90.3999 96.5274C90.3856 96.2489 90.4004 95.9696 90.4442 95.6942Z" fill="#263238"/>
<path d="M109.095 127.173C109.095 127.288 108.794 127.58 108.093 127.731C107.162 127.917 106.194 127.766 105.363 127.306C104.534 126.854 103.886 126.131 103.528 125.258C103.262 124.602 103.307 124.15 103.422 124.114C103.688 124.035 104.246 125.586 105.833 126.446C107.42 127.306 109.015 126.916 109.095 127.173Z" fill="#263238"/>
<path d="M116.914 230.446L80.9145 222.521L57.8042 165.176C57.8042 165.176 26.8754 172.072 21.7339 189.314C17.3015 204.251 8.21521 270.275 28.9231 310.973C31.5618 316.1 35.5661 320.398 40.4938 323.392C45.4215 326.386 51.0809 327.96 56.8469 327.94H214.425C224.033 327.941 233.303 324.401 240.464 317.996C247.626 311.592 252.175 302.773 253.244 293.226C254.13 285.248 254.76 277.686 254.636 272.757L229.336 253.344L116.914 230.446Z" fill="#455A64"/>
<g opacity="0.3">
<path opacity="0.3" d="M213.211 250.392C224.292 264.877 237.793 277.872 253.926 286.4L254.689 266.738L224.912 245.525L213.211 250.392Z" fill="black"/>
</g>
<path d="M94.2914 154.024C94.2914 155.07 102.473 158.456 106.179 156.967C111.817 154.715 111.117 150.292 111.117 150.292L114.237 153.589L145.6 201.37L168.888 216.75L131.576 228.567L92.4741 183.641L94.2914 154.024Z" fill="#F5F5F5"/>
<path d="M84.4072 137.988L83.5828 139.53L79.8596 146.471L64.373 156.346L96.1973 194.234L110.735 228.593L145.574 239.497C145.574 239.497 128.997 214.011 123.846 200.98C118.696 187.949 118.164 188.569 113.475 179.013C110.276 172.267 107.433 165.358 104.956 158.314L84.4072 137.988Z" fill="#EE7C22"/>
<path d="M159.03 206.175L165.856 212.548L167.788 216.484L142.391 204.668L124.05 178.96C124.05 178.96 117.517 164.466 115.265 159.272C112.907 153.811 111.143 150.717 111.143 150.717V146.409L120.416 154.76L128.137 157.055L141.044 177.444L159.03 206.175Z" fill="#EE7C22"/>
<path d="M151.202 182.16C151.202 182.16 148.118 175.583 145.6 170.113C139.927 157.791 126.55 156.621 126.55 156.621L141.327 197.629L159.447 210.474C159.447 210.474 164.597 212.247 165.244 210.474C165.244 210.474 169.02 196.876 168.905 196.822C168.79 196.769 156.016 192.949 156.016 192.949L150.866 181.424" fill="#EE7C22"/>
<path d="M178.444 169.36L160.847 198.666L179.277 198.117L195.526 170.955C195.669 170.717 195.746 170.445 195.749 170.167C195.752 169.89 195.682 169.616 195.545 169.375C195.408 169.133 195.209 168.932 194.969 168.792C194.729 168.653 194.456 168.579 194.178 168.58H179.782C179.511 168.583 179.244 168.656 179.01 168.793C178.775 168.93 178.58 169.125 178.444 169.36Z" fill="#263238"/>
<path d="M110.762 202.514L154.802 197.275L162.212 184.306L168.01 181.123C168.491 180.857 169.037 180.734 169.585 180.769C170.133 180.804 170.66 180.994 171.104 181.318L171.653 181.717L175.953 181.176C176.685 181.081 177.429 181.227 178.071 181.593L181.121 183.366C181.339 183.496 181.52 183.68 181.646 183.901C181.771 184.121 181.838 184.371 181.839 184.625C181.84 184.839 181.794 185.05 181.703 185.244C181.613 185.438 181.481 185.61 181.317 185.747C181.153 185.885 180.96 185.984 180.753 186.038C180.546 186.092 180.33 186.1 180.119 186.061L177.149 185.52L172.62 187C172.62 187 175.545 187.311 175.917 189.527C176.29 191.743 174.809 191.796 174.809 191.796C174.809 191.796 177.885 193.569 175.696 196.229C175.696 196.229 178.258 197.939 175.385 201.184C173.444 203.382 159.429 210.545 159.429 210.545L110.744 228.638L110.762 202.514Z" fill="#FFBF9D"/>
<path d="M175.616 196.211C175.616 196.211 175.944 196.211 176.334 196.61C176.585 196.905 176.76 197.258 176.842 197.637C176.924 198.016 176.911 198.409 176.804 198.782C176.418 199.835 175.764 200.771 174.907 201.494C173.95 202.431 172.915 203.285 171.813 204.047C169.8 205.397 167.673 206.568 165.457 207.549C164.567 208.012 163.635 208.389 162.673 208.675C163.529 208.147 164.418 207.673 165.333 207.256C167.479 206.2 169.553 205.001 171.538 203.666C172.623 202.923 173.646 202.093 174.596 201.184C175.425 200.527 176.072 199.67 176.476 198.693C176.586 198.365 176.618 198.016 176.567 197.674C176.516 197.331 176.384 197.006 176.183 196.725C176.017 196.53 175.826 196.357 175.616 196.211Z" fill="#FF9A6C"/>
<path d="M171.476 181.823C170.805 182.242 170.058 182.525 169.278 182.657C168.539 182.935 167.753 183.067 166.964 183.047C167.635 182.628 168.382 182.345 169.162 182.213C169.901 181.936 170.687 181.804 171.476 181.823Z" fill="#FF9A6C"/>
<path d="M177.15 185.485C176.194 186.045 175.164 186.468 174.091 186.743C173.067 187.162 171.99 187.439 170.891 187.568C171.845 187.003 172.875 186.579 173.949 186.309C174.973 185.886 176.05 185.609 177.15 185.485Z" fill="#FF9A6C"/>
<path d="M171.875 191.362C171.742 191.362 171.68 190.963 171.53 190.537C171.379 190.112 171.202 189.757 171.29 189.651C171.379 189.545 171.787 189.828 171.964 190.369C172.141 190.91 172 191.38 171.875 191.362Z" fill="#FF9A6C"/>
<path d="M173.382 196.45C173.249 196.45 173.302 195.785 173.116 195.067C172.93 194.349 172.611 193.8 172.708 193.711C172.806 193.622 173.355 194.101 173.595 194.952C173.834 195.803 173.497 196.486 173.382 196.45Z" fill="#FF9A6C"/>
<path d="M65.6052 155.557C64.1425 156.444 51.6876 164.954 53.5049 178.889C55.3222 192.824 82.9002 224.374 88.6445 224.932L110.806 228.567V202.514L100.169 201.911L86.2244 174.643L65.6052 155.557Z" fill="#EE7C22"/>
<path d="M110.762 201.255C110.499 201.304 110.232 201.331 109.964 201.335L107.739 201.414L99.8141 201.592H99.7431L99.6811 201.503L94.0786 193.968C90.7366 189.456 87.7404 185.352 85.5862 182.364L83.0598 178.818C82.7279 178.394 82.4314 177.944 82.1733 177.471C82.5477 177.854 82.8915 178.266 83.2016 178.703L85.861 182.16C88.0861 185.086 91.1267 189.163 94.4687 193.684L100.027 201.246L99.8495 201.157H107.721H109.955C110.227 201.156 110.498 201.189 110.762 201.255Z" fill="#263238"/>
<path d="M105.381 161.736C105.21 161.488 105.064 161.224 104.947 160.947L103.856 158.66H104.096C103.288 159.828 102.573 161.058 101.959 162.339C101.174 164.04 100.246 165.671 99.1846 167.214L99.0073 167.463L98.8123 167.223C97.3851 165.45 95.7451 163.58 93.9811 161.656C90.1249 157.463 86.4372 153.829 83.8044 151.169L80.6929 148.005C80.302 147.628 79.9377 147.226 79.6025 146.799C80.0436 147.12 80.4559 147.479 80.8347 147.872L84.0526 150.921C86.712 153.518 90.4795 157.126 94.3534 161.319C96.1263 163.252 97.7574 165.149 99.1758 166.931H98.8123C99.8705 165.411 100.807 163.811 101.614 162.144C102.261 160.861 103.018 159.636 103.874 158.483L104.016 158.288L104.105 158.5L105.08 160.841C105.218 161.125 105.319 161.426 105.381 161.736Z" fill="#263238"/>
<path d="M120.469 155.07C120.756 155.471 120.98 155.913 121.133 156.382C121.588 157.58 121.975 158.802 122.295 160.043L122.596 161.124L121.905 160.238C120.912 159.011 119.824 157.864 118.651 156.807C117.632 155.868 116.621 155.034 115.717 154.201L116.089 154.059C115.963 155.512 115.916 156.971 115.948 158.43C115.981 159.008 115.909 159.588 115.735 160.14C115.682 160.14 115.735 159.511 115.673 158.438C115.553 156.963 115.553 155.481 115.673 154.006V153.589L116.001 153.864C116.932 154.635 117.951 155.495 118.988 156.453C120.181 157.534 121.273 158.72 122.25 159.999L121.86 160.185C121.479 158.651 121.169 157.375 120.885 156.497C120.711 156.032 120.572 155.555 120.469 155.07Z" fill="#263238"/>
<path d="M152.488 197.549C152.117 197.249 151.767 196.923 151.442 196.574L148.72 193.808C147.577 192.612 146.211 191.273 144.731 189.615C144.048 188.729 143.446 187.78 142.737 186.85C142.017 185.844 141.399 184.769 140.893 183.641C139.838 181.354 139.04 179.093 138.322 177.045C137.604 174.998 136.974 173.145 136.389 171.62C135.804 170.095 135.29 168.872 134.874 168.074C134.636 167.663 134.425 167.237 134.244 166.798C134.244 166.798 134.342 166.886 134.475 167.081C134.608 167.276 134.829 167.578 135.051 167.968C135.683 169.112 136.24 170.297 136.717 171.514C137.347 173.039 138.012 174.873 138.756 176.912C139.501 178.951 140.299 181.203 141.345 183.455C141.829 184.555 142.423 185.603 143.118 186.584C143.827 187.532 144.439 188.516 145.086 189.358C146.469 190.945 147.869 192.381 148.96 193.587L151.575 196.468C151.914 196.797 152.22 197.159 152.488 197.549Z" fill="#263238"/>
<path d="M165.279 212.265L248.891 209.907C250.215 209.873 251.532 210.118 252.756 210.625C255.797 211.919 261.266 215.243 265.016 223.213C270.45 234.737 295.794 283.492 295.794 283.492L270.157 296.63L238.723 238.3L141.814 230.047L142.931 222.3L165.279 212.265Z" fill="#263238"/>
<path d="M262.552 286.347L275.911 309.28L276.797 315.077C277.062 316.78 277.99 318.308 279.379 319.326C280.769 320.345 282.505 320.771 284.208 320.511L324.87 314.306C325.35 314.241 325.808 314.066 326.21 313.796C326.612 313.526 326.947 313.168 327.189 312.749C327.431 312.33 327.574 311.861 327.607 311.378C327.64 310.895 327.562 310.411 327.379 309.962C327.204 309.566 326.938 309.216 326.602 308.941C326.266 308.667 325.87 308.476 325.447 308.384C322.043 307.498 295.803 297.88 295.803 297.88L284.855 275.966L262.552 286.347Z" fill="#E0E0E0"/>
<path d="M273.748 291.657C272.629 290.528 271.622 289.293 270.743 287.969C269.737 286.736 268.846 285.412 268.083 284.015C269.204 285.14 270.21 286.372 271.089 287.694C272.099 288.928 272.989 290.255 273.748 291.657Z" fill="#263238"/>
<path d="M281.726 288.448C280.604 287.305 279.657 286.002 278.916 284.583C278.053 283.237 277.387 281.774 276.939 280.239C277.063 280.186 277.994 282.092 279.315 284.352C280.636 286.613 281.832 288.368 281.726 288.448Z" fill="#263238"/>
<path d="M287.302 319.776C287.213 319.776 286.992 318.987 286.415 317.79C285.633 316.238 284.518 314.877 283.149 313.804C281.781 312.732 280.194 311.974 278.499 311.585C277.196 311.274 276.345 311.266 276.354 311.177C277.083 311.01 277.841 311.01 278.57 311.177C280.363 311.48 282.052 312.227 283.482 313.35C284.913 314.472 286.04 315.934 286.761 317.604C287.097 318.28 287.281 319.021 287.302 319.776Z" fill="#263238"/>
<path d="M314.694 315.831C314.362 315.383 314.14 314.864 314.047 314.315C313.739 313.003 313.816 311.63 314.268 310.361C314.732 309.102 315.45 307.953 316.378 306.984C317.087 306.248 317.593 305.876 317.646 305.92C317.699 305.964 317.282 306.452 316.671 307.232C315.864 308.224 315.223 309.341 314.774 310.539C314.361 311.74 314.249 313.024 314.446 314.279C314.575 314.788 314.658 315.307 314.694 315.831Z" fill="#263238"/>
<path d="M139.634 223.665C139.634 223.665 225.923 215.013 230.116 215.358C237.855 215.997 252.127 228.203 277.444 245.206C290.567 254.122 302.745 264.355 313.79 275.745L305.696 294.219C305.696 294.219 248.962 273.537 240.044 266.1C232.651 259.895 219.168 251.119 219.168 251.119L185.881 251.455L161.175 253.627C155.072 254.168 148.932 253.156 143.325 250.687C137.717 248.218 132.825 244.372 129.103 239.506L119.502 226.971L139.634 223.665Z" fill="#263238"/>
<path d="M218.796 250.862L219.195 251.119L220.356 251.916L224.833 255.063C228.724 257.838 234.433 261.827 241.436 267.128C241.87 267.447 242.323 267.837 242.766 268.121L244.193 269.008C245.221 269.522 246.25 270.08 247.34 270.585C248.43 271.091 249.538 271.614 250.673 272.137L254.219 273.688C259.006 275.762 264.192 277.934 269.723 280.177C280.778 284.671 293.197 289.556 306.592 294.706L306.29 294.839C308.63 288.909 311.104 282.659 313.63 276.223L313.683 276.489L303.613 266.224C301.246 264.176 298.711 261.996 296.113 259.85C280.69 247.117 264.554 235.272 247.783 224.374C245.51 222.431 243.058 220.706 240.461 219.223C237.992 217.785 235.361 216.642 232.625 215.819C231.96 215.642 231.286 215.5 230.621 215.332L228.6 215.022L226.597 214.915H216.757L190.695 214.862L173.79 214.791H169.304H168.152C168.022 214.799 167.892 214.799 167.762 214.791H168.152H169.304H173.79L190.695 214.729L216.757 214.676H226.508L228.556 214.773L230.603 215.084C231.286 215.252 231.969 215.394 232.651 215.58C235.419 216.402 238.08 217.551 240.576 219.002C243.208 220.49 245.69 222.23 247.987 224.197C264.798 235.076 280.967 246.915 296.415 259.655C299.012 261.809 301.556 263.99 303.923 266.047L313.985 276.321L314.1 276.436L314.038 276.587C311.511 282.987 309.038 289.237 306.689 295.203L306.6 295.415L306.388 295.336C292.993 289.973 280.583 285.088 269.537 280.558C264.014 278.298 258.829 276.126 254.051 274.025L250.505 272.456L247.163 270.896C246.072 270.373 245.035 269.805 244.016 269.282L242.553 268.396C242.065 268.103 241.667 267.722 241.223 267.394C234.256 262.075 228.565 258.042 224.708 255.223L220.276 252.023L219.133 251.19C218.92 250.968 218.796 250.862 218.796 250.862Z" fill="#455A64"/>
<path d="M287.391 289.52L311.325 298.926L315.314 303.234C315.893 303.86 316.59 304.366 317.364 304.723C318.139 305.08 318.976 305.28 319.828 305.313C320.68 305.346 321.531 305.211 322.33 304.915C323.13 304.619 323.864 304.168 324.489 303.589L354.691 275.647C355.051 275.323 355.333 274.922 355.514 274.473C355.695 274.024 355.772 273.539 355.738 273.056C355.703 272.573 355.559 272.104 355.317 271.685C355.074 271.267 354.739 270.909 354.337 270.639C353.968 270.41 353.55 270.271 353.117 270.232C352.685 270.194 352.249 270.257 351.846 270.417C348.548 271.605 321.413 278.315 321.413 278.315L303.205 263.822L287.391 289.52Z" fill="#E0E0E0"/>
<path d="M287.391 289.52C287.391 289.52 287.47 289.37 287.648 289.068L288.446 287.739L291.557 282.597C294.296 278.103 298.232 271.649 303.081 263.724L303.187 263.556L303.338 263.68L321.546 278.147H321.36L337.547 274.069L346.101 271.844C347.546 271.454 349.009 271.073 350.463 270.648L351.535 270.311C351.912 270.167 352.305 270.075 352.706 270.036C353.125 270.018 353.543 270.088 353.934 270.24C354.324 270.393 354.679 270.625 354.975 270.922C355.55 271.5 355.899 272.266 355.958 273.079C356.016 273.893 355.781 274.7 355.294 275.355C355.062 275.682 354.791 275.979 354.487 276.241L353.663 277.003L351.996 278.448L345.561 284.397L333.389 295.637L327.725 300.867L325.003 303.376C324.564 303.803 324.086 304.189 323.576 304.528C323.055 304.843 322.495 305.087 321.91 305.255C320.785 305.578 319.595 305.599 318.46 305.317C317.324 305.036 316.282 304.461 315.438 303.651C313.923 302.064 312.54 300.521 311.183 299.05H311.245L293.729 292.065L289.004 290.159L287.79 289.662L287.391 289.494C287.541 289.539 287.689 289.593 287.834 289.653L289.093 290.123L293.88 291.967L311.361 298.749C312.717 300.193 314.135 301.754 315.625 303.305C316.636 304.272 317.939 304.875 319.331 305.02C320.722 305.164 322.122 304.842 323.31 304.103C323.801 303.78 324.259 303.409 324.675 302.995L327.388 300.486L333.035 295.238L345.295 284.051L351.73 278.094L353.37 276.578C353.926 276.098 354.45 275.582 354.94 275.036C355.366 274.47 355.573 273.769 355.524 273.062C355.476 272.356 355.173 271.69 354.674 271.188C354.423 270.939 354.124 270.746 353.794 270.62C353.464 270.495 353.111 270.441 352.759 270.461C352.398 270.503 352.043 270.589 351.704 270.718L350.605 271.055C349.142 271.481 347.688 271.862 346.234 272.252L337.671 274.468L321.475 278.519H321.378L321.298 278.457L303.099 263.955H303.356L291.752 282.579L288.561 287.712C288.197 288.288 287.914 288.731 287.674 289.051C287.435 289.37 287.391 289.52 287.391 289.52Z" fill="#263238"/>
<path d="M326.617 301.248C326.555 301.319 325.916 300.761 324.746 300.114C323.23 299.263 321.544 298.758 319.809 298.633C318.075 298.509 316.334 298.77 314.711 299.396C313.462 299.866 312.752 300.326 312.699 300.282C313.224 299.747 313.859 299.332 314.561 299.068C316.216 298.315 318.033 297.989 319.846 298.119C321.659 298.249 323.411 298.831 324.941 299.812C325.598 300.162 326.17 300.653 326.617 301.248Z" fill="#263238"/>
<path d="M347.112 282.641C346.583 282.463 346.105 282.159 345.72 281.755C344.719 280.834 343.999 279.647 343.646 278.333C343.324 277.027 343.279 275.669 343.513 274.344C343.548 273.792 343.702 273.253 343.965 272.766C344.003 273.308 343.976 273.853 343.885 274.388C343.778 275.663 343.874 276.947 344.169 278.191C344.5 279.42 345.127 280.549 345.995 281.48C346.66 282.189 347.165 282.562 347.112 282.641Z" fill="#263238"/>
<path d="M204.116 250.87C202.272 242.086 198.487 233.097 190.996 228.159C185.314 224.4 178.284 223.479 171.494 222.645L30.1377 205.262C28.87 227.539 38.4084 255.276 48.133 275.355C49.6489 278.475 51.3952 281.666 54.2851 283.572C57.831 285.895 62.3254 285.868 66.5449 285.762C114.104 284.556 161.69 282.526 208.974 277.323C206.314 268.75 205.969 259.646 204.116 250.87Z" fill="#455A64"/>
<path d="M82.1467 211.653C81.5893 211.66 81.0322 211.624 80.4802 211.547L75.9592 211.059C72.1474 210.616 66.8906 209.969 61.0931 209.171C55.2956 208.373 50.0477 207.531 46.2625 206.902C44.3743 206.565 42.8496 206.29 41.8302 206.015C41.2831 205.923 40.7438 205.789 40.2168 205.616C40.7708 205.643 41.3219 205.711 41.8656 205.82L46.36 206.512C50.1452 207.079 55.3931 207.832 61.1906 208.63L76.039 210.669L80.5334 211.307C81.0794 211.38 81.6189 211.496 82.1467 211.653Z" fill="#263238"/>
<path d="M82.9003 327.94C82.8391 327.855 82.7885 327.762 82.7496 327.665L82.3684 326.85C82.0226 326.096 81.544 325.032 80.9234 323.685C80.6132 322.993 80.2763 322.231 79.8951 321.398C79.5139 320.565 79.1948 319.625 78.7959 318.623C78.0335 316.62 77.0762 314.368 76.2606 311.788L74.922 307.773C74.4611 306.372 74.0888 304.883 73.6455 303.34C72.7591 300.3 71.9878 296.984 71.1723 293.51C67.8949 278.342 66.8171 262.781 67.9721 247.307C68.309 243.761 68.5661 240.375 69.0625 237.237C69.293 235.667 69.4614 234.143 69.7273 232.689C69.9933 231.235 70.2592 229.852 70.5074 228.523C70.9595 225.863 71.5978 223.505 72.0765 221.431C72.3336 220.385 72.5463 219.419 72.7856 218.532L73.486 216.121C73.9115 214.694 74.2483 213.577 74.4788 212.788L74.7536 211.901C74.7787 211.8 74.8144 211.702 74.86 211.609C74.8485 211.711 74.8277 211.812 74.7979 211.91L74.5763 212.797C74.3636 213.594 74.0622 214.72 73.6898 216.147C73.4948 216.883 73.2732 217.69 73.0339 218.568C72.7945 219.445 72.6084 220.438 72.369 221.475C71.908 223.567 71.2964 225.907 70.8709 228.567C70.6315 229.888 70.3833 231.279 70.1262 232.724C69.8692 234.169 69.7096 235.694 69.488 237.263C69.0093 240.392 68.7699 243.77 68.4508 247.316C67.3432 262.755 68.4175 278.273 71.6421 293.412C72.4399 296.878 73.1491 300.194 74.0533 303.225C74.4965 304.75 74.86 306.23 75.3121 307.658C75.7642 309.085 76.1986 310.397 76.6241 311.673C77.413 314.253 78.3438 316.505 79.0796 318.517C79.4608 319.519 79.7976 320.458 80.1433 321.309C80.4891 322.16 80.8348 322.914 81.1273 323.614C81.7124 324.97 82.1645 326.043 82.4836 326.805L82.8293 327.647C82.8645 327.742 82.8883 327.84 82.9003 327.94Z" fill="#263238"/>
<path d="M81.3755 283.023C79.5236 283.19 77.6604 283.19 75.8085 283.023C73.9502 283.022 72.0958 282.853 70.2681 282.517C72.1202 282.355 73.983 282.355 75.8351 282.517C77.6931 282.523 79.5471 282.692 81.3755 283.023Z" fill="#263238"/>
<path d="M80.0813 289.485C78.1102 289.312 76.1828 288.805 74.3813 287.987C72.513 287.324 70.7735 286.344 69.2397 285.088C69.3195 284.964 71.5712 286.32 74.5586 287.526C77.546 288.731 80.1167 289.334 80.0813 289.485Z" fill="#263238"/>
<path d="M67.7061 245.1C66.6011 245.794 65.3316 246.182 64.0273 246.225C62.7378 246.427 61.4181 246.289 60.1978 245.826C60.1978 245.676 61.9086 245.933 63.9741 245.729C66.0396 245.525 67.653 244.967 67.7061 245.1Z" fill="#263238"/>
<path d="M70.4895 242.99C69.117 243.194 67.7147 243.016 66.4369 242.475C65.1592 241.934 64.0554 241.05 63.2471 239.923C64.3103 240.721 65.4437 241.421 66.6334 242.015C67.8856 242.459 69.1766 242.785 70.4895 242.99Z" fill="#263238"/>
<path d="M120.309 91.1111C119.953 90.1917 119.383 89.3703 118.646 88.7151C117.909 88.0599 117.027 87.5898 116.072 87.3436C114.155 86.8687 112.143 86.9424 110.266 87.5564L91.8979 91.7582C94.5574 93.5312 100.027 95.1977 103.165 95.5346C107.748 96.0222 110.975 96.0665 113.705 94.4886C114.264 96.3767 116.817 97.21 118.536 96.2615C119.363 95.7228 119.986 94.9237 120.307 93.9908C120.628 93.0579 120.629 92.0445 120.309 91.1111Z" fill="#263238"/>
<path d="M303.808 283.767C300.076 282.989 296.488 281.638 293.17 279.76C293.232 279.636 295.573 280.647 298.489 281.746C301.406 282.845 303.843 283.661 303.808 283.767Z" fill="#263238"/>
<path d="M307.859 275.931C306.254 275.269 304.683 274.527 303.152 273.706C301.553 273.026 299.991 272.263 298.472 271.419C300.171 271.838 301.812 272.466 303.356 273.289C304.962 273.977 306.475 274.865 307.859 275.931Z" fill="#263238"/>
<path d="M161.556 220.305L198.584 220.757L243.298 211.892C244 211.745 244.641 211.389 245.137 210.87C245.632 210.351 245.958 209.693 246.072 208.985L252.145 168.721C252.215 168.26 252.175 167.788 252.028 167.345C251.882 166.901 251.632 166.499 251.3 166.17C250.968 165.842 250.563 165.597 250.118 165.455C249.674 165.312 249.201 165.278 248.741 165.353L203.034 172.79C202.403 172.896 201.822 173.202 201.378 173.663C200.934 174.125 200.651 174.717 200.57 175.352L195.482 216.307L161.618 216.139C161.065 216.139 160.534 216.358 160.142 216.748C159.75 217.139 159.529 217.668 159.526 218.222C159.526 218.765 159.738 219.287 160.118 219.676C160.497 220.066 161.013 220.291 161.556 220.305Z" fill="#E0E0E0"/>
<path d="M161.556 220.305C161.314 220.322 161.071 220.283 160.847 220.19C160.514 220.067 160.217 219.862 159.985 219.594C159.752 219.326 159.592 219.003 159.518 218.656C159.406 218.135 159.495 217.591 159.766 217.131C159.925 216.853 160.146 216.615 160.412 216.435C160.678 216.255 160.981 216.139 161.299 216.094C162.656 216.041 164.189 216.094 165.936 216.094L195.473 216.165L195.313 216.307C196.767 204.526 198.496 190.599 200.401 175.104C200.51 174.587 200.746 174.106 201.086 173.702C201.426 173.298 201.861 172.985 202.352 172.79C202.84 172.639 203.342 172.535 203.85 172.48L205.321 172.232L211.287 171.266L223.583 169.253L236.312 167.179L242.819 166.124L246.108 165.583L247.757 165.317C248.322 165.195 248.898 165.132 249.476 165.131C250.108 165.187 250.709 165.427 251.204 165.823C251.699 166.219 252.067 166.752 252.26 167.356C252.436 167.953 252.455 168.585 252.313 169.191L252.056 170.911C251.713 173.204 251.37 175.482 251.028 177.746C250.342 182.267 249.668 186.714 249.006 191.087C248.345 195.46 247.697 199.745 247.065 203.941L246.586 207.07C246.507 207.584 246.427 208.098 246.356 208.612C246.301 209.156 246.154 209.687 245.922 210.182C245.673 210.67 245.319 211.098 244.885 211.433C244.451 211.769 243.948 212.005 243.413 212.123L240.417 212.717L198.62 220.943L171.476 220.544L164.136 220.411L162.239 220.367H161.592H162.239H164.136L171.476 220.411L198.62 220.668L240.39 212.336L243.386 211.733C243.86 211.63 244.304 211.423 244.687 211.127C245.071 210.831 245.383 210.454 245.602 210.022C245.814 209.57 245.943 209.083 245.984 208.586C246.063 208.072 246.143 207.558 246.214 207.035C246.374 205.997 246.533 204.96 246.684 203.905C247.322 199.715 247.969 195.431 248.625 191.052C249.281 186.672 249.949 182.24 250.629 177.755C250.971 175.497 251.317 173.222 251.666 170.929L251.923 169.2C252.061 168.668 252.061 168.11 251.923 167.578C251.757 167.061 251.443 166.604 251.019 166.265C250.594 165.926 250.079 165.719 249.538 165.672C248.996 165.677 248.455 165.736 247.925 165.849L246.276 166.124L242.987 166.656L236.383 167.64L223.653 169.714L211.358 171.709L205.383 172.675L203.912 172.914C203.436 172.962 202.966 173.06 202.511 173.207C202.086 173.373 201.709 173.642 201.413 173.991C201.117 174.339 200.913 174.755 200.818 175.201L195.641 216.36V216.502H195.482L165.944 216.289C164.171 216.289 162.647 216.236 161.326 216.289C161.028 216.33 160.742 216.438 160.491 216.603C160.239 216.769 160.028 216.989 159.872 217.247C159.611 217.68 159.519 218.195 159.615 218.692C159.684 219.027 159.835 219.341 160.055 219.603C160.274 219.866 160.556 220.071 160.874 220.199C161.096 220.264 161.325 220.299 161.556 220.305Z" fill="#263238"/>
<path d="M204.524 174.085C204.648 174.085 203.425 184.793 201.785 197.957C200.145 211.121 198.718 221.794 198.585 221.777C198.452 221.759 199.684 211.077 201.324 197.904C202.964 184.731 204.4 174.067 204.524 174.085Z" fill="#263238"/>
<path d="M224.398 190.688C223.467 192.629 223.981 194.81 225.542 195.564C227.102 196.317 229.087 195.342 230.045 193.401C231.002 191.459 230.47 189.279 228.91 188.534C227.35 187.789 225.329 188.764 224.398 190.688Z" fill="white"/>
<path d="M241.223 104.701H155.945C154.769 104.701 153.642 105.167 152.81 105.999C151.979 106.83 151.512 107.957 151.512 109.133V147.978C151.512 149.153 151.979 150.281 152.81 151.112C153.642 151.943 154.769 152.41 155.945 152.41H191.722L199.319 162.161L205.658 152.41H241.223C242.398 152.41 243.526 151.943 244.357 151.112C245.188 150.281 245.655 149.153 245.655 147.978V109.133C245.655 107.957 245.188 106.83 244.357 105.999C243.526 105.167 242.398 104.701 241.223 104.701Z" fill="white"/>
<path d="M241.223 104.701H241.648C242.064 104.732 242.474 104.825 242.863 104.975C243.502 105.218 244.076 105.606 244.538 106.11C245.188 106.808 245.595 107.697 245.7 108.645C245.779 112.874 245.762 119.026 245.788 126.818C245.788 130.709 245.788 135.018 245.788 139.681C245.788 142.021 245.788 144.441 245.788 146.958C245.823 147.601 245.796 148.245 245.708 148.882C245.573 149.542 245.298 150.164 244.902 150.708C244.49 151.268 243.958 151.728 243.344 152.053C242.73 152.379 242.05 152.561 241.356 152.588H205.587L205.764 152.49C203.77 155.548 201.624 158.864 199.435 162.241L199.266 162.507L199.08 162.259L191.474 152.508L191.652 152.596H157.283C156.663 152.596 156.078 152.596 155.422 152.596C154.46 152.486 153.556 152.08 152.835 151.434C152.114 150.787 151.611 149.933 151.397 148.988C151.289 148.377 151.251 147.756 151.282 147.136V145.363C151.282 140.546 151.282 135.818 151.282 131.179V117.386C151.282 115.14 151.282 112.924 151.282 110.737V109.133C151.283 107.993 151.702 106.893 152.46 106.042C153.219 105.19 154.263 104.647 155.395 104.514C155.962 104.461 156.477 104.514 157.008 104.514H178.124H199.302L229.965 104.585L238.298 104.63H240.469H241.205H240.469H238.298L229.965 104.674L199.302 104.745H178.124H157.026C156.503 104.745 155.954 104.745 155.466 104.745C154.958 104.799 154.464 104.949 154.012 105.188C153.096 105.665 152.384 106.459 152.009 107.422C151.826 107.907 151.73 108.42 151.725 108.938V110.578C151.725 112.764 151.725 114.981 151.725 117.226C151.725 121.712 151.725 126.283 151.725 130.94V146.958C151.696 147.552 151.731 148.146 151.831 148.731C151.96 149.294 152.203 149.824 152.544 150.289C152.886 150.754 153.319 151.144 153.817 151.435C154.32 151.728 154.879 151.912 155.457 151.976C156.016 152.029 156.663 151.976 157.23 151.976H191.802L191.873 152.064L199.47 161.816H199.107C201.305 158.447 203.459 155.141 205.445 152.064L205.516 151.976H205.631H241.391C242.027 151.953 242.648 151.786 243.209 151.486C243.77 151.186 244.255 150.763 244.627 150.247C245.002 149.753 245.259 149.18 245.38 148.572C245.464 147.955 245.493 147.332 245.469 146.71C245.469 144.193 245.469 141.773 245.469 139.432C245.469 134.769 245.469 130.461 245.469 126.57C245.469 118.786 245.531 112.608 245.469 108.406C245.382 107.613 245.082 106.859 244.601 106.222C244.121 105.586 243.477 105.091 242.739 104.789C242.24 104.687 241.73 104.657 241.223 104.701Z" fill="#263238"/>
<path d="M175.961 113.149H167.469C166.842 113.149 166.334 113.657 166.334 114.283V120.347C166.334 120.973 166.842 121.481 167.469 121.481H175.961C176.588 121.481 177.096 120.973 177.096 120.347V114.283C177.096 113.657 176.588 113.149 175.961 113.149Z" fill="#EE7C22"/>
<path d="M166.511 113.37L170.607 117.74C170.825 118.039 171.137 118.254 171.493 118.352C171.716 118.386 171.943 118.361 172.153 118.28C172.363 118.199 172.548 118.065 172.69 117.891C173.426 117.129 174.144 116.34 174.871 115.569L176.936 113.37C177.034 113.264 176.874 113.113 176.777 113.211L172.867 117.377C172.688 117.61 172.479 117.818 172.247 117.998C171.662 118.37 171.157 117.998 170.767 117.59L168.559 115.223L166.671 113.211C166.574 113.113 166.423 113.264 166.52 113.37H166.511Z" fill="white"/>
<path d="M166.467 121.428C167.557 120.178 168.656 118.937 169.756 117.687L170.216 117.164C170.314 117.058 170.154 116.898 170.057 117.005L166.777 120.746L166.307 121.269C166.219 121.375 166.369 121.535 166.467 121.428Z" fill="white"/>
<path d="M176.928 121.065C175.899 119.868 174.871 118.68 173.851 117.519L173.408 117.005C173.311 116.889 173.151 117.005 173.249 117.155C174.277 118.352 175.296 119.549 176.325 120.701C176.475 120.879 176.626 121.047 176.768 121.224C176.91 121.402 177.016 121.171 176.928 121.065Z" fill="white"/>
<path d="M185.03 120.152V117.395L183.674 119.664H183.195L181.847 117.448V120.152H180.846V115.551H181.732L183.505 118.414L185.198 115.551H186.085V120.152H185.03Z" fill="#263238"/>
<path d="M190.49 118.671H187.831C187.887 118.892 188.021 119.086 188.209 119.216C188.396 119.346 188.624 119.405 188.85 119.38C189.013 119.387 189.176 119.361 189.328 119.303C189.481 119.245 189.62 119.157 189.737 119.044L190.278 119.637C190 119.902 189.654 120.084 189.279 120.163C188.905 120.242 188.515 120.215 188.154 120.085C187.794 119.955 187.476 119.728 187.238 119.428C186.999 119.128 186.848 118.768 186.803 118.388C186.795 118.14 186.839 117.894 186.932 117.665C187.024 117.435 187.164 117.228 187.342 117.056C187.52 116.884 187.732 116.751 187.964 116.666C188.196 116.581 188.444 116.545 188.691 116.561C188.935 116.552 189.178 116.592 189.406 116.681C189.634 116.769 189.84 116.904 190.014 117.076C190.187 117.249 190.322 117.455 190.412 117.682C190.502 117.909 190.543 118.152 190.535 118.396C190.517 118.476 190.499 118.591 190.49 118.671ZM187.831 118.077H189.604C189.604 117.842 189.511 117.617 189.344 117.45C189.178 117.284 188.953 117.191 188.717 117.191C188.482 117.191 188.257 117.284 188.091 117.45C187.924 117.617 187.831 117.842 187.831 118.077Z" fill="#263238"/>
<path d="M190.854 119.824L191.191 119.088C191.563 119.311 191.989 119.43 192.423 119.434C192.893 119.434 193.07 119.309 193.07 119.106C193.07 118.529 190.934 119.106 190.934 117.705C190.934 117.04 191.545 116.561 192.574 116.561C193.047 116.554 193.515 116.66 193.939 116.872L193.593 117.599C193.282 117.426 192.93 117.337 192.574 117.342C192.113 117.342 191.918 117.483 191.918 117.67C191.918 118.272 194.054 117.67 194.054 119.079C194.054 119.735 193.442 120.205 192.388 120.205C191.851 120.218 191.322 120.086 190.854 119.824Z" fill="#263238"/>
<path d="M194.337 119.824L194.683 119.088C195.056 119.311 195.481 119.43 195.915 119.434C196.385 119.434 196.562 119.31 196.562 119.106C196.562 118.529 194.426 119.106 194.426 117.705C194.426 117.04 195.029 116.561 196.066 116.561C196.537 116.554 197.002 116.66 197.422 116.872L197.085 117.599C196.773 117.426 196.422 117.338 196.066 117.342C195.605 117.342 195.401 117.483 195.401 117.67C195.401 118.272 197.546 117.67 197.546 119.079C197.546 119.735 196.935 120.205 195.871 120.205C195.335 120.217 194.805 120.085 194.337 119.824Z" fill="#263238"/>
<path d="M201.297 118.139V120.152H200.339V119.708C200.223 119.881 200.061 120.018 199.872 120.106C199.683 120.193 199.474 120.228 199.267 120.205C198.433 120.205 197.946 119.744 197.946 119.132C197.946 118.521 198.38 118.077 199.462 118.077H200.277C200.277 117.634 200.011 117.377 199.462 117.377C199.096 117.374 198.738 117.489 198.442 117.705L198.07 116.996C198.522 116.699 199.054 116.548 199.595 116.561C200.676 116.561 201.297 117.111 201.297 118.139ZM200.277 119.026V118.662H199.568C199.089 118.662 198.939 118.84 198.939 119.079C198.939 119.318 199.16 119.505 199.524 119.505C199.683 119.515 199.841 119.475 199.976 119.391C200.111 119.306 200.216 119.182 200.277 119.035V119.026Z" fill="#263238"/>
<path d="M205.915 116.615V119.558C205.939 119.822 205.904 120.088 205.812 120.337C205.72 120.586 205.573 120.811 205.383 120.996C205.192 121.18 204.963 121.32 204.711 121.404C204.459 121.488 204.192 121.514 203.929 121.481C203.301 121.512 202.68 121.341 202.156 120.994L202.564 120.258C202.926 120.522 203.365 120.662 203.814 120.657C204.532 120.657 204.851 120.329 204.851 119.691V119.54C204.708 119.691 204.534 119.808 204.341 119.885C204.148 119.961 203.941 119.995 203.734 119.983C203.28 119.983 202.845 119.803 202.524 119.482C202.203 119.161 202.023 118.726 202.023 118.272C202.023 117.819 202.203 117.383 202.524 117.063C202.845 116.742 203.28 116.561 203.734 116.561C203.955 116.549 204.175 116.589 204.378 116.676C204.582 116.764 204.761 116.898 204.904 117.067V116.615H205.915ZM204.904 118.272C204.913 118.087 204.866 117.902 204.769 117.744C204.672 117.585 204.53 117.459 204.361 117.381C204.192 117.304 204.004 117.279 203.82 117.31C203.637 117.341 203.467 117.426 203.332 117.554C203.198 117.682 203.105 117.848 203.065 118.03C203.025 118.211 203.041 118.401 203.11 118.573C203.179 118.746 203.298 118.894 203.452 118.998C203.606 119.103 203.787 119.159 203.973 119.159C204.093 119.165 204.213 119.146 204.326 119.104C204.439 119.063 204.542 118.998 204.629 118.915C204.716 118.832 204.785 118.733 204.832 118.622C204.88 118.512 204.904 118.393 204.904 118.272Z" fill="#263238"/>
<path d="M210.312 118.671H207.652C207.707 118.892 207.839 119.085 208.025 119.215C208.211 119.345 208.437 119.404 208.663 119.38C208.826 119.388 208.989 119.362 209.141 119.304C209.294 119.246 209.433 119.158 209.549 119.044L210.099 119.637C209.911 119.833 209.683 119.985 209.43 120.083C209.178 120.181 208.907 120.222 208.636 120.205C208.382 120.231 208.124 120.203 207.881 120.124C207.638 120.044 207.414 119.915 207.223 119.744C207.033 119.573 206.88 119.364 206.776 119.13C206.671 118.896 206.616 118.644 206.615 118.388C206.607 118.14 206.651 117.894 206.744 117.665C206.837 117.435 206.977 117.228 207.155 117.056C207.333 116.884 207.544 116.751 207.777 116.666C208.009 116.581 208.256 116.545 208.503 116.561C208.747 116.552 208.991 116.592 209.218 116.681C209.446 116.769 209.653 116.904 209.826 117.076C209.999 117.249 210.135 117.455 210.224 117.682C210.314 117.909 210.356 118.152 210.347 118.396C210.329 118.476 210.312 118.591 210.312 118.671ZM207.652 118.077H209.425C209.425 117.842 209.332 117.617 209.166 117.45C208.999 117.284 208.774 117.191 208.539 117.191C208.304 117.191 208.078 117.284 207.912 117.45C207.746 117.617 207.652 117.842 207.652 118.077Z" fill="#263238"/>
<path d="M210.666 119.824L211.012 119.088C211.381 119.312 211.804 119.431 212.235 119.434C212.714 119.434 212.891 119.309 212.891 119.106C212.891 118.529 210.755 119.106 210.755 117.705C210.755 117.04 211.357 116.561 212.386 116.561C212.859 116.554 213.327 116.66 213.751 116.872L213.405 117.599C213.094 117.424 212.742 117.336 212.386 117.342C211.934 117.342 211.73 117.483 211.73 117.67C211.73 118.272 213.866 117.67 213.866 119.079C213.866 119.735 213.254 120.205 212.2 120.205C211.663 120.218 211.134 120.086 210.666 119.824Z" fill="#263238"/>
<path d="M216.145 117.856C216.116 117.353 216.239 116.853 216.498 116.421C216.757 115.988 217.14 115.644 217.596 115.431C218.053 115.219 218.563 115.148 219.061 115.229C219.558 115.309 220.02 115.537 220.386 115.883C220.752 116.229 221.007 116.676 221.116 117.168C221.225 117.66 221.184 118.173 220.999 118.642C220.813 119.11 220.491 119.512 220.074 119.795C219.658 120.079 219.166 120.231 218.662 120.231C218.339 120.249 218.015 120.201 217.711 120.09C217.407 119.979 217.128 119.807 216.893 119.585C216.657 119.363 216.469 119.095 216.341 118.797C216.212 118.5 216.145 118.18 216.145 117.856ZM220.098 117.856C220.093 117.571 220.004 117.294 219.841 117.059C219.679 116.825 219.451 116.644 219.186 116.539C218.921 116.434 218.631 116.41 218.352 116.469C218.073 116.529 217.819 116.669 217.619 116.873C217.42 117.077 217.286 117.335 217.233 117.616C217.181 117.896 217.212 118.185 217.324 118.447C217.435 118.71 217.622 118.933 217.86 119.09C218.098 119.246 218.377 119.329 218.662 119.327C218.855 119.332 219.047 119.298 219.226 119.225C219.405 119.152 219.567 119.044 219.702 118.905C219.837 118.767 219.942 118.603 220.01 118.422C220.078 118.241 220.108 118.049 220.098 117.856Z" fill="#263238"/>
<path d="M222.864 116.42H221.393V115.533H225.399V116.42H223.928V120.152H222.864V116.42Z" fill="#263238"/>
<path d="M229.956 117.217C229.956 118.246 229.194 118.884 227.961 118.884H227.031V120.152H225.967V115.551H227.961C229.167 115.551 229.956 116.225 229.956 117.217ZM228.883 117.217C228.883 116.712 228.555 116.42 227.899 116.42H227.013V117.998H227.899C228.555 117.998 228.883 117.723 228.883 117.217Z" fill="#263238"/>
<path d="M165.723 133.608C165.723 129.265 168.125 126.8 171.361 126.8C174.596 126.8 176.999 129.265 176.999 133.608C176.999 137.952 174.614 140.416 171.361 140.416C168.107 140.416 165.723 137.952 165.723 133.608ZM173.94 133.608C173.94 130.621 172.885 129.38 171.361 129.38C169.836 129.38 168.808 130.621 168.808 133.608C168.808 136.596 169.854 137.837 171.361 137.837C172.868 137.837 173.94 136.613 173.94 133.608Z" fill="#263238"/>
<path d="M189.506 136.374C189.506 138.856 187.29 140.416 183.939 140.416C180.589 140.416 178.417 138.856 178.417 136.374C178.409 135.718 178.594 135.075 178.949 134.524C179.303 133.972 179.812 133.537 180.411 133.271C179.937 133 179.545 132.605 179.277 132.129C179.008 131.654 178.873 131.114 178.887 130.568C178.887 128.254 180.952 126.8 183.939 126.8C186.927 126.8 189.037 128.254 189.037 130.568C189.046 131.115 188.908 131.655 188.636 132.131C188.365 132.607 187.97 133.001 187.494 133.271C188.098 133.532 188.612 133.966 188.97 134.518C189.328 135.07 189.515 135.716 189.506 136.374ZM186.422 136.276C186.422 135.115 185.464 134.397 183.939 134.397C182.415 134.397 181.502 135.115 181.502 136.276C181.502 137.438 182.441 138.182 183.939 138.182C185.438 138.182 186.422 137.447 186.422 136.276ZM181.909 130.692C181.909 131.693 182.698 132.314 183.939 132.314C185.18 132.314 186.014 131.693 186.014 130.692C186.014 129.69 185.18 129.043 183.939 129.043C182.698 129.043 181.909 129.663 181.909 130.692Z" fill="#263238"/>
<path d="M201.917 136.374C201.917 138.856 199.701 140.416 196.359 140.416C193.017 140.416 190.827 138.856 190.827 136.374C190.82 135.718 191.005 135.075 191.359 134.524C191.714 133.972 192.222 133.537 192.822 133.271C192.349 132.998 191.958 132.604 191.69 132.128C191.422 131.652 191.286 131.114 191.297 130.568C191.297 128.254 193.363 126.8 196.359 126.8C199.355 126.8 201.447 128.254 201.447 130.568C201.457 131.115 201.318 131.655 201.047 132.131C200.776 132.607 200.381 133.001 199.905 133.271C200.51 133.531 201.024 133.965 201.382 134.517C201.74 135.069 201.927 135.716 201.917 136.374ZM198.841 136.276C198.841 135.115 197.875 134.397 196.359 134.397C194.843 134.397 193.912 135.115 193.912 136.276C193.912 137.438 194.852 138.182 196.359 138.182C197.866 138.182 198.841 137.447 198.841 136.276ZM194.329 130.692C194.329 131.693 195.118 132.314 196.359 132.314C197.6 132.314 198.424 131.693 198.424 130.692C198.424 129.69 197.6 129.043 196.359 129.043C195.118 129.043 194.329 129.663 194.329 130.692Z" fill="#263238"/>
<path d="M208.388 127.031V140.159H205.347V129.522H202.688V127.075L208.388 127.031Z" fill="#263238"/>
<path d="M220.524 137.713V140.159H210.552V138.182L215.622 133.387C216.792 132.279 216.996 131.614 216.996 130.958C216.996 129.929 216.278 129.327 214.895 129.327C214.367 129.305 213.843 129.414 213.367 129.642C212.89 129.871 212.478 130.213 212.165 130.639L209.949 129.211C210.551 128.406 211.342 127.761 212.253 127.334C213.164 126.907 214.166 126.712 215.17 126.765C218.104 126.765 220.063 128.272 220.063 130.656C220.063 131.942 219.7 133.103 217.865 134.814L214.833 137.677L220.524 137.713Z" fill="#263238"/>
<path d="M231.507 136.17C231.507 138.386 229.788 140.416 226.047 140.416C224.272 140.449 222.527 139.959 221.029 139.007L222.217 136.675C223.313 137.459 224.629 137.875 225.976 137.863C227.501 137.863 228.44 137.243 228.44 136.17C228.44 135.097 227.704 134.548 225.976 134.548H224.584V132.536L227.288 129.477H221.685V127.031H230.94V129.007L227.97 132.385C230.302 132.766 231.507 134.229 231.507 136.17Z" fill="#263238"/>
</svg>
