<svg width="191" height="30" viewBox="0 0 191 30" fill="none" xmlns="http://www.w3.org/2000/svg">
<path d="M17.8868 0.727539V12.6462L11.9388 18.5735V6.67618H0L5.96942 0.727539H17.8868Z" fill="#552D83"/>
<path d="M9.94188 8.6662V15.2782L6.63508 18.5735V11.9615H0L3.32827 8.6662H9.94188Z" fill="#552D83"/>
<path d="M4.98167 13.5877V16.9258L3.32827 18.5735V15.2568H0L1.6534 13.6091L1.67487 13.5877H4.98167Z" fill="#552D83"/>
<path d="M32.7889 6.5692C32.7889 5.37091 32.5312 4.34381 32.0159 3.46649C31.5005 2.58917 30.7275 1.92583 29.7398 1.43368C28.752 0.962922 27.5281 0.706146 26.0894 0.706146H20.8071V18.0813H24.2427V12.582H26.7121C27.8502 12.582 28.8164 12.4108 29.5894 12.0471C30.3625 11.6833 30.9852 11.234 31.4576 10.6348C31.93 10.0571 32.2735 9.39373 32.4668 8.6876C32.6815 7.98146 32.7889 7.27533 32.7889 6.5692ZM29.2244 7.42512C29.1385 7.72469 28.9882 8.00286 28.795 8.28104C28.6017 8.55921 28.3226 8.79459 27.979 8.96577C27.6354 9.13696 27.206 9.24395 26.6692 9.24395H24.2213V4.02284H26.6906C27.2919 4.02284 27.7643 4.12983 28.1293 4.32241C28.4943 4.53639 28.752 4.77177 28.9238 5.07134C29.0956 5.37091 29.2029 5.67048 29.2674 5.94866C29.3318 6.24823 29.3532 6.46221 29.3532 6.65479C29.3532 6.86877 29.3103 7.14694 29.2244 7.42512Z" fill="#0A0A0A"/>
<path d="M39.9822 0.0213928L32.1232 18.0813H35.5159L36.9331 14.679H42.7093L44.0621 18.0813H48.0345L40.1755 0.0213928H39.9822ZM38.1356 11.8117L39.8964 7.57489L41.5712 11.8117H38.1356Z" fill="#0A0A0A"/>
<path d="M61.3262 10.6134C61.7986 10.0357 62.1636 9.39373 62.3783 8.6876C62.5931 7.98146 62.7004 7.27533 62.7004 6.5692C62.7004 5.67048 62.5501 4.85735 62.2495 4.15122C61.9489 3.44509 61.5194 2.82454 60.9397 2.31099C60.3599 1.79744 59.6513 1.41228 58.7924 1.1341C57.9335 0.855927 56.9672 0.727539 55.8721 0.727539H50.5898V18.1027H54.0254V12.5606H56.323L59.9949 18.0813H63.9888L59.9304 11.7689C60.4887 11.4479 60.9397 11.0628 61.3262 10.6134ZM54.004 4.02283H56.4733C57.0746 4.02283 57.547 4.12982 57.912 4.3224C58.277 4.53638 58.5347 4.77176 58.7065 5.07133C58.8783 5.37091 58.9856 5.67048 59.0501 5.94865C59.1145 6.24823 59.1359 6.4836 59.1359 6.67619C59.1359 6.93296 59.093 7.18974 59.0071 7.48931C58.9212 7.78888 58.7709 8.06706 58.5777 8.32383C58.3844 8.60201 58.1053 8.81599 57.7617 8.98717C57.4181 9.15835 56.9887 9.24395 56.4518 9.24395H54.004V4.02283Z" fill="#0A0A0A"/>
<path d="M76.3786 14.5078C75.7129 14.8074 74.9184 14.9572 73.9951 14.9572C73.1791 14.9572 72.4705 14.8288 71.8263 14.5506C71.1822 14.2939 70.6453 13.9087 70.1729 13.3951C69.722 12.903 69.357 12.3038 69.1208 11.6191C68.8846 10.9344 68.7557 10.164 68.7557 9.32952C68.7557 8.5378 68.8846 7.81026 69.1637 7.14693C69.4214 6.48359 69.8079 5.88444 70.2588 5.39229C70.7312 4.87874 71.2681 4.49357 71.8693 4.2154C72.4705 3.93723 73.1147 3.80884 73.7804 3.80884C74.6393 3.80884 75.3908 3.98002 76.035 4.30099C76.7007 4.62196 77.216 4.94293 77.6025 5.2425L78.9553 2.0114C78.397 1.64764 77.6455 1.30527 76.7436 1.0057C75.8417 0.684729 74.8111 0.534943 73.6301 0.534943C72.3632 0.534943 71.2036 0.748923 70.1729 1.19828C69.1208 1.64764 68.2404 2.26818 67.4888 3.05991C66.7373 3.87303 66.1575 4.81454 65.7496 5.90584C65.3416 6.99714 65.1483 8.21683 65.1483 9.5435C65.1483 10.7204 65.3416 11.8331 65.7496 12.8816C66.1361 13.9301 66.7158 14.8502 67.4674 15.6419C68.2189 16.4551 69.1422 17.0756 70.2159 17.5464C71.2895 18.0171 72.5349 18.2525 73.9092 18.2953C74.8111 18.3167 75.627 18.2097 76.3786 18.0171C77.1301 17.8031 77.7528 17.5678 78.2682 17.311C78.7835 17.0542 79.1271 16.8402 79.3203 16.669L77.9031 13.6091C77.5381 13.9087 77.0442 14.2083 76.3786 14.5078Z" fill="#0A0A0A"/>
<path d="M86.1701 11.02H93.6641V7.72469H86.1701V4.02284H94.6304V0.706146H82.756V18.0813H94.9739V14.786H86.1701V11.02Z" fill="#0A0A0A"/>
<path d="M101.953 0.706146H98.5169V18.0813H110.155V14.786H101.953V0.706146Z" fill="#0A0A0A"/>
<path d="M122.566 12.4964L113.72 0H113.698V18.0813H117.026V10.3138L122.502 17.8459H122.545L128.235 9.80028V18.0813H131.649V0H131.606L122.566 12.4964Z" fill="#0D0C0C"/>
<path d="M142.064 0.0213928L134.205 18.0813H137.597L139.015 14.679H144.791L146.144 18.0813H150.116L142.257 0.0213928H142.064ZM140.196 11.8117L141.956 7.57489L143.631 11.8117H140.196Z" fill="#0A0A0A"/>
<path d="M159.585 12.3039H162.592V14.4009C162.312 14.5506 161.969 14.679 161.539 14.7432C161.131 14.8074 160.68 14.8502 160.187 14.8502C159.328 14.8502 158.555 14.7218 157.846 14.4864C157.137 14.2511 156.536 13.9087 156.021 13.4379C155.506 12.9886 155.119 12.4322 154.818 11.7689C154.539 11.1056 154.389 10.378 154.389 9.56491C154.389 8.64479 154.518 7.83167 154.775 7.12554C155.033 6.4194 155.398 5.84166 155.892 5.3709C156.386 4.90014 157.009 4.53638 157.717 4.301C158.447 4.06562 159.285 3.93723 160.23 3.93723C160.616 3.93723 161.045 3.98003 161.539 4.08702C162.033 4.19401 162.506 4.3224 162.978 4.47218C163.45 4.62197 163.837 4.79315 164.116 4.94294L165.233 1.75464C164.588 1.39087 163.794 1.0913 162.871 0.855923C161.947 0.620545 160.917 0.492157 159.8 0.492157C158.619 0.492157 157.481 0.684739 156.407 1.0485C155.334 1.43367 154.367 2.01141 153.552 2.78174C152.714 3.55207 152.07 4.53638 151.576 5.71327C151.104 6.89016 150.846 8.25963 150.846 9.86448C150.846 11.0842 151.061 12.1969 151.49 13.224C151.92 14.2511 152.542 15.1284 153.337 15.8773C154.153 16.6262 155.119 17.204 156.257 17.632C157.395 18.0385 158.683 18.2525 160.101 18.2525C160.637 18.2525 161.196 18.1883 161.797 18.0813C162.398 17.9529 162.978 17.8031 163.558 17.6106C164.138 17.418 164.653 17.204 165.082 16.99C165.533 16.7546 165.855 16.5407 166.049 16.3267V8.98716H159.564V12.3039H159.585Z" fill="#0A0A0A"/>
<path d="M173.414 0.706146H169.978V18.0813H173.414V0.706146Z" fill="#0A0A0A"/>
<path d="M189.583 13.5663C189.239 13.8873 188.724 14.2083 188.058 14.5078C187.393 14.8074 186.598 14.9572 185.675 14.9572C184.859 14.9572 184.15 14.8288 183.506 14.5506C182.862 14.2939 182.325 13.9087 181.853 13.3951C181.402 12.903 181.037 12.3038 180.8 11.6191C180.564 10.9344 180.435 10.164 180.435 9.32952C180.435 8.5378 180.564 7.81026 180.843 7.14693C181.101 6.48359 181.488 5.88444 181.939 5.39229C182.411 4.87874 182.948 4.49357 183.549 4.2154C184.15 3.93723 184.794 3.80884 185.46 3.80884C186.319 3.80884 187.071 3.98002 187.715 4.30099C188.38 4.62196 188.896 4.94293 189.282 5.2425L190.635 2.0114C190.077 1.64764 189.325 1.30527 188.423 1.0057C187.521 0.684729 186.491 0.534943 185.31 0.534943C184.043 0.534943 182.883 0.748923 181.853 1.19828C180.8 1.64764 179.92 2.26818 179.169 3.05991C178.417 3.87303 177.837 4.81454 177.429 5.90584C177.021 6.99714 176.828 8.21683 176.828 9.5435C176.828 10.7204 177.021 11.8331 177.429 12.8816C177.816 13.9301 178.396 14.8502 179.147 15.6419C179.899 16.4551 180.822 17.0756 181.896 17.5464C182.969 18.0171 184.215 18.2525 185.589 18.2953C186.491 18.3167 187.307 18.2097 188.058 18.0171C188.81 17.8031 189.433 17.5678 189.948 17.311C190.463 17.0542 190.807 16.8402 191 16.669L189.583 13.5663Z" fill="#0A0A0A"/>
<path d="M72.613 28.9378C72.5154 29.0108 72.3933 29.0838 72.1979 29.1568C72.027 29.2542 71.8072 29.3272 71.563 29.3758C71.3188 29.4488 71.0501 29.4732 70.7571 29.4489C70.2687 29.4489 69.8536 29.3515 69.4628 29.2055C69.0721 29.0352 68.7546 28.8161 68.486 28.5241C68.2174 28.2321 68.022 27.9157 67.8755 27.5507C67.729 27.1857 67.6557 26.7963 67.6557 26.3583C67.6557 25.8959 67.729 25.4579 67.8755 25.0928C68.022 24.7035 68.2418 24.3628 68.5104 24.0708C68.7791 23.7787 69.1209 23.5597 69.4872 23.3894C69.8536 23.219 70.2687 23.146 70.7083 23.146C71.099 23.146 71.4409 23.1947 71.7339 23.292C72.0514 23.3894 72.2956 23.5111 72.5154 23.6571L72.1491 24.5088C71.9781 24.3871 71.7828 24.2898 71.5386 24.1924C71.2944 24.0951 71.0257 24.0464 70.7327 24.0464C70.4396 24.0464 70.171 24.0951 69.9024 24.2168C69.6338 24.3385 69.414 24.4845 69.2186 24.7035C69.0233 24.8982 68.8767 25.1415 68.7546 25.4335C68.6325 25.7012 68.5837 26.0176 68.5837 26.3339C68.5837 26.6503 68.6325 26.9667 68.7302 27.2343C68.8279 27.502 68.9744 27.7454 69.1698 27.9644C69.3652 28.1834 69.5849 28.3294 69.8536 28.4511C70.1222 28.5728 70.4152 28.6215 70.7571 28.6215C71.0746 28.6215 71.3432 28.5728 71.5874 28.4754C71.8316 28.3781 72.027 28.2808 72.1735 28.1347L72.613 28.9378Z" fill="#0A0A0A"/>
<path d="M74.2736 26.3339C74.2736 25.9202 74.3469 25.5065 74.5178 25.1172C74.6888 24.7278 74.9085 24.4114 75.2016 24.1194C75.4946 23.8274 75.8365 23.584 76.2028 23.438C76.5935 23.2677 76.9843 23.1947 77.4238 23.1947C77.8634 23.1947 78.2541 23.2677 78.6448 23.438C79.0355 23.6084 79.353 23.8274 79.6461 24.1194C79.9391 24.4114 80.1589 24.7521 80.3298 25.1172C80.5008 25.5065 80.574 25.8959 80.574 26.3339C80.574 26.7719 80.5008 27.1856 80.3298 27.5507C80.1589 27.9157 79.9391 28.2564 79.6461 28.5484C79.353 28.8404 79.0111 29.0595 78.6448 29.2298C78.2541 29.4001 77.8634 29.4732 77.4238 29.4732C76.9843 29.4732 76.5691 29.4001 76.2028 29.2298C75.8121 29.0595 75.4946 28.8404 75.2016 28.5727C74.9085 28.2807 74.6888 27.9644 74.5178 27.575C74.3469 27.1856 74.2736 26.7719 74.2736 26.3339ZM75.2016 26.3339C75.2016 26.6503 75.2504 26.9423 75.3725 27.21C75.4946 27.4777 75.6411 27.721 75.8609 27.94C76.0563 28.1347 76.3005 28.3051 76.5691 28.4267C76.8377 28.5484 77.1308 28.5971 77.4482 28.5971C77.7657 28.5971 78.0343 28.5484 78.3029 28.4267C78.5716 28.3051 78.8158 28.1591 79.0111 27.94C79.2065 27.7454 79.3774 27.502 79.4751 27.21C79.5972 26.9423 79.6461 26.6503 79.6461 26.3339C79.6461 26.0176 79.5972 25.7255 79.4751 25.4578C79.353 25.1902 79.2065 24.9468 78.9867 24.7278C78.7914 24.5088 78.5471 24.3628 78.2785 24.2411C78.0099 24.1194 77.7169 24.0707 77.4238 24.0707C77.1064 24.0707 76.8133 24.1194 76.5447 24.2411C76.2761 24.3628 76.0319 24.5331 75.8365 24.7278C75.6411 24.9468 75.4702 25.1902 75.3725 25.4578C75.2504 25.7255 75.2016 26.0176 75.2016 26.3339Z" fill="#0A0A0A"/>
<path d="M87.9978 29.6192L83.2358 24.8981L83.5044 24.9711L83.5289 29.3758H82.6009V23.0243H82.6497L87.3384 27.7454L87.1186 27.6967L87.0942 23.2433H87.9978V29.6192Z" fill="#0A0A0A"/>
<path d="M95.861 29.6192L91.0991 24.8981L91.3677 24.9711L91.3922 29.3758H90.4642V23.0243H90.513L95.2017 27.7454L94.9819 27.6967L94.9575 23.2433H95.861V29.6192Z" fill="#0A0A0A"/>
<path d="M98.3031 23.2434H102.357V24.1194H99.2066V25.8716H102.015V26.7476H99.2066V28.5241H102.479V29.4002H98.3031V23.2434Z" fill="#0A0A0A"/>
<path d="M109.121 28.9378C109.024 29.0108 108.901 29.0838 108.706 29.1568C108.535 29.2542 108.315 29.3272 108.071 29.3758C107.827 29.4488 107.558 29.4732 107.265 29.4489C106.777 29.4489 106.362 29.3515 105.971 29.2055C105.58 29.0352 105.263 28.8161 104.994 28.5241C104.726 28.2321 104.53 27.9157 104.384 27.5507C104.237 27.1857 104.164 26.7963 104.164 26.3583C104.164 25.8959 104.237 25.4579 104.384 25.0928C104.53 24.7035 104.75 24.3628 105.019 24.0708C105.287 23.7787 105.629 23.5597 105.995 23.3894C106.362 23.219 106.777 23.146 107.216 23.146C107.607 23.146 107.949 23.1947 108.242 23.292C108.56 23.3894 108.804 23.5111 109.024 23.6571L108.657 24.5088C108.486 24.3871 108.291 24.2898 108.047 24.1924C107.803 24.0951 107.534 24.0464 107.241 24.0464C106.948 24.0464 106.679 24.0951 106.411 24.2168C106.142 24.3385 105.922 24.4845 105.727 24.7035C105.531 24.8982 105.385 25.1415 105.263 25.4335C105.141 25.7012 105.092 26.0176 105.092 26.3339C105.092 26.6503 105.141 26.9667 105.238 27.2343C105.336 27.502 105.483 27.7454 105.678 27.9644C105.873 28.1834 106.093 28.3294 106.362 28.4511C106.63 28.5728 106.923 28.6215 107.265 28.6215C107.583 28.6215 107.851 28.5728 108.096 28.4754C108.34 28.3781 108.535 28.2808 108.682 28.1347L109.121 28.9378Z" fill="#0A0A0A"/>
<path d="M110.709 23.2434H114.836V24.1194H113.199V29.4002H112.296V24.1194H110.709V23.2434Z" fill="#0A0A0A"/>
<path d="M116.789 23.2434H117.693V29.4002H116.789V23.2434Z" fill="#0A0A0A"/>
<path d="M125.507 29.6192L120.745 24.8981L121.014 24.9711L121.038 29.3758H120.11V23.0243H120.159L124.848 27.7454L124.628 27.6967L124.604 23.2433H125.507V29.6192Z" fill="#0A0A0A"/>
<path d="M132.858 28.8648C132.784 28.9378 132.662 29.0108 132.491 29.0838C132.345 29.1568 132.174 29.2298 131.978 29.2785C131.783 29.3271 131.588 29.3758 131.392 29.4245C131.197 29.4732 131.002 29.4732 130.831 29.4732C130.342 29.4732 129.878 29.4001 129.488 29.2541C129.097 29.1081 128.755 28.8891 128.462 28.6214C128.169 28.3537 127.949 28.0374 127.803 27.6723C127.656 27.3073 127.583 26.918 127.583 26.4799C127.583 25.9445 127.656 25.4822 127.827 25.0685C127.998 24.6548 128.218 24.3141 128.511 24.0464C128.804 23.7544 129.146 23.5597 129.512 23.4137C129.903 23.2677 130.293 23.1947 130.709 23.1947C131.075 23.1947 131.417 23.2433 131.734 23.3163C132.052 23.3894 132.32 23.511 132.54 23.657L132.247 24.4844C132.125 24.4114 132.003 24.3628 131.832 24.2898C131.661 24.2411 131.49 24.1924 131.319 24.1437C131.148 24.1194 130.977 24.0951 130.831 24.0951C130.464 24.0951 130.147 24.1437 129.854 24.2411C129.561 24.3384 129.317 24.5088 129.121 24.7035C128.926 24.8981 128.755 25.1415 128.657 25.4335C128.535 25.7255 128.486 26.0419 128.486 26.3826C128.486 26.6989 128.535 26.991 128.657 27.2586C128.779 27.5263 128.926 27.7697 129.146 27.9644C129.341 28.159 129.585 28.3051 129.878 28.4024C130.171 28.4997 130.489 28.5484 130.831 28.5484C131.026 28.5484 131.221 28.5241 131.417 28.4997C131.612 28.4511 131.783 28.4024 131.905 28.3294V27.21H130.709V26.3339H132.809V28.8648H132.858Z" fill="#0A0A0A"/>
<path d="M143.407 23.2434V29.4002H142.504V26.7476H139.378V29.4002H138.474V23.2434H139.378V25.8716H142.504V23.2434H143.407Z" fill="#0A0A0A"/>
<path d="M145.19 29.4002L147.925 23H147.974L150.684 29.4002H149.634L147.656 24.4114L148.316 23.9734L146.093 29.4002H145.19ZM146.85 27.1126H149.048L149.366 27.8914H146.582L146.85 27.1126Z" fill="#0A0A0A"/>
<path d="M154.176 23.2434C154.64 23.2434 155.031 23.3164 155.349 23.4867C155.666 23.6327 155.935 23.8761 156.106 24.1438C156.277 24.4358 156.374 24.7765 156.374 25.1902C156.374 25.4335 156.325 25.6769 156.252 25.9202C156.179 26.1636 156.057 26.3826 155.91 26.5773C155.739 26.772 155.544 26.918 155.275 27.0397C155.007 27.1613 154.689 27.21 154.299 27.21H153.395V29.4002H152.491V23.2434H154.176ZM154.274 26.3339C154.494 26.3339 154.689 26.2853 154.836 26.2123C154.982 26.1393 155.104 26.0419 155.202 25.9202C155.3 25.7986 155.349 25.6769 155.397 25.5552C155.446 25.4335 155.446 25.3119 155.446 25.2145C155.446 25.0929 155.422 24.9712 155.397 24.8495C155.373 24.7278 155.3 24.6061 155.227 24.4845C155.153 24.3628 155.031 24.2898 154.885 24.2168C154.738 24.1438 154.543 24.1194 154.323 24.1194H153.395V26.3339H154.274Z" fill="#0A0A0A"/>
<path d="M159.988 23.2434C160.452 23.2434 160.843 23.3164 161.161 23.4867C161.478 23.6327 161.747 23.8761 161.918 24.1438C162.089 24.4358 162.186 24.7765 162.186 25.1902C162.186 25.4335 162.137 25.6769 162.064 25.9202C161.991 26.1636 161.869 26.3826 161.722 26.5773C161.551 26.772 161.356 26.918 161.087 27.0397C160.819 27.1613 160.501 27.21 160.111 27.21H159.207V29.4002H158.303V23.2434H159.988ZM160.111 26.3339C160.33 26.3339 160.526 26.2853 160.672 26.2123C160.819 26.1393 160.941 26.0419 161.039 25.9202C161.136 25.7986 161.185 25.6769 161.234 25.5552C161.283 25.4335 161.283 25.3119 161.283 25.2145C161.283 25.0929 161.258 24.9712 161.234 24.8495C161.209 24.7278 161.136 24.6061 161.063 24.4845C160.99 24.3628 160.868 24.2898 160.721 24.2168C160.575 24.1438 160.379 24.1194 160.159 24.1194H159.231V26.3339H160.111Z" fill="#0A0A0A"/>
<path d="M164.091 23.2434H164.995V29.4002H164.091V23.2434Z" fill="#0A0A0A"/>
<path d="M172.834 29.6192L168.072 24.8981L168.34 24.9711L168.365 29.3758H167.437V23.0243H167.485L172.174 27.7454L171.954 27.6967L171.93 23.2433H172.834V29.6192Z" fill="#0A0A0A"/>
<path d="M175.276 23.2434H179.329V24.1194H176.179V25.8716H178.987V26.7476H176.179V28.5241H179.451V29.4002H175.276V23.2434Z" fill="#0A0A0A"/>
<path d="M184.751 24.4358C184.531 24.3141 184.311 24.2168 184.042 24.1438C183.798 24.0708 183.554 24.0221 183.31 24.0221C182.992 24.0221 182.748 24.0951 182.553 24.2411C182.357 24.3871 182.284 24.5818 182.284 24.8252C182.284 24.9955 182.357 25.1415 182.479 25.2875C182.602 25.4092 182.773 25.5309 182.968 25.6282C183.163 25.7256 183.383 25.8229 183.603 25.8959C183.798 25.9689 183.969 26.0419 184.165 26.1393C184.36 26.2366 184.506 26.3583 184.677 26.48C184.824 26.626 184.946 26.772 185.044 26.991C185.141 27.1857 185.166 27.429 185.166 27.7211C185.166 28.0374 185.092 28.3538 184.922 28.6215C184.751 28.8891 184.531 29.1082 184.213 29.2542C183.92 29.4002 183.554 29.4975 183.114 29.4975C182.846 29.4975 182.602 29.4732 182.357 29.4002C182.113 29.3515 181.869 29.2542 181.649 29.1568C181.429 29.0595 181.234 28.9378 181.063 28.8405L181.478 28.1348C181.625 28.2321 181.771 28.3294 181.942 28.4024C182.113 28.4998 182.309 28.5485 182.479 28.6215C182.675 28.6701 182.846 28.6945 183.017 28.6945C183.212 28.6945 183.383 28.6701 183.578 28.5971C183.749 28.5241 183.92 28.4268 184.018 28.2808C184.14 28.1348 184.189 27.9644 184.189 27.7454C184.189 27.5507 184.14 27.3804 184.042 27.2587C183.945 27.137 183.798 27.0153 183.627 26.918C183.456 26.8207 183.261 26.7476 183.066 26.6746C182.87 26.6016 182.675 26.5286 182.479 26.4313C182.284 26.3339 182.089 26.2366 181.918 26.1149C181.747 25.9933 181.6 25.8229 181.503 25.6282C181.405 25.4335 181.356 25.2145 181.356 24.9225C181.356 24.6061 181.429 24.3141 181.6 24.0708C181.747 23.8274 181.967 23.6327 182.26 23.4867C182.528 23.3407 182.87 23.2677 183.212 23.2434C183.627 23.2434 183.994 23.292 184.287 23.3894C184.604 23.4867 184.873 23.6084 185.092 23.7544L184.751 24.4358Z" fill="#0A0A0A"/>
<path d="M190.392 24.4358C190.172 24.3141 189.952 24.2168 189.683 24.1438C189.439 24.0708 189.195 24.0221 188.951 24.0221C188.633 24.0221 188.389 24.0951 188.194 24.2411C187.998 24.3871 187.925 24.5818 187.925 24.8252C187.925 24.9955 187.998 25.1415 188.12 25.2875C188.243 25.4092 188.413 25.5309 188.609 25.6282C188.804 25.7256 189.024 25.8229 189.244 25.8959C189.439 25.9689 189.61 26.0419 189.805 26.1393C190.001 26.2366 190.147 26.3583 190.318 26.48C190.465 26.626 190.587 26.772 190.685 26.991C190.782 27.1857 190.807 27.429 190.807 27.7211C190.807 28.0374 190.733 28.3538 190.562 28.6215C190.392 28.8891 190.172 29.1082 189.854 29.2542C189.561 29.4002 189.195 29.4975 188.755 29.4975C188.487 29.4975 188.243 29.4732 187.998 29.4002C187.754 29.3515 187.51 29.2542 187.29 29.1568C187.07 29.0595 186.875 28.9378 186.704 28.8405L187.119 28.1348C187.266 28.2321 187.412 28.3294 187.583 28.4024C187.754 28.4998 187.95 28.5485 188.12 28.6215C188.316 28.6701 188.487 28.6945 188.658 28.6945C188.853 28.6945 189.024 28.6701 189.219 28.5971C189.39 28.5241 189.561 28.4268 189.659 28.2808C189.781 28.1348 189.83 27.9644 189.83 27.7454C189.83 27.5507 189.781 27.3804 189.683 27.2587C189.586 27.137 189.439 27.0153 189.268 26.918C189.097 26.8207 188.902 26.7476 188.707 26.6746C188.511 26.6016 188.316 26.5286 188.12 26.4313C187.925 26.3339 187.73 26.2366 187.559 26.1149C187.388 25.9933 187.241 25.8229 187.144 25.6282C187.046 25.4335 186.997 25.2145 186.997 24.9225C186.997 24.6061 187.07 24.3141 187.241 24.0708C187.388 23.8274 187.608 23.6327 187.901 23.4867C188.169 23.3407 188.511 23.2677 188.853 23.2434C189.268 23.2434 189.635 23.292 189.928 23.3894C190.245 23.4867 190.514 23.6084 190.733 23.7544L190.392 24.4358Z" fill="#0A0A0A"/>
</svg>
