<svg width="75" height="43" viewBox="0 0 75 43" fill="none" xmlns="http://www.w3.org/2000/svg">
<path d="M37.7069 20.4598V39.3543C37.7069 39.5862 37.6147 39.8085 37.4507 39.9728C37.2867 40.1367 37.0642 40.2287 36.8323 40.2287H3.3947C3.16278 40.2287 2.94025 40.1367 2.77628 39.9728C2.6123 39.8085 2.52006 39.5862 2.52006 39.3543V20.4598C1.65216 19.9152 0.949116 19.1442 0.486759 18.2297C-0.121712 17.0043 -0.161526 15.5736 0.377544 14.316L6.11876 0.542001C6.25169 0.218442 6.56471 0.00526972 6.91461 0H33.3082C33.6581 0.00527062 33.9711 0.218442 34.104 0.542001L39.8496 14.316C40.3887 15.5736 40.3488 17.0043 39.7404 18.2297C39.278 19.1442 38.575 19.9151 37.7071 20.4598H37.7069ZM20.9855 38.4795H28.0298V24.9245H20.9855V38.4795ZM12.1874 38.4795H19.236V24.9245H12.1959L12.1874 38.4795ZM4.26859 38.4795H10.4341V24.0497C10.4341 23.8178 10.526 23.5952 10.69 23.4312C10.854 23.2673 11.0765 23.175 11.3084 23.175H28.9084C29.3912 23.175 29.783 23.5668 29.783 24.0497V38.4795H35.9485V21.1944C34.7898 21.467 33.575 21.3739 32.4716 20.9274C31.3683 20.4811 30.4305 19.7034 29.7871 18.7019C28.7309 20.3511 26.9073 21.3487 24.949 21.3487C22.9903 21.3487 21.1667 20.3511 20.1105 18.7019C19.0543 20.3511 17.2307 21.3487 15.272 21.3487C13.3137 21.3487 11.4901 20.3511 10.4339 18.7019C9.79055 19.7033 8.85265 20.4811 7.74938 20.9274C6.64604 21.3739 5.43115 21.467 4.27249 21.1944L4.26859 38.4795ZM38.2227 14.9847L32.7218 1.74894H7.4999L1.99908 14.9847C1.6562 15.7706 1.67553 16.6672 2.0515 17.4379C2.59232 18.4985 3.58054 19.2601 4.74393 19.5125C5.90731 19.7649 7.12242 19.4815 8.05418 18.7407C8.98564 17.9996 9.53524 16.8792 9.55076 15.6887C9.55076 15.2058 9.94226 14.8143 10.4254 14.8143C10.9082 14.8143 11.2997 15.2058 11.2997 15.6887C11.3457 17.0722 12.1102 18.331 13.3166 19.0098C14.5227 19.6885 15.9959 19.6885 17.202 19.0098C18.4084 18.331 19.1729 17.0722 19.2189 15.6887C19.2189 15.2058 19.6104 14.8143 20.0932 14.8143C20.5763 14.8143 20.9678 15.2058 20.9678 15.6887C21.0138 17.0722 21.7783 18.331 22.9844 19.0098C24.1908 19.6885 25.6637 19.6885 26.8701 19.0098C28.0762 18.331 28.8407 17.0722 28.8867 15.6887C28.8867 15.2058 29.2781 14.8143 29.7613 14.8143C30.2441 14.8143 30.6359 15.2058 30.6359 15.6887C30.6514 16.8792 31.2008 17.9995 32.1325 18.7407C33.064 19.4815 34.2795 19.7649 35.4425 19.5125C36.6058 19.2601 37.5944 18.4985 38.1349 17.4379C38.5223 16.6725 38.5542 15.7756 38.2224 14.9847H38.2227Z" fill="#333333"/>
<path d="M43.2032 29.5722C42.5491 29.5722 41.923 29.5722 41.2969 29.5722C41.2035 29.5722 41.11 29.5722 41.0166 29.5722C40.6615 29.554 40.4279 29.3257 40.4373 29.0152C40.4466 28.7139 40.6709 28.4947 41.0073 28.4856C41.2876 28.4765 41.5679 28.4856 41.8482 28.4856C42.2968 28.4856 42.7546 28.4856 43.2219 28.4856C43.2219 28.1204 43.2219 27.7825 43.2219 27.4172C43.1378 27.4081 43.0537 27.399 42.9602 27.399C42.6799 27.399 42.3996 27.4081 42.1192 27.3899C41.7828 27.3716 41.5586 27.1524 41.5586 26.8511C41.5586 26.5498 41.7828 26.3306 42.1099 26.3032C42.1753 26.2941 42.2501 26.3032 42.3155 26.3032C43.1097 26.3032 43.904 26.3032 44.6889 26.3032C44.773 26.3032 44.8571 26.3032 44.9319 26.3032C45.2402 26.3306 45.4552 26.5589 45.4552 26.842C45.4552 27.1251 45.2496 27.3625 44.9412 27.3899C44.7543 27.4081 44.5675 27.3899 44.3619 27.3899C44.3619 27.7551 44.3619 28.1021 44.3619 28.4856C44.6329 28.4856 44.8945 28.4856 45.1561 28.4856C45.2589 28.4856 45.3711 28.4765 45.4739 28.4856C45.8009 28.513 46.0252 28.7413 46.0158 29.0426C46.0065 29.3257 45.7916 29.554 45.4832 29.5722C45.2402 29.5905 44.9973 29.5722 44.745 29.5813C44.6142 29.5813 44.4927 29.5813 44.3525 29.5813C44.474 29.9649 44.6422 30.111 44.9973 30.1292C45.2216 30.1383 45.4365 30.1292 45.6607 30.1292C47.3427 30.1292 49.0154 30.1292 50.6973 30.1292C50.8001 30.1292 50.9123 30.1384 51.0151 30.1201C51.3421 30.0836 51.5664 29.8553 51.6131 29.5448C51.6224 29.4809 51.6224 29.4079 51.6224 29.3439C51.6224 28.0473 51.6224 26.7507 51.6224 25.4449C51.6224 25.244 51.6131 25.0431 51.4636 24.9062C51.3514 24.8057 51.1926 24.6961 51.0524 24.6779C50.6973 24.6414 50.3329 24.6688 49.9498 24.6688C49.9498 25.0888 49.9498 25.4814 49.9498 25.8832C49.9498 26.011 49.9498 26.1297 49.9498 26.2576C49.9311 26.6411 49.7349 26.842 49.3331 26.8511C48.6883 26.8602 48.0529 26.8511 47.4081 26.8511C47.1558 26.8511 46.8942 26.8602 46.6419 26.8511C46.2494 26.842 46.0439 26.6411 46.0345 26.2576C46.0252 25.7462 46.0345 25.2349 46.0345 24.6779C45.6327 24.6688 45.2402 24.6231 44.8571 24.7053C44.7076 24.7327 44.5581 24.8788 44.446 24.9975C44.2778 25.171 44.0909 25.2623 43.8573 25.1984C43.4742 25.1071 43.3247 24.687 43.5489 24.3492C43.876 23.8743 44.3432 23.6187 44.9225 23.5821C45.1188 23.5639 45.315 23.573 45.5206 23.573C47.2026 23.573 48.8752 23.5821 50.5572 23.5639C51.1646 23.5547 51.7439 23.6095 52.2298 24.0752C52.3046 23.8926 52.3606 23.7465 52.4167 23.6004C52.8185 22.596 53.3418 21.6646 54.1641 20.9158C54.6593 20.4684 55.22 20.1397 55.8648 19.9388C55.9115 19.9297 55.9489 19.9114 55.9956 19.8931C56.0143 19.884 56.033 19.8657 56.0423 19.8566C55.7994 19.5918 55.5377 19.3453 55.3228 19.0622C53.2857 16.3685 54.9584 12.6703 58.2195 12.1407C60.565 11.7572 62.9665 13.3369 63.3309 15.8023C63.3496 15.9393 63.3683 16.0763 63.387 16.2041C63.4243 16.5968 63.3403 16.9164 62.8917 17.0168C62.873 17.4916 62.9758 17.9391 63.2748 18.286C63.714 18.8065 63.5925 19.4092 63.116 19.8383C62.9104 20.021 62.7889 20.2127 62.6955 20.4684C62.4619 21.1167 61.9853 21.5185 61.2751 21.6463C61.2191 21.6555 61.163 21.6646 61.0696 21.6828C61.1724 21.8289 61.2471 21.9477 61.3406 22.0664C61.6115 22.4042 61.8825 22.7512 62.1816 23.0708C62.4993 23.4178 62.9291 23.573 63.4057 23.5639C63.6766 23.5547 63.9383 23.5365 64.1999 23.5091C64.9942 23.4269 65.7044 23.5821 66.2557 24.1939C66.2837 24.2305 66.3211 24.2487 66.3772 24.2944C66.6014 23.7465 66.9285 23.2991 67.405 22.9795C67.8536 22.669 68.3582 22.4955 68.9001 22.4773C69.33 22.459 69.5542 22.669 69.5636 23.0891C69.5729 24.5044 69.5729 25.9106 69.5636 27.3259C69.5636 27.7368 69.3206 27.956 68.9001 27.9286C68.7413 27.9195 68.5731 27.8921 68.4142 27.8647C68.2741 27.8373 68.1339 27.7916 67.9283 27.7368C68.6105 29.28 69.2646 30.7867 69.928 32.3024C71.4138 32.3024 72.6753 32.8138 73.619 33.9735C74.3385 34.8592 74.6656 35.8728 74.5815 36.9959C74.4226 39.16 72.7126 40.8858 70.442 41.0501C68.2647 41.2145 66.0875 39.7809 65.6763 37.2881C65.4334 37.2242 57.8271 37.1968 57.2104 37.2607C56.9954 38.5208 56.3694 39.5526 55.2667 40.2831C54.4818 40.8036 53.6128 41.041 52.6597 41.0319C50.8562 41.0136 48.7818 39.7992 48.3145 37.2607C48.2304 37.2516 48.1463 37.2424 48.0529 37.2424C47.595 37.2424 47.1465 37.2424 46.6886 37.2424C46.2588 37.2333 46.0439 37.0324 46.0532 36.6032C46.0625 35.0053 46.427 33.4895 47.1745 32.0742C47.324 31.782 47.5483 31.5354 47.7539 31.2432C47.6604 31.2341 47.5576 31.225 47.4642 31.225C46.7073 31.225 45.9504 31.1976 45.1935 31.2341C44.2684 31.2706 43.4181 30.6862 43.2592 29.7183C43.2312 29.6727 43.2219 29.6361 43.2032 29.5722ZM67.919 36.0645C67.9377 36.0462 67.947 36.028 67.9283 36.0462C67.9377 36.0189 67.9377 36.0462 67.919 36.0645C67.9096 36.0736 67.8909 36.0736 67.8723 36.0828C67.8816 36.0919 67.8909 36.101 67.8909 36.1193C67.9096 36.101 67.9096 36.0828 67.919 36.0645ZM68.7693 34.9048C69.0964 34.704 69.4421 34.5487 69.8346 34.5031C70.9839 34.3661 72.0305 35.1057 72.2828 36.2289C72.5257 37.2972 71.8903 38.3838 70.8064 38.74C69.7224 39.0961 68.5357 38.5939 68.0591 37.5712C68.0031 37.4616 67.9564 37.3429 67.9096 37.215C67.5826 37.215 67.2742 37.215 66.9565 37.215C66.9098 37.215 66.8631 37.2242 66.807 37.2333C66.8163 37.2972 66.807 37.352 66.8257 37.4068C67.1901 38.9682 68.6852 40.0457 70.3392 39.9361C71.9651 39.8357 73.3107 38.5208 73.4415 36.9228C73.591 34.9962 72.0211 33.3617 70.0401 33.3708C69.8719 33.3708 69.7598 33.4256 69.6664 33.5626C69.4047 33.9369 69.1244 34.3022 68.8628 34.6766C68.816 34.7679 68.8067 34.8409 68.7693 34.9048C68.7693 34.914 68.7693 34.9048 68.7693 34.9048ZM57.743 36.1284C57.2664 35.2701 57.2197 35.0875 57.2197 34.083C57.2197 33.6721 57.2104 33.2612 57.2197 32.8503C57.2571 31.9189 56.4722 31.1976 55.5564 31.2067C53.8557 31.225 52.1551 31.2067 50.4544 31.2158C49.3891 31.225 48.6136 31.7089 48.1183 32.6312C47.6791 33.4621 47.3894 34.357 47.2399 35.2792C47.1932 35.5532 47.1839 35.8362 47.1465 36.1284C50.6973 36.1284 54.2015 36.1284 57.743 36.1284ZM62.5553 24.5409C62.0788 24.3948 61.677 24.1665 61.3499 23.8378C61.0696 23.5547 60.8173 23.2352 60.565 22.9247C60.2846 22.5777 60.023 22.2125 59.7333 21.8746C59.4156 21.5002 59.0232 21.208 58.5466 21.0528C57.1636 20.6145 55.9021 20.7971 54.8275 21.8198C54.2202 22.3951 53.8277 23.0982 53.51 23.8561C53.1269 24.7692 52.8933 25.7188 52.7531 26.6868C52.7157 26.915 52.7064 27.1524 52.7624 27.3807C54.3323 27.3807 55.8741 27.3807 57.4346 27.3807C57.6215 26.5954 58.0046 25.9106 58.5279 25.3079C58.4905 25.2532 58.4532 25.2166 58.4345 25.1801C58.2289 24.8879 58.0046 24.614 57.8177 24.3126C57.6495 24.0387 57.7523 23.7191 58.0233 23.573C58.2756 23.4269 58.5746 23.5 58.7615 23.7465C58.8269 23.8287 58.8737 23.92 58.9297 24.0113C59.6212 25.0614 60.5743 25.7645 61.7891 26.1206C61.8825 26.148 61.9853 26.1663 62.1068 26.1845C62.1442 25.591 62.2283 25.0431 62.5553 24.5409ZM68.8908 32.7864C68.0124 30.7775 67.1341 28.7869 66.265 26.8055C65.7885 26.9607 65.3586 27.1251 64.9101 27.2255C64.4616 27.3259 63.9944 27.3625 63.5365 27.4172C63.5458 27.4538 63.5458 27.4903 63.5552 27.5177C64.0411 29.5448 64.5176 31.572 65.0035 33.5991C65.1998 34.4026 65.0783 35.1605 64.6671 35.8728C64.6204 35.9458 64.583 36.0189 64.5363 36.1193C65.1998 36.1193 65.8258 36.1193 66.4613 36.1193C67.2555 35.0235 68.0591 33.9187 68.8908 32.7864ZM62.1909 15.9028C62.0227 14.5331 60.6584 13.063 58.7055 13.1726C56.9207 13.273 55.5097 14.7979 55.5471 16.5511C55.5751 18.076 56.9394 19.5918 58.341 19.6375C58.341 19.5279 58.341 19.4183 58.341 19.2996C58.341 18.8978 58.3317 18.5052 58.341 18.1034C58.3597 17.4825 58.5933 16.9529 59.0512 16.5237C59.4904 16.1128 60.023 15.9028 60.6304 15.8937C61.135 15.9028 61.6489 15.9028 62.1909 15.9028ZM52.6877 30.1201C52.7624 30.1201 52.8746 30.1201 52.9961 30.1201C53.8931 30.1201 54.7902 30.111 55.6872 30.1201C56.9487 30.1292 58.042 30.9967 58.2663 32.2111C58.3504 32.6403 58.3223 33.0969 58.341 33.5352C58.3504 33.663 58.3504 33.8 58.3504 33.9278C59.1259 33.9826 60.3314 33.9643 60.5743 33.8913C60.5743 32.9234 60.6024 31.9555 60.565 30.9876C60.5276 29.9009 59.9856 29.1157 58.9297 28.7048C58.5466 28.5587 58.1448 28.4765 57.7336 28.4765C56.1638 28.4765 54.5846 28.4765 53.0147 28.4765C52.9306 28.4765 52.8372 28.4947 52.7718 28.4947C52.7438 29.0517 52.7157 29.5722 52.6877 30.1201ZM59.3502 26.075C58.9951 26.4859 58.7335 26.9242 58.6027 27.4446C58.6868 27.472 58.7241 27.4994 58.7709 27.5086C60.4622 27.819 61.7611 29.3531 61.7143 31.1245C61.6863 31.992 61.705 32.8595 61.7143 33.7178C61.7143 33.8182 61.7237 33.9187 61.733 34.0191C62.6207 34.2657 63.1534 34.8318 63.3589 35.6993C63.5552 35.6079 63.658 35.4618 63.7514 35.2975C63.9944 34.8592 64.0317 34.3844 63.9196 33.9095C63.5271 32.2385 63.1347 30.5584 62.7422 28.8874C62.6207 28.376 62.4993 27.8738 62.3778 27.3533C61.2378 27.1798 60.2379 26.7689 59.3502 26.075ZM54.921 37.2424C54.4444 38.3108 53.7343 38.8587 52.7624 38.8404C51.6598 38.8221 50.9403 38.2377 50.5665 37.2242C50.3703 37.2242 50.1928 37.215 50.0059 37.2242C49.8283 37.2333 49.6414 37.1876 49.4639 37.2607C49.6414 38.603 50.9964 40.0548 52.9493 39.9544C54.4818 39.8722 55.9489 38.5756 56.0049 37.2424C55.6499 37.2424 55.2948 37.2424 54.921 37.2424ZM59.4623 20.2675C59.7146 20.3497 59.9296 20.4319 60.1351 20.4684C60.3874 20.5232 60.6397 20.5506 60.892 20.5688C61.2658 20.5871 61.4994 20.3862 61.6209 20.0575C61.6583 19.9479 61.677 19.8383 61.6863 19.7288C61.705 19.5188 61.7984 19.3635 61.9853 19.2539C62.1068 19.1809 62.2189 19.0805 62.3497 18.9891C61.9199 18.3773 61.7424 17.7199 61.677 17.0077C61.3125 17.0077 60.9761 16.9985 60.6397 17.0077C59.9576 17.0259 59.4717 17.5099 59.453 18.1856C59.4437 18.56 59.453 18.9344 59.453 19.3087C59.4623 19.6192 59.4623 19.9297 59.4623 20.2675ZM58.4812 35.0601C58.4999 35.1149 58.4999 35.1605 58.5186 35.197C58.8269 35.7814 59.3222 36.1102 59.9856 36.1284C60.6117 36.1467 61.2378 36.1284 61.8732 36.1284C61.9947 36.1284 62.1161 36.101 62.2376 36.0919C62.2376 35.471 61.8171 35.0509 61.2097 35.0418C60.3874 35.0327 59.5558 35.0418 58.7335 35.0418C58.6494 35.0418 58.5746 35.0509 58.4812 35.0601ZM65.7885 25.728C65.7137 25.5362 65.6576 25.3536 65.5829 25.1801C65.4521 24.8788 65.2091 24.6779 64.8914 24.6048C64.4149 24.5044 63.985 24.614 63.6486 24.9792C63.3122 25.3445 63.1814 25.7736 63.2842 26.2576C63.8635 26.3854 65.2278 26.0932 65.7885 25.728ZM68.3955 23.7008C67.7414 23.8835 67.2836 24.5318 67.2929 25.244C67.3023 25.9197 67.7788 26.5498 68.3955 26.705C68.3955 25.7006 68.3955 24.6961 68.3955 23.7008ZM69.1618 36.1376C69.3393 36.1376 69.4795 36.1376 69.6196 36.1376C69.7972 36.1376 69.9747 36.1284 70.1429 36.1467C70.4513 36.1741 70.6569 36.4206 70.6475 36.7037C70.6382 36.9776 70.4326 37.1968 70.1429 37.2242C69.9467 37.2424 69.7505 37.2333 69.5449 37.2333C69.4234 37.2333 69.3019 37.2424 69.1618 37.2516C69.4608 37.699 69.9187 37.8725 70.3859 37.7355C70.8718 37.5986 71.1988 37.1876 71.2082 36.7037C71.2175 36.2106 70.9092 35.7997 70.4233 35.6445C69.9467 35.4892 69.4888 35.6536 69.1618 36.1376ZM47.1745 24.6688C47.1745 25.034 47.1745 25.381 47.1745 25.7462C47.4642 25.7462 47.7258 25.7554 47.9968 25.7462C48.2678 25.7371 48.5481 25.7828 48.8098 25.7188C48.8098 25.3627 48.8098 25.0249 48.8098 24.6688C48.2585 24.6688 47.7352 24.6688 47.1745 24.6688ZM51.7906 37.2424C52.071 37.6168 52.398 37.7903 52.8092 37.7629C53.1643 37.7446 53.4726 37.5894 53.6875 37.2424C53.0428 37.2424 52.4541 37.2424 51.7906 37.2424Z" fill="#333333"/>
<path d="M37.8842 41.4734C36.7258 40.5147 79.1369 40.5147 77.9766 41.4734C79.135 42.4261 36.7239 42.4261 37.8842 41.4734Z" fill="#939598" fill-opacity="0.32"/>
</svg>
