<svg width="103" height="19" viewBox="0 0 103 19" fill="none" xmlns="http://www.w3.org/2000/svg">
<path d="M15.29 6.97347V18.6437H19.757V0.994629H13.5762L9.98008 10.739L6.35587 0.994629H0.175049V18.6437H4.614V6.97347L8.99676 18.6437H10.9634L15.29 6.97347Z" fill="#8C8CA2"/>
<path fill-rule="evenodd" clip-rule="evenodd" d="M28.5787 17.3791V18.6726H32.5962V10.6816C32.5962 6.71489 29.7868 5.56511 26.7807 5.56511C24.8702 5.56511 22.7069 6.14 21.1055 7.54848L22.5665 10.3654C23.5779 9.47435 24.814 8.98571 26.0502 8.98571C27.6516 8.98571 28.5787 9.73305 28.5787 10.8541V12.1188C27.8202 11.1703 26.3592 10.6241 24.7016 10.6241C22.7912 10.6241 20.4032 11.6589 20.4032 14.7633C20.4032 17.609 22.7912 18.96 24.7016 18.96C26.303 18.96 27.7921 18.3277 28.5787 17.3791ZM28.5787 14.2172V15.367C28.1854 15.9706 27.2302 16.2868 26.3592 16.2868C25.3197 16.2868 24.3645 15.8269 24.3645 14.8208C24.3645 13.8148 25.3197 13.3261 26.3592 13.3261C27.2302 13.3261 28.1573 13.6136 28.5787 14.2172Z" fill="#8C8CA2"/>
<path d="M32.849 16.9765L34.5066 14.0734C35.4337 14.9069 37.4285 15.798 38.8894 15.798C40.0694 15.798 40.5751 15.4531 40.5751 14.9069C40.5751 14.3442 39.6565 14.1894 38.4733 13.9899C36.3329 13.6292 33.3266 13.1225 33.3266 9.79042C33.3266 7.54836 35.2371 5.59374 38.6646 5.59374C40.7998 5.59374 42.5417 6.28361 43.8902 7.28967L42.3731 10.1641C41.6146 9.41675 40.2098 8.75563 38.6927 8.75563C37.7656 8.75563 37.1475 9.1293 37.1475 9.61796C37.1475 10.0991 37.9934 10.2448 39.1073 10.4367C41.254 10.8065 44.3959 11.3476 44.3959 14.792C44.3959 17.2352 42.3169 18.9599 38.7489 18.9599C36.4732 18.9599 34.1695 18.1838 32.849 16.9765Z" fill="#8C8CA2"/>
<path d="M53.3582 11.1989V18.6437H57.3195V9.56047C57.3195 7.20342 56.0272 5.565 53.1896 5.565C51.0825 5.565 49.6216 6.5423 48.8631 7.43339V0.994629H44.8736V18.615H48.8631V10.3653C49.3407 9.79042 50.1273 9.1293 51.2792 9.1293C52.5434 9.1293 53.3582 9.6467 53.3582 11.1989Z" fill="#8C8CA2"/>
<path fill-rule="evenodd" clip-rule="evenodd" d="M66.0569 17.3791C65.2702 18.3277 63.7812 18.96 62.1798 18.96C60.2694 18.96 57.8814 17.609 57.8814 14.7633C57.8814 11.6589 60.2694 10.6241 62.1798 10.6241C63.8374 10.6241 65.2984 11.1703 66.0569 12.1188V10.8541C66.0569 9.73305 65.1298 8.98571 63.5284 8.98571C62.2922 8.98571 61.0561 9.47435 60.0447 10.3654L58.5837 7.54848C60.1851 6.14 62.3484 5.56511 64.2589 5.56511C67.265 5.56511 70.0744 6.71489 70.0744 10.6816V18.6726H66.0569V17.3791ZM66.0569 15.367V14.2172C65.6355 13.6136 64.7084 13.3261 63.8374 13.3261C62.7979 13.3261 61.8427 13.8148 61.8427 14.8208C61.8427 15.8269 62.7979 16.2868 63.8374 16.2868C64.7365 16.2868 65.6636 15.9706 66.0569 15.367Z" fill="#8C8CA2"/>
<path fill-rule="evenodd" clip-rule="evenodd" d="M71.423 0.994629V18.6437H75.4125V17.1778C76.452 18.4138 77.7162 18.9886 79.121 18.9886C82.2114 18.9886 84.6275 16.6029 84.6275 12.2625C84.6275 8.06576 82.2395 5.565 79.121 5.565C77.7443 5.565 76.3958 6.11114 75.4125 7.3759V0.994629H71.423ZM80.5257 12.2625C80.5257 14.1883 79.3457 15.3669 77.7724 15.3669C76.9296 15.3669 75.8901 14.9069 75.3844 14.2171V10.3366C75.8901 9.6467 76.9296 9.15806 77.7724 9.15806C79.3457 9.15806 80.5257 10.3653 80.5257 12.2625Z" fill="#8C8CA2"/>
<path d="M89.1507 0.994629H85.1613V18.6437H89.1507V0.994629Z" fill="#8C8CA2"/>
<path fill-rule="evenodd" clip-rule="evenodd" d="M96.343 5.5362C92.4378 5.5362 89.7127 8.52563 89.7127 12.2336C89.7127 16.4016 92.6626 18.9598 96.5396 18.9598C98.4501 18.9598 100.529 18.4137 101.765 17.2639L100.023 14.5907C99.2929 15.2806 97.832 15.683 96.9611 15.683C95.163 15.683 94.1235 14.7344 93.8426 13.5846H102.72V12.6648C102.72 8.32441 100.051 5.5362 96.343 5.5362ZM93.7864 10.7964C93.9268 9.8766 94.6011 8.81307 96.343 8.81307C98.1691 8.81307 98.8153 9.90536 98.9277 10.7964H93.7864Z" fill="#8C8CA2"/>
</svg>
