<svg width="50" height="50" viewBox="0 0 50 50" fill="none" xmlns="http://www.w3.org/2000/svg">
<path d="M46.2938 25.5572V48.2749C46.2938 48.5537 46.1829 48.8209 45.9858 49.0184C45.7886 49.2156 45.5211 49.3261 45.2422 49.3261H5.03876C4.75993 49.3261 4.49236 49.2156 4.29521 49.0184C4.09805 48.8209 3.98715 48.5537 3.98715 48.2749V25.5572C2.94365 24.9023 2.09834 23.9753 1.54242 22.8759C0.810837 21.4024 0.762962 19.6823 1.41111 18.1702L8.31402 1.60913C8.47385 1.2201 8.85021 0.963795 9.27091 0.957458H41.005C41.4257 0.963796 41.8021 1.2201 41.9619 1.60913L48.8701 18.1702C49.5182 19.6823 49.4703 21.4024 48.7387 22.8759C48.1828 23.9753 47.3375 24.9023 46.294 25.5572H46.2938ZM26.1889 47.2231H34.6586V30.9252H26.1889V47.2231ZM15.6106 47.2231H24.0855V30.9252H15.6208L15.6106 47.2231ZM6.08948 47.2231H13.5025V29.8734C13.5025 29.5946 13.6131 29.327 13.8102 29.1298C14.0074 28.9327 14.2749 28.8218 14.5538 28.8218H35.715C36.2955 28.8218 36.7666 29.2928 36.7666 29.8734V47.2231H44.1796V26.4404C42.7865 26.7682 41.3258 26.6562 39.9992 26.1193C38.6726 25.5828 37.545 24.6477 36.7715 23.4436C35.5016 25.4264 33.309 26.6259 30.9544 26.6259C28.5994 26.6259 26.4068 25.4264 25.1369 23.4436C23.867 25.4264 21.6744 26.6259 19.3194 26.6259C16.9648 26.6259 14.7722 25.4264 13.5023 23.4436C12.7288 24.6476 11.6011 25.5827 10.2746 26.1193C8.94799 26.6562 7.48728 26.7682 6.09417 26.4404L6.08948 47.2231ZM46.9139 18.9742L40.3 3.06028H9.97463L3.36076 18.9742C2.9485 19.9191 2.97173 20.9971 3.42378 21.9238C4.07404 23.199 5.26221 24.1148 6.661 24.4182C8.05979 24.7217 9.52076 24.3809 10.6411 23.4902C11.761 22.5991 12.4218 21.2521 12.4405 19.8206C12.4405 19.24 12.9112 18.7693 13.4921 18.7693C14.0726 18.7693 14.5433 19.2401 14.5433 19.8206C14.5986 21.4841 15.5178 22.9976 16.9683 23.8137C18.4185 24.6298 20.1897 24.6298 21.6398 23.8137C23.0904 22.9976 24.0096 21.4841 24.0648 19.8206C24.0648 19.24 24.5355 18.7693 25.1161 18.7693C25.697 18.7693 26.1677 19.2401 26.1677 19.8206C26.223 21.4841 27.1422 22.9976 28.5923 23.8137C30.0428 24.6298 31.8137 24.6298 33.2642 23.8137C34.7144 22.9976 35.6336 21.4841 35.6888 19.8206C35.6888 19.24 36.1595 18.7693 36.7404 18.7693C37.321 18.7693 37.7921 19.2401 37.7921 19.8206C37.8107 21.2521 38.4712 22.5991 39.5915 23.4902C40.7114 24.3809 42.1728 24.7217 43.5712 24.4182C44.97 24.1147 46.1585 23.1991 46.8084 21.9238C47.2742 21.0035 47.3125 19.9251 46.9137 18.9742H46.9139Z" fill="black"/>
</svg>
