<svg width="117" height="26" viewBox="0 0 117 26" fill="none" xmlns="http://www.w3.org/2000/svg">
<path d="M0 0.994629H11.8517V12.8833H0V0.994629Z" fill="#8C8CA2"/>
<path d="M13.0618 0.994629H24.9136V12.8833H13.0618V0.994629Z" fill="#8C8CA2"/>
<path d="M110.609 5.07893C109.378 4.74332 107.968 4.80761 106.872 5.52165C106.175 5.97866 105.662 6.69981 105.434 7.48525C105.246 8.10571 105.254 8.74687 105.262 9.38714L105.264 9.52178L105.265 9.6268C105.266 9.82748 105.266 10.0278 105.256 10.2272C104.658 10.2272 104.068 10.22 103.477 10.2343C103.481 10.6941 103.48 11.1507 103.478 11.6062V11.6138C103.478 11.842 103.477 12.0699 103.477 12.2979C103.594 12.2993 103.711 12.2998 103.827 12.3C103.967 12.3002 104.106 12.2997 104.245 12.2992L104.483 12.2985L104.661 12.2984L104.785 12.2987C104.945 12.2994 105.104 12.3012 105.263 12.305C105.259 14.2279 105.26 16.154 105.262 18.081L105.263 19.0539C105.263 19.6937 105.263 20.3336 105.263 20.9734H107.826V12.2979H111.577C111.577 12.9119 111.576 13.526 111.576 14.14C111.574 15.3682 111.572 16.5963 111.577 17.8245C111.591 18.6885 111.734 19.6025 112.303 20.2808C112.794 20.8805 113.57 21.1519 114.325 21.209C115.115 21.2661 115.934 21.1733 116.667 20.852V18.7456C116.104 19.124 115.328 19.274 114.716 18.9312C114.346 18.7242 114.211 18.2958 114.161 17.9031C114.109 17.4652 114.114 17.0209 114.118 16.5767C114.119 16.4916 114.12 16.4066 114.121 16.3217C114.121 16.2703 114.121 16.2189 114.121 16.1676C114.121 16.0819 114.12 15.9964 114.118 15.9109C114.118 15.511 114.119 15.1112 114.12 14.7113L114.121 14.1411C114.121 13.9413 114.122 13.7416 114.122 13.5419L114.121 13.2139L114.121 12.8573C114.12 12.6755 114.119 12.4938 114.118 12.3121C114.424 12.3147 114.729 12.3127 115.033 12.3106C115.579 12.307 116.123 12.3035 116.667 12.3264V10.2414C116.438 10.2434 116.209 10.2437 115.979 10.2435L115.583 10.2428H115.583C115.1 10.2416 114.616 10.2404 114.133 10.2486C114.125 9.63231 114.126 9.0184 114.127 8.40548C114.128 7.94602 114.129 7.48713 114.126 7.02824C113.877 7.10438 113.627 7.18178 113.377 7.25939C112.784 7.44362 112.188 7.62861 111.591 7.79945C111.578 8.30813 111.579 8.81681 111.579 9.32549L111.579 9.69681C111.579 9.87831 111.579 10.0599 111.577 10.2414H107.826C107.83 10.1215 107.831 10.0014 107.831 9.8811C107.83 9.77386 107.829 9.66654 107.827 9.55923C107.822 9.1419 107.816 8.7247 107.876 8.3135C107.954 7.81368 108.239 7.30674 108.73 7.11393C109.342 6.85691 110.033 7.02824 110.616 7.28533C110.611 6.74939 110.613 6.21344 110.612 5.67749C110.612 5.478 110.611 5.27843 110.609 5.07893Z" fill="#8C8CA2"/>
<path d="M51.9982 5.67157C52.5178 5.59298 53.073 5.77149 53.4147 6.1785C53.8133 6.62122 53.8916 7.32808 53.5927 7.84938C53.2652 8.43483 52.5249 8.70622 51.8843 8.56341C51.2223 8.44201 50.6671 7.82079 50.6956 7.12816C50.6742 6.40701 51.2864 5.7572 51.9982 5.67157Z" fill="#8C8CA2"/>
<path d="M36.082 5.99288H32.352C32.352 10.9911 32.352 15.9894 32.3592 20.9805H34.8007V14.2685C34.8033 13.6817 34.8021 13.0941 34.8009 12.5061C34.7989 11.477 34.7968 10.4472 34.8149 9.42026C34.8321 9.44899 34.8493 9.47883 34.8664 9.50937C34.892 9.55484 34.9175 9.60177 34.9431 9.64876C35.3864 10.7531 35.8291 11.8582 36.2719 12.9635L36.2781 12.9791C37.3477 15.6488 38.4179 18.3201 39.4987 20.9876C39.7804 20.9812 40.0606 20.9821 40.34 20.9829C40.6749 20.984 41.0086 20.985 41.3423 20.9734C42.1486 18.9063 42.9656 16.8436 43.7827 14.7805L43.7939 14.7524C44.4662 13.0547 45.1387 11.3567 45.8054 9.65588L45.8262 9.6146C45.837 9.59361 45.8479 9.57304 45.8589 9.55268C45.8847 9.50519 45.9114 9.45917 45.9406 9.41308C45.9477 9.58447 45.9549 9.74869 45.9549 9.9129C45.9513 11.7587 45.9513 13.6045 45.9513 15.4494C45.9513 17.2943 45.9513 19.1383 45.9477 20.9805C46.5905 20.9911 47.2333 20.9898 47.8761 20.9885H47.8872C48.102 20.9881 48.3168 20.9876 48.5316 20.9876V5.99288C48.1897 5.99288 47.8478 5.9917 47.5059 5.99051C46.6519 5.98758 45.798 5.98472 44.9441 6C44.0319 8.26783 43.1117 10.5304 42.1917 12.7924L41.3062 14.9704C41.0213 15.6716 40.7366 16.373 40.4525 17.0747C40.2707 16.6378 40.0989 16.1984 39.9268 15.758C39.8091 15.457 39.6912 15.1556 39.5699 14.854L37.8244 10.4196C37.243 8.94456 36.6616 7.46963 36.082 5.99288Z" fill="#8C8CA2"/>
<path d="M59.0523 10.2271C60.2909 9.87009 61.6219 9.88438 62.8605 10.2414C63.1168 10.3128 63.3588 10.4128 63.5937 10.5484C63.5855 11.018 63.5867 11.4875 63.5879 11.9559C63.5887 12.3064 63.5896 12.6562 63.5866 13.0047C62.7609 12.3692 61.7145 11.9694 60.661 12.105C59.8282 12.1836 59.0309 12.612 58.5327 13.2903C57.892 14.1258 57.7425 15.2397 57.8564 16.2679C57.9419 17.0676 58.2693 17.8745 58.8886 18.4028C59.5363 18.9812 60.4403 19.1811 61.2874 19.1169C62.1202 19.0169 62.9103 18.667 63.5866 18.1672C63.5908 18.6327 63.59 19.0955 63.5901 19.5589C63.5903 19.8704 63.5908 20.1821 63.5937 20.4949C62.5473 21.1233 61.2874 21.2804 60.0915 21.2233C58.8672 21.159 57.6429 20.6949 56.7531 19.8238C55.7851 18.8884 55.2654 17.5603 55.2014 16.225C55.1373 14.8398 55.422 13.3903 56.2121 12.2336C56.8741 11.2553 57.9134 10.5556 59.0523 10.2271Z" fill="#8C8CA2"/>
<path d="M90.5928 10.4413C89.4753 10.0129 88.2296 9.86297 87.048 10.0701C86.0443 10.2486 85.062 10.7698 84.4997 11.641C84.0014 12.3835 83.9374 13.3475 84.1438 14.2043C84.2862 14.7827 84.6349 15.2968 85.1047 15.661C85.6259 16.0601 86.231 16.322 86.833 16.5827C86.9138 16.6177 86.9945 16.6526 87.0751 16.6879C87.1565 16.7236 87.2378 16.7596 87.3185 16.7962L87.3882 16.8299C87.7663 17.012 88.1612 17.2022 88.436 17.5318C88.7492 17.9887 88.6496 18.7384 88.13 18.9955C87.5819 19.2597 86.9412 19.2526 86.3575 19.1597C85.5105 19.0169 84.7204 18.6527 84.0299 18.1529C84.0258 18.3903 84.0241 18.6278 84.0235 18.8652C84.0233 18.9542 84.0233 19.0432 84.0233 19.1323C84.0234 19.2791 84.0237 19.426 84.0241 19.5728C84.025 19.9278 84.0258 20.2828 84.0228 20.6378C84.8414 21.0019 85.7383 21.1805 86.628 21.2376C87.8808 21.2876 89.2475 21.0376 90.1942 20.1522C91.1908 19.274 91.4257 17.7103 90.8633 16.5321C90.5644 15.9037 89.9878 15.4682 89.397 15.1325C89.0533 14.9309 88.6859 14.7781 88.3191 14.6256L88.3181 14.6252C87.8801 14.4431 87.443 14.2614 87.048 13.9973C86.6209 13.7259 86.507 13.1332 86.6778 12.6834C86.8985 12.2264 87.4253 12.0265 87.9022 12.0051C88.8489 11.9765 89.8098 12.2621 90.5928 12.8048V10.4413Z" fill="#8C8CA2"/>
<path d="M69.3167 10.4056C70.0213 9.97719 70.9254 9.94149 71.6941 10.2057C71.6894 10.7769 71.6909 11.3482 71.6925 11.9194C71.6933 12.205 71.6941 12.4906 71.6941 12.7762C71.1887 12.4477 70.5552 12.3049 69.9644 12.3692C69.2384 12.4549 68.6618 13.0118 68.3628 13.6545C68.0354 14.3328 67.9784 15.104 67.9998 15.8466V20.9876H65.4728V10.2485C66.3116 10.2342 67.1575 10.2414 67.9964 10.2485H67.9998C67.995 10.6579 67.9966 11.0673 67.9982 11.4767C67.999 11.6814 67.9998 11.8861 67.9998 12.0907C68.2703 11.4196 68.676 10.7697 69.3167 10.4056Z" fill="#8C8CA2"/>
<path d="M51.6577 10.239H51.6569C51.4947 10.2398 51.3327 10.2406 51.1708 10.2411L50.9305 10.2414V20.9876H53.4716C53.4752 19.1989 53.4752 17.4085 53.4752 15.6181C53.4752 13.8276 53.4752 12.0372 53.4788 10.2485C52.8736 10.2332 52.2649 10.2361 51.6577 10.239Z" fill="#8C8CA2"/>
<path fill-rule="evenodd" clip-rule="evenodd" d="M80.0793 10.4841C78.9404 9.9629 77.6449 9.89149 76.4135 10.0486C75.1251 10.2057 73.8652 10.8197 73.0466 11.8623C72.2992 12.7833 71.9361 13.9687 71.865 15.1468C71.7653 16.532 71.9931 18.003 72.8046 19.1597C73.495 20.1593 74.5841 20.8448 75.7657 21.0948C76.7551 21.3018 77.7873 21.3018 78.7696 21.0948C79.9156 20.8591 80.9976 20.2165 81.7094 19.274C82.4069 18.3885 82.7558 17.2675 82.834 16.1465C82.9123 14.9969 82.7984 13.8116 82.3215 12.7548C81.8731 11.7623 81.0687 10.934 80.0793 10.4841ZM79.3248 12.8119C78.7696 12.255 77.951 12.0337 77.1822 12.0836C76.5701 12.1193 75.9508 12.3264 75.481 12.7548C74.8546 13.3261 74.5698 14.1686 74.4916 14.9969C74.4061 15.9037 74.4702 16.8605 74.8831 17.6888C75.2034 18.3314 75.7942 18.8312 76.4917 19.0169C77.1751 19.1954 77.9225 19.1811 78.5845 18.9241C79.154 18.7027 79.6024 18.2315 79.8444 17.6817C80.2146 16.8605 80.2502 15.9394 80.2074 15.054C80.1434 14.2472 79.9156 13.3975 79.3248 12.8119Z" fill="#8C8CA2"/>
<path fill-rule="evenodd" clip-rule="evenodd" d="M96.8497 10.0414C98.131 9.88438 99.4834 9.97001 100.651 10.5627C101.669 11.0697 102.459 11.9979 102.85 13.0618C103.156 13.8758 103.263 14.7612 103.249 15.6252C103.249 16.9248 102.9 18.2528 102.089 19.2882C101.327 20.2878 100.167 20.9305 98.9354 21.1376C97.7324 21.3304 96.4654 21.2804 95.3264 20.8305C94.1733 20.3735 93.2123 19.4453 92.7212 18.2957C92.2158 17.1247 92.1589 15.8109 92.3155 14.5613C92.4792 13.3118 93.0486 12.0907 94.0096 11.2625C94.7997 10.5698 95.8176 10.1771 96.8497 10.0414ZM97.5402 12.0908C98.2662 12.0408 99.035 12.205 99.5902 12.6977C100.103 13.1261 100.387 13.7617 100.516 14.4114C100.665 15.1683 100.658 15.9466 100.537 16.7106C100.437 17.2747 100.245 17.8388 99.8749 18.2886C99.5048 18.7384 98.9496 19.0098 98.3801 19.0955C97.768 19.1883 97.1202 19.1454 96.5437 18.8955C95.9244 18.6313 95.4474 18.0958 95.1912 17.4746C94.8851 16.7391 94.8282 15.918 94.8851 15.1325C94.9421 14.3686 95.1556 13.5831 95.661 12.9904C96.1237 12.4335 96.8284 12.1265 97.5402 12.0908Z" fill="#8C8CA2"/>
<path d="M0 14.0972H11.8517V25.9859H0V14.0972Z" fill="#8C8CA2"/>
<path d="M24.9136 14.0972H13.0618V25.9859H24.9136V14.0972Z" fill="#8C8CA2"/>
</svg>
