<svg width="43" height="43" viewBox="0 0 43 43" fill="none" xmlns="http://www.w3.org/2000/svg">
<path d="M10.7499 34.4C11.1463 34.4 11.4666 34.0797 11.4666 33.6833V25.0833H13.6166C14.013 25.0833 14.3333 24.763 14.3333 24.3666V19.35C14.3333 17.374 12.7259 15.7666 10.7499 15.7666H10.3628C11.0465 15.0049 11.4666 14.0022 11.4666 12.9C11.4666 10.5286 9.53802 8.59998 7.16663 8.59998C4.79525 8.59998 2.86663 10.5286 2.86663 12.9C2.86663 14.0022 3.28672 15.0048 3.97046 15.7666H3.58333C1.60738 15.7666 0 17.374 0 19.35V24.3666C0 24.763 0.320264 25.0833 0.716667 25.0833H2.86667V33.6833C2.86667 34.0797 3.18693 34.4 3.58333 34.4H10.7499ZM4.29993 12.9C4.29993 11.3191 5.58576 10.0333 7.1666 10.0333C8.74745 10.0333 10.0333 11.3191 10.0333 12.9C10.0333 14.4808 8.74745 15.7666 7.1666 15.7666C5.58576 15.7666 4.29993 14.4808 4.29993 12.9ZM6.44993 25.0833V32.9666H4.29993V19.35H2.8666V23.65H1.43327V19.35C1.43327 18.1646 2.39786 17.2 3.58327 17.2H10.7499C11.9353 17.2 12.8999 18.1646 12.8999 19.35V23.65H11.4666V19.35H10.0333V32.9666H7.88327V25.0833H6.44993Z" fill="white"/>
<path d="M39.4166 15.7666H39.0295C39.7132 15.0049 40.1333 14.0022 40.1333 12.9C40.1333 10.5286 38.2047 8.59998 35.8333 8.59998C33.4619 8.59998 31.5333 10.5286 31.5333 12.9C31.5333 14.0022 31.9534 15.0048 32.6372 15.7666H32.25C30.2741 15.7666 28.6667 17.374 28.6667 19.35V24.3666C28.6667 24.763 28.987 25.0833 29.3834 25.0833H31.5334V33.6833C31.5334 34.0797 31.8536 34.4 32.25 34.4H39.4167C39.8131 34.4 40.1334 34.0797 40.1334 33.6833V25.0833H42.2834C42.6798 25.0833 43 24.763 43 24.3666V19.35C43 17.374 41.3926 15.7666 39.4167 15.7666H39.4166ZM32.9666 12.9C32.9666 11.3191 34.2524 10.0333 35.8333 10.0333C37.4141 10.0333 38.7 11.3191 38.7 12.9C38.7 14.4808 37.4141 15.7666 35.8333 15.7666C34.2524 15.7666 32.9666 14.4808 32.9666 12.9ZM41.5666 23.65H40.1333V19.35H38.7V32.9666H36.55V25.0833H35.1166V32.9666H32.9666V19.35H31.5333V23.65H30.1V19.35C30.1 18.1646 31.0645 17.2 32.25 17.2H39.4166C40.602 17.2 41.5666 18.1646 41.5666 19.35V23.65Z" fill="white"/>
<path d="M35.1166 3.58333V4.72009L33.4734 3.07692L32.4602 4.09016L35.3269 6.95683C35.4664 7.09632 35.65 7.16671 35.8333 7.16671C36.0167 7.16671 36.2003 7.09632 36.3401 6.95683L39.2068 4.09016L38.1935 3.07692L36.55 4.72009V3.58333C36.55 1.60738 34.9427 0 32.9667 0H16.4834V1.43333H32.9667C34.1521 1.43333 35.1167 2.39793 35.1167 3.58333H35.1166Z" fill="white"/>
<path d="M7.88328 3.58333C7.88328 2.39793 8.84788 1.43333 10.0333 1.43333H15.05V0H10.0333C8.05733 0 6.44995 1.60738 6.44995 3.58333V7.16667H7.88328V3.58333Z" fill="white"/>
<path d="M7.88325 39.4167V38.2799L9.52642 39.9231L10.5397 38.9099L7.673 36.0432C7.39273 35.7629 6.9397 35.7629 6.65976 36.0432L3.79309 38.9099L4.80633 39.9231L6.44984 38.2799V39.4167C6.44984 41.3927 8.05722 43 10.0332 43H23.6498V41.5667H10.0332C8.84776 41.5667 7.88317 40.6021 7.88317 39.4167H7.88325Z" fill="white"/>
<path d="M25.0833 41.5667H26.5166V43H25.0833V41.5667Z" fill="white"/>
<path d="M35.1166 39.4167C35.1166 40.6021 34.152 41.5667 32.9666 41.5667H27.95V43H32.9666C34.9426 43 36.55 41.3927 36.55 39.4167V35.8334H35.1166V39.4167Z" fill="white"/>
</svg>
