<svg width="51" height="51" viewBox="0 0 51 51" fill="none" xmlns="http://www.w3.org/2000/svg">
<path d="M12.7499 40.7999C13.2201 40.7999 13.5999 40.4201 13.5999 39.9499V29.75H16.1499C16.6201 29.75 16.9999 29.3701 16.9999 28.9V22.95C16.9999 20.6064 15.0935 18.7 12.7499 18.7H12.2908C13.1017 17.7964 13.6 16.6072 13.6 15.3C13.6 12.4874 11.3125 10.2 8.49996 10.2C5.68738 10.2 3.39996 12.4874 3.39996 15.3C3.39996 16.6072 3.8982 17.7964 4.70916 18.7H4.25C1.90643 18.7 0 20.6064 0 22.95V28.9C0 29.3701 0.379848 29.75 0.85 29.75H3.4V39.9499C3.4 40.4201 3.77985 40.7999 4.25 40.7999H12.7499ZM5.09992 15.3C5.09992 13.425 6.62497 11.9 8.49992 11.9C10.3749 11.9 11.8999 13.425 11.8999 15.3C11.8999 17.1749 10.3749 18.7 8.49992 18.7C6.62497 18.7 5.09992 17.1749 5.09992 15.3ZM7.64992 29.75V39.0999H5.09992V22.95H3.39992V28.05H1.69992V22.95C1.69992 21.544 2.84397 20.4 4.24992 20.4H12.7499C14.1559 20.4 15.2999 21.544 15.2999 22.95V28.05H13.5999V22.95H11.8999V39.0999H9.34992V29.75H7.64992Z" fill="#333333"/>
<path d="M46.7499 18.7H46.2908C47.1017 17.7964 47.6 16.6072 47.6 15.3C47.6 12.4874 45.3125 10.2 42.5 10.2C39.6874 10.2 37.4 12.4874 37.4 15.3C37.4 16.6072 37.8982 17.7964 38.7092 18.7H38.25C35.9064 18.7 34 20.6064 34 22.95V28.9C34 29.3701 34.3798 29.75 34.85 29.75H37.4V39.9499C37.4 40.4201 37.7798 40.7999 38.25 40.7999H46.75C47.2202 40.7999 47.6 40.4201 47.6 39.9499V29.75H50.15C50.6202 29.75 51 29.3701 51 28.9V22.95C51 20.6064 49.0936 18.7 46.75 18.7H46.7499ZM39.0999 15.3C39.0999 13.425 40.625 11.9 42.4999 11.9C44.3749 11.9 45.8999 13.425 45.8999 15.3C45.8999 17.1749 44.3749 18.7 42.4999 18.7C40.625 18.7 39.0999 17.1749 39.0999 15.3ZM49.2999 28.05H47.5999V22.95H45.8999V39.0999H43.3499V29.75H41.6499V39.0999H39.0999V22.95H37.3999V28.05H35.6999V22.95C35.6999 21.544 36.844 20.4 38.2499 20.4H46.7499C48.1559 20.4 49.2999 21.544 49.2999 22.95V28.05Z" fill="#333333"/>
<path d="M41.6499 4.25V5.59825L39.7011 3.64937L38.4993 4.85112L41.8993 8.25112C42.0648 8.41656 42.2826 8.50005 42.5 8.50005C42.7174 8.50005 42.9353 8.41657 43.1011 8.25112L46.5011 4.85112L45.2993 3.64937L43.35 5.59825V4.25C43.35 1.90643 41.4436 0 39.1 0H19.55V1.7H39.1C40.506 1.7 41.65 2.84405 41.65 4.25H41.6499Z" fill="#333333"/>
<path d="M9.34996 4.25C9.34996 2.84405 10.494 1.7 11.9 1.7H17.85V0H11.9C9.55639 0 7.64996 1.90643 7.64996 4.25V8.5H9.34996V4.25Z" fill="#333333"/>
<path d="M9.3499 46.7501V45.4018L11.2988 47.3507L12.5005 46.1489L9.10053 42.7489C8.76812 42.4165 8.2308 42.4165 7.89878 42.7489L4.49878 46.1489L5.70053 47.3507L7.6498 45.4018V46.7501C7.6498 49.0936 9.55623 51.0001 11.8998 51.0001H28.0498V49.3001H11.8998C10.4939 49.3001 9.3498 48.156 9.3498 46.7501H9.3499Z" fill="#333333"/>
<path d="M29.7499 49.2999H31.4499V50.9999H29.7499V49.2999Z" fill="#333333"/>
<path d="M41.65 46.75C41.65 48.1559 40.5059 49.3 39.1 49.3H33.15V51H39.1C41.4435 51 43.35 49.0936 43.35 46.75V42.5H41.65V46.75Z" fill="#333333"/>
</svg>
