<svg width="48" height="50" viewBox="0 0 48 50" fill="none" xmlns="http://www.w3.org/2000/svg">
<path d="M29.3126 0.00655683C29.2105 0.0233656 29.1148 0.0673273 29.0356 0.133804C28.9564 0.20028 28.8965 0.286846 28.8623 0.384391L24.9536 12.0964H12.1106C11.9881 12.0951 11.8683 12.1328 11.7687 12.2041C11.6691 12.2754 11.5949 12.3766 11.5567 12.4929C11.5186 12.6092 11.5185 12.7346 11.5566 12.851C11.5946 12.9673 11.6688 13.0685 11.7684 13.1399L21.8014 20.3722L17.3343 32.624C17.2994 32.7353 17.2992 32.8547 17.3338 32.9661C17.3684 33.0776 17.4361 33.176 17.5279 33.2482C17.6197 33.3203 17.7313 33.363 17.8479 33.3704C17.9645 33.3778 18.0806 33.3496 18.1809 33.2896L29.4027 26.0033L40.6245 33.2896C40.7247 33.3496 40.8408 33.3778 40.9574 33.3704C41.0741 33.363 41.1857 33.3203 41.2775 33.2482C41.3693 33.176 41.437 33.0776 41.4715 32.9661C41.5061 32.8547 41.506 32.7353 41.4711 32.624L37.004 20.3722L47.037 13.1399C47.1365 13.0685 47.2107 12.9673 47.2488 12.851C47.2868 12.7346 47.2868 12.6092 47.2486 12.4929C47.2105 12.3766 47.1362 12.2754 47.0366 12.2041C46.937 12.1328 46.8173 12.0951 46.6948 12.0964H33.8518L29.9431 0.384391C29.8984 0.257962 29.8111 0.151044 29.696 0.0820745C29.5809 0.0131047 29.4453 -0.0136194 29.3126 0.00655683ZM29.4027 2.38135L32.8971 12.852C32.9347 12.966 33.0069 13.0654 33.1038 13.1364C33.2007 13.2074 33.3174 13.2463 33.4375 13.2478H44.9115L35.9773 19.6885C35.8762 19.7628 35.8022 19.868 35.7664 19.9882C35.7307 20.1083 35.7351 20.2368 35.7791 20.3542L39.7959 31.4006L29.7089 24.8519C29.6171 24.7944 29.511 24.764 29.4027 24.764C29.2944 24.764 29.1882 24.7944 29.0965 24.8519L19.0094 31.4006L23.0262 20.3542C23.0702 20.2368 23.0747 20.1083 23.039 19.9882C23.0032 19.868 22.9292 19.7628 22.8281 19.6885L13.8939 13.2478H25.3679C25.488 13.2463 25.6047 13.2074 25.7016 13.1364C25.7984 13.0654 25.8707 12.966 25.9082 12.852L29.4027 2.38135ZM10.9398 24.1682C10.8843 24.1723 10.8297 24.1843 10.7777 24.204C9.69833 24.5455 8.27436 25.4446 6.81492 26.7047C5.35549 27.9649 3.9039 29.588 2.96023 31.4003C2.90939 31.4672 2.87379 31.5443 2.85594 31.6264C2.83809 31.7084 2.83841 31.7933 2.85688 31.8752C2.87536 31.9571 2.91154 32.034 2.96289 32.1004C3.01425 32.1669 3.07953 32.2213 3.15416 32.2599C3.2288 32.2985 3.31098 32.3204 3.39495 32.3239C3.47893 32.3274 3.56266 32.3126 3.64028 32.2804C3.71791 32.2482 3.78755 32.1995 3.84432 32.1376C3.90109 32.0757 3.94362 32.0021 3.96894 31.9221C4.81779 30.2918 6.19764 28.7545 7.57145 27.5683C8.94526 26.382 10.3564 25.5487 11.1379 25.3015C11.2834 25.27 11.4111 25.1835 11.4942 25.0602C11.5773 24.9368 11.6094 24.7862 11.5838 24.6397C11.5582 24.4932 11.4769 24.3623 11.3569 24.2744C11.2368 24.1865 11.0874 24.1484 10.9398 24.168V24.1682ZM10.9398 33.9553C10.8067 33.9602 10.6794 34.0111 10.5796 34.0992C7.47829 36.6992 3.10621 40.3088 1.17699 48.8157C1.14982 48.8923 1.13923 48.9739 1.1459 49.055C1.15258 49.136 1.17637 49.2147 1.21572 49.2859C1.25507 49.3572 1.30908 49.4192 1.37419 49.4681C1.4393 49.5169 1.51403 49.5515 1.59347 49.5694C1.6729 49.5873 1.75523 49.5882 1.83504 49.572C1.91485 49.5559 1.99032 49.523 2.05649 49.4756C2.12265 49.4281 2.178 49.3673 2.2189 49.2969C2.2598 49.2266 2.28532 49.1484 2.29377 49.0675C4.15659 40.8535 8.22257 37.591 11.3361 34.9807C11.4323 34.9044 11.5016 34.7994 11.5339 34.681C11.5661 34.5626 11.5597 34.437 11.5154 34.3225C11.4712 34.208 11.3915 34.1106 11.2879 34.0445C11.1844 33.9785 11.0624 33.9472 10.9398 33.9553ZM1.14096 35.1066C1.03524 35.1092 0.932271 35.1408 0.843315 35.1979C0.75436 35.255 0.682851 35.3355 0.636612 35.4305L0.0602106 36.5819C-0.00803786 36.7202 -0.0187238 36.8798 0.0304883 37.0259C0.0797004 37.172 0.184809 37.2927 0.322848 37.3616C0.460886 37.4306 0.620631 37.4421 0.767177 37.3938C0.913723 37.3454 1.03515 37.2411 1.10494 37.1036L1.68134 35.9522C1.72939 35.8621 1.75259 35.7609 1.74857 35.6589C1.74455 35.5569 1.71345 35.4578 1.65846 35.3718C1.60348 35.2857 1.52658 35.2158 1.43564 35.1692C1.34471 35.1227 1.24301 35.101 1.14096 35.1066ZM16.0374 38.5789C13.1215 39.1118 10.6996 40.7906 8.94041 42.6089C7.18124 44.427 6.08061 46.3462 5.78821 47.6643C5.76104 47.7409 5.75045 47.8225 5.75713 47.9035C5.76381 47.9846 5.7876 48.0633 5.82695 48.1345C5.86629 48.2057 5.9203 48.2678 5.9854 48.3167C6.05051 48.3655 6.12523 48.4 6.20466 48.418C6.28409 48.4359 6.36642 48.4367 6.44623 48.4206C6.52603 48.4044 6.6015 48.3715 6.66767 48.3241C6.73383 48.2767 6.78919 48.2158 6.8301 48.1455C6.871 48.0752 6.89652 47.997 6.90499 47.9161C7.10514 47.0138 8.13158 45.1108 9.76898 43.4184C11.4064 41.7261 13.6505 40.188 16.2535 39.7123C16.3282 39.6983 16.3995 39.6698 16.4631 39.6283C16.5267 39.5868 16.5816 39.5331 16.6244 39.4704C16.6673 39.4077 16.6973 39.3372 16.7128 39.2629C16.7283 39.1885 16.7289 39.1119 16.7147 39.0373C16.7005 38.9627 16.6717 38.8917 16.6299 38.8283C16.5881 38.7648 16.5342 38.7102 16.4713 38.6677C16.4084 38.6251 16.3377 38.5953 16.2632 38.58C16.1887 38.5648 16.112 38.5645 16.0374 38.5789Z" fill="#552D83"/>
</svg>
