<svg width="44" height="48" viewBox="0 0 44 48" fill="none" xmlns="http://www.w3.org/2000/svg">
<path d="M18.385 35.3446L18.286 34.8501C18.187 34.5039 18.1377 34.2074 18.0388 33.8616C17.5939 32.082 16.704 30.6486 15.1716 29.2147C15.0234 29.1158 14.8751 28.9675 14.7268 28.8192C14.3313 28.473 13.9358 28.0779 13.6885 27.7809C13.1941 27.1382 12.9472 26.7427 12.5517 26.1003C12.4527 25.9027 12.3541 25.7541 12.2055 25.5072L12.1065 25.3589C11.1672 23.7769 10.5244 22.8379 9.73378 22.4425C9.43723 22.2942 9.04173 22.1952 8.5969 22.1952C8.34966 22.1952 8.10242 22.2445 7.80589 22.2942L6.2242 19.526C5.68041 18.5867 4.69185 17.9937 3.65357 17.9937C2.56604 17.9937 1.62672 18.5867 0.984351 19.5757V19.6743C0.737114 20.1191 0.638151 20.6629 0.737114 21.1574L2.86257 33.4169C3.15912 35.0975 4.04906 36.5806 5.38358 37.6189L9.63485 41.4747L9.93139 41.7712C10.2776 42.1667 10.4752 42.7598 10.5245 43.4025L10.5738 44.3911C10.6231 45.8245 11.8096 46.9121 13.1938 46.9121L18.0878 46.9614C18.8788 46.9614 19.5708 46.6649 20.0649 46.0718C20.5594 45.528 20.8063 44.7866 20.757 43.9956C20.5594 42.1171 20.1639 39.5468 19.2246 37.7671C18.8298 36.9761 18.5333 36.1358 18.385 35.3448L18.385 35.3446ZM6.2738 36.4818C5.23552 35.6415 4.4942 34.455 4.24694 33.1205L2.12149 20.8611C2.07218 20.7128 2.12149 20.5149 2.22045 20.3666C2.61596 19.7239 3.15977 19.477 3.65384 19.477C4.19762 19.477 4.69212 19.7735 4.93902 20.2183L6.47136 23.0362L6.3724 23.1352C5.72966 23.679 5.53208 24.4204 5.72966 25.1123C6.17448 26.4965 7.50926 29.5612 7.5586 29.7095C7.60791 29.7588 7.60791 29.8084 7.60791 29.8577L9.83232 32.8239C9.9806 33.0215 10.1785 33.1205 10.3761 33.1205C10.5244 33.1205 10.6727 33.0711 10.7716 32.9722C11.0682 32.7746 11.1178 32.3294 10.9199 32.0329L8.84369 29.2647C8.79438 29.2154 8.74473 29.1164 8.74473 29.0671C8.44818 28.4244 7.45955 26.0517 7.06408 24.9148C6.96512 24.6676 6.91581 24.47 7.26167 24.2227C7.60787 23.9262 8.15129 23.7779 8.54685 23.7779C8.74443 23.7779 8.89305 23.8272 8.99167 23.8769C9.48614 24.1241 10.2275 25.36 10.8702 26.3979C11.4633 27.3372 11.7105 27.881 12.4523 28.7706C12.8478 29.2651 13.5398 29.8581 14.0836 30.3527C15.6159 31.7368 16.209 32.9726 16.5552 34.2577C16.7035 34.7522 16.8025 35.2463 16.9014 35.6911C17.1487 36.6304 17.4452 37.5697 17.8408 38.509C18.2363 39.201 18.4835 40.091 18.7304 40.9806L11.1182 40.98C11.0689 40.9306 11.0689 40.881 11.0192 40.8317C10.8709 40.6834 10.772 40.5351 10.6237 40.4362L6.2738 36.4818ZM18.0884 45.4787L13.1944 45.4294C12.5516 45.4294 12.0575 44.9349 12.0079 44.2925L11.9586 43.3039C11.9586 43.0074 11.9093 42.7108 11.8103 42.4143H19.0277C19.1267 43.0571 19.2253 43.6501 19.275 44.1447C19.3243 44.8857 18.7805 45.4787 18.0885 45.4787L18.0884 45.4787Z" fill="#333333"/>
<path d="M42.7556 19.6742L42.7063 19.6249C42.0635 18.6363 41.075 18.0428 40.037 18.0428C38.9988 18.0428 38.0102 18.6359 37.4664 19.5259L35.9341 22.3438C35.6375 22.2945 35.3903 22.2448 35.1431 22.2448C34.6982 22.2448 34.352 22.3438 34.0062 22.4921C33.2152 22.8876 32.5728 23.8762 31.6335 25.4086L31.5345 25.5568C31.3862 25.7544 31.2873 25.9523 31.1883 26.1499C30.7928 26.7927 30.5456 27.1882 30.0514 27.8306C29.8042 28.1271 29.4087 28.5226 29.0131 28.8689C28.8649 29.0171 28.7166 29.1654 28.5683 29.2644C27.036 30.6978 26.146 32.1315 25.7012 33.9112C25.6022 34.2077 25.5529 34.5539 25.454 34.8998L25.355 35.3446C25.1574 36.1849 24.8605 37.0252 24.5147 37.8656C23.5753 39.6452 23.1799 42.2158 22.9823 44.0941C22.933 44.8355 23.1799 45.5772 23.6744 46.1703C24.1688 46.7141 24.9102 47.0599 25.6515 47.0599L30.5455 47.0106C31.9789 47.0106 33.1161 45.8737 33.1655 44.4896L33.2148 43.501C33.2641 42.8583 33.462 42.2652 33.8079 41.8697L34.1044 41.5732L38.3557 37.7174C39.6905 36.6791 40.5801 35.1964 40.8767 33.5154L43.0022 21.2559C43.1018 20.6628 43.0029 20.1194 42.7556 19.6742L42.7556 19.6742ZM31.6825 44.292C31.6332 44.9347 31.1387 45.4289 30.496 45.4289L25.602 45.4782C24.91 45.4782 24.3662 44.8851 24.4155 44.1434C24.4648 43.6489 24.5145 43.0559 24.6628 42.4131H31.8802C31.8309 42.7096 31.7319 43.0061 31.7319 43.3027L31.6825 44.292ZM41.5692 20.91L39.4437 33.1695C39.1965 34.5043 38.5044 35.6905 37.4169 36.5308L33.1162 40.4358C32.968 40.5841 32.8197 40.6831 32.7207 40.8314C32.6714 40.8807 32.6714 40.9303 32.6218 40.9796L24.9595 40.98C25.1571 40.0904 25.454 39.2004 25.8491 38.5083C26.2446 37.6187 26.5905 36.6794 26.7885 35.6904C26.8874 35.2456 27.0357 34.7511 27.1347 34.257C27.4312 32.9719 28.074 31.736 29.6063 30.352C30.1008 29.8575 30.7928 29.2645 31.2376 28.7699C31.979 27.8803 32.2262 27.3366 32.8197 26.3972C33.4624 25.3097 34.2038 24.1231 34.6982 23.8762C34.7972 23.8269 34.9948 23.7773 35.143 23.7773C35.5879 23.7773 36.1316 23.9255 36.4282 24.2221C36.7248 24.4693 36.6755 24.6669 36.6258 24.9141C36.2796 26.051 35.2417 28.4733 34.9452 29.0664C34.8958 29.1157 34.8462 29.2147 34.8462 29.264L32.77 32.0322C32.5228 32.3287 32.6217 32.7242 32.9183 32.9715C33.0665 33.0705 33.1655 33.1198 33.3138 33.1198C33.5114 33.1198 33.7093 33.0208 33.8576 32.8232L36.082 29.8571C36.1313 29.8078 36.1313 29.7581 36.1313 29.7088C36.1806 29.5605 37.5154 26.4958 37.9602 25.1117C38.2075 24.3703 37.9602 23.6783 37.3175 23.1345L37.2185 23.0356L38.7509 20.2177C38.9981 19.7729 39.4922 19.4763 40.036 19.4763C40.5305 19.4763 41.0743 19.7236 41.4694 20.3659C41.5691 20.5146 41.5691 20.7125 41.5691 20.9101L41.5692 20.91Z" fill="#333333"/>
<path d="M23.3777 10.7762L21.3015 13.0006L20.3621 12.0121C20.0656 11.7155 19.6208 11.7155 19.3239 11.9628C19.0273 12.2593 19.0273 12.7041 19.2746 13.001L20.7577 14.5831C20.9059 14.7314 21.1039 14.8303 21.3014 14.8303C21.499 14.8303 21.6969 14.7314 21.8452 14.5831L24.4652 11.7652C24.7617 11.4687 24.7124 11.0238 24.4159 10.7269C24.1193 10.4797 23.6249 10.4797 23.3776 10.7762H23.3777Z" fill="#333333"/>
<path d="M24.3664 24.2221L24.5147 23.5794C24.6629 22.9366 25.1077 22.4425 25.7505 22.1952C26.3436 21.948 27.0357 21.9976 27.5794 22.3435L28.1232 22.6897C28.766 23.0852 29.5566 22.9862 30.0511 22.4425L31.4845 21.0091C31.979 20.5146 32.0776 19.6743 31.7317 19.0812L31.3855 18.5374C31.0393 17.9936 30.99 17.3016 31.2866 16.6588C31.5338 16.0657 32.0776 15.6206 32.6707 15.4723L33.3135 15.3241C34.0055 15.1265 34.4999 14.5331 34.4999 13.7917V11.7649C34.4999 11.0235 34.0055 10.3807 33.3135 10.2325L32.7207 9.98563C32.078 9.83736 31.5838 9.39254 31.3366 8.7498C31.0893 8.15671 31.139 7.46462 31.4849 6.92085L31.8311 6.37707C32.2266 5.73433 32.1276 4.94368 31.5838 4.44917L30.1504 3.01578C29.656 2.5213 28.8156 2.42268 28.2225 2.76854L27.6787 3.11474C27.135 3.46094 26.4429 3.51025 25.8002 3.21371C25.2071 2.96647 24.7619 2.42269 24.6137 1.82957L24.4654 1.18683C24.2678 0.494784 23.6744 0.00034482 22.9331 0.00034482L20.8569 0C20.1155 0 19.4727 0.494475 19.3245 1.18649L19.1763 1.82923C19.028 2.47197 18.5832 2.96611 17.9404 3.21336C17.3473 3.4606 16.6553 3.41094 16.1115 3.06509L15.5677 2.71889C14.925 2.32338 14.1343 2.42234 13.6398 2.96612L12.2064 4.39951C11.7119 4.89399 11.6133 5.7343 11.9592 6.32741L12.3054 6.8712C12.6516 7.41498 12.7009 8.10703 12.4043 8.74975C12.1571 9.34285 11.6133 9.78803 11.0202 9.93624L10.3775 10.0845C9.68542 10.2821 9.19098 10.8755 9.19098 11.6169V13.6437C9.19098 14.3851 9.68545 15.0278 10.3775 15.1761L11.0202 15.3243C11.6629 15.4726 12.1571 15.9174 12.4043 16.5602C12.6516 17.1533 12.6019 17.8453 12.2561 18.3891L11.9095 19.0319C11.514 19.6746 11.613 20.4652 12.1568 20.9598L13.5901 22.3931C14.0846 22.8876 14.9249 22.9862 15.518 22.6404L16.0618 22.2942C16.6056 21.948 17.2977 21.8987 17.9404 22.1952C18.5335 22.4425 18.9787 22.9862 19.1269 23.5794L19.2751 24.2221C19.4727 24.9141 20.0662 25.4086 20.8075 25.4086H22.834C23.5757 25.4086 24.2181 24.9141 24.3663 24.2221L24.3664 24.2221ZM22.933 23.8762C22.933 23.9256 22.8837 23.9752 22.834 23.9752H20.8569C20.8076 23.9752 20.7579 23.9259 20.7579 23.8762L20.6096 23.2335C20.3624 22.146 19.5714 21.2563 18.5334 20.8112C18.0886 20.6136 17.6438 20.5146 17.1493 20.5146C16.5066 20.5146 15.9135 20.6629 15.3204 21.0091L14.7766 21.3553C14.7273 21.4046 14.6776 21.3553 14.6283 21.3553L13.1949 19.9219C13.1456 19.8726 13.1456 19.823 13.1949 19.7736L13.5411 19.2299C14.1342 18.2905 14.1839 17.1044 13.7387 16.0169C13.2939 14.9786 12.4039 14.1879 11.3164 13.9407L10.6736 13.7924C10.6243 13.7924 10.5747 13.7431 10.5747 13.6934V11.6666C10.5747 11.6173 10.624 11.5676 10.6736 11.5676L11.3164 11.4193C12.4039 11.1721 13.2935 10.3811 13.7387 9.34314C14.1835 8.30486 14.0849 7.11873 13.4915 6.17941L13.1453 5.63562C13.0959 5.58631 13.1453 5.53666 13.1453 5.48735L14.5786 4.05396C14.628 4.00465 14.6776 4.00465 14.7269 4.05396L15.2707 4.40016C16.21 4.99325 17.3962 5.0429 18.4837 4.59774C19.522 4.15292 20.3126 3.26295 20.5599 2.17542L20.7082 1.53268C20.7082 1.48337 20.7575 1.43372 20.8071 1.43372L22.834 1.43337C22.8833 1.43337 22.9329 1.48268 22.9329 1.53234L23.0812 2.17508C23.3285 3.26261 24.1195 4.15223 25.1574 4.5974C26.1957 5.04222 27.3818 4.9436 28.3212 4.35016L28.8649 4.00396C28.9142 3.95465 28.9639 4.00396 29.0132 4.00396L30.4466 5.43735C30.4959 5.48666 30.4959 5.53631 30.4466 5.58562L30.1997 6.17906C29.6066 7.11838 29.557 8.30452 30.0021 9.39205C30.4469 10.4303 31.3369 11.221 32.4244 11.4683L33.0672 11.6165C33.1165 11.6165 33.1661 11.6658 33.1661 11.7155V13.7423C33.1661 13.7917 33.1168 13.8413 33.0672 13.8413L32.4244 13.9896C31.3369 14.2368 30.4473 15.0279 30.0021 16.0658C29.5573 17.1041 29.6559 18.2902 30.2494 19.2295L30.5956 19.7733C30.6449 19.8226 30.5956 19.8723 30.5956 19.9216L29.1622 21.355C29.1129 21.4043 29.0632 21.4043 29.0139 21.355L28.4701 21.0088C27.5308 20.4157 26.3447 20.366 25.2571 20.8112C24.2189 21.256 23.4282 22.146 23.1809 23.2335L22.933 23.8762Z" fill="#333333"/>
<path d="M28.3211 12.7042C28.3211 9.14499 25.4046 6.22852 21.8454 6.22852C18.2862 6.22817 15.3698 9.14499 15.3698 12.7042C15.3698 16.263 18.2862 19.1799 21.8454 19.1799C25.4046 19.1799 28.3211 16.263 28.3211 12.7042V12.7042ZM21.8454 17.6969C19.0773 17.6969 16.8527 15.4725 16.8527 12.7042C16.8527 9.93566 19.0772 7.71125 21.8454 7.71125C24.6137 7.71125 26.8381 9.93566 26.8381 12.7039C26.8381 15.4725 24.6137 17.6969 21.8454 17.6969V17.6969Z" fill="#333333"/>
</svg>
