<svg width="37" height="47" viewBox="0 0 37 47" fill="none" xmlns="http://www.w3.org/2000/svg">
<path d="M0.37149 46.1904C0.37149 46.0487 0.383208 45.8951 0.383208 45.7534C0.383208 42.2218 0.383208 38.6785 0.383208 35.1469C0.383208 34.9697 0.383208 34.8044 0.383208 34.6036C0.840185 34.6036 1.23858 34.6036 1.68384 34.6036C1.68384 38.017 1.68384 41.4069 1.68384 44.8321C6.88635 44.8321 12.0303 44.8321 17.2328 44.8321C17.2328 42.8242 17.2328 40.8281 17.2328 38.8084C17.5374 38.7966 17.7952 38.7729 18.1116 38.7611C18.053 38.6076 18.0061 38.4895 17.9593 38.3832C17.3382 37.143 16.7172 35.9146 16.1079 34.6744C16.0142 34.4855 15.9556 34.2611 15.9556 34.0485C15.9439 31.6862 15.9673 29.3358 15.9556 26.9735C15.9439 25.6152 16.8578 24.6703 17.7366 24.4105C18.0413 24.316 18.3694 24.2805 18.6857 24.2687C19.0607 24.2451 19.4474 24.2687 19.8106 24.2687C19.9161 23.9262 19.9395 23.1939 19.8575 22.6624C19.8458 22.6506 19.8458 22.6388 19.834 22.627C19.8223 22.6152 19.8106 22.6152 19.7989 22.6152C19.7755 22.6152 19.7403 22.6033 19.7169 22.6033C19.67 22.6033 19.6349 22.6033 19.588 22.6033C14.3503 22.6033 9.12437 22.6033 3.8867 22.6033C3.86327 22.6033 3.82812 22.6033 3.80468 22.5915C3.79296 22.5915 3.78125 22.5797 3.76953 22.5797C3.68751 22.2608 3.67579 4.82742 3.75781 4.33135C9.53448 4.33135 15.3229 4.33135 21.123 4.33135C21.2167 4.53214 21.1581 4.75656 21.1698 4.96916C21.1815 5.16995 21.1698 5.38255 21.1698 5.6424C19.7989 5.6424 18.4631 5.6424 17.1273 5.6424C15.7798 5.6424 14.4323 5.6424 13.0966 5.6424C11.7608 5.6424 10.4367 5.6424 9.10093 5.6424C7.76515 5.6424 6.41765 5.6424 5.04672 5.6424C5.04672 10.863 5.04672 16.0363 5.04672 21.2214C5.36309 21.3041 18.967 21.3395 19.8926 21.2569C19.8926 21.1033 19.9044 20.9498 19.9044 20.7962C19.9044 19.3198 19.9044 17.8434 19.9044 16.3788C19.9044 15.4575 20.2442 14.7134 20.9706 14.1701C22.5525 12.9772 24.8256 13.9339 25.1186 15.8946C25.1537 16.1308 25.1655 16.367 25.1655 16.6032C25.1655 17.7844 25.1655 18.9655 25.1655 20.1348C25.1655 20.2765 25.1655 20.4183 25.1655 20.5954C25.4935 20.4891 25.7748 20.3946 26.0443 20.3002C26.0443 15.4339 26.0443 10.5677 26.0443 5.67783C24.896 5.67783 23.7594 5.67783 22.6228 5.67783C22.4939 5.44161 22.5642 5.2172 22.5525 5.00459C22.5408 4.8038 22.5525 4.5912 22.5525 4.40222C22.8923 4.31954 26.7707 4.29592 27.3683 4.3786C27.3683 9.72909 27.3683 15.0914 27.3683 20.4537C28.1299 20.7608 28.6572 21.2923 28.9384 22.0246C29.372 21.9774 29.3603 21.6939 29.3603 21.3986C29.3603 15.5638 29.3603 9.72909 29.3603 3.89434C29.3603 3.38645 29.3603 2.86676 29.3603 2.35887C29.0087 2.2762 2.22284 2.25257 1.69555 2.33525C1.69555 12.6347 1.69555 22.9459 1.69555 33.3162C1.44949 33.3162 1.22686 33.3162 1.01595 33.3162C0.816751 33.3162 0.617555 33.3162 0.394925 33.3162C0.394925 22.5207 0.394925 11.7724 0.394925 0.98877C10.4836 0.98877 20.5605 0.98877 30.6726 0.98877C30.6726 7.86291 30.6726 14.7252 30.6726 21.623C31.7389 21.8002 32.4771 22.3907 32.8755 23.3002C33.3442 23.1821 33.7543 23.0167 34.1761 22.9813C35.6173 22.8396 36.9414 23.9498 37 25.5798C37 25.7097 37 25.8396 37 25.9814C37 28.5917 37 31.2019 37 33.8004C37 34.1075 36.9531 34.4146 36.8828 34.7099C36.5782 35.9973 36.2501 37.2729 35.922 38.5603C35.9103 38.6312 35.8986 38.7021 35.8751 38.7966C36.1563 38.8084 36.4141 38.832 36.7071 38.8438C36.7188 39.021 36.7305 39.1745 36.7305 39.3281C36.7305 41.4659 36.7305 43.6037 36.7305 45.7416C36.7305 45.9069 36.7422 46.0605 36.7539 46.2258C24.6382 46.1904 12.499 46.1904 0.37149 46.1904ZM23.8531 29.4539C23.8531 29.2413 23.8531 29.0641 23.8531 28.8987C23.8531 24.8121 23.8531 20.7372 23.8531 16.6505C23.8531 16.4143 23.8414 16.178 23.7945 15.9536C23.6422 15.304 23.0446 14.9024 22.3767 14.9733C21.7674 15.0323 21.287 15.552 21.2401 16.178C21.2284 16.3434 21.2284 16.4969 21.2284 16.6623C21.2284 21.434 21.2284 26.2058 21.2284 30.9775C21.2284 31.1547 21.2284 31.3201 21.2284 31.4972C20.7714 31.4972 20.3613 31.4972 19.9161 31.4972C19.9161 29.5247 19.9161 27.5759 19.9161 25.5798C19.588 25.5798 19.295 25.5798 19.0021 25.5798C18.7795 25.5798 18.5569 25.568 18.3459 25.6152C17.7015 25.7451 17.2797 26.3239 17.2797 26.9853C17.2914 29.2413 17.2797 31.4972 17.2797 33.7532C17.2797 33.954 17.3382 34.1666 17.4203 34.3437C18.0999 35.7256 18.7912 37.1076 19.4942 38.4777C19.5411 38.584 19.6114 38.6785 19.6817 38.7966C20.9355 38.7966 22.1658 38.7966 23.4313 38.7966C23.4313 39.2454 23.4313 39.6588 23.4313 40.1194C22.8688 40.1194 22.3298 40.1194 21.7908 40.1194C21.2636 40.1194 20.7363 40.1194 20.209 40.1194C19.67 40.1194 19.1427 40.1076 18.6154 40.1312C18.5334 40.7572 18.5569 44.5486 18.6389 44.8321C24.2281 44.8321 29.8172 44.8321 35.4064 44.8321C35.4885 44.0762 35.465 40.4501 35.3596 40.1076C31.8209 40.1076 28.2823 40.1076 24.7085 40.1076C24.7085 39.6588 24.7085 39.2336 24.7085 38.7729C25.8216 38.7729 26.9113 38.7729 28.0128 38.7729C29.0908 38.7729 30.1805 38.7729 31.2585 38.7729C32.3482 38.7729 33.4379 38.7966 34.5042 38.7611C34.5393 38.6903 34.5628 38.6666 34.5745 38.643C34.9377 37.1902 35.301 35.7375 35.6642 34.2729C35.7111 34.0721 35.7228 33.8713 35.7345 33.6587C35.7345 31.0602 35.7345 28.4735 35.7345 25.8751C35.7345 25.7451 35.7462 25.6034 35.7228 25.4735C35.6642 24.8947 35.2893 24.4223 34.7737 24.2687C34.2581 24.1152 33.6957 24.316 33.3676 24.753C33.1684 25.0128 33.0981 25.2963 33.0981 25.6152C33.0981 26.7373 33.0981 27.8594 33.0981 28.9696C33.0981 29.1113 33.0864 29.2531 33.0747 29.4066C32.6294 29.4066 32.2193 29.4066 31.774 29.4066C31.774 29.2058 31.774 29.0523 31.774 28.8869C31.774 27.4105 31.774 25.9459 31.774 24.4695C31.774 24.2569 31.7506 24.0207 31.692 23.8199C31.528 23.2648 31.0124 22.8986 30.4383 22.8986C29.8641 22.8986 29.3486 23.2884 29.1962 23.8317C29.1494 24.0089 29.1494 24.2097 29.1494 24.3987C29.1494 25.9105 29.1494 27.4341 29.1494 28.946C29.1494 29.0995 29.1376 29.2531 29.1259 29.3948C28.6689 29.3948 28.2588 29.3948 27.8253 29.3948C27.8253 29.2058 27.8253 29.0405 27.8253 28.8869C27.8253 26.9735 27.8253 25.0601 27.8253 23.1467C27.8253 22.9223 27.8136 22.6978 27.755 22.497C27.6027 21.9183 27.0637 21.5521 26.4661 21.564C25.8919 21.5758 25.3764 21.9774 25.2475 22.5325C25.2006 22.7333 25.2006 22.9459 25.2006 23.1467C25.2006 25.0719 25.2006 27.0089 25.2006 28.9342C25.2006 29.0877 25.1889 29.2531 25.1772 29.4184C24.7085 29.4539 24.3218 29.4539 23.8531 29.4539Z" fill="#333333"/>
<path d="M3.68745 37.7335C3.68745 34.072 3.68745 30.4814 3.68745 26.8672C3.41796 26.8554 3.17189 26.8317 2.91411 26.8199C2.91411 26.3947 2.91411 25.9813 2.91411 25.5443C6.75741 25.5443 10.6007 25.5443 14.4557 25.5443C14.4557 25.9695 14.4557 26.3711 14.4557 26.8199C14.2097 26.8317 13.9753 26.8435 13.6707 26.8554C13.6589 28.0601 13.6707 29.253 13.6707 30.4342C13.6707 31.6389 13.6707 32.8555 13.6707 34.0602C13.6707 35.2532 13.6707 36.4461 13.6707 37.6863C13.448 37.6154 13.2605 37.5563 13.0731 37.4855C12.4989 37.2729 11.9131 37.0721 11.3506 36.8359C10.9991 36.6941 10.6944 36.6941 10.3429 36.8477C9.89766 37.0367 9.44068 37.1784 8.99542 37.3556C8.77279 37.4501 8.58532 37.4382 8.36269 37.3556C7.80025 37.1548 7.2261 36.9776 6.66367 36.7768C6.44104 36.6941 6.25356 36.7059 6.03093 36.8004C5.40991 37.0603 4.78889 37.3083 4.15615 37.5563C4.02726 37.6036 3.88665 37.6508 3.68745 37.7335ZM12.288 26.8672C9.87423 26.8672 7.46045 26.8672 5.04667 26.8672C4.95293 27.6231 4.98808 35.4421 5.08182 35.7492C5.37476 35.6311 5.69113 35.5248 5.97234 35.3949C6.20669 35.2886 6.40589 35.3004 6.64023 35.3831C7.14408 35.5721 7.67136 35.7138 8.17521 35.9146C8.50329 36.0445 8.80795 36.0563 9.13603 35.9028C9.59301 35.702 10.0734 35.5721 10.5304 35.3831C10.753 35.3004 10.9405 35.2886 11.1631 35.3831C11.5264 35.5366 11.8896 35.6547 12.2646 35.7847C12.3583 35.4067 12.37 27.3042 12.288 26.8672Z" fill="#333333"/>
<path d="M18.5686 8.51257C18.9084 8.80785 19.2365 9.07951 19.5763 9.36298C17.807 11.4772 16.0611 13.5678 14.2918 15.682C13.3426 14.3591 12.4287 13.0717 11.4796 11.7607C11.8428 11.5008 12.1826 11.2528 12.5459 10.9811C13.1552 11.8197 13.741 12.6465 14.3738 13.5205C15.7681 11.8433 17.1625 10.178 18.5686 8.51257Z" fill="#333333"/>
<path d="M12.206 19.4852C11.7608 19.4852 11.3624 19.4852 10.9406 19.4852C10.9406 19.06 10.9406 18.6466 10.9406 18.2214C11.3624 18.1623 11.7725 18.1741 12.206 18.2096C12.206 18.6348 12.206 19.0364 12.206 19.4852Z" fill="#333333"/>
<path d="M13.577 18.1978C13.9988 18.1978 14.3972 18.1978 14.8307 18.1978C14.8307 18.623 14.8307 19.0245 14.8307 19.4497C14.6433 19.556 14.4206 19.4852 14.2097 19.497C14.0105 19.5088 13.7996 19.497 13.577 19.497C13.577 19.06 13.577 18.6584 13.577 18.1978Z" fill="#333333"/>
<path d="M16.2017 19.4734C16.2017 19.0482 16.2017 18.6348 16.2017 18.1978C16.6235 18.1978 17.0219 18.1978 17.4555 18.1978C17.5492 18.6111 17.4672 19.0245 17.5023 19.4734C17.0454 19.4734 16.6353 19.4734 16.2017 19.4734Z" fill="#333333"/>
<path d="M31.3523 41.8557C31.7858 41.8557 32.1842 41.8557 32.6177 41.8557C32.6177 42.2809 32.6177 42.6943 32.6177 43.1431C32.1959 43.1431 31.7858 43.1431 31.3523 43.1431C31.3523 42.7179 31.3523 42.3163 31.3523 41.8557Z" fill="#333333"/>
<path d="M6.6989 29.82C6.6989 29.383 6.6989 28.9814 6.6989 28.5444C8.01124 28.5444 9.30015 28.5444 10.6125 28.5444C10.6125 28.9696 10.6125 29.3712 10.6125 29.7846C10.2961 29.8673 7.49568 29.8909 6.6989 29.82Z" fill="#333333"/>
<path d="M6.6989 33.1508C6.6989 32.7137 6.6989 32.3122 6.6989 31.887C8.01124 31.887 9.30015 31.887 10.6125 31.887C10.6125 32.3122 10.6125 32.7137 10.6125 33.1271C10.3078 33.2098 7.43709 33.2334 6.6989 33.1508Z" fill="#333333"/>
</svg>
