<svg width="45" height="45" viewBox="0 0 45 45" fill="none" xmlns="http://www.w3.org/2000/svg">
<path d="M6.75005 37.8104V44.25C6.75005 44.4489 6.82907 44.6397 6.96969 44.7804C7.11032 44.921 7.30117 45 7.50005 45H15.7501C15.949 45 16.1398 44.921 16.2804 44.7804C16.4211 44.6397 16.5001 44.4489 16.5001 44.25V32.25C16.5001 32.0511 16.4211 31.8602 16.2804 31.7196L10.9015 26.3407H10.9012C10.3266 25.7625 9.53171 25.4581 8.71776 25.5043C7.90414 25.5505 7.14876 25.9433 6.64356 26.5831L6.00003 25.9396V14.9998C6.00003 13.9281 5.42815 12.9376 4.50003 12.4017C3.57191 11.8659 2.42814 11.8659 1.50002 12.4017C0.571902 12.9377 1.52588e-05 13.9282 1.52588e-05 14.9998V30.7499C1.52588e-05 30.9488 0.0790337 31.1396 0.219659 31.2802L6.75005 37.8104ZM1.50004 15C1.50004 14.464 1.78597 13.9688 2.25004 13.7009C2.71411 13.4331 3.28598 13.4331 3.75004 13.7009C4.2141 13.9688 4.50004 14.464 4.50004 15V26.2501C4.50004 26.4489 4.57906 26.6398 4.71969 26.7804L6.02855 28.0893C6.01951 28.1837 6.00009 28.2744 6.00009 28.3712C5.99774 29.1332 6.30109 29.8642 6.8415 30.4013L9.96973 33.5302L11.0301 32.4698L7.90118 29.3409C7.64437 29.0834 7.5004 28.7349 7.5004 28.3713C7.50074 28.0077 7.64538 27.6588 7.90252 27.4019C8.15966 27.1448 8.50821 27.0001 8.87187 27.0001C9.23582 26.9991 9.5847 27.1438 9.84147 27.4013L15.0001 32.5605V43.5002H8.25009V37.5002C8.25009 37.3013 8.17107 37.1105 8.03045 36.9699L1.50003 30.4398L1.50004 15Z" fill="black"/>
<path d="M42.0001 12C41.2046 12 40.4415 12.3161 39.8787 12.8786C39.3162 13.4414 39.0001 14.2045 39.0001 15V25.9397L38.3566 26.5833C37.8513 25.9431 37.096 25.5503 36.2817 25.5041C35.4677 25.4579 34.6728 25.7623 34.0979 26.3409L28.7197 31.7198C28.5791 31.8604 28.5001 32.0513 28.5001 32.2501V44.2502C28.5001 44.449 28.5791 44.6399 28.7197 44.7805C28.8603 44.9211 29.0512 45.0002 29.2501 45.0002H37.5001C37.699 45.0002 37.8898 44.9211 38.0304 44.7805C38.1711 44.6399 38.2501 44.449 38.2501 44.2502V37.8105L44.7805 31.2801V31.2804C44.9211 31.1398 45.0001 30.949 45.0001 30.7501V15C45.0001 14.2045 44.6841 13.4414 44.1216 12.8786C43.5587 12.3161 42.7957 12 42.0001 12L42.0001 12ZM43.5001 30.4398L36.9697 36.9702V36.9698C36.8291 37.1105 36.7501 37.3013 36.7501 37.5002V43.5002H30V32.5605L35.1587 27.4012C35.4158 27.1441 35.7647 26.9998 36.1283 26.9998C36.4922 26.9998 36.8408 27.1444 37.0982 27.4016C37.3554 27.6587 37.5 28.0073 37.5 28.3712C37.499 28.7348 37.3547 29.0833 37.0979 29.3408L33.9697 32.4697L35.03 33.5301L38.1583 30.4011H38.1586C38.699 29.8641 39.0024 29.1332 39 28.3711C39 28.2743 38.9806 28.1836 38.9716 28.0892L40.2804 26.7803C40.421 26.6397 40.5001 26.4488 40.5001 26.2499V14.9999C40.5001 14.4639 40.786 13.9687 41.2501 13.7008C41.7141 13.433 42.286 13.433 42.7501 13.7008C43.2141 13.9687 43.5001 14.4639 43.5001 14.9999L43.5001 30.4398Z" fill="black"/>
<path d="M22.1195 4.5974C21.8841 4.46414 21.5955 4.46782 21.3635 4.60711L14.1829 8.91529L13.4999 0.687726C13.4674 0.297991 13.141 -0.0013412 12.7499 4.51954e-06H9.74988C9.35881 -0.00133477 9.03236 0.298 8.99988 0.687726L8.30981 9.00006H8.24988C7.83571 9.00006 7.49988 9.33589 7.49988 9.75006V23.2501C7.49988 23.449 7.5789 23.6398 7.71952 23.7805C7.86015 23.9211 8.051 24.0001 8.24988 24.0001H36.75C36.9488 24.0001 37.1397 23.9211 37.2803 23.7805C37.4209 23.6398 37.5 23.449 37.5 23.2501V5.25005C37.5 4.97985 37.3543 4.73041 37.1193 4.59748C36.8839 4.46422 36.5953 4.46824 36.3636 4.60719L29.9999 8.42483V5.25005C29.9999 4.97985 29.8543 4.73041 29.6193 4.59748C29.3839 4.46422 29.0953 4.46824 28.8636 4.60719L22.5 8.42483V5.25005C22.5 4.97985 22.3546 4.73074 22.1196 4.59748L22.1195 4.5974ZM10.4401 1.49993H12.0599L12.6847 8.99995H9.81522L10.4401 1.49993ZM13.5 22.5H8.99998V19.5H13.5V22.5ZM13.5 18H8.99998V15H13.5V18ZM13.5 13.5H8.99998V10.5H13.5V13.5ZM28.5 6.57517V9.74995C28.5 10.0202 28.6457 10.2696 28.8807 10.4025C29.1161 10.5358 29.4047 10.5318 29.6364 10.3928L36 6.57518V22.5001H15V10.1743L21 6.57432V9.74978C21 10.02 21.1456 10.2694 21.3807 10.4024C21.6161 10.5356 21.9047 10.5316 22.1364 10.3926L28.5 6.57517Z" fill="black"/>
<path d="M21.0001 14.25H18.0001C17.5859 14.25 17.2501 14.5858 17.2501 15V18C17.2501 18.1989 17.3291 18.3897 17.4697 18.5304C17.6103 18.671 17.8012 18.75 18.0001 18.75H21.0001C21.199 18.75 21.3898 18.671 21.5304 18.5304C21.6711 18.3897 21.7501 18.1989 21.7501 18V15C21.7501 14.8011 21.6711 14.6103 21.5304 14.4696C21.3898 14.329 21.199 14.25 21.0001 14.25ZM20.2501 17.25H18.7501V15.75H20.2501V17.25Z" fill="black"/>
<path d="M24.0001 18.75H27.0001C27.199 18.75 27.3898 18.671 27.5305 18.5304C27.6711 18.3897 27.7501 18.1989 27.7501 18V15C27.7501 14.8011 27.6711 14.6103 27.5305 14.4696C27.3898 14.329 27.199 14.25 27.0001 14.25H24.0001C23.5859 14.25 23.2501 14.5858 23.2501 15V18C23.2501 18.1989 23.3291 18.3897 23.4697 18.5304C23.6104 18.671 23.8012 18.75 24.0001 18.75ZM24.7501 15.75H26.2501V17.25H24.7501V15.75Z" fill="black"/>
<path d="M30.0001 18.75H33.0001C33.199 18.75 33.3898 18.671 33.5305 18.5304C33.6711 18.3897 33.7501 18.1989 33.7501 18V15C33.7501 14.8011 33.6711 14.6103 33.5305 14.4696C33.3898 14.329 33.199 14.25 33.0001 14.25H30.0001C29.5859 14.25 29.2501 14.5858 29.2501 15V18C29.2501 18.1989 29.3291 18.3897 29.4697 18.5304C29.6104 18.671 29.8012 18.75 30.0001 18.75ZM30.7501 15.75H32.2501V17.25H30.7501V15.75Z" fill="black"/>
</svg>
