<svg width="57" height="57" viewBox="0 0 57 57" fill="none" xmlns="http://www.w3.org/2000/svg">
<path d="M54.0917 24.237L54.0916 24.2373L30.2415 24.193L54.0917 24.237ZM54.0917 24.237C55.2215 24.2368 56.1531 23.305 56.1531 22.1751V6.61524C56.1531 5.48518 55.2656 4.59773 54.1357 4.59763L54.1359 4.59763L54.1355 4.79763V4.59763L54.0917 24.237ZM30.2419 22.9066H30.2415C29.8581 22.9066 29.5106 22.591 29.5106 22.1756V6.57121C29.5106 6.14976 29.8199 5.84035 30.2413 5.84027C30.2414 5.84027 30.2414 5.84027 30.2415 5.84027L54.1352 5.88485H54.1355C54.5189 5.88485 54.8665 6.20041 54.8665 6.6158V22.1756C54.8665 22.6094 54.5453 22.9507 54.1359 22.9509C54.1358 22.9509 54.1356 22.9509 54.1355 22.9509L30.2419 22.9066Z" fill="#333333" stroke="#333333" stroke-width="0.4"/>
<path d="M46.4225 5.35244H46.6225V5.15244V3.11323C46.6225 1.80584 45.6019 0.785352 44.2946 0.785352H40.0832C38.8202 0.785352 37.7553 1.85017 37.7553 3.11323V5.10816V5.30816H37.9553H38.842H39.042V5.10816V3.11323C39.042 2.51439 39.4844 2.07197 40.0832 2.07197H44.2946C44.8934 2.07197 45.3359 2.51439 45.3359 3.11323V5.15244V5.35244H45.5359H46.4225Z" fill="#333333" stroke="#333333" stroke-width="0.4"/>
<path d="M40.9257 17.4109H43.4526C43.7715 17.4109 44.0959 17.1568 44.0959 16.7676V14.2851C44.0959 14.1067 44.0355 13.9424 43.9154 13.8223C43.7953 13.7022 43.631 13.6418 43.4526 13.6418H40.9257C40.7472 13.6418 40.583 13.7022 40.4628 13.8223C40.3427 13.9424 40.2824 14.1067 40.2824 14.2851V16.7676C40.2824 16.9461 40.3427 17.1103 40.4628 17.2304C40.583 17.3506 40.7472 17.4109 40.9257 17.4109ZM42.8094 14.9284V16.1243H41.5691V14.9284H42.8094Z" fill="#333333" stroke="#333333" stroke-width="0.4"/>
<path d="M55.7287 9.52798L55.2613 9.96423L54.9702 9.75443C54.9458 9.7788 54.9288 9.80637 54.9169 9.83307C54.8802 9.8888 54.7952 9.99167 54.6475 10.1391C54.4788 10.3075 54.2444 10.5185 53.9488 10.7579C53.3581 11.2367 52.5289 11.8249 51.5048 12.4097C49.4559 13.5797 46.6364 14.7307 43.3934 14.9717L43.1988 14.9862L43.2085 15.1811L43.2528 16.0678L43.4497 16.0579L43.4673 16.2572C46.9851 15.9884 50.0399 14.7343 52.2642 13.4378C53.3768 12.7893 54.2841 12.1287 54.9403 11.5723C55.2683 11.2942 55.5351 11.0407 55.7341 10.8265C55.9266 10.6193 56.0695 10.4342 56.1346 10.2919C56.2613 10.0343 56.1963 9.72249 56.0066 9.53277L55.87 9.39614L55.7287 9.52798Z" fill="#333333" stroke="#333333" stroke-width="0.4"/>
<path d="M40.864 16.2125L41.0593 16.2291L41.0798 16.0342L41.1685 15.1918L41.1896 14.9909L40.9885 14.9718C37.9884 14.6872 35.1671 13.5251 33.0531 12.3635C31.9971 11.7832 31.1207 11.2048 30.4905 10.7397C30.1753 10.507 29.923 10.3037 29.7413 10.1437C29.6504 10.0636 29.5786 9.99554 29.526 9.94106C29.4703 9.88331 29.4456 9.85039 29.439 9.8391L29.1068 10.0188L28.688 9.65575L28.5472 9.53378L28.4155 9.66546C28.2326 9.8484 28.1588 10.1127 28.2847 10.3744C28.3157 10.4531 28.3698 10.535 28.4328 10.6152C28.5009 10.7019 28.5887 10.7983 28.6934 10.9022C28.9029 11.1102 29.188 11.3565 29.5372 11.6268C30.2359 12.1677 31.2006 12.812 32.3504 13.4454C34.6479 14.7113 37.7012 15.9434 40.864 16.2125Z" fill="#333333" stroke="#333333" stroke-width="0.4"/>
<path d="M42.1667 40.7284H42.2496L42.2551 40.7229C42.3992 40.7061 42.5299 40.6475 42.6301 40.5474C42.7502 40.4273 42.8106 40.263 42.8106 40.0846V26.6972C42.8106 26.5188 42.7502 26.3545 42.6301 26.2344C42.5099 26.1143 42.3457 26.0539 42.1672 26.0539C41.9888 26.0539 41.8246 26.1143 41.7044 26.2344C41.5843 26.3545 41.5239 26.5188 41.5239 26.6972V39.4418H28.4247C28.2463 39.4418 28.082 39.5022 27.9619 39.6223C27.8418 39.7424 27.7814 39.9067 27.7814 40.0851C27.7814 40.2635 27.8418 40.4278 27.9619 40.5479C28.082 40.6681 28.2463 40.7284 28.4247 40.7284H42.1667Z" fill="#333333" stroke="#333333" stroke-width="0.4"/>
<path d="M1.42703 56.1109H25.3211C25.6399 56.1109 25.9644 55.8569 25.9644 55.4676V24.7026C25.9644 24.5241 25.904 24.3599 25.7839 24.2398C25.6637 24.1196 25.4995 24.0593 25.3211 24.0593H1.42703C1.24858 24.0593 1.08434 24.1196 0.964207 24.2398C0.844072 24.3599 0.783719 24.5241 0.783719 24.7026V55.4676C0.783719 55.6461 0.844072 55.8103 0.964207 55.9305C1.08434 56.0506 1.24858 56.1109 1.42703 56.1109ZM24.6772 25.3449V54.8243H2.06983V25.3449H24.6772Z" fill="#333333" stroke="#333333" stroke-width="0.4"/>
<path d="M5.72637 40.7285H20.9762C21.1546 40.7285 21.3188 40.6681 21.439 40.548C21.5591 40.4278 21.6195 40.2636 21.6195 40.0852C21.6195 39.9067 21.5591 39.7425 21.439 39.6223C21.3188 39.5022 21.1546 39.4418 20.9762 39.4418H5.72637C5.54793 39.4418 5.38369 39.5022 5.26355 39.6223C5.14342 39.7425 5.08307 39.9067 5.08307 40.0852C5.08307 40.2636 5.14342 40.4278 5.26355 40.548C5.38369 40.6681 5.54793 40.7285 5.72637 40.7285Z" fill="#333333" stroke="#333333" stroke-width="0.4"/>
<path d="M5.72637 37.0046H20.9762C21.1546 37.0046 21.3188 36.9442 21.439 36.8241C21.5591 36.704 21.6195 36.5397 21.6195 36.3613C21.6195 36.1828 21.5591 36.0186 21.439 35.8985C21.3188 35.7783 21.1546 35.718 20.9762 35.718H5.72637C5.54793 35.718 5.38369 35.7783 5.26355 35.8985C5.14342 36.0186 5.08307 36.1828 5.08307 36.3613C5.08307 36.5397 5.14342 36.704 5.26355 36.8241C5.38369 36.9442 5.54793 37.0046 5.72637 37.0046Z" fill="#333333" stroke="#333333" stroke-width="0.4"/>
<path d="M5.72637 44.4968H20.9762C21.1546 44.4968 21.3188 44.4364 21.439 44.3163C21.5591 44.1961 21.6195 44.0319 21.6195 43.8535C21.6195 43.675 21.5591 43.5108 21.439 43.3906C21.3188 43.2705 21.1546 43.2102 20.9762 43.2102H5.72637C5.54793 43.2102 5.38369 43.2705 5.26355 43.3906C5.14342 43.5108 5.08307 43.675 5.08307 43.8535C5.08307 44.0319 5.14342 44.1961 5.26355 44.3163C5.38369 44.4364 5.54793 44.4968 5.72637 44.4968Z" fill="#333333" stroke="#333333" stroke-width="0.4"/>
<path d="M5.72637 33.2363H20.9762C21.1546 33.2363 21.3188 33.1759 21.439 33.0558C21.5591 32.9357 21.6195 32.7714 21.6195 32.593C21.6195 32.4145 21.5591 32.2503 21.439 32.1301C21.3188 32.01 21.1546 31.9497 20.9762 31.9497H5.72637C5.54793 31.9497 5.38369 32.01 5.26355 32.1301C5.14342 32.2503 5.08307 32.4145 5.08307 32.593C5.08307 32.7714 5.14342 32.9357 5.26355 33.0558C5.38369 33.1759 5.54793 33.2363 5.72637 33.2363Z" fill="#333333" stroke="#333333" stroke-width="0.4"/>
<path d="M5.72637 48.2206H20.9762C21.1546 48.2206 21.3188 48.1603 21.439 48.0402C21.5591 47.92 21.6195 47.7558 21.6195 47.5773C21.6195 47.3989 21.5591 47.2347 21.439 47.1145C21.3188 46.9944 21.1546 46.934 20.9762 46.934H5.72637C5.54793 46.934 5.38369 46.9944 5.26355 47.1145C5.14342 47.2347 5.08307 47.3989 5.08307 47.5773C5.08307 47.7558 5.14342 47.92 5.26355 48.0402C5.38369 48.1603 5.54793 48.2206 5.72637 48.2206Z" fill="#333333" stroke="#333333" stroke-width="0.4"/>
<path d="M5.72637 29.5124H20.9762C21.1546 29.5124 21.3188 29.452 21.439 29.3319C21.5591 29.2118 21.6195 29.0475 21.6195 28.8691C21.6195 28.6906 21.5591 28.5264 21.439 28.4063C21.3188 28.2861 21.1546 28.2258 20.9762 28.2258H5.72637C5.54793 28.2258 5.38369 28.2861 5.26355 28.4063C5.14342 28.5264 5.08307 28.6906 5.08307 28.8691C5.08307 29.0475 5.14342 29.2118 5.26355 29.3319C5.38369 29.452 5.54793 29.5124 5.72637 29.5124Z" fill="#333333" stroke="#333333" stroke-width="0.4"/>
<path d="M5.72637 51.9879H20.9762C21.1546 51.9879 21.3188 51.9275 21.439 51.8074C21.5591 51.6872 21.6195 51.523 21.6195 51.3446C21.6195 51.1661 21.5591 51.0019 21.439 50.8817C21.3188 50.7616 21.1546 50.7012 20.9762 50.7012H5.72637C5.54793 50.7012 5.38369 50.7616 5.26355 50.8817C5.14342 51.0019 5.08307 51.1661 5.08307 51.3446C5.08307 51.523 5.14342 51.6872 5.26355 51.8074C5.38369 51.9275 5.54793 51.9879 5.72637 51.9879Z" fill="#333333" stroke="#333333" stroke-width="0.4"/>
</svg>
