<svg width="47" height="47" viewBox="0 0 47 47" fill="none" xmlns="http://www.w3.org/2000/svg">
<path d="M34.804 17.6198V0H0.888062V46.78H46.9198V17.6198H34.804ZM25.1113 17.6198V43.0808H2.65172V4.66418L6.57513 12.6205H14.2096V20.0947V20.0944C14.2096 21.3941 14.9025 22.5947 16.0283 23.2446C17.1536 23.8941 18.5399 23.8941 19.6656 23.2446C20.791 22.5947 21.4843 21.3941 21.4843 20.0944V12.6205H29.1221L33.0455 4.66419L33.0451 17.6198L25.1113 17.6198ZM15.9713 12.0829C16.5332 12.4343 17.1828 12.6207 17.8454 12.6207C18.5084 12.6207 19.1579 12.4343 19.7198 12.0829V16.9871C19.1575 16.6368 18.508 16.4511 17.8454 16.4511C17.1831 16.4511 16.5336 16.6368 15.9713 16.9871V12.0829ZM17.8545 18.2197C18.3519 18.2197 18.8288 18.4171 19.1805 18.7689C19.5319 19.1203 19.7297 19.5972 19.7297 20.0945C19.7297 20.5919 19.5319 21.0688 19.1805 21.4205C18.8288 21.7719 18.3519 21.9697 17.8545 21.9697C17.3572 21.9697 16.8802 21.7719 16.5285 21.4205C16.1771 21.0688 15.9793 20.5919 15.9793 20.0945C15.9801 19.5975 16.1775 19.121 16.5292 18.7692C16.8806 18.4178 17.3576 18.22 17.8546 18.2196L17.8545 18.2197ZM17.8545 10.8633C17.3572 10.8637 16.8798 10.6663 16.5278 10.3149C16.176 9.96313 15.9779 9.48621 15.9779 8.98888C15.9779 8.49116 16.1753 8.01419 16.527 7.66249C16.8788 7.31073 17.3561 7.11295 17.8534 7.11331C18.3508 7.11331 18.8281 7.31109 19.1794 7.66322C19.5312 8.01498 19.7283 8.49227 19.7279 8.98998C19.7257 9.48552 19.5276 9.9599 19.1765 10.3098C18.8255 10.6598 18.35 10.8565 17.8545 10.8568V10.8633ZM32.5056 1.76273L28.0246 10.8568H21.4856V8.98338C21.4856 7.68398 20.7923 6.48305 19.667 5.83316C18.5416 5.18365 17.155 5.18365 16.0296 5.83316C14.9042 6.48305 14.2109 7.68389 14.2109 8.98338V10.8568H7.6719L3.18437 1.76273H32.5056ZM45.1549 45.0182H26.8756V19.3825H45.1549V45.0182Z" fill="#333333"/>
<path d="M29.5952 23.2023H42.436V24.9643H29.5952V23.2023Z" fill="#333333"/>
<path d="M29.5952 28.6128H42.436V30.3749H29.5952V28.6128Z" fill="#333333"/>
<path d="M29.5952 34.0244H42.436V35.7865H29.5952V34.0244Z" fill="#333333"/>
<path d="M29.5952 39.4348H42.436V41.1969H29.5952V39.4348Z" fill="#333333"/>
<path d="M17.855 21.0341C18.2348 21.0337 18.5771 20.8042 18.7223 20.4528C18.8672 20.1014 18.7866 19.6974 18.5173 19.4289C18.2483 19.1603 17.8444 19.0804 17.4934 19.226C17.1423 19.3716 16.9135 19.7142 16.9135 20.0941C16.9135 20.3437 17.0128 20.583 17.1894 20.7593C17.366 20.9359 17.6054 21.0348 17.855 21.034V21.0341Z" fill="#333333"/>
<path d="M17.8549 8.04297C17.4747 8.04224 17.1313 8.27067 16.9853 8.62206C16.8394 8.9731 16.9193 9.37777 17.1879 9.6471C17.4568 9.91603 17.8611 9.99704 18.2125 9.85144C18.5639 9.70621 18.7934 9.3632 18.7934 8.98298C18.7934 8.46446 18.3734 8.0437 17.8549 8.04305L17.8549 8.04297Z" fill="#333333"/>
</svg>
