<svg width="180" height="55" viewBox="0 0 180 55" fill="none" xmlns="http://www.w3.org/2000/svg">
<g clip-path="url(#clip0_97_1434)">
<path d="M12.7441 7.60458H0V0.691406H33.067V7.60458H20.3264V41.0141H12.7476L12.7441 7.60458Z" fill="#4285F4"/>
<path d="M46.2115 42.0368L59.8424 28.5368L60.6298 27.1363L61.3984 25.6853L61.7424 24.5114L45.5657 14.4228L44.8637 13.8945L44.6461 14.9346L46.2115 42.0368Z" fill="#FFF464"/>
<path d="M45.5702 42.6554L46.2113 42.0367L60.5032 27.1374L46.2113 13.8945L45.5655 14.4228L33.9235 17.2707L29.7995 21.6435L29.6708 25.6877L30.4394 27.1386L44.8589 42.0379L45.5702 42.6554Z" fill="#FFF464"/>
<path d="M159.181 27.75V33.0995C159.556 32.6158 160.036 32.2246 160.584 31.9562C161.133 31.6878 161.736 31.5492 162.346 31.5511C163.013 31.5059 163.682 31.6068 164.306 31.8467C164.93 32.0866 165.495 32.4599 165.961 32.9406C166.427 33.4214 166.784 33.9981 167.006 34.6308C167.228 35.2635 167.31 35.9371 167.247 36.6048C167.292 37.2737 167.195 37.9445 166.963 38.5731C166.731 39.2017 166.368 39.7737 165.899 40.2514C165.43 40.7291 164.866 41.1016 164.243 41.3443C163.621 41.5871 162.954 41.6946 162.286 41.6597C161.679 41.6935 161.074 41.5685 160.53 41.2971C159.986 41.0257 159.521 40.6171 159.181 40.1113L159.027 41.4437H156.804V27.75H159.181ZM159.338 36.6048C159.331 36.9737 159.396 37.3403 159.532 37.6833C159.667 38.0263 159.87 38.3387 160.127 38.6023C160.384 38.8658 160.691 39.0752 161.03 39.2181C161.369 39.361 161.733 39.4347 162.101 39.4347C162.469 39.4347 162.833 39.361 163.171 39.2181C163.51 39.0752 163.818 38.8658 164.075 38.6023C164.332 38.3387 164.534 38.0263 164.67 37.6833C164.805 37.3403 164.871 36.9737 164.864 36.6048C164.885 36.2355 164.83 35.8657 164.701 35.5191C164.572 35.1724 164.373 34.8565 164.115 34.5915C163.858 34.3264 163.549 34.118 163.207 33.9796C162.865 33.8412 162.498 33.7757 162.13 33.7874C161.76 33.7815 161.393 33.8504 161.051 33.9901C160.708 34.1298 160.397 34.3374 160.137 34.6005C159.876 34.8635 159.671 35.1766 159.534 35.521C159.397 35.8654 159.33 36.234 159.338 36.6048Z" fill="#4A154B"/>
<path d="M179 27.75V41.4437H176.777L176.62 40.1113C176.281 40.6171 175.816 41.0257 175.272 41.2971C174.727 41.5685 174.122 41.6935 173.515 41.6597C172.848 41.6944 172.181 41.5868 171.559 41.344C170.936 41.1012 170.372 40.7286 169.903 40.2509C169.435 39.7732 169.073 39.2012 168.841 38.5728C168.609 37.9443 168.512 37.2735 168.557 36.6048C168.494 35.937 168.576 35.2634 168.798 34.6305C169.02 33.9977 169.376 33.4209 169.842 32.9402C170.308 32.4594 170.873 32.0861 171.498 31.8463C172.122 31.6064 172.791 31.5057 173.458 31.5511C174.068 31.5491 174.669 31.6877 175.217 31.9562C175.765 32.2246 176.244 32.6158 176.617 33.0995V27.75H179ZM170.936 36.6048C170.928 36.9737 170.994 37.3403 171.129 37.6833C171.265 38.0263 171.467 38.3387 171.724 38.6023C171.982 38.8658 172.289 39.0752 172.628 39.2181C172.967 39.361 173.331 39.4347 173.698 39.4347C174.066 39.4347 174.43 39.361 174.769 39.2181C175.108 39.0752 175.415 38.8658 175.672 38.6023C175.93 38.3387 176.132 38.0263 176.267 37.6833C176.403 37.3403 176.469 36.9737 176.461 36.6048C176.469 36.234 176.403 35.8653 176.266 35.5208C176.129 35.1763 175.924 34.8631 175.663 34.6001C175.402 34.337 175.091 34.1294 174.749 33.9898C174.406 33.8502 174.039 33.7813 173.67 33.7874C173.301 33.7761 172.935 33.8418 172.593 33.9803C172.251 34.1189 171.942 34.3273 171.685 34.5923C171.427 34.8572 171.228 35.173 171.099 35.5195C170.97 35.866 170.914 36.2356 170.936 36.6048Z" fill="#4A154B"/>
<path d="M102.315 41.0142V19.1794H97.0323V13.0152H102.315V11.1181C102.315 3.51351 107.424 0 113.106 0C115.725 0.0446546 118.276 0.844613 120.454 2.30439L117.871 7.54591C116.616 6.6282 115.117 6.10706 113.566 6.04917C111.155 6.04917 109.318 7.66095 109.318 11.1181V13.0187H117.642V19.1829H109.318V41.0177L102.315 41.0142Z" fill="#2EB67D"/>
<path d="M145.712 12.6206H152.428V41.2923H145.826L145.482 37.1049C143.875 40.4776 139.454 42.1069 136.297 42.1645C127.915 42.222 121.715 36.9887 121.715 26.9271C121.715 17.0404 128.202 11.8634 136.468 11.9221C140.259 11.9221 143.875 13.7253 145.482 16.5743L145.712 12.6206ZM128.717 26.9294C128.717 32.3952 132.449 35.6528 137.099 35.6528C148.122 35.6528 148.122 18.2648 137.099 18.2648C132.45 18.2648 128.717 21.4625 128.717 26.9294Z" fill="#E01E5A"/>
<path d="M40.564 25.6723H29.6695C29.6695 25.6723 27.1834 19.3684 31.7942 14.924C33.4672 13.291 37.9422 10.0252 44.8576 13.8803V23.0874C44.8576 23.0874 43.0267 21.1598 41.0378 21.4087C40.7674 21.4287 40.5035 21.5022 40.2615 21.625C40.0195 21.7477 39.8041 21.9173 39.6278 22.124C39.4514 22.3307 39.3175 22.5703 39.2338 22.8291C39.1501 23.088 39.1183 23.3608 39.1402 23.6321C39.1693 24.0701 39.3174 24.4918 39.5684 24.8515C39.8194 25.2111 40.1637 25.495 40.564 25.6723Z" fill="#E01E5A"/>
<path d="M30.4382 27.1243H44.5406C44.5406 27.1243 44.0434 29.4146 39.9779 30.0497C39.9779 30.8198 40.0013 31.5687 40.0013 31.5687C40.0013 31.5687 43.5941 31.0921 44.86 29.3465V42.0248C44.86 42.0248 32.6985 32.2038 30.4382 27.1243Z" fill="#E01E5A"/>
<path d="M41.2867 24.3012C41.0153 23.9279 40.6713 23.2259 40.9135 22.9395C41.1873 22.6155 42.1021 22.9583 42.5748 23.2118C43.3381 23.6534 43.9317 24.3392 44.2607 25.1593C44.2785 25.199 44.2859 25.2425 44.2822 25.2858C44.2785 25.3291 44.2638 25.3708 44.2395 25.4068C44.2152 25.4428 44.1822 25.472 44.1435 25.4915C44.1048 25.5111 44.0618 25.5204 44.0185 25.5186C43.5026 25.5252 42.9914 25.4199 42.5199 25.2098C42.0484 24.9996 41.6277 24.6897 41.2867 24.3012Z" fill="#E01E5A"/>
<path d="M50.5023 25.6723H61.3968C61.3968 25.6723 63.8817 19.3684 59.2722 14.924C57.5992 13.291 53.1242 10.0252 46.2087 13.8803V23.0874C46.2087 23.0874 48.0396 21.1598 50.0285 21.4087C50.2989 21.4288 50.5626 21.5024 50.8046 21.6253C51.0465 21.7481 51.2618 21.9177 51.4382 22.1243C51.6146 22.331 51.7485 22.5706 51.8322 22.8293C51.916 23.0881 51.9479 23.3609 51.9261 23.6321C51.897 24.0701 51.7489 24.4918 51.4979 24.8515C51.247 25.2111 50.9026 25.495 50.5023 25.6723Z" fill="#E01E5A"/>
<path d="M60.6294 27.1243H46.5259C46.5259 27.1243 47.0231 29.4146 51.0886 30.0497C51.0886 30.8198 51.0652 31.5687 51.0652 31.5687C51.0652 31.5687 47.4724 31.0921 46.2065 29.3465V42.0248C46.2065 42.0248 58.3691 32.2038 60.6294 27.1243Z" fill="#E01E5A"/>
<path d="M49.7806 24.3012C50.0509 23.9279 50.3948 23.2259 50.1538 22.9395C49.8801 22.6155 48.9652 22.9583 48.4925 23.2118C47.7292 23.6534 47.1356 24.3392 46.8066 25.1593C46.7885 25.1989 46.7808 25.2426 46.7844 25.286C46.7879 25.3295 46.8026 25.3713 46.8269 25.4074C46.8513 25.4435 46.8845 25.4727 46.9233 25.4922C46.9622 25.5116 47.0054 25.5207 47.0488 25.5186C47.5647 25.5252 48.0759 25.4199 48.5474 25.2098C49.0189 24.9996 49.4396 24.6897 49.7806 24.3012Z" fill="#E01E5A"/>
<path d="M94.0489 26.0328V41.0119H87.041V26.0915C87.041 20.9145 84.3501 18.7193 80.6181 18.7193C76.4765 18.7193 73.6101 22.241 73.6101 26.5023V41.0119H66.6022V0.687988H73.6101V16.4771C74.6239 15.0944 75.9606 13.9826 77.5028 13.2396C79.045 12.4966 80.7455 12.145 82.4548 12.2158C90.4923 12.2158 94.0489 17.6863 94.0489 26.0328Z" fill="#ECB22E"/>
<path d="M102.88 48.4923C102.764 49.3197 102.35 50.0762 101.718 50.6199C101.085 51.1636 100.277 51.4572 99.4443 51.4458H97.1711L98.2392 45.6385H100.512C100.877 45.5992 101.245 45.6509 101.584 45.7888C101.924 45.9267 102.224 46.1467 102.458 46.4291C102.692 46.7114 102.854 47.0476 102.927 47.4075C103.001 47.7675 102.985 48.1401 102.88 48.4923ZM98.4475 50.3917H99.6385C100.171 50.4 100.687 50.2092 101.086 49.8566C101.486 49.5039 101.74 49.0146 101.799 48.4841C101.866 48.2628 101.877 48.0285 101.832 47.8019C101.787 47.5752 101.687 47.3632 101.541 47.1844C101.395 47.0057 101.207 46.8657 100.995 46.7769C100.782 46.6881 100.551 46.6531 100.322 46.6751H99.1307L98.4475 50.3917Z" fill="#757779"/>
<path d="M104.33 49.7611C104.303 50.2671 104.674 50.6322 105.383 50.6322C105.801 50.6311 106.207 50.4975 106.545 50.2507L107.071 50.8905C106.542 51.3202 105.881 51.554 105.199 51.5525C104.918 51.5929 104.631 51.5608 104.365 51.4593C104.099 51.3577 103.863 51.1901 103.679 50.9721C103.495 50.7541 103.37 50.4929 103.314 50.2129C103.259 49.9329 103.275 49.6434 103.361 49.3714C103.461 48.7659 103.774 48.2164 104.244 47.8235C104.714 47.4306 105.309 47.2204 105.92 47.2314C107.284 47.2314 107.98 48.0778 107.514 49.7611H104.33ZM106.699 48.9241C106.73 48.3924 106.366 48.1271 105.788 48.1271C105.519 48.1184 105.254 48.1893 105.025 48.3311C104.796 48.4728 104.614 48.6791 104.501 48.9241H106.699Z" fill="#757779"/>
<path d="M110.049 45.6465L108.983 51.4456H107.984L109.05 45.6465H110.049Z" fill="#757779"/>
<path d="M111.636 47.3381L110.88 51.4468H109.873L110.629 47.3381H111.636ZM110.747 46.2018C110.602 46.9906 111.792 46.9906 111.937 46.2018C112.082 45.4129 110.887 45.4129 110.743 46.2018H110.747Z" fill="#757779"/>
<path d="M116.766 47.3464L114.273 51.4622H113.183L112.195 47.3464H113.294L113.608 48.6988L113.919 50.4256L114.855 48.7164L115.674 47.3464H116.766Z" fill="#757779"/>
<path d="M117.673 49.7611C117.646 50.2671 118.017 50.6322 118.726 50.6322C119.144 50.6315 119.55 50.4979 119.888 50.2506L120.415 50.8904C119.885 51.32 119.225 51.5538 118.543 51.5525C118.262 51.5931 117.974 51.5611 117.708 51.4597C117.442 51.3583 117.206 51.1907 117.022 50.9727C116.838 50.7547 116.713 50.4933 116.657 50.2132C116.602 49.9331 116.618 49.6435 116.704 49.3714C116.804 48.766 117.117 48.2167 117.587 47.8238C118.057 47.4309 118.651 47.2206 119.263 47.2313C120.627 47.2313 121.323 48.0777 120.856 49.7611H117.673ZM120.042 48.9241C120.074 48.3923 119.71 48.127 119.131 48.127C118.862 48.1185 118.597 48.1895 118.368 48.3313C118.139 48.473 117.957 48.6792 117.844 48.9241H120.042Z" fill="#757779"/>
<path d="M123.012 47.3557L123 47.8252C123.144 47.6303 123.334 47.4745 123.553 47.372C123.772 47.2695 124.014 47.2236 124.255 47.2383C124.436 47.2309 124.617 47.2618 124.786 47.3292C124.955 47.3965 125.107 47.4988 125.234 47.6292L124.616 48.5085C124.53 48.4164 124.425 48.3448 124.308 48.2989C124.19 48.253 124.065 48.234 123.939 48.2432C123.645 48.2317 123.357 48.332 123.133 48.5242C122.909 48.7164 122.766 48.9862 122.732 49.2797L122.334 51.4374H121.327L122.079 47.3475L123.012 47.3557Z" fill="#757779"/>
<path d="M126.68 47.3381L125.926 51.4468H124.916L125.672 47.3381H126.68ZM125.79 46.2018C125.645 46.9906 126.835 46.9906 126.981 46.2018C127.127 45.4129 125.935 45.4129 125.792 46.2018H125.79Z" fill="#757779"/>
<path d="M129.836 51.4456L130.229 49.3056C130.346 48.6834 130.092 48.2103 129.447 48.2103C129.14 48.2286 128.847 48.3521 128.62 48.5604C128.392 48.7687 128.242 49.0492 128.195 49.3549L127.81 51.4456H126.81L127.565 47.3463H128.466L128.429 47.9028C128.822 47.5271 129.339 47.3087 129.881 47.2888C130.839 47.2888 131.476 48.0108 131.24 49.2974L130.844 51.4456H129.836Z" fill="#757779"/>
<path d="M135.744 46.9402L136.384 47.5048L135.822 48.0848C135.939 48.2614 136.017 48.4604 136.053 48.6692C136.089 48.878 136.081 49.0919 136.029 49.2974C135.978 49.6259 135.847 49.9367 135.648 50.2027C135.449 50.4688 135.188 50.6819 134.889 50.8235C135.132 50.9406 135.326 51.1412 135.436 51.3892C135.545 51.6372 135.562 51.9162 135.484 52.1758C135.372 52.7157 135.07 53.1971 134.633 53.5321C134.197 53.867 133.654 54.0331 133.106 54.0001C131.924 54.0001 131.173 53.2793 131.375 52.1758H132.376C132.277 52.7064 132.702 53.0551 133.28 53.0551C133.551 53.0767 133.821 52.9997 134.04 52.8383C134.259 52.6769 134.414 52.4418 134.474 52.1758C134.579 51.6112 134.098 51.3541 133.592 51.3541C133.329 51.3898 133.061 51.3575 132.813 51.26C132.565 51.1626 132.347 51.0034 132.178 50.7974C132.008 50.5914 131.895 50.3455 131.847 50.083C131.799 49.8205 131.819 49.5501 131.904 49.2974C132.003 48.7175 132.303 48.1913 132.751 47.8116C133.199 47.432 133.766 47.2231 134.353 47.2219C134.667 47.1995 134.98 47.282 135.243 47.4567L135.744 46.9402ZM132.904 49.2974C132.86 49.4305 132.848 49.5726 132.87 49.7113C132.893 49.85 132.949 49.9811 133.033 50.0931C133.118 50.2051 133.229 50.2946 133.356 50.3538C133.483 50.4129 133.622 50.44 133.762 50.4326C134.073 50.4233 134.37 50.3044 134.602 50.0967C134.833 49.8891 134.985 49.606 135.029 49.2974C135.074 49.1642 135.086 49.0221 135.065 48.8831C135.044 48.7441 134.989 48.6124 134.906 48.4991C134.823 48.3858 134.714 48.2943 134.588 48.2324C134.462 48.1705 134.323 48.1399 134.183 48.1434C133.868 48.1543 133.567 48.2764 133.333 48.4881C133.099 48.6999 132.948 48.9878 132.904 49.3009V49.2974Z" fill="#757779"/>
<path d="M141.969 51.4538L142.401 49.106H139.558L139.125 51.4538H138.034L139.101 45.6465H140.193L139.743 48.0941H142.587L143.037 45.6465H144.119L143.051 51.4538H141.969Z" fill="#757779"/>
<path d="M147.992 47.3557H148.957L148.206 51.4456H147.255L147.315 50.8481C147.14 51.0683 146.919 51.2473 146.668 51.3721C146.417 51.4969 146.141 51.5645 145.86 51.57C144.652 51.5782 143.896 50.8316 144.161 49.3959C144.243 48.7905 144.546 48.2371 145.011 47.8421C145.476 47.4471 146.069 47.2383 146.678 47.2559C146.918 47.2371 147.157 47.2902 147.367 47.4083C147.576 47.5263 147.746 47.7042 147.854 47.9192L147.992 47.3557ZM145.171 49.3959C145.124 49.545 145.113 49.7036 145.141 49.8577C145.168 50.0118 145.233 50.1567 145.33 50.2797C145.426 50.4027 145.552 50.4999 145.695 50.5627C145.838 50.6256 145.994 50.6522 146.149 50.6403C147.736 50.6403 148.192 48.1598 146.605 48.1598C146.258 48.1598 145.923 48.2845 145.66 48.5113C145.397 48.7381 145.223 49.0519 145.171 49.3959Z" fill="#757779"/>
<path d="M148.749 53.1548L149.816 47.3557H150.758L150.72 47.9192C150.903 47.7161 151.125 47.553 151.373 47.4403C151.622 47.3275 151.89 47.2676 152.163 47.2642C152.43 47.2463 152.698 47.2938 152.943 47.4024C153.188 47.5111 153.404 47.6777 153.57 47.888C153.737 48.0984 153.851 48.3461 153.902 48.6102C153.953 48.8742 153.939 49.1467 153.862 49.4042C153.776 49.9976 153.481 50.5405 153.03 50.9336C152.579 51.3268 152.002 51.5439 151.405 51.5454C151.163 51.5681 150.92 51.5256 150.7 51.4224C150.481 51.3193 150.293 51.1591 150.155 50.9585L149.753 53.149L148.749 53.1548ZM152.852 49.4042C152.894 49.2627 152.902 49.1128 152.873 48.9678C152.844 48.8228 152.781 48.6871 152.688 48.5725C152.595 48.4579 152.475 48.3679 152.339 48.3105C152.203 48.2531 152.056 48.23 151.909 48.2432C151.58 48.2418 151.262 48.3579 151.011 48.5706C150.759 48.7833 150.592 49.0788 150.538 49.4042C150.499 49.5457 150.495 49.6943 150.525 49.8377C150.556 49.9812 150.62 50.1153 150.712 50.2289C150.804 50.3426 150.922 50.4325 151.056 50.4912C151.19 50.5499 151.336 50.5757 151.482 50.5664C151.809 50.561 152.124 50.4424 152.374 50.2306C152.623 50.0187 152.792 49.7268 152.852 49.4042Z" fill="#757779"/>
<path d="M153.919 53.1549L154.986 47.3558H155.922L155.884 47.9192C156.067 47.7161 156.29 47.553 156.538 47.4403C156.786 47.3275 157.055 47.2676 157.328 47.2642C157.596 47.2463 157.863 47.2937 158.108 47.4023C158.353 47.511 158.569 47.6776 158.736 47.888C158.902 48.0984 159.016 48.3462 159.067 48.6103C159.117 48.8744 159.103 49.1468 159.026 49.4042C158.941 49.9976 158.646 50.5405 158.194 50.9337C157.743 51.3268 157.166 51.544 156.569 51.5455C156.327 51.568 156.084 51.5255 155.865 51.4223C155.645 51.3191 155.457 51.159 155.319 50.9585L154.917 53.149L153.919 53.1549ZM158.023 49.4042C158.066 49.2627 158.073 49.1129 158.044 48.9678C158.016 48.8228 157.952 48.6871 157.859 48.5725C157.766 48.4579 157.646 48.368 157.51 48.3106C157.375 48.2532 157.227 48.23 157.08 48.2432C156.751 48.2416 156.433 48.3576 156.181 48.5703C155.93 48.7831 155.763 49.0787 155.709 49.4042C155.67 49.5456 155.666 49.6942 155.696 49.8377C155.726 49.9811 155.79 50.1153 155.882 50.229C155.974 50.3427 156.092 50.4326 156.226 50.4913C156.36 50.55 156.506 50.5758 156.652 50.5664C156.979 50.5611 157.294 50.4425 157.544 50.2307C157.794 50.0189 157.963 49.7269 158.023 49.4042Z" fill="#757779"/>
<path d="M161.168 47.3381L160.412 51.4468H159.405L160.159 47.3381H161.168ZM160.278 46.2018C160.132 46.9906 161.323 46.9906 161.469 46.2018C161.614 45.4129 160.423 45.4129 160.278 46.2018Z" fill="#757779"/>
<path d="M164.323 51.4456L164.717 49.3056C164.834 48.6834 164.579 48.2103 163.934 48.2103C163.627 48.2286 163.335 48.3521 163.107 48.5604C162.879 48.7687 162.729 49.0492 162.683 49.3549L162.298 51.4456H161.297L162.052 47.3463H162.953L162.917 47.9028C163.31 47.5271 163.826 47.3087 164.369 47.2888C165.328 47.2888 165.963 48.0108 165.727 49.2974L165.331 51.4456H164.323Z" fill="#757779"/>
<path d="M167.373 49.7611C167.346 50.2671 167.717 50.6322 168.426 50.6322C168.844 50.6313 169.25 50.4978 169.588 50.2507L170.115 50.8905C169.586 51.3201 168.925 51.5538 168.244 51.5525C167.962 51.5931 167.674 51.5612 167.408 51.4597C167.142 51.3583 166.906 51.1907 166.722 50.9727C166.539 50.7547 166.413 50.4934 166.357 50.2133C166.302 49.9332 166.318 49.6435 166.404 49.3714C166.504 48.7658 166.817 48.2163 167.287 47.8234C167.757 47.4305 168.353 47.2204 168.964 47.2314C170.328 47.2314 171.023 48.0778 170.557 49.7611H167.373ZM169.742 48.9242C169.774 48.3924 169.41 48.1271 168.831 48.1271C168.562 48.1184 168.297 48.1893 168.068 48.3311C167.839 48.4728 167.657 48.6791 167.544 48.9242H169.742Z" fill="#757779"/>
<path d="M174.241 48.4428C174.122 48.3153 173.976 48.2163 173.814 48.1531C173.652 48.0899 173.478 48.0641 173.305 48.0777C172.825 48.0777 172.534 48.2257 172.486 48.4839C172.438 48.7422 172.65 48.8983 173.164 48.9324C173.924 48.9817 174.867 49.1554 174.667 50.2425C174.55 50.67 174.283 51.0411 173.916 51.2879C173.549 51.5347 173.106 51.6407 172.667 51.5866C172.337 51.6202 172.004 51.5712 171.698 51.4437C171.392 51.3163 171.122 51.1144 170.912 50.8564L171.542 50.1344C171.71 50.3111 171.912 50.4527 172.135 50.551C172.358 50.6493 172.598 50.7024 172.841 50.7073C173.219 50.7155 173.611 50.5171 173.667 50.2178C173.719 49.9361 173.509 49.8187 172.936 49.7858C172.178 49.7283 171.312 49.4465 171.483 48.5168C171.654 47.5871 172.694 47.2396 173.438 47.2396C173.71 47.214 173.985 47.249 174.242 47.3421C174.499 47.4353 174.732 47.5843 174.925 47.7784L174.241 48.4428Z" fill="#757779"/>
<path d="M178.302 48.4428C178.183 48.3151 178.037 48.216 177.875 48.1527C177.713 48.0895 177.539 48.0639 177.366 48.0777C176.886 48.0777 176.593 48.2257 176.547 48.4839C176.5 48.7422 176.71 48.8983 177.224 48.9323C177.984 48.9817 178.927 49.1554 178.727 50.2424C178.61 50.6699 178.344 51.0408 177.977 51.2876C177.61 51.5343 177.167 51.6405 176.728 51.5866C176.398 51.6202 176.065 51.5711 175.759 51.4437C175.452 51.3162 175.182 51.1144 174.973 50.8564L175.602 50.1344C175.771 50.3111 175.972 50.4526 176.195 50.5509C176.418 50.6493 176.658 50.7024 176.901 50.7073C177.28 50.7155 177.672 50.5171 177.727 50.2178C177.78 49.936 177.569 49.8187 176.997 49.7858C176.239 49.7283 175.373 49.4465 175.544 48.5168C175.715 47.5871 176.754 47.2396 177.499 47.2396C177.771 47.214 178.045 47.249 178.302 47.3421C178.56 47.4353 178.793 47.5843 178.986 47.7784L178.302 48.4428Z" fill="#757779"/>
</g>
<defs>
<clipPath id="clip0_97_1434">
<rect width="179" height="54" fill="white"/>
</clipPath>
</defs>
</svg>
