<svg width="20" height="20" viewBox="0 0 20 20" fill="none" xmlns="http://www.w3.org/2000/svg">
<path fill-rule="evenodd" clip-rule="evenodd" d="M10.5 16.9825V20H9.5V16.9825C6.03253 16.7378 3.26219 13.9675 3.01755 10.5H0V9.5H3.01755C3.26225 6.03253 6.03246 3.26219 9.5 3.01755V0H10.5V3.01755C13.9675 3.26225 16.7378 6.03246 16.9825 9.5H20V10.5H16.9825C16.7378 13.9675 13.9675 16.7378 10.5 16.9825ZM4.00004 10C4.00004 13.3137 6.68627 16 10 16C13.3137 16 16 13.3137 16 10C16 6.68627 13.3137 4.00004 10 4.00004C6.68627 4.00004 4.00004 6.68627 4.00004 10ZM10 11C9.44768 11 9.00001 10.5523 9.00001 10C9.00001 9.44768 9.44768 9.00001 10 9.00001C10.5523 9.00001 11 9.44768 11 10C11 10.5523 10.5523 11 10 11Z" fill="#959DA5"/>
</svg>
