<svg width="21" height="20" viewBox="0 0 21 20" fill="none" xmlns="http://www.w3.org/2000/svg">
<path d="M18.9433 11.9295L18.9385 11.9538V11.9786V11.9788V11.979V11.9792V11.9794V11.9796V11.9798V11.98V11.9802V11.9804V11.9806V11.9808V11.981V11.9812V11.9814V11.9816V11.9818V11.982V11.9822V11.9823V11.9825V11.9827V11.9829V11.9831V11.9833V11.9835V11.9837V11.9839V11.984V11.9842V11.9844V11.9846V11.9848V11.985V11.9852V11.9853V11.9855V11.9857V11.9859V11.9861V11.9862V11.9864V11.9866V11.9868V11.9869V11.9871V11.9873V11.9875V11.9876V11.9878V11.988V11.9881V11.9883V11.9885V11.9886V11.9888V11.989V11.9892V11.9893V11.9895V11.9896V11.9898V11.99V11.9901V11.9903V11.9905V11.9906V11.9908V11.9909V11.9911V11.9913V11.9914V11.9916V11.9917V11.9919V11.992V11.9922V11.9924V11.9925V11.9927V11.9928V11.993V11.9931V11.9933V11.9934V11.9936V11.9937V11.9939V11.994V11.9942V11.9943V11.9945V11.9946V11.9948V11.9949V11.995V11.9952V11.9953V11.9955V11.9956V11.9958V11.9959V11.996V11.9962V11.9963V11.9965V11.9966V11.9967V11.9969V11.997V11.9972V11.9973V11.9974V11.9976V11.9977V11.9978V11.998V11.9981V11.9982V11.9984V11.9985V11.9986V11.9988V11.9989V11.999V11.9992V11.9993V11.9994V11.9996V11.9997V11.9998V11.9999V12.0001V12.0002V12.0003V12.0005V12.0006V12.0007V12.0008V12.001V12.0011V12.0012V12.0013V12.0015V12.0016V12.0017V12.0018V12.002V12.0021V12.0022V12.0023V12.0024V12.0026V12.0027V12.0028V12.0029V12.003V12.0032V12.0033V12.0034V12.0035V12.0036V12.0038V12.0039V12.004V12.0041V12.0042V12.0043V12.0045V12.0046V12.0047V12.0048V12.0049V12.005V12.0051V12.0053V12.0054V12.0055V12.0056V12.0057V12.0058V12.0059V12.0061V12.0062V12.0063V12.0064V12.0065V12.0066V12.0067V12.0068V12.0069V12.0071V12.0072V12.0073V12.0074V12.0075V12.0076V12.0077V12.0078V12.0079V12.008V12.0081V12.0083V12.0084V12.0085V12.0086V12.0087V12.0088V12.0089V12.009V12.0091V12.0092V12.0093V12.0094V12.0095V12.0096V12.0098V12.0099V12.01V12.0101V12.0102V12.0103V12.0104V12.0105V12.0106V12.0107V12.0108V12.0109V12.011V12.0111V12.0112V12.0113V12.0114V12.0115V12.0117V12.0118V12.0119V12.012V12.0121V12.0122V12.0123V12.0124V12.0125V12.0126V12.0127V12.0128V12.0129V12.013V12.0131V12.0132V12.0133V12.0134V12.0135V12.0136V12.0137V12.0138V12.0139V12.014V12.0141V12.0142V12.0144V12.0145V12.0146V12.0147V12.0148V12.0149V12.015V12.0151V12.0152V12.0153V12.0154V12.0155V12.0156V12.0157V12.0158V12.0159V12.016V12.0161V12.0162V12.0163V12.0164V12.0165V12.0166V12.0167V12.0169V12.017V12.0171V12.0172V12.0173V12.0174V12.0175V12.0176V12.0177V12.0178V12.0179V12.018V12.0181V12.0182V12.0183V12.0184V12.0185V12.0186V12.0188V12.0189V12.019V12.0191V12.0192V12.0193V12.0194V12.0195V12.0196V12.0197V12.0198V12.0199V12.0201V12.0202V12.0203V12.0204V12.0205V12.0206V12.0207V12.0208V12.0209V12.021V12.0212V12.0213V12.0214V12.0215V12.0216V12.0217V12.0218V12.0219V12.022V12.0222V12.0223V12.0224V12.0225V12.0226V12.0227V12.0228V12.023V12.0231V12.0232V12.0233V12.0234V12.0235V12.0237V12.0238V12.0239V12.024V12.0241V12.0242V12.0244V12.0245V12.0246V12.0247V12.0248V12.025V12.0251V12.0252V12.0253V12.0254V12.0256V12.0257V12.0258V12.0259V12.026V12.0262V12.0263V12.0264V12.0265V12.0267V12.0268V12.0269V12.027V12.0272V12.0273V12.0274V12.0275V12.0277V12.0278V12.0279V12.0281V12.0282V12.0283V12.0284V12.0286V12.0287V12.0288V12.029V12.0291V12.0292V12.0294V12.0295V12.0296V12.0298V12.0299V12.03V12.0302V12.0303V12.0304V12.0306V12.0307V12.0309V12.031V12.0311V12.0313V12.0314V12.0315V12.0317V12.0318V12.032V12.0321V12.0323V12.0324V12.0325V12.0327V12.0328V12.033V12.0331V12.0333V12.0334V12.0336V12.0337V12.0339V12.034V12.0342V12.0343V12.0345V12.0346V12.0348V12.0349V12.0351V12.0352V12.0354V12.0355V12.0357V12.0358V12.036V12.0361V12.0363V12.0365V12.0366V12.0368V12.0369V12.0371V12.0373V12.0374V12.0376V12.0377V12.0379V12.0381V12.0382V12.0384V12.0386V12.0387V12.0389V12.0391V12.0392V12.0394V12.0396V12.0397V12.0399V12.0401V12.0402V12.0404V12.0406V12.0408V12.0409V12.0411V12.0413V12.0415V12.0416V12.0418V12.042V12.0422V12.0424V12.0425V12.0427V12.0429V12.0431V12.0433V12.0435V12.0436V12.0438V12.044V12.0442V12.0444V12.0446V12.0448V12.045V12.0451V12.0453V12.0455V12.0457V12.0459V12.0461V12.0463V12.0465V12.0467V12.0469V12.0471V12.0473V12.0475V12.0477V12.0479V12.0481V12.0483V12.0485V12.0487V12.0489V12.0491V12.0493V16.7474C18.9076 17.182 18.5532 17.5364 18.1186 17.5673H2.77761C2.34298 17.5364 1.98857 17.182 1.95772 16.7474V12.0708C2.0106 11.722 1.72055 11.4997 1.47366 11.4503L1.44939 11.4455H1.42463H1.42443H1.42422H1.42402H1.42381H1.42361H1.4234H1.4232H1.423H1.4228H1.4226H1.4224H1.4222H1.42201H1.42181H1.42161H1.42142H1.42122H1.42103H1.42084H1.42065H1.42045H1.42026H1.42007H1.41988H1.4197H1.41951H1.41932H1.41913H1.41895H1.41876H1.41858H1.4184H1.41821H1.41803H1.41785H1.41767H1.41749H1.41731H1.41713H1.41695H1.41678H1.4166H1.41643H1.41625H1.41608H1.4159H1.41573H1.41556H1.41538H1.41521H1.41504H1.41487H1.4147H1.41454H1.41437H1.4142H1.41403H1.41387H1.4137H1.41354H1.41337H1.41321H1.41305H1.41288H1.41272H1.41256H1.4124H1.41224H1.41208H1.41192H1.41177H1.41161H1.41145H1.41129H1.41114H1.41098H1.41083H1.41068H1.41052H1.41037H1.41022H1.41006H1.40991H1.40976H1.40961H1.40946H1.40931H1.40916H1.40902H1.40887H1.40872H1.40858H1.40843H1.40828H1.40814H1.408H1.40785H1.40771H1.40756H1.40742H1.40728H1.40714H1.407H1.40686H1.40672H1.40658H1.40644H1.4063H1.40616H1.40602H1.40589H1.40575H1.40561H1.40548H1.40534H1.40521H1.40507H1.40494H1.40481H1.40467H1.40454H1.40441H1.40428H1.40415H1.40401H1.40388H1.40375H1.40362H1.40349H1.40337H1.40324H1.40311H1.40298H1.40285H1.40273H1.4026H1.40247H1.40235H1.40222H1.4021H1.40197H1.40185H1.40172H1.4016H1.40148H1.40135H1.40123H1.40111H1.40099H1.40087H1.40074H1.40062H1.4005H1.40038H1.40026H1.40014H1.40002H1.3999H1.39979H1.39967H1.39955H1.39943H1.39931H1.3992H1.39908H1.39896H1.39885H1.39873H1.39861H1.3985H1.39838H1.39827H1.39815H1.39804H1.39793H1.39781H1.3977H1.39758H1.39747H1.39736H1.39725H1.39713H1.39702H1.39691H1.3968H1.39669H1.39657H1.39646H1.39635H1.39624H1.39613H1.39602H1.39591H1.3958H1.39569H1.39558H1.39547H1.39536H1.39525H1.39515H1.39504H1.39493H1.39482H1.39471H1.39461H1.3945H1.39439H1.39428H1.39418H1.39407H1.39396H1.39385H1.39375H1.39364H1.39353H1.39343H1.39332H1.39322H1.39311H1.393H1.3929H1.39279H1.39269H1.39258H1.39248H1.39237H1.39227H1.39216H1.39206H1.39195H1.39185H1.39174H1.39164H1.39153H1.39143H1.39133H1.39122H1.39112H1.39101H1.39091H1.3908H1.3907H1.3906H1.39049H1.39039H1.39029H1.39018H1.39008H1.38997H1.38987H1.38977H1.38966H1.38956H1.38946H1.38935H1.38925H1.38914H1.38904H1.38894H1.38883H1.38873H1.38863H1.38852H1.38842H1.38831H1.38821H1.38811H1.388H1.3879H1.3878H1.38769H1.38759H1.38748H1.38738H1.38727H1.38717H1.38707H1.38696H1.38686H1.38675H1.38665H1.38654H1.38644H1.38633H1.38623H1.38612H1.38602H1.38591H1.38581H1.3857H1.3856H1.38549H1.38539H1.38528H1.38517H1.38507H1.38496H1.38485H1.38475H1.38464H1.38453H1.38443H1.38432H1.38421H1.38411H1.384H1.38389H1.38378H1.38367H1.38357H1.38346H1.38335H1.38324H1.38313H1.38302H1.38291H1.3828H1.38269H1.38258H1.38247H1.38236H1.38225H1.38214H1.38203H1.38192H1.38181H1.3817H1.38159H1.38147H1.38136H1.38125H1.38114H1.38102H1.38091H1.3808H1.38068H1.38057H1.38046H1.38034H1.38023H1.38011H1.38H1.37988H1.37977H1.37965H1.37953H1.37942H1.3793H1.37918H1.37906H1.37895H1.37883H1.37871H1.37859H1.37847H1.37835H1.37823H1.37811H1.37799H1.37787H1.37775H1.37763H1.37751H1.37739H1.37726H1.37714H1.37702H1.3769H1.37677H1.37665H1.37652H1.3764H1.37627H1.37615H1.37602H1.3759H1.37577H1.37564H1.37552H1.37539H1.37526H1.37513H1.375H1.37487H1.37474H1.37461H1.37448H1.37435H1.37422H1.37409H1.37396H1.37382H1.37369H1.37356H1.37342H1.37329H1.37315H1.37302H1.37288H1.37274H1.37261H1.37247H1.37233H1.3722H1.37206H1.37192H1.37178H1.37164H1.3715H1.37136H1.37122H1.37107H1.37093H1.37079H1.37064H1.3705H1.37036H1.37021H1.37007H1.36992H1.36977H1.36963H1.36948H1.36933H1.36918H1.36903H1.36888H1.36873H1.36858H1.36843H1.36828H1.36813H1.36797H1.36782H1.36767H1.36751H1.36736H1.3672H1.36704H1.36689H1.36673H1.36657H1.36641H1.36625H1.36609H1.36593H1.36577H1.36561H1.36545H1.36529H1.36512H1.36496H1.36479H1.36463H1.36446H1.3643H1.36413H1.36396H1.36379H1.36362H1.36345H1.36328H1.36311H1.36294H1.36277H1.36259H1.36242H1.36225H1.36207H1.36189H1.36172H1.36154H1.36136H1.36118H1.36101H1.36083H1.36065H1.36046H1.36028H1.3601H1.35992H1.35973H1.35955H1.35936H1.35918H1.35899H1.3588H1.35861H1.35842H1.35823H1.35804H1.35785H1.35766H1.35747H1.35727H1.35708H1.35688H1.35669H1.35649H1.35629H1.35609H1.3559H1.3557H1.35549H1.35529H1.35509H1.35489H1.35468H1.35448H1.35427H1.35407H1.35386C1.19089 11.4455 1.03566 11.5009 0.920535 11.616C0.805415 11.7311 0.75 11.8864 0.75 12.0493V16.7557H0.749829L0.750171 16.7649C0.790402 17.8512 1.67382 18.7346 2.76006 18.7748L2.76005 18.775H2.76931H18.1269V18.7752L18.1362 18.7748C19.2224 18.7346 20.1058 17.8512 20.146 16.7649L20.1462 16.7649V16.7557V12.0493C20.1462 11.8864 20.0908 11.7311 19.9757 11.616C19.8662 11.5066 19.7205 11.4511 19.5664 11.4459C19.2162 11.3911 18.9928 11.682 18.9433 11.9295Z" fill="#260D43" stroke="#260D43" stroke-width="0.5"/>
<path d="M5.6085 7.04756L5.62271 7.0369L5.63528 7.02434L9.84409 2.81553V15.1065C9.79121 15.4552 10.0813 15.6776 10.3281 15.7269L10.3524 15.7318H10.3772H10.3774H10.3776H10.3778H10.378H10.3782H10.3784H10.3786H10.3788H10.379H10.3792H10.3794H10.3796H10.3798H10.38H10.3802H10.3804H10.3806H10.3808H10.381H10.3812H10.3814H10.3815H10.3817H10.3819H10.3821H10.3823H10.3825H10.3827H10.3829H10.383H10.3832H10.3834H10.3836H10.3838H10.384H10.3841H10.3843H10.3845H10.3847H10.3849H10.385H10.3852H10.3854H10.3856H10.3857H10.3859H10.3861H10.3863H10.3864H10.3866H10.3868H10.3869H10.3871H10.3873H10.3874H10.3876H10.3878H10.3879H10.3881H10.3883H10.3884H10.3886H10.3888H10.3889H10.3891H10.3892H10.3894H10.3896H10.3897H10.3899H10.39H10.3902H10.3904H10.3905H10.3907H10.3908H10.391H10.3911H10.3913H10.3914H10.3916H10.3917H10.3919H10.392H10.3922H10.3923H10.3925H10.3926H10.3928H10.3929H10.3931H10.3932H10.3934H10.3935H10.3937H10.3938H10.394H10.3941H10.3942H10.3944H10.3945H10.3947H10.3948H10.395H10.3951H10.3952H10.3954H10.3955H10.3956H10.3958H10.3959H10.3961H10.3962H10.3963H10.3965H10.3966H10.3967H10.3969H10.397H10.3971H10.3973H10.3974H10.3975H10.3977H10.3978H10.3979H10.3981H10.3982H10.3983H10.3984H10.3986H10.3987H10.3988H10.399H10.3991H10.3992H10.3993H10.3995H10.3996H10.3997H10.3998H10.4H10.4001H10.4002H10.4003H10.4005H10.4006H10.4007H10.4008H10.4009H10.4011H10.4012H10.4013H10.4014H10.4015H10.4017H10.4018H10.4019H10.402H10.4021H10.4023H10.4024H10.4025H10.4026H10.4027H10.4028H10.403H10.4031H10.4032H10.4033H10.4034H10.4035H10.4037H10.4038H10.4039H10.404H10.4041H10.4042H10.4043H10.4045H10.4046H10.4047H10.4048H10.4049H10.405H10.4051H10.4052H10.4053H10.4055H10.4056H10.4057H10.4058H10.4059H10.406H10.4061H10.4062H10.4063H10.4064H10.4066H10.4067H10.4068H10.4069H10.407H10.4071H10.4072H10.4073H10.4074H10.4075H10.4076H10.4077H10.4078H10.408H10.4081H10.4082H10.4083H10.4084H10.4085H10.4086H10.4087H10.4088H10.4089H10.409H10.4091H10.4092H10.4093H10.4094H10.4095H10.4096H10.4098H10.4099H10.41H10.4101H10.4102H10.4103H10.4104H10.4105H10.4106H10.4107H10.4108H10.4109H10.411H10.4111H10.4112H10.4113H10.4114H10.4115H10.4116H10.4117H10.4118H10.4119H10.412H10.4121H10.4123H10.4124H10.4125H10.4126H10.4127H10.4128H10.4129H10.413H10.4131H10.4132H10.4133H10.4134H10.4135H10.4136H10.4137H10.4138H10.4139H10.414H10.4141H10.4142H10.4143H10.4144H10.4145H10.4146H10.4147H10.4148H10.415H10.4151H10.4152H10.4153H10.4154H10.4155H10.4156H10.4157H10.4158H10.4159H10.416H10.4161H10.4162H10.4163H10.4164H10.4165H10.4166H10.4167H10.4168H10.417H10.4171H10.4172H10.4173H10.4174H10.4175H10.4176H10.4177H10.4178H10.4179H10.418H10.4181H10.4182H10.4184H10.4185H10.4186H10.4187H10.4188H10.4189H10.419H10.4191H10.4192H10.4193H10.4194H10.4196H10.4197H10.4198H10.4199H10.42H10.4201H10.4202H10.4203H10.4204H10.4206H10.4207H10.4208H10.4209H10.421H10.4211H10.4212H10.4214H10.4215H10.4216H10.4217H10.4218H10.4219H10.422H10.4222H10.4223H10.4224H10.4225H10.4226H10.4227H10.4229H10.423H10.4231H10.4232H10.4233H10.4235H10.4236H10.4237H10.4238H10.4239H10.4241H10.4242H10.4243H10.4244H10.4245H10.4247H10.4248H10.4249H10.425H10.4252H10.4253H10.4254H10.4255H10.4257H10.4258H10.4259H10.426H10.4262H10.4263H10.4264H10.4265C10.7752 15.7847 10.9976 15.4946 11.047 15.2477L11.0518 15.2235V15.1987V15.1985V15.1983V15.1981V15.1979V15.1977V15.1975V15.1973V15.1971V15.1969V15.1967V15.1965V15.1963V15.1961V15.1959V15.1957V15.1955V15.1953V15.1951V15.1949V15.1947V15.1945V15.1943V15.1941V15.1939V15.1938V15.1936V15.1934V15.1932V15.193V15.1928V15.1926V15.1925V15.1923V15.1921V15.1919V15.1917V15.1916V15.1914V15.1912V15.191V15.1908V15.1907V15.1905V15.1903V15.1901V15.19V15.1898V15.1896V15.1895V15.1893V15.1891V15.1889V15.1888V15.1886V15.1884V15.1883V15.1881V15.1879V15.1878V15.1876V15.1874V15.1873V15.1871V15.187V15.1868V15.1866V15.1865V15.1863V15.1861V15.186V15.1858V15.1857V15.1855V15.1854V15.1852V15.1851V15.1849V15.1847V15.1846V15.1844V15.1843V15.1841V15.184V15.1838V15.1837V15.1835V15.1834V15.1832V15.1831V15.1829V15.1828V15.1826V15.1825V15.1824V15.1822V15.1821V15.1819V15.1818V15.1816V15.1815V15.1813V15.1812V15.1811V15.1809V15.1808V15.1806V15.1805V15.1804V15.1802V15.1801V15.18V15.1798V15.1797V15.1795V15.1794V15.1793V15.1791V15.179V15.1789V15.1787V15.1786V15.1785V15.1783V15.1782V15.1781V15.1779V15.1778V15.1777V15.1776V15.1774V15.1773V15.1772V15.177V15.1769V15.1768V15.1767V15.1765V15.1764V15.1763V15.1762V15.176V15.1759V15.1758V15.1757V15.1755V15.1754V15.1753V15.1752V15.1751V15.1749V15.1748V15.1747V15.1746V15.1744V15.1743V15.1742V15.1741V15.174V15.1739V15.1737V15.1736V15.1735V15.1734V15.1733V15.1731V15.173V15.1729V15.1728V15.1727V15.1726V15.1724V15.1723V15.1722V15.1721V15.172V15.1719V15.1718V15.1716V15.1715V15.1714V15.1713V15.1712V15.1711V15.171V15.1709V15.1708V15.1706V15.1705V15.1704V15.1703V15.1702V15.1701V15.17V15.1699V15.1698V15.1696V15.1695V15.1694V15.1693V15.1692V15.1691V15.169V15.1689V15.1688V15.1687V15.1686V15.1685V15.1683V15.1682V15.1681V15.168V15.1679V15.1678V15.1677V15.1676V15.1675V15.1674V15.1673V15.1672V15.1671V15.167V15.1669V15.1668V15.1666V15.1665V15.1664V15.1663V15.1662V15.1661V15.166V15.1659V15.1658V15.1657V15.1656V15.1655V15.1654V15.1653V15.1652V15.1651V15.165V15.1649V15.1648V15.1647V15.1646V15.1645V15.1644V15.1642V15.1641V15.164V15.1639V15.1638V15.1637V15.1636V15.1635V15.1634V15.1633V15.1632V15.1631V15.163V15.1629V15.1628V15.1627V15.1626V15.1625V15.1624V15.1623V15.1622V15.1621V15.162V15.1619V15.1618V15.1617V15.1615V15.1614V15.1613V15.1612V15.1611V15.161V15.1609V15.1608V15.1607V15.1606V15.1605V15.1604V15.1603V15.1602V15.1601V15.16V15.1599V15.1598V15.1597V15.1596V15.1595V15.1593V15.1592V15.1591V15.159V15.1589V15.1588V15.1587V15.1586V15.1585V15.1584V15.1583V15.1582V15.1581V15.158V15.1578V15.1577V15.1576V15.1575V15.1574V15.1573V15.1572V15.1571V15.157V15.1569V15.1568V15.1566V15.1565V15.1564V15.1563V15.1562V15.1561V15.156V15.1559V15.1558V15.1557V15.1555V15.1554V15.1553V15.1552V15.1551V15.155V15.1549V15.1547V15.1546V15.1545V15.1544V15.1543V15.1542V15.1541V15.1539V15.1538V15.1537V15.1536V15.1535V15.1534V15.1532V15.1531V15.153V15.1529V15.1528V15.1527V15.1525V15.1524V15.1523V15.1522V15.1521V15.1519V15.1518V15.1517V15.1516V15.1515V15.1513V15.1512V15.1511V15.151V15.1508V15.1507V15.1506V15.1505V15.1503V15.1502V15.1501V15.15V15.1498V15.1497V15.1496V15.1495V15.1493V15.1492V15.1491V15.1489V15.1488V15.1487V15.1485V15.1484V15.1483V15.1482V15.148V15.1479V15.1478V15.1476V15.1475V15.1474V15.1472V15.1471V15.1469V15.1468V15.1467V15.1465V15.1464V15.1463V15.1461V15.146V15.1458V15.1457V15.1456V15.1454V15.1453V15.1451V15.145V15.1449V15.1447V15.1446V15.1444V15.1443V15.1441V15.144V15.1438V15.1437V15.1435V15.1434V15.1432V15.1431V15.1429V15.1428V15.1426V15.1425V15.1423V15.1422V15.142V15.1419V15.1417V15.1416V15.1414V15.1413V15.1411V15.141V15.1408V15.1406V15.1405V15.1403V15.1402V15.14V15.1398V15.1397V15.1395V15.1394V15.1392V15.139V15.1389V15.1387V15.1385V15.1384V15.1382V15.138V15.1379V15.1377V15.1375V15.1373V15.1372V15.137V15.1368V15.1367V15.1365V15.1363V15.1361V15.136V15.1358V15.1356V15.1354V15.1352V15.1351V15.1349V15.1347V15.1345V15.1343V15.1342V15.134V15.1338V15.1336V15.1334V15.1332V15.1331V15.1329V15.1327V15.1325V15.1323V15.1321V15.1319V15.1317V15.1315V15.1313V15.1311V15.1309V15.1308V15.1306V15.1304V15.1302V15.13V15.1298V15.1296V15.1294V15.1292V15.129V15.1287V15.1285V15.1283V15.1281V15.1279V2.81553L15.2606 7.02434L15.2732 7.0369L15.2874 7.04756C15.4232 7.14943 15.5917 7.17284 15.7337 7.15255C15.8757 7.13227 16.0309 7.06261 16.1328 6.92679C16.2101 6.82373 16.2624 6.70162 16.2624 6.56448C16.2624 6.42733 16.2101 6.30522 16.1328 6.20216L16.1224 6.18828L16.1102 6.17598L10.873 0.903438L10.8602 0.890533L10.8457 0.879619C10.6152 0.706794 10.2807 0.706794 10.0502 0.879619L10.0357 0.890533L10.0229 0.903438L4.78572 6.17598L4.7735 6.18828L4.76309 6.20216C4.66123 6.33798 4.63782 6.50648 4.6581 6.64849C4.67839 6.7905 4.74805 6.9457 4.88386 7.04756C4.98693 7.12486 5.10903 7.17718 5.24618 7.17718C5.38333 7.17718 5.50543 7.12486 5.6085 7.04756Z" fill="#260D43" stroke="#260D43" stroke-width="0.5"/>
</svg>
