<svg width="135" height="40" viewBox="0 0 135 40" fill="none" xmlns="http://www.w3.org/2000/svg">
<path d="M9.42998 39.1281C9.08566 39.1281 8.74966 39.1242 8.40804 39.1174C7.70034 39.1093 6.9943 39.0547 6.29571 38.9543C5.6443 38.855 5.01327 38.6703 4.42342 38.4063C3.83897 38.1444 3.30591 37.8011 2.84466 37.3895C2.37673 36.9826 1.98715 36.5108 1.69137 35.9927C1.39233 35.4711 1.18538 34.9121 1.07772 34.3351C0.961463 33.7151 0.898562 33.0882 0.889561 32.4597C0.882396 32.2488 0.873016 31.5464 0.873016 31.5464V8.44104C0.873016 8.44104 0.883007 7.74949 0.889618 7.54631C0.898236 6.91886 0.960772 6.2929 1.07668 5.67385C1.18454 5.09525 1.39165 4.53463 1.69085 4.0114C1.98554 3.49361 2.37296 3.02143 2.83807 2.61316C3.30266 2.20102 3.83742 1.85593 4.42286 1.59048C5.01136 1.32731 5.6412 1.14391 6.29129 1.04642C6.99218 0.944969 7.70067 0.890117 8.41082 0.88233L9.43053 0.870117H125.57L126.602 0.88282C127.306 0.890221 128.008 0.944583 128.702 1.04544C129.359 1.14415 129.995 1.32883 130.59 1.59341C131.763 2.12837 132.718 2.97472 133.32 4.01384C133.614 4.53346 133.818 5.08951 133.924 5.66311C134.042 6.28724 134.107 6.91812 134.121 7.55071C134.124 7.83397 134.124 8.13824 134.124 8.44104C134.133 8.81612 134.133 9.17312 134.133 9.53306V30.4661C134.133 30.8295 134.133 31.1841 134.124 31.5415C134.124 31.8668 134.124 32.1648 134.12 32.4714C134.106 33.0927 134.042 33.7123 133.927 34.3253C133.821 34.9065 133.615 35.4699 133.316 35.9957C133.018 36.5082 132.631 36.9759 132.169 37.3817C131.707 37.7955 131.173 38.1409 130.587 38.4044C129.993 38.6704 129.358 38.8558 128.702 38.9543C128.004 39.0553 127.297 39.1098 126.59 39.1174C126.259 39.1242 125.912 39.1281 125.576 39.1281L124.35 39.1301L9.42998 39.1281Z" fill="black"/>
</svg>
